<svg width="256" height="256" viewBox="0 0 256 256" fill="none" xmlns="http://www.w3.org/2000/svg">
<path fill-rule="evenodd" clip-rule="evenodd" d="M30 0C13.4315 0 0 13.4315 0 30V226C0 242.569 13.4315 256 30 256H226C242.569 256 256 242.569 256 226V30C256 13.4315 242.569 0 226 0H30ZM188 122.618C188 157.003 155.023 177.579 135.237 184.174C115.452 190.769 77.5674 194.094 67.0862 181.976C67.0862 181.976 93.4674 184.174 93.4674 164.388C93.4674 155.876 90.8699 149.574 88.152 142.98C84.5522 134.245 80.7412 124.999 82.4752 109.427C85.5185 82.0993 108.856 65.4587 135.237 65.4587C161.618 65.4587 188 88.2331 188 122.618ZM168.764 111.626C168.764 117.697 163.842 122.618 157.772 122.618C151.701 122.618 146.779 117.697 146.779 111.626C146.779 105.555 151.701 100.634 157.772 100.634C163.842 100.634 168.764 105.555 168.764 111.626ZM138.535 114.374C138.535 118.927 134.844 122.618 130.291 122.618C125.738 122.618 122.047 118.927 122.047 114.374C122.047 109.821 125.738 106.13 130.291 106.13C134.844 106.13 138.535 109.821 138.535 114.374Z" fill="white"/>
</svg>
