<svg width="24" height="24" viewBox="0 0 256 256" fill="none" xmlns="http://www.w3.org/2000/svg">
<path fill-rule="evenodd" clip-rule="evenodd" d="M128 0C57.3076 0 0 57.3076 0 128C0 198.692 57.3076 256 128 256C198.692 256 256 198.692 256 128C256 57.3076 198.692 0 128 0ZM79.5 84.4444C79.5 81.7137 81.7137 79.5 84.4444 79.5H171.556C174.286 79.5 176.5 81.7137 176.5 84.4444V101.833H109.333H79.5V84.4444ZM191.5 84.4444V109.333V171.556C191.5 182.571 182.571 191.5 171.556 191.5H109.333H84.4444C73.4294 191.5 64.5 182.571 64.5 171.556V109.333V84.4444C64.5 73.4294 73.4294 64.5 84.4444 64.5H171.556C182.571 64.5 191.5 73.4294 191.5 84.4444ZM116.833 116.833H176.5V171.556C176.5 174.286 174.286 176.5 171.556 176.5H116.833V116.833ZM101.833 116.833V176.5H84.4444C81.7137 176.5 79.5 174.286 79.5 171.556V116.833H101.833Z" fill="#a0a5aa"/>
</svg>
