<svg width="24" height="24" viewBox="0 0 24 24" fill="none" xmlns="http://www.w3.org/2000/svg">
<path d="M10.2486 5.75H5.75C5.04993 5.75 4.6999 5.75 4.43251 5.88624C4.19731 6.00608 4.00608 6.19731 3.88624 6.43251C3.75 6.6999 3.75 7.04993 3.75 7.75V15.25C3.75 15.9501 3.75 16.3001 3.88624 16.5675C4.00608 16.8027 4.19731 16.9939 4.43251 17.1138C4.6999 17.25 5.04993 17.25 5.75 17.25H6.25M18.25 13.2535V15.25C18.25 15.9501 18.25 16.3001 18.1138 16.5675C17.9939 16.8027 17.8027 16.9939 17.5675 17.1138C17.3001 17.25 16.9501 17.25 16.25 17.25H10.5" fill="transparent" stroke="currentColor" stroke-width="1.5" stroke-linecap="square"/>
<path d="M6.25 17.25V20.2506L9.75 17.25" fill="transparent" stroke="currentColor" stroke-width="1.5" stroke-linecap="round" stroke-linejoin="round"/>
<path d="M7.35 13.25H7.36" fill="transparent" stroke="currentColor" stroke-width="1.75" stroke-linecap="round" stroke-linejoin="round"/>
<path d="M10.95 13.25H10.96" fill="transparent" stroke="currentColor" stroke-width="1.75" stroke-linecap="round" stroke-linejoin="round"/>
<path d="M14.55 13.25H14.56" fill="transparent" stroke="currentColor" stroke-width="1.75" stroke-linecap="round" stroke-linejoin="round"/>
<path d="M17 2.65L18.236 5.20074L21 5.61228L19 7.59664L19.472 10.4L17 9.07574L14.528 10.4L15 7.59664L13 5.61228L15.764 5.20074L17 2.65Z" fill="transparent" stroke="currentColor" stroke-width="1.25" stroke-linecap="round" stroke-linejoin="round"/>
</svg>
