<svg width="24" height="24" viewBox="0 0 24 24" fill="none" xmlns="http://www.w3.org/2000/svg">
  <path
    d="M12 4L12.3354 3.32918C12.1243 3.22361 11.8757 3.22361 11.6646 3.32918L12 4ZM4 8L3.66459 7.32918C3.4105 7.45622 3.25 7.71592 3.25 8C3.25 8.28408 3.4105 8.54378 3.66459 8.67082L4 8ZM12 12L11.6646 12.6708C11.8757 12.7764 12.1243 12.7764 12.3354 12.6708L12 12ZM20 8L20.3354 8.67082C20.5895 8.54378 20.75 8.28408 20.75 8C20.75 7.71592 20.5895 7.45622 20.3354 7.32918L20 8ZM4.33541 15.3292C3.96493 15.1439 3.51442 15.2941 3.32918 15.6646C3.14394 16.0351 3.29411 16.4856 3.66459 16.6708L4.33541 15.3292ZM12 20L11.6646 20.6708C11.8757 20.7764 12.1243 20.7764 12.3354 20.6708L12 20ZM20.3354 16.6708C20.7059 16.4856 20.8561 16.0351 20.6708 15.6646C20.4856 15.2941 20.0351 15.1439 19.6646 15.3292L20.3354 16.6708ZM4.33541 11.3292C3.96493 11.1439 3.51442 11.2941 3.32918 11.6646C3.14394 12.0351 3.29411 12.4856 3.66459 12.6708L4.33541 11.3292ZM12 16L11.6646 16.6708C11.8757 16.7764 12.1243 16.7764 12.3354 16.6708L12 16ZM20.3354 12.6708C20.7059 12.4856 20.8561 12.0351 20.6708 11.6646C20.4856 11.2941 20.0351 11.1439 19.6646 11.3292L20.3354 12.6708ZM11.6646 3.32918L3.66459 7.32918L4.33541 8.67082L12.3354 4.67082L11.6646 3.32918ZM3.66459 8.67082L11.6646 12.6708L12.3354 11.3292L4.33541 7.32918L3.66459 8.67082ZM12.3354 12.6708L20.3354 8.67082L19.6646 7.32918L11.6646 11.3292L12.3354 12.6708ZM20.3354 7.32918L12.3354 3.32918L11.6646 4.67082L19.6646 8.67082L20.3354 7.32918ZM3.66459 16.6708L11.6646 20.6708L12.3354 19.3292L4.33541 15.3292L3.66459 16.6708ZM12.3354 20.6708L20.3354 16.6708L19.6646 15.3292L11.6646 19.3292L12.3354 20.6708ZM3.66459 12.6708L11.6646 16.6708L12.3354 15.3292L4.33541 11.3292L3.66459 12.6708ZM12.3354 16.6708L20.3354 12.6708L19.6646 11.3292L11.6646 15.3292L12.3354 16.6708Z"
    fill="currentColor" />
</svg>
