<svg width="24" height="24" viewBox="0 0 24 24" fill="none" xmlns="http://www.w3.org/2000/svg">
<path d="M11.25 19.25H4.25C3.42157 19.25 2.75 18.5784 2.75 17.75V6.25C2.75 5.42157 3.42157 4.75 4.25 4.75L11.25 4.75" fill="transparent" stroke="currentColor" stroke-width="1.5" stroke-linecap="square" stroke-linejoin="round"/>
<path d="M11 16.25L7 12.25L3 16.25" fill="transparent" stroke="currentColor" stroke-width="1.5" stroke-linecap="round"/>
<path d="M11.25 2.75V21.25" fill="transparent" stroke="currentColor" stroke-width="1.5" stroke-linecap="square" stroke-linejoin="round"/>
<path d="M14.75 4.75H18.75C19.5784 4.75 20.25 5.42157 20.25 6.25V17.75C20.25 18.5784 19.5784 19.25 18.75 19.25H14.75" fill="transparent" stroke="currentColor" stroke-width="1.5" stroke-linecap="square" stroke-linejoin="round"/>
<path fill-rule="evenodd" clip-rule="evenodd" d="M17.2197 8.46966L17.75 7.93933L18.2803 8.46966L20.7803 10.9697L19.7197 12.0303L17.75 10.0607L14.2803 13.5303L14 13.8107V11.6893L17.2197 8.46966Z" fill="currentColor"/>
</svg>
