<svg width="24" height="24" viewBox="0 0 24 24" fill="none" xmlns="http://www.w3.org/2000/svg">
  <path fill-rule="evenodd" clip-rule="evenodd" d="M9.75 3C9.75 2.58579 10.0858 2.25 10.5 2.25H13.5C13.9142 2.25 14.25 2.58579 14.25 3C14.25 3.41421 13.9142 3.75 13.5 3.75H12.75V5.28582C14.3273 5.43729 15.7665 6.06153 16.9242 7.01516L17.9697 5.96967C18.2626 5.67678 18.7374 5.67678 19.0303 5.96967C19.3232 6.26256 19.3232 6.73744 19.0303 7.03033L17.9848 8.07582C19.0877 9.41467 19.75 11.13 19.75 13C19.75 17.2802 16.2802 20.75 12 20.75C7.71979 20.75 4.25 17.2802 4.25 13C4.25 8.97281 7.3217 5.66305 11.25 5.28582V3.75H10.5C10.0858 3.75 9.75 3.41421 9.75 3ZM12 6.75C8.54822 6.75 5.75 9.54822 5.75 13C5.75 16.4518 8.54822 19.25 12 19.25C15.4518 19.25 18.25 16.4518 18.25 13C18.25 9.54822 15.4518 6.75 12 6.75ZM12 8.05C12.4142 8.05 12.75 8.38579 12.75 8.8V13C12.75 13.4142 12.4142 13.75 12 13.75C11.5858 13.75 11.25 13.4142 11.25 13V8.8C11.25 8.38579 11.5858 8.05 12 8.05Z" fill="currentColor"/>
</svg>
