<svg width="24" height="24" viewBox="0 0 24 24" fill="none" xmlns="http://www.w3.org/2000/svg">
  <path fill-rule="evenodd" clip-rule="evenodd" d="M17.25 8.25V12.6893L18 11.9393L19.0607 13L17.0303 15.0303C16.7374 15.3232 16.2626 15.3232 15.9697 15.0303L13.9393 13L15 11.9393L15.75 12.6893V8.25H17.25Z" fill="currentColor"/>
  <path fill-rule="evenodd" clip-rule="evenodd" d="M4.25 5.75C3.97386 5.75 3.75 5.97386 3.75 6.25V17.75C3.75 18.0261 3.97386 18.25 4.25 18.25H19.75C20.0261 18.25 20.25 18.0261 20.25 17.75V6.25C20.25 5.97386 20.0261 5.75 19.75 5.75H4.25ZM2.25 6.25C2.25 5.14543 3.14543 4.25 4.25 4.25H19.75C20.8546 4.25 21.75 5.14543 21.75 6.25V17.75C21.75 18.8546 20.8546 19.75 19.75 19.75H4.25C3.14543 19.75 2.25 18.8546 2.25 17.75V6.25Z" fill="currentColor"/>
  <path fill-rule="evenodd" clip-rule="evenodd" d="M6.24468 8.2948C6.54159 8.1873 6.87402 8.27728 7.07617 8.51986L9 10.8285L10.9238 8.51986C11.126 8.27728 11.4584 8.1873 11.7553 8.2948C12.0522 8.40229 12.25 8.68424 12.25 9V15.25H10.75V11.0715L9.57617 12.4801C9.43367 12.6511 9.22258 12.75 9 12.75C8.77742 12.75 8.56633 12.6511 8.42383 12.4801L7.25 11.0715V15.25H5.75V9C5.75 8.68424 5.94778 8.40229 6.24468 8.2948Z" fill="currentColor"/>
</svg>
