<svg width="24" height="24" viewBox="0 0 24 24" fill="none" xmlns="http://www.w3.org/2000/svg">
<path fill-rule="evenodd" clip-rule="evenodd" d="M13.125 2.33036C13.125 1.65471 13.6791 1.125 14.3403 1.125H21.6597C22.3209 1.125 22.875 1.65471 22.875 2.33036V2.93722C22.8752 2.94538 22.8752 2.95354 22.875 2.96168V7.66964C22.875 8.34529 22.3209 8.875 21.6597 8.875H14.3403C13.6791 8.875 13.125 8.34529 13.125 7.66964V2.96169C13.1248 2.95354 13.1248 2.94538 13.125 2.93722V2.33036ZM14.375 3.99889V7.625H21.625V3.99889L18.7734 5.5421C18.2909 5.80324 17.7091 5.80324 17.2266 5.5421L14.375 3.99889ZM21.625 2.57758L18.1785 4.44276C18.0671 4.50302 17.9329 4.50302 17.8215 4.44276L14.375 2.57758V2.375H21.625V2.57758ZM7.50001 11.0029H6.00001V9.50291H8.25001H9.00001V10.2529V17H7.50001V11.0029ZM14.5 11.0029H11V9.50292H14.75C15.4404 9.50292 16 10.0626 16 10.7529V12.75C16 13.4404 15.4404 14 14.75 14H12.5061V15.5H16V17H11.7561H11.0061V16.25V13.75C11.0061 13.0596 11.5658 12.5 12.2561 12.5H14.5V11.0029ZM4.5 7.25C4.5 6.83579 4.83579 6.5 5.25 6.5H10.749H11.499V5H10.749H5.25C4.00736 5 3 6.00736 3 7.25V18.75C3 19.9926 4.00736 21 5.25 21H16.75C17.9926 21 19 19.9926 19 18.75V11.254V10.504H17.5V11.254V18.75C17.5 19.1642 17.1642 19.5 16.75 19.5H5.25C4.83579 19.5 4.5 19.1642 4.5 18.75V7.25Z" fill="currentColor"/>
</svg>
