<svg width="24" height="24" viewBox="0 0 24 24" fill="none" xmlns="http://www.w3.org/2000/svg">
<path fill-rule="evenodd" clip-rule="evenodd" d="M4.5 4.5H9C9.82843 4.5 10.5 5.17157 10.5 6V7.5H18.75C19.9926 7.5 21 8.50736 21 9.75V17.75C21 18.9926 19.9926 20 18.75 20H5.25C4.00736 20 3 18.9926 3 17.75V10V9.75V6C3 5.17157 3.67157 4.5 4.5 4.5ZM5.25 9C4.83579 9 4.5 9.33579 4.5 9.75V17.75C4.5 18.1642 4.83579 18.5 5.25 18.5H18.75C19.1642 18.5 19.5 18.1642 19.5 17.75V9.75C19.5 9.33579 19.1642 9 18.75 9H10.5H7.75458H5.25Z" fill="currentColor"/>
</svg>
