<svg width="24" height="24" viewBox="0 0 24 24" fill="none" xmlns="http://www.w3.org/2000/svg">
<path d="M7 8.75H10.75C11.0261 8.75 11.25 8.97386 11.25 9.25V11.75C11.25 12.0261 11.0261 12.25 10.75 12.25H8.25C7.97386 12.25 7.75 12.4739 7.75 12.75V15.25H12" fill="transparent" stroke="currentColor" stroke-width="1.5"/>
<path d="M15.75 9.5L15.75 15.25" fill="transparent" stroke="currentColor" stroke-width="1.5" stroke-linecap="square" stroke-linejoin="round"/>
<path d="M17.5 10.5L15.75 8.75L14 10.5" fill="transparent" stroke="currentColor" stroke-width="1.5" stroke-linecap="square" stroke-linejoin="round"/>
<path d="M5.25 20.25H18.75C19.5784 20.25 20.25 19.5784 20.25 18.75V5.25C20.25 4.42157 19.5784 3.75 18.75 3.75H5.25C4.42157 3.75 3.75 4.42157 3.75 5.25V18.75C3.75 19.5784 4.42157 20.25 5.25 20.25Z" fill="transparent" stroke="currentColor" stroke-width="1.5" stroke-linecap="round" stroke-linejoin="round"/>
</svg>
