<svg width="24" height="24" viewBox="0 0 24 24" fill="none" xmlns="http://www.w3.org/2000/svg">
<path d="M6 10.2529H8.25V17M11 10.2529H14.75C15.0261 10.2529 15.25 10.4768 15.25 10.7529V12.75C15.25 13.0261 15.0261 13.25 14.75 13.25H12.2561C11.98 13.25 11.7561 13.4739 11.7561 13.75V16.25H16" fill="transparent" stroke="currentColor" stroke-width="1.5"/>
<path d="M22.25 2.95L18.4759 4.99243C18.179 5.15313 17.821 5.15313 17.5241 4.99243L13.75 2.95M14.3403 8.25H21.6597C21.9857 8.25 22.25 7.99017 22.25 7.66964V2.33036C22.25 2.00983 21.9857 1.75 21.6597 1.75H14.3403C14.0143 1.75 13.75 2.00983 13.75 2.33036V7.66964C13.75 7.99017 14.0143 8.25 14.3403 8.25Z" fill="transparent" stroke="currentColor" stroke-width="1.25" stroke-linecap="round" stroke-linejoin="round"/>
<path d="M18.25 11.254V18.75C18.25 19.5784 17.5784 20.25 16.75 20.25H5.25C4.42157 20.25 3.75 19.5784 3.75 18.75V7.25C3.75 6.42157 4.42157 5.75 5.25 5.75H10.749" fill="transparent" stroke="currentColor" stroke-width="1.5" stroke-linecap="square" stroke-linejoin="round"/>
</svg>
