<svg width="24" height="24" viewBox="0 0 24 24" fill="none" xmlns="http://www.w3.org/2000/svg">
  <path fill-rule="evenodd" clip-rule="evenodd" d="M5.25 4.75C4.97386 4.75 4.75 4.97386 4.75 5.25V18.75C4.75 19.0261 4.97386 19.25 5.25 19.25H18.75C19.0261 19.25 19.25 19.0261 19.25 18.75V5.25C19.25 4.97386 19.0261 4.75 18.75 4.75H5.25ZM3.25 5.25C3.25 4.14543 4.14543 3.25 5.25 3.25H18.75C19.8546 3.25 20.75 4.14543 20.75 5.25V18.75C20.75 19.8546 19.8546 20.75 18.75 20.75H5.25C4.14543 20.75 3.25 19.8546 3.25 18.75V5.25ZM12.6166 9.24067C13.2674 8.01569 14.5412 7.25 15.9283 7.25H16.75V8.75H15.9283C15.0961 8.75 14.3318 9.20942 13.9413 9.9444L11.3834 14.7593C10.7326 15.9843 9.45879 16.75 8.07169 16.75H7.25V15.25H8.07169C8.90395 15.25 9.66824 14.7906 10.0587 14.0556L12.6166 9.24067Z" fill="currentColor"/>
</svg>
