<svg width="24" height="24" viewBox="0 0 24 24" fill="none" xmlns="http://www.w3.org/2000/svg">
  <path fill-rule="evenodd" clip-rule="evenodd" d="M13.375 1.625C13.375 0.934644 13.9346 0.375 14.625 0.375H22.375C23.0654 0.375 23.625 0.934644 23.625 1.625V1.99031C23.6251 1.99639 23.6251 2.00247 23.625 2.00855V7.375C23.625 8.06536 23.0654 8.625 22.375 8.625H14.625C13.9346 8.625 13.375 8.06536 13.375 7.375V2.00855C13.3749 2.00247 13.3749 1.99639 13.375 1.99031V1.625ZM14.625 3.16782V7.375H22.375V3.16782L18.8467 5.52003C18.6368 5.65999 18.3633 5.65999 18.1533 5.52003L14.625 3.16782ZM22.375 1.66551V1.625L14.625 1.625V1.66551L18.5 4.24884L22.375 1.66551Z" fill="currentColor"/>
  <path fill-rule="evenodd" clip-rule="evenodd" d="M3.50001 4.43934L7.01635 7.95568L7.09091 7.89874L7.51572 8.45506L9.57294 10.5123L9.59197 10.4945L10.0942 11.0336L12.9664 13.9057L13.5055 14.408L13.4877 14.4271L15.1167 16.0561L15.1918 15.9989L15.616 16.5553L19.5607 20.5L18.5 21.5607L14.9629 18.0235C13.7833 18.7707 12.4169 19.1815 11.0123 19.2044L11 19.2046C8.31401 19.2046 6.2545 17.6711 4.91308 16.2402C4.23553 15.5175 3.71846 14.7977 3.37069 14.2592C3.19634 13.9892 3.06331 13.7629 2.97283 13.6021C2.92757 13.5216 2.89287 13.4574 2.86889 13.412C2.8569 13.3894 2.84759 13.3714 2.84096 13.3586L2.83305 13.3431L2.83061 13.3382L2.82977 13.3366C2.82977 13.3366 2.82919 13.3354 3.50001 13L2.82919 13.3354C2.7202 13.1174 2.72391 12.8601 2.83914 12.6454C3.60298 11.2219 4.61806 9.95124 5.83304 8.89369L2.43935 5.5L3.50001 4.43934ZM6.89656 9.95722C5.88554 10.8217 5.02708 11.851 4.35787 13.0021C4.4291 13.124 4.52023 13.2743 4.63075 13.4454C4.94349 13.9296 5.40653 14.5734 6.00739 15.2143C7.2216 16.5095 8.91 17.7022 10.9939 17.7045C12.0059 17.687 12.993 17.4187 13.869 16.9297L12.3874 15.448C12.2906 15.5061 12.1902 15.5584 12.0867 15.6045C11.7438 15.7573 11.3736 15.8394 10.9983 15.846C10.623 15.8527 10.2501 15.7836 9.90203 15.643C9.55395 15.5024 9.23775 15.2932 8.9723 15.0277C8.70685 14.7623 8.49758 14.4461 8.35698 14.098C8.21639 13.7499 8.14734 13.3771 8.15396 13.0017C8.16059 12.6264 8.24274 12.2562 8.39553 11.9133C8.44165 11.8098 8.49392 11.7094 8.55198 11.6126L6.89656 9.95722ZM9.68906 12.7497C9.66729 12.8408 9.65539 12.9341 9.65373 13.0282C9.65066 13.2021 9.68266 13.3749 9.74781 13.5362C9.81297 13.6975 9.90995 13.844 10.033 13.967C10.156 14.0901 10.3025 14.187 10.4638 14.2522C10.6251 14.3173 10.7979 14.3493 10.9718 14.3463C11.0659 14.3446 11.1593 14.3327 11.2503 14.3109L9.68906 12.7497ZM10.9982 8.29545C10.5744 8.29446 10.1518 8.34275 9.73912 8.43935L9.00886 8.61029L8.66699 7.14976L9.39725 6.97883C9.92318 6.85572 10.4616 6.79419 11.0018 6.79546L11.7518 6.79722L11.7482 8.29721L10.9982 8.29545ZM17.2438 9.89961L17.7164 10.482C18.1882 11.0634 18.5483 11.6025 18.7913 11.9977C18.913 12.1957 19.0059 12.3584 19.0693 12.4736C19.101 12.5311 19.1254 12.5769 19.1423 12.6092L19.1622 12.6475L19.1679 12.6588L19.1697 12.6624L19.1704 12.6637C19.1704 12.6637 19.1708 12.6646 18.5 13L19.1708 12.6646C19.2796 12.8822 19.2761 13.139 19.1614 13.3536C18.723 14.1739 18.2 14.9462 17.6011 15.6579L17.1183 16.2317L15.9705 15.266L16.4534 14.6921C16.8985 14.1631 17.2964 13.5964 17.6426 12.9986C17.6051 12.9344 17.562 12.8623 17.5135 12.7834C17.2971 12.4314 16.9741 11.9478 16.5516 11.4272L16.0791 10.8448L17.2438 9.89961Z" fill="currentColor"/>
</svg>
