<svg width="24" height="24" viewBox="0 0 24 24" fill="none" xmlns="http://www.w3.org/2000/svg">
  <path fill-rule="evenodd" clip-rule="evenodd" d="M13.375 1.625C13.375 0.934644 13.9347 0.375 14.625 0.375H22.375C23.0654 0.375 23.625 0.934644 23.625 1.625V1.99031C23.6251 1.99639 23.6251 2.00247 23.625 2.00855V7.375C23.625 8.06536 23.0654 8.625 22.375 8.625H14.625C13.9347 8.625 13.375 8.06536 13.375 7.375V2.00855C13.3749 2.00247 13.3749 1.99639 13.375 1.99031V1.625ZM14.625 3.16782V7.375H22.375V3.16782L18.8467 5.52003C18.6368 5.65999 18.3633 5.65999 18.1533 5.52003L14.625 3.16782ZM22.375 1.66551V1.625L14.625 1.625V1.66551L18.5 4.24884L22.375 1.66551Z" fill="currentColor"/>
  <path fill-rule="evenodd" clip-rule="evenodd" d="M10.5 6.47727C8.76784 6.47727 7.36364 7.88147 7.36364 9.61364C7.36364 11.3458 8.76784 12.75 10.5 12.75C11.6787 12.75 12.7067 12.1001 13.2432 11.1354L13.6078 10.48L14.9187 11.2091L14.5541 11.8646C13.7636 13.2857 12.2449 14.25 10.5 14.25C7.93941 14.25 5.86364 12.1742 5.86364 9.61364C5.86364 7.05304 7.93941 4.97727 10.5 4.97727H11.25V6.47727H10.5Z" fill="currentColor"/>
  <path fill-rule="evenodd" clip-rule="evenodd" d="M6.39383 16.6364H14.6062C15.0015 16.6363 15.3426 16.6363 15.6236 16.6593C15.9201 16.6835 16.215 16.737 16.4988 16.8816C16.9221 17.0973 17.2663 17.4415 17.482 17.8649C17.6266 18.1487 17.6801 18.4436 17.7044 18.7401C17.7273 19.021 17.7273 19.3621 17.7273 19.7575V21.5943C17.7273 22.0085 17.3915 22.3443 16.9773 22.3443C16.5631 22.3443 16.2273 22.0085 16.2273 21.5943V19.7864C16.2273 19.3539 16.2267 19.0747 16.2093 18.8622C16.1927 18.6585 16.1644 18.583 16.1455 18.5459C16.0736 18.4047 15.9589 18.29 15.8178 18.2181C15.7807 18.1992 15.7052 18.171 15.5014 18.1543C15.2889 18.1369 15.0097 18.1364 14.5773 18.1364H6.42274C5.99032 18.1364 5.71112 18.1369 5.49861 18.1543C5.29487 18.171 5.21933 18.1992 5.18224 18.2181C5.04112 18.29 4.92639 18.4047 4.85448 18.5459C4.83559 18.583 4.80733 18.6585 4.79068 18.8622C4.77332 19.0747 4.77274 19.3539 4.77274 19.7864V21.5943C4.77274 22.0085 4.43695 22.3443 4.02274 22.3443C3.60852 22.3443 3.27274 22.0085 3.27274 21.5943L3.27274 19.7575C3.27272 19.3621 3.27271 19.021 3.29566 18.7401C3.31989 18.4436 3.37338 18.1487 3.51797 17.8649C3.73369 17.4415 4.07789 17.0973 4.50126 16.8816C4.78504 16.737 5.07996 16.6835 5.37647 16.6593C5.65739 16.6363 5.99847 16.6363 6.39383 16.6364Z" fill="currentColor"/>
</svg>
