<svg width="24" height="24" viewBox="0 0 24 24" fill="none" xmlns="http://www.w3.org/2000/svg">
<path d="M13.726 9.25H17.85C18.6901 9.25 19.1101 9.25 19.431 9.41349C19.7132 9.5573 19.9427 9.78677 20.0865 10.069C20.25 10.3899 20.25 10.8099 20.25 11.65V12.35C20.25 13.1901 20.25 13.6101 20.0865 13.931C19.9427 14.2132 19.7132 14.4427 19.431 14.5865C19.1101 14.75 18.6901 14.75 17.85 14.75H13.726M13.726 9.25H6.15C5.30992 9.25 4.88988 9.25 4.56901 9.41349C4.28677 9.5573 4.0573 9.78677 3.91349 10.069C3.75 10.3899 3.75 10.8099 3.75 11.65V12.35C3.75 13.1901 3.75 13.6101 3.91349 13.931C4.0573 14.2132 4.28677 14.4427 4.56901 14.5865C4.88988 14.75 5.30992 14.75 6.15 14.75H13.726M13.726 9.25V14.75" fill="transparent" stroke="currentColor" stroke-width="1.5" stroke-linecap="round"/>
</svg>
