<svg width="24" height="24" viewBox="0 0 24 24" fill="none" xmlns="http://www.w3.org/2000/svg">
<path d="M13.6964 8.04033C13.6964 8.95167 12.9369 9.69045 12 9.69045C11.0631 9.69045 10.3036 8.95167 10.3036 8.04033C10.3036 7.12899 11.0631 6.3902 12 6.3902C12.9369 6.3902 13.6964 7.12899 13.6964 8.04033Z" fill="transparent" stroke="currentColor" stroke-width="1.5" stroke-linecap="round"/>
<path d="M12 3.75C9.37665 3.75 7.25 5.8186 7.25 8.37035C7.25 10.4603 10.4362 14.617 11.5896 16.0531C11.8004 16.3156 12.1996 16.3156 12.4104 16.0531C13.5638 14.617 16.75 10.4603 16.75 8.37035C16.75 5.8186 14.6234 3.75 12 3.75Z" fill="transparent" stroke="currentColor" stroke-width="1.5" stroke-linecap="round"/>
<path d="M6.5 15.25L4.3618 19.5264C4.19558 19.8588 4.43733 20.25 4.80902 20.25H19.191C19.5627 20.25 19.8044 19.8588 19.6382 19.5264L17.5 15.25" fill="transparent" stroke="currentColor" stroke-width="1.5" stroke-linecap="square" stroke-linejoin="round"/>
</svg>
