<svg width="24" height="24" viewBox="0 0 24 24" fill="none" xmlns="http://www.w3.org/2000/svg">
<path fill-rule="evenodd" clip-rule="evenodd" d="M12.2179 4.91717C12.1223 4.74726 11.8777 4.74725 11.7821 4.91717L4.49196 17.8774C4.39822 18.0441 4.51865 18.25 4.70985 18.25H19.2902C19.4814 18.25 19.6018 18.0441 19.5081 17.8774L12.2179 4.91717ZM10.4747 4.18178C11.1438 2.99239 12.8562 2.99238 13.5253 4.18178L20.8154 17.142C21.4716 18.3086 20.6286 19.75 19.2902 19.75H4.70985C3.3714 19.75 2.52841 18.3086 3.1846 17.142L10.4747 4.18178ZM12.75 8.25V13.3056H11.25V8.25H12.75ZM12.75 15.0056V16.5136H11.25V15.0056H12.75Z" fill="currentColor"/>
</svg>
