<svg width="24" height="24" viewBox="0 0 24 24" fill="none" xmlns="http://www.w3.org/2000/svg">
<path fill-rule="evenodd" clip-rule="evenodd" d="M14.3403 1.125C13.6791 1.125 13.125 1.65471 13.125 2.33036V2.93722C13.1248 2.94538 13.1248 2.95354 13.125 2.96169V7.66964C13.125 8.34529 13.6791 8.875 14.3403 8.875H21.6597C22.3209 8.875 22.875 8.34529 22.875 7.66964V2.96168C22.8752 2.95354 22.8752 2.94538 22.875 2.93722V2.33036C22.875 1.65471 22.3209 1.125 21.6597 1.125H14.3403ZM14.375 7.625V3.99889L17.2266 5.5421C17.7091 5.80324 18.2909 5.80324 18.7734 5.5421L21.625 3.99889V7.625H14.375ZM18.1785 4.44276L21.625 2.57758V2.375H14.375V2.57758L17.8215 4.44276C17.9329 4.50302 18.0671 4.50302 18.1785 4.44276ZM4.5 15.75C4.5 13.8568 6.147 12 8.05556 12H9.25H10V10.5H9.25H8.05556C5.20832 10.5 3 13.1432 3 15.75C3 18.7714 5.24746 21 8.05556 21H9.25H10V19.5H9.25H8.05556C6.10787 19.5 4.5 17.9753 4.5 15.75ZM13.75 10.5H13V12H13.75H14.9444C16.853 12 18.5 13.8568 18.5 15.75C18.5 17.9753 16.8921 19.5 14.9444 19.5H13.75H13V21H13.75H14.9444C17.7525 21 20 18.7714 20 15.75C20 13.1432 17.7917 10.5 14.9444 10.5H13.75ZM9.25 15H8.5V16.5H9.25H13.75H14.5V15H13.75H9.25Z" fill="currentColor"/>
</svg>
