<svg width="24" height="24" viewBox="0 0 24 24" fill="none" xmlns="http://www.w3.org/2000/svg">
<path d="M14.2222 13C14.2222 14.7796 12.7796 16.2222 11 16.2222C9.22042 16.2222 7.77778 14.7796 7.77778 13C7.77778 11.2204 9.22042 9.77778 11 9.77778C12.7796 9.77778 14.2222 11.2204 14.2222 13ZM14.2222 13V14.2083C14.2222 15.3206 15.1239 16.2222 16.2361 16.2222C17.3484 16.2222 18.25 15.3206 18.25 14.2083V13C18.25 12.2521 18.1368 11.5306 17.9265 10.8519M11 5.75C6.99594 5.75 3.75 8.99594 3.75 13C3.75 17.0041 6.99594 20.25 11 20.25H14.2222" fill="transparent" stroke="currentColor" stroke-width="1.5" stroke-linecap="square" stroke-linejoin="round"/>
<path d="M22.25 2.95L18.4759 4.99243C18.179 5.15313 17.821 5.15313 17.5241 4.99243L13.75 2.95M14.3403 8.25H21.6597C21.9857 8.25 22.25 7.99017 22.25 7.66964V2.33036C22.25 2.00983 21.9857 1.75 21.6597 1.75H14.3403C14.0143 1.75 13.75 2.00983 13.75 2.33036V7.66964C13.75 7.99017 14.0143 8.25 14.3403 8.25Z" fill="transparent" stroke="currentColor" stroke-width="1.25" stroke-linecap="round" stroke-linejoin="round"/>
</svg>
