<svg width="24" height="24" viewBox="0 0 24 24" fill="none" xmlns="http://www.w3.org/2000/svg">
<path fill-rule="evenodd" clip-rule="evenodd" d="M14.3403 1.125C13.6791 1.125 13.125 1.65471 13.125 2.33036V2.93722C13.1248 2.94538 13.1248 2.95354 13.125 2.96169V7.66964C13.125 8.34529 13.6791 8.875 14.3403 8.875H21.6597C22.3209 8.875 22.875 8.34529 22.875 7.66964V2.96168C22.8752 2.95354 22.8752 2.94538 22.875 2.93722V2.33036C22.875 1.65471 22.3209 1.125 21.6597 1.125H14.3403ZM14.375 7.625V3.99889L17.2266 5.5421C17.7091 5.80324 18.2909 5.80324 18.7734 5.5421L21.625 3.99889V7.625H14.375ZM18.1785 4.44276L21.625 2.57758V2.375H14.375V2.57758L17.8215 4.44276C17.9329 4.50302 18.0671 4.50302 18.1785 4.44276ZM9 5.25V4.5H7.5V5.25V6.5H5.25C4.00736 6.5 3 7.50736 3 8.75V11V12.5V18.75C3 19.9926 4.00736 21 5.25 21H16.75C17.9926 21 19 19.9926 19 18.75V12.5V11V10.7546V10.0046H17.5V10.7546V11H4.5V8.75C4.5 8.33579 4.83579 8 5.25 8H7.5V8.25183V9.00183H9V8.25183V8H10.7523H11.5023V6.5H10.7523H9V5.25ZM4.5 18.75V12.5H17.5V18.75C17.5 19.1642 17.1642 19.5 16.75 19.5H5.25C4.83579 19.5 4.5 19.1642 4.5 18.75Z" fill="currentColor"/>
</svg>
