<svg width="24" height="24" viewBox="0 0 24 24" fill="none" xmlns="http://www.w3.org/2000/svg">
<path fill-rule="evenodd" clip-rule="evenodd" d="M7.5 14.5C6.94772 14.5 6.5 14.0523 6.5 13.5C6.5 12.9477 6.94772 12.5 7.5 12.5C8.05228 12.5 8.5 12.9477 8.5 13.5C8.5 14.0523 8.05228 14.5 7.5 14.5ZM11 14.5C10.4477 14.5 10 14.0523 10 13.5C10 12.9477 10.4477 12.5 11 12.5C11.5523 12.5 12 12.9477 12 13.5C12 14.0523 11.5523 14.5 11 14.5ZM13.5 13.5C13.5 14.0523 13.9477 14.5 14.5 14.5C15.0523 14.5 15.5 14.0523 15.5 13.5C15.5 12.9477 15.0523 12.5 14.5 12.5C13.9477 12.5 13.5 12.9477 13.5 13.5Z" fill="currentColor"/>
<path fill-rule="evenodd" clip-rule="evenodd" d="M17.5624 2.37745C17.458 2.16189 17.2395 2.02499 17 2.02499C16.7605 2.02499 16.542 2.16189 16.4376 2.37745L15.3455 4.63115L12.908 4.99409C12.674 5.02892 12.4798 5.19281 12.4061 5.41755C12.3324 5.64228 12.3919 5.88936 12.5598 6.05594L14.3299 7.81221L13.9117 10.2962C13.8721 10.5313 13.9697 10.7685 14.1634 10.9076C14.357 11.0467 14.613 11.0635 14.8231 10.9509L17 9.78476L19.1769 10.9509C19.387 11.0635 19.643 11.0467 19.8366 10.9076C20.0303 10.7685 20.1279 10.5313 20.0883 10.2962L19.6701 7.81221L21.4402 6.05594C21.6081 5.88936 21.6676 5.64228 21.5939 5.41755C21.5202 5.19281 21.326 5.02892 21.092 4.99409L18.6545 4.63115L17.5624 2.37745ZM16.3264 5.47327L17 4.08326L17.6736 5.47327C17.7636 5.65913 17.9397 5.7885 18.144 5.81892L19.6746 6.04682L18.5598 7.15296C18.4156 7.29599 18.35 7.50014 18.3837 7.7004L18.6442 9.24748L17.2951 8.5248C17.1108 8.42604 16.8892 8.42604 16.7049 8.5248L15.3558 9.24748L15.6163 7.7004C15.65 7.50014 15.5844 7.29599 15.4402 7.15296L14.3254 6.04682L15.856 5.81892C16.0603 5.7885 16.2364 5.65913 16.3264 5.47327ZM5.75 5L5.72222 5H5.72222C5.39597 4.99998 5.10722 4.99997 4.86793 5.01952C4.61311 5.04034 4.34907 5.08702 4.09202 5.21799C3.7157 5.40973 3.40974 5.71569 3.21799 6.09202C3.08702 6.34906 3.04034 6.61311 3.01952 6.86793C2.99997 7.10721 2.99999 7.39594 3 7.72218V7.72222V7.75V15.25V15.2778V15.2778C2.99999 15.6041 2.99997 15.8928 3.01952 16.1321C3.04034 16.3869 3.08702 16.6509 3.21799 16.908C3.40974 17.2843 3.7157 17.5903 4.09202 17.782C4.34907 17.913 4.61311 17.9597 4.86793 17.9805C5.05136 17.9955 5.26384 17.999 5.5 17.9998V20.2506C5.5 20.5435 5.67052 20.8096 5.93664 20.932C6.20276 21.0544 6.51578 21.0106 6.73815 20.82L9.88704 18.1204C9.97767 18.0427 10.0931 18 10.2125 18H16.25H16.2778C16.604 18 16.8928 18 17.1321 17.9805C17.3869 17.9597 17.6509 17.913 17.908 17.782C18.2843 17.5903 18.5903 17.2843 18.782 16.908C18.913 16.6509 18.9597 16.3869 18.9805 16.1321C19 15.8928 19 15.6041 19 15.2779V15.2778V15.25V13.2535V12.5035H17.5V13.2535V15.25C17.5 15.6124 17.4994 15.8391 17.4855 16.0099C17.4722 16.172 17.4508 16.2167 17.4455 16.227C17.3976 16.3211 17.3211 16.3976 17.227 16.4455C17.2167 16.4508 17.172 16.4722 17.0099 16.4855C16.8391 16.4994 16.6124 16.5 16.25 16.5H10.2125C9.73499 16.5 9.27325 16.6708 8.91074 16.9816L7 18.6197V17.75C7 17.0596 6.44036 16.5 5.75 16.5C5.38759 16.5 5.16089 16.4994 4.99008 16.4855C4.82802 16.4722 4.78335 16.4508 4.77301 16.4455C4.67893 16.3976 4.60244 16.3211 4.5545 16.227L3.88624 16.5675L4.5545 16.227C4.54923 16.2167 4.52778 16.172 4.51454 16.0099C4.50059 15.8391 4.5 15.6124 4.5 15.25V7.75C4.5 7.38759 4.50059 7.16089 4.51454 6.99008C4.52778 6.82802 4.54923 6.78335 4.5545 6.773C4.60244 6.67892 4.67893 6.60243 4.77301 6.5545C4.78335 6.54923 4.82802 6.52778 4.99008 6.51454C5.16089 6.50058 5.38759 6.5 5.75 6.5H10.2486H10.9986V5H10.2486H5.75Z" fill="currentColor"/>
</svg>
