<svg width="24" height="24" viewBox="0 0 24 24" fill="none" xmlns="http://www.w3.org/2000/svg">
  <path fill-rule="evenodd" clip-rule="evenodd" d="M8 4.75C6.20507 4.75 4.75 6.20507 4.75 8V16C4.75 17.7949 6.20507 19.25 8 19.25H16C17.7949 19.25 19.25 17.7949 19.25 16V8C19.25 6.20507 17.7949 4.75 16 4.75H8ZM3.25 8C3.25 5.37665 5.37665 3.25 8 3.25H16C18.6234 3.25 20.75 5.37665 20.75 8V16C20.75 18.6234 18.6234 20.75 16 20.75H8C5.37665 20.75 3.25 18.6234 3.25 16V8ZM14.85 7.6C14.85 7.18579 15.1858 6.85 15.6 6.85H15.608C16.0222 6.85 16.358 7.18579 16.358 7.6C16.358 8.01421 16.0222 8.35 15.608 8.35H15.6C15.1858 8.35 14.85 8.01421 14.85 7.6ZM12.394 9.54189C11.8842 9.4663 11.3636 9.55337 10.9062 9.79071C10.4488 10.0281 10.0779 10.4036 9.84619 10.8639C9.6145 11.3242 9.53386 11.8458 9.61573 12.3546C9.6976 12.8634 9.93781 13.3334 10.3022 13.6978C10.6666 14.0622 11.1366 14.3024 11.6454 14.3843C12.1542 14.4661 12.6758 14.3855 13.1361 14.1538C13.5964 13.9221 13.9719 13.5512 14.2093 13.0938C14.4466 12.6364 14.5337 12.1158 14.4581 11.606C14.381 11.086 14.1387 10.6047 13.767 10.233C13.3953 9.86128 12.914 9.61899 12.394 9.54189ZM10.2154 8.45928C10.9528 8.07662 11.7922 7.93624 12.614 8.05811C13.4523 8.18242 14.2284 8.57306 14.8277 9.17232C15.4269 9.77157 15.8176 10.5477 15.9419 11.386C16.0638 12.2078 15.9234 13.0472 15.5407 13.7846C15.1581 14.5221 14.5526 15.1201 13.8105 15.4937C13.0684 15.8672 12.2274 15.9972 11.4071 15.8652C10.5868 15.7332 9.82903 15.3459 9.24154 14.7585C8.65406 14.171 8.26677 13.4132 8.13478 12.5929C8.00279 11.7726 8.1328 10.9316 8.50634 10.1895C8.87987 9.44738 9.4779 8.84193 10.2154 8.45928Z" fill="currentColor"/>
</svg>
