<svg width="24" height="24" viewBox="0 0 24 24" fill="none" xmlns="http://www.w3.org/2000/svg">
  <path fill-rule="evenodd" clip-rule="evenodd" d="M11.9624 4.75C9.76374 4.75 7.79284 5.71818 6.45644 7.25H9.32229V8.75H4.25V3.69444H5.75V5.81149C7.34001 4.22906 9.53653 3.25 11.9624 3.25C16.8123 3.25 20.75 7.16419 20.75 12C20.75 16.8358 16.8123 20.75 11.9624 20.75C8.71047 20.75 5.87065 18.9906 4.35156 16.3769L3.9747 15.7284L5.27157 14.9747L5.64844 15.6231C6.90885 17.7918 9.26412 19.25 11.9624 19.25C15.9905 19.25 19.25 16.0007 19.25 12C19.25 7.99925 15.9905 4.75 11.9624 4.75ZM12.75 7.25V11.8505L16.0233 13.7209L15.2791 15.0233L11.25 12.721V7.25H12.75Z" fill="currentColor"/>
</svg>
