<svg width="24" height="24" viewBox="0 0 24 24" fill="none" xmlns="http://www.w3.org/2000/svg">
  <path fill-rule="evenodd" clip-rule="evenodd" d="M5.97222 5.25C5.98145 5.25 5.99071 5.25 6 5.25H10.875V6.75H6C5.63759 6.75 5.41089 6.75058 5.24008 6.76454C5.07802 6.77778 5.03335 6.79923 5.02301 6.8045C4.92893 6.85243 4.85244 6.92892 4.8045 7.023C4.79923 7.03335 4.77778 7.07802 4.76454 7.24008C4.75059 7.41089 4.75 7.63759 4.75 8V15C4.75 15.3624 4.75059 15.5891 4.76454 15.7599C4.77778 15.922 4.79923 15.9667 4.8045 15.977C4.85243 16.0711 4.92892 16.1476 5.02301 16.1955C5.03335 16.2008 5.07802 16.2222 5.24008 16.2355C5.41089 16.2494 5.63759 16.25 6 16.25C6.69036 16.25 7.25 16.8096 7.25 17.5V18.1893L8.60356 16.8358C8.97863 16.4607 9.48734 16.25 10.0178 16.25H16C16.3624 16.25 16.5891 16.2494 16.7599 16.2355C16.922 16.2222 16.9667 16.2008 16.977 16.1955C17.0711 16.1476 17.1476 16.0711 17.1955 15.977C17.2008 15.9667 17.2222 15.922 17.2355 15.7599C17.2494 15.5891 17.25 15.3624 17.25 15V12.5833H18.75V15.0278C18.75 15.354 18.75 15.6428 18.7305 15.8821C18.7097 16.1369 18.663 16.4009 18.532 16.658C18.3403 17.0343 18.0343 17.3403 17.658 17.532C17.4009 17.663 17.1369 17.7097 16.8821 17.7305C16.6428 17.75 16.354 17.75 16.0278 17.75H10.0178C9.88516 17.75 9.75798 17.8027 9.66422 17.8964L7.03033 20.5303C6.81583 20.7448 6.49324 20.809 6.21299 20.6929C5.93273 20.5768 5.75 20.3033 5.75 20V17.7498C5.51384 17.749 5.30136 17.7455 5.11793 17.7305C4.86311 17.7097 4.59907 17.663 4.34202 17.532C3.9657 17.3403 3.65974 17.0343 3.46799 16.658C3.33702 16.4009 3.29034 16.1369 3.26952 15.8821C3.24997 15.6428 3.24999 15.354 3.25 15.0278L3.25 8C3.25 7.99071 3.25 7.98145 3.25 7.97222C3.24999 7.64597 3.24997 7.35722 3.26952 7.11793C3.29034 6.86311 3.33702 6.59906 3.46799 6.34202C3.65974 5.96569 3.9657 5.65973 4.34202 5.46799C4.59907 5.33702 4.86311 5.29034 5.11793 5.26952C5.35723 5.24997 5.64597 5.24998 5.97222 5.25ZM6.6 13C6.6 12.5858 6.93579 12.25 7.35 12.25C7.76422 12.25 8.1 12.5858 8.1 13C8.1 13.4142 7.76422 13.75 7.35 13.75C6.93579 13.75 6.6 13.4142 6.6 13ZM10.2 13C10.2 12.5858 10.5358 12.25 10.95 12.25C11.3642 12.25 11.7 12.5858 11.7 13C11.7 13.4142 11.3642 13.75 10.95 13.75C10.5358 13.75 10.2 13.4142 10.2 13ZM13.8 13C13.8 12.5858 14.1358 12.25 14.55 12.25C14.9642 12.25 15.3 12.5858 15.3 13C15.3 13.4142 14.9642 13.75 14.55 13.75C14.1358 13.75 13.8 13.4142 13.8 13Z" fill="currentColor"/>
  <path fill-rule="evenodd" clip-rule="evenodd" d="M17 2.20834C17.2379 2.20834 17.4551 2.34339 17.5604 2.5567L18.7027 4.87072L21.2571 5.24408C21.4924 5.27848 21.6878 5.44349 21.7612 5.66974C21.8346 5.89599 21.7731 6.14428 21.6027 6.31023L19.7549 8.11003L20.191 10.6527C20.2312 10.8872 20.1348 11.1242 19.9423 11.264C19.7498 11.4038 19.4947 11.4223 19.2841 11.3115L17 10.1103L14.7159 11.3115C14.5053 11.4223 14.2502 11.4038 14.0577 11.264C13.8652 11.1242 13.7688 10.8872 13.809 10.6527L14.2451 8.11003L12.3972 6.31023C12.2269 6.14428 12.1654 5.89599 12.2388 5.66974C12.3122 5.44349 12.5076 5.27848 12.7429 5.24408L15.2973 4.87072L16.4396 2.5567C16.5448 2.34339 16.7621 2.20834 17 2.20834ZM17 4.24538L16.2729 5.71832C16.182 5.9026 16.0062 6.03038 15.8029 6.06011L14.1761 6.29789L15.3527 7.44395C15.5002 7.58754 15.5675 7.7945 15.5327 7.99733L15.2551 9.61564L16.7091 8.85101C16.8912 8.75523 17.1088 8.75523 17.2909 8.85101L18.7449 9.61564L18.4673 7.99733C18.4325 7.7945 18.4998 7.58754 18.6472 7.44395L19.8239 6.29789L18.1971 6.06011C17.9938 6.03038 17.818 5.9026 17.7271 5.71832L17 4.24538Z" fill="currentColor"/>
</svg>
