<svg width="24" height="24" viewBox="0 0 24 24" fill="none" xmlns="http://www.w3.org/2000/svg">
<path fill-rule="evenodd" clip-rule="evenodd" d="M10.0882 4.05388C11.712 3.67179 13.4034 3.67179 15.0272 4.05388C15.9619 3.46761 16.6826 3.19386 17.214 3.0769C17.5065 3.01253 17.7407 2.99592 17.9193 3.00079C18.0085 3.00323 18.083 3.01099 18.1431 3.0205C18.1732 3.02525 18.1996 3.03042 18.2223 3.03554C18.2336 3.0381 18.244 3.04064 18.2535 3.04311L18.2671 3.04674L18.2734 3.0485L18.2764 3.04936L18.2778 3.04979C18.2785 3.05 18.2793 3.05021 18.0677 3.76975L18.2793 3.05021C18.493 3.11305 18.6677 3.26765 18.7561 3.47211C19.1511 4.38571 19.2276 5.39921 18.9817 6.35386C19.6755 7.1837 20 8.26873 20 9.31315C20 11.49 19.3279 12.9512 18.2114 13.8819C17.4656 14.5036 16.5757 14.8408 15.698 15.0338C15.7072 15.0573 15.716 15.0808 15.7247 15.1045C15.8782 15.5271 15.9414 15.9768 15.9103 16.4249V19.25V20H14.4103V19.25V16.3972C14.4103 16.3774 14.411 16.3576 14.4126 16.3379C14.432 16.0935 14.3987 15.8477 14.3148 15.6167C14.2309 15.3857 14.0982 15.1746 13.9251 14.9976C13.7245 14.7925 13.6585 14.491 13.755 14.2208C13.8516 13.9507 14.0938 13.7593 14.3789 13.7278C15.505 13.6033 16.5192 13.3397 17.251 12.7297C17.9452 12.151 18.5 11.1612 18.5 9.31315C18.5 8.44101 18.1855 7.61853 17.6248 7.09892C17.4013 6.89173 17.3253 6.56985 17.4327 6.28459C17.6439 5.72345 17.6786 5.1163 17.5383 4.54143C17.5377 4.54156 17.5371 4.5417 17.5364 4.54184C17.1739 4.62163 16.5323 4.84951 15.5754 5.48539C15.3959 5.60466 15.1738 5.64097 14.9657 5.58505C13.3888 5.1614 11.7266 5.1614 10.1497 5.58505C9.94162 5.64097 9.71951 5.60466 9.54003 5.48539C8.58314 4.84951 7.94149 4.62163 7.57896 4.54184C7.57832 4.5417 7.57769 4.54156 7.57705 4.54143C7.43684 5.1163 7.47144 5.72345 7.68268 6.28459C7.78449 6.55503 7.72187 6.85991 7.52171 7.06833C6.935 7.67924 6.61087 8.49037 6.61537 9.33125L6.6154 9.33527C6.61539 11.1662 7.16866 12.1497 7.86439 12.7297C8.59886 13.3419 9.61596 13.6119 10.7458 13.751C11.0287 13.7858 11.2674 13.978 11.3618 14.247C11.4562 14.516 11.3899 14.8153 11.1908 15.0193C11.0197 15.1945 10.8882 15.4031 10.8043 15.6312C10.7205 15.8594 10.6861 16.1022 10.7032 16.3441C10.7045 16.3618 10.7051 16.3795 10.7051 16.3972V17.0385V19.25V20H9.20513V19.25V17.977C8.60828 18.0668 8.08284 18.0509 7.61294 17.9419C6.89525 17.7754 6.38206 17.4089 5.98801 17.0183C5.79528 16.8272 5.62929 16.6286 5.48602 16.4507C5.43725 16.3902 5.39273 16.3341 5.35069 16.2812C5.26123 16.1686 5.18303 16.0701 5.09903 15.9724C4.85594 15.6895 4.70572 15.5888 4.56958 15.555L3.84161 15.3746L4.20244 13.9187L4.93042 14.0991C5.53787 14.2496 5.94534 14.6557 6.23671 14.9948C6.34032 15.1154 6.44742 15.2501 6.54534 15.3734C6.58328 15.4211 6.61985 15.4671 6.65431 15.5099C6.78697 15.6747 6.91145 15.8216 7.04405 15.953C7.30063 16.2074 7.57751 16.3938 7.95196 16.4807C8.24837 16.5495 8.6495 16.5658 9.20513 16.4544V16.422C9.17753 15.9775 9.24265 15.5321 9.3964 15.1138C9.40479 15.0909 9.41344 15.0682 9.42234 15.0456C8.54333 14.8457 7.65108 14.5047 6.90394 13.8819C5.78938 12.9528 5.1158 11.5006 5.11539 9.33728C5.11006 8.25819 5.47401 7.21491 6.13902 6.3742C5.88673 5.41362 5.96148 4.3922 6.35928 3.47211C6.44768 3.26765 6.6224 3.11305 6.83612 3.05021L7.04769 3.76975C6.83612 3.05021 6.83684 3.05 6.83756 3.04979L6.83903 3.04936L6.84203 3.0485L6.84829 3.04674L6.86185 3.04311C6.87135 3.04064 6.88177 3.0381 6.89312 3.03554C6.91583 3.03042 6.94219 3.02525 6.97224 3.0205C7.03242 3.01099 7.10692 3.00323 7.19606 3.00079C7.37473 2.99592 7.60888 3.01253 7.90137 3.0769C8.43279 3.19386 9.15352 3.46761 10.0882 4.05388Z" fill="currentColor"/>
</svg>
