<svg width="24" height="24" viewBox="0 0 24 24" fill="none" xmlns="http://www.w3.org/2000/svg">
<path d="M15.7125 7.4625H15.7208M7.875 3.75H16.125C18.4032 3.75 20.25 5.59683 20.25 7.875V16.125C20.25 18.4032 18.4032 20.25 16.125 20.25H7.875C5.59683 20.25 3.75 18.4032 3.75 16.125V7.875C3.75 5.59683 5.59683 3.75 7.875 3.75ZM15.3 11.4802C15.4018 12.1669 15.2845 12.8681 14.9649 13.4842C14.6452 14.1003 14.1393 14.5999 13.5193 14.912C12.8993 15.224 12.1967 15.3327 11.5114 15.2224C10.8261 15.1121 10.1931 14.7886 9.70224 14.2978C9.21143 13.8069 8.88788 13.1739 8.77761 12.4886C8.66733 11.8033 8.77595 11.1007 9.08802 10.4807C9.40008 9.86065 9.8997 9.35484 10.5158 9.03515C11.1319 8.71546 11.8331 8.59819 12.5198 8.7C13.2201 8.80385 13.8685 9.13021 14.3691 9.63085C14.8698 10.1315 15.1961 10.7799 15.3 11.4802Z" fill="transparent" stroke="currentColor" stroke-width="1.5" stroke-linecap="round" stroke-linejoin="round"/>
</svg>
