<svg width="24" height="24" viewBox="0 0 24 24" fill="none" xmlns="http://www.w3.org/2000/svg">
<path d="M18.9062 11.5508C18.8454 12.9674 18.494 14.0936 17.8521 14.9292C17.2157 15.7593 16.3579 16.1743 15.2788 16.1743C14.8029 16.1743 14.3906 16.0719 14.042 15.8672C13.6989 15.6624 13.4388 15.3691 13.2617 14.9873C12.7083 15.762 11.9862 16.1494 11.0952 16.1494C10.2873 16.1494 9.66195 15.8091 9.21924 15.1284C8.77653 14.4478 8.61051 13.5485 8.72119 12.4307C8.8208 11.5176 9.05046 10.7069 9.41016 9.99854C9.77539 9.28467 10.2347 8.73682 10.7881 8.35498C11.3415 7.97314 11.9391 7.78223 12.5811 7.78223C13.3724 7.78223 14.0475 7.96484 14.6064 8.33008L15.1294 8.68701L14.7061 13.4849C14.6507 13.922 14.6978 14.2568 14.8472 14.4893C15.0021 14.7217 15.2456 14.8379 15.5776 14.8379C16.0868 14.8379 16.5129 14.5418 16.856 13.9497C17.1991 13.3521 17.3872 12.5718 17.4204 11.6089C17.5145 9.67757 17.1243 8.1945 16.25 7.15967C15.3812 6.1193 14.0918 5.59912 12.3818 5.59912C11.3138 5.59912 10.362 5.87028 9.52637 6.4126C8.69076 6.95492 8.03223 7.72689 7.55078 8.72852C7.06934 9.72461 6.79818 10.8674 6.7373 12.1567C6.64876 14.1157 7.04167 15.6292 7.91602 16.6973C8.79036 17.7708 10.0991 18.3076 11.8423 18.3076C12.3016 18.3076 12.783 18.255 13.2866 18.1499C13.7902 18.0503 14.2246 17.9147 14.5898 17.7432L14.9053 19.0215C14.5677 19.2428 14.1112 19.4199 13.5356 19.5527C12.9657 19.6911 12.3901 19.7603 11.8091 19.7603C10.3481 19.7603 9.10303 19.4642 8.07373 18.8721C7.04443 18.2855 6.27523 17.4167 5.76611 16.2656C5.26253 15.1201 5.04395 13.7505 5.11035 12.1567C5.17676 10.6294 5.52539 9.25977 6.15625 8.04785C6.78711 6.83594 7.64486 5.90072 8.72949 5.24219C9.81966 4.57812 11.0482 4.24609 12.415 4.24609C13.804 4.24609 14.9993 4.54492 16.001 5.14258C17.0026 5.7347 17.7524 6.58415 18.2505 7.69092C18.7485 8.79769 18.9671 10.0843 18.9062 11.5508ZM10.564 12.4307C10.5031 13.1611 10.5667 13.7173 10.7549 14.0991C10.943 14.4754 11.2474 14.6636 11.668 14.6636C11.9391 14.6636 12.1965 14.5446 12.4399 14.3066C12.6834 14.0687 12.8854 13.7256 13.0459 13.2773L13.3945 9.35107C13.1787 9.27913 12.9574 9.24316 12.7305 9.24316C12.0941 9.24316 11.5988 9.51432 11.2446 10.0566C10.896 10.599 10.6691 11.3903 10.564 12.4307Z" fill="currentColor"/>
</svg>
