<svg width="24" height="24" viewBox="0 0 24 24" fill="none" xmlns="http://www.w3.org/2000/svg">
<path d="M3.7713 7.01305C4.17657 14.4139 10.2922 19.9013 15.7635 20.234C16.1011 20.2545 16.4295 20.1347 16.6934 19.9231C17.0452 19.6409 17.25 19.2142 17.25 18.7632V16.6067C17.25 15.8664 16.7077 15.2467 15.9799 15.1114C15.4235 15.0079 14.978 14.8975 14.5449 14.7333C13.852 14.4704 13.0429 14.581 12.5691 15.1509L11.9464 15.9C10.5 14.9333 9.05357 13.9667 7.84821 11.55L8.72764 10.3745C9.07404 9.91153 9.10554 9.29642 8.91428 8.75071C8.69537 8.1261 8.62274 7.57512 8.53362 6.94757C8.43403 6.24631 7.82385 5.75 7.11556 5.75H5.01313C4.81661 5.75 4.62281 5.79585 4.44713 5.88391C4.01981 6.0981 3.74516 6.53577 3.7713 7.01305Z" fill="transparent" stroke="currentColor" stroke-width="1.5" stroke-linejoin="round"/>
<path d="M22.25 2.95L18.4759 4.99243C18.179 5.15313 17.821 5.15313 17.5241 4.99243L13.75 2.95M14.3403 8.25H21.6597C21.9857 8.25 22.25 7.99017 22.25 7.66964V2.33036C22.25 2.00983 21.9857 1.75 21.6597 1.75H14.3403C14.0143 1.75 13.75 2.00983 13.75 2.33036V7.66964C13.75 7.99017 14.0143 8.25 14.3403 8.25Z" fill="transparent" stroke="currentColor" stroke-width="1.25" stroke-linecap="round" stroke-linejoin="round"/>
</svg>
