<svg width="24" height="24" viewBox="0 0 24 24" fill="none" xmlns="http://www.w3.org/2000/svg">
<path d="M15.05 17.05C13.8845 17.9384 12.4653 18.4306 11 18.4545C6.22727 18.4545 3.5 13 3.5 13C4.34811 11.4195 5.52441 10.0386 6.95 8.95M15.05 17.05L12.4455 14.4455M15.05 17.05L18 20M6.95 8.95L9.55455 11.5545M6.95 8.95L4 6M9.56818 7.70909C10.0375 7.59924 10.518 7.54432 11 7.54545M17.0273 15.175C17.5925 14.5032 18.0861 13.7743 18.5 13C18.5 13 18.0283 12.0566 17.134 10.9546M12.4455 14.4455C12.2582 14.6464 12.0324 14.8076 11.7815 14.9194C11.5306 15.0312 11.2597 15.0913 10.9851 15.0962C10.7104 15.101 10.4376 15.0505 10.1829 14.9476C9.92822 14.8447 9.69686 14.6916 9.50262 14.4974C9.30839 14.3031 9.15527 14.0718 9.05239 13.8171C8.94952 13.5624 8.899 13.2896 8.90384 13.0149C8.90869 12.7403 8.9688 12.4694 9.0806 12.2185C9.19239 11.9676 9.35358 11.7418 9.55455 11.5545M12.4455 14.4455L9.55455 11.5545" fill="transparent" stroke="currentColor" stroke-width="1.5" stroke-linecap="square" stroke-linejoin="round"/>
<path d="M22.25 2.95L18.4759 4.99243C18.179 5.15313 17.821 5.15313 17.5241 4.99243L13.75 2.95M14.3403 8.25H21.6597C21.9857 8.25 22.25 7.99017 22.25 7.66964V2.33036C22.25 2.00983 21.9857 1.75 21.6597 1.75H14.3403C14.0143 1.75 13.75 2.00983 13.75 2.33036V7.66964C13.75 7.99017 14.0143 8.25 14.3403 8.25Z" fill="transparent" stroke="currentColor" stroke-width="1.25" stroke-linecap="round" stroke-linejoin="round"/>
</svg>
