<svg width="24" height="24" viewBox="0 0 24 24" fill="none" xmlns="http://www.w3.org/2000/svg">
  <path
    d="M15.6136 19C15.6136 19.4142 15.9494 19.75 16.3636 19.75C16.7778 19.75 17.1136 19.4142 17.1136 19H15.6136ZM13.2727 14.3333V13.5833V14.3333ZM7.09091 14.3333L7.09091 13.5833L7.09091 14.3333ZM4 17.4444H3.25H4ZM3.25 19C3.25 19.4142 3.58579 19.75 4 19.75C4.41421 19.75 4.75 19.4142 4.75 19H3.25ZM20.25 19C20.25 19.4142 20.5858 19.75 21 19.75C21.4142 19.75 21.75 19.4142 21.75 19H20.25ZM21 17.4444L21.75 17.4444L21.75 17.4439L21 17.4444ZM18.8705 13.7086C18.4696 13.6044 18.0601 13.8449 17.9559 14.2458C17.8517 14.6467 18.0923 15.0561 18.4932 15.1603L18.8705 13.7086ZM15.7781 4.37484C15.377 4.27147 14.968 4.51283 14.8646 4.91394C14.7613 5.31505 15.0026 5.72401 15.4037 5.82738L15.7781 4.37484ZM17.9152 8.115L18.6652 8.115L17.9152 8.115ZM15.4037 10.4026C15.0026 10.506 14.7613 10.915 14.8646 11.3161C14.968 11.7172 15.377 11.9585 15.7781 11.8552L15.4037 10.4026ZM17.1136 19V17.4444H15.6136V19H17.1136ZM17.1136 17.4444C17.1136 16.422 16.7101 15.4404 15.9904 14.716L14.9263 15.7732C15.3658 16.2156 15.6136 16.8167 15.6136 17.4444H17.1136ZM15.9904 14.716C15.2705 13.9913 14.293 13.5833 13.2727 13.5833L13.2727 15.0833C13.892 15.0833 14.4869 15.3309 14.9263 15.7732L15.9904 14.716ZM13.2727 13.5833H7.09091V15.0833H13.2727V13.5833ZM7.09091 13.5833C6.07065 13.5833 5.09318 13.9913 4.37325 14.716L5.43736 15.7732C5.87675 15.3309 6.47164 15.0833 7.09091 15.0833L7.09091 13.5833ZM4.37325 14.716C3.65349 15.4404 3.25 16.422 3.25 17.4444H4.75C4.75 16.8167 4.99781 16.2156 5.43736 15.7732L4.37325 14.716ZM3.25 17.4444V19H4.75V17.4444H3.25ZM12.5227 8.11111C12.5227 9.41973 11.4701 10.4722 10.1818 10.4722V11.9722C12.3077 11.9722 14.0227 10.2389 14.0227 8.11111H12.5227ZM10.1818 10.4722C8.89357 10.4722 7.84091 9.41973 7.84091 8.11111H6.34091C6.34091 10.2389 8.05594 11.9722 10.1818 11.9722V10.4722ZM7.84091 8.11111C7.84091 6.80249 8.89357 5.75 10.1818 5.75V4.25C8.05594 4.25 6.34091 5.98329 6.34091 8.11111H7.84091ZM10.1818 5.75C11.4701 5.75 12.5227 6.80249 12.5227 8.11111H14.0227C14.0227 5.98329 12.3077 4.25 10.1818 4.25V5.75ZM21.75 19V17.4444H20.25V19H21.75ZM21.75 17.4439C21.7494 16.5896 21.4669 15.7592 20.9462 15.0831L19.7578 15.9983C20.0762 16.4118 20.2496 16.9206 20.25 17.445L21.75 17.4439ZM20.9462 15.0831C20.4253 14.4068 19.6954 13.923 18.8705 13.7086L18.4932 15.1603C18.9944 15.2906 19.4394 15.585 19.7578 15.9983L20.9462 15.0831ZM15.4037 5.82738C15.9063 5.9569 16.3527 6.25133 16.672 6.66536L17.8598 5.74934C17.3374 5.07198 16.6052 4.58801 15.7781 4.37484L15.4037 5.82738ZM16.672 6.66536C16.9914 7.07948 17.1652 7.58948 17.1652 8.115L18.6652 8.115C18.6652 7.25892 18.3821 6.42662 17.8598 5.74934L16.672 6.66536ZM17.1652 8.115C17.1652 8.64052 16.9914 9.15052 16.672 9.56464L17.8598 10.4807C18.3821 9.80338 18.6652 8.97108 18.6652 8.115L17.1652 8.115ZM16.672 9.56464C16.3527 9.97867 15.9063 10.2731 15.4037 10.4026L15.7781 11.8552C16.6052 11.642 17.3374 11.158 17.8598 10.4807L16.672 9.56464Z"
    fill="currentColor" />
</svg>
