<svg width="24" height="24" viewBox="0 0 24 24" fill="none" xmlns="http://www.w3.org/2000/svg">
<path fill-rule="evenodd" clip-rule="evenodd" d="M5.97222 3.25C5.98145 3.25 5.99071 3.25 6 3.25L18.0278 3.25C18.354 3.24999 18.6428 3.24997 18.8821 3.26952C19.1369 3.29034 19.4009 3.33702 19.658 3.46799C20.0343 3.65974 20.3403 3.9657 20.532 4.34202C20.663 4.59907 20.7097 4.86311 20.7305 5.11793C20.75 5.35722 20.75 5.64596 20.75 5.97221V18.0278C20.75 18.354 20.75 18.6428 20.7305 18.8821C20.7097 19.1369 20.663 19.4009 20.532 19.658C20.3403 20.0343 20.0343 20.3403 19.658 20.532C19.4009 20.663 19.1369 20.7097 18.8821 20.7305C18.6428 20.75 18.354 20.75 18.0278 20.75H5.97221C5.64596 20.75 5.35722 20.75 5.11793 20.7305C4.86311 20.7097 4.59907 20.663 4.34202 20.532C3.9657 20.3403 3.65974 20.0343 3.46799 19.658C3.33702 19.4009 3.29034 19.1369 3.26952 18.8821C3.24997 18.6428 3.24999 18.354 3.25 18.0278L3.25 6C3.25 5.99071 3.25 5.98145 3.25 5.97222C3.24999 5.64597 3.24997 5.35723 3.26952 5.11793C3.29034 4.86311 3.33702 4.59907 3.46799 4.34202C3.65974 3.9657 3.9657 3.65974 4.34202 3.46799C4.59907 3.33702 4.86311 3.29034 5.11793 3.26952C5.35723 3.24997 5.64597 3.24999 5.97222 3.25ZM5.24008 4.76454C5.07802 4.77778 5.03335 4.79923 5.02301 4.8045C4.92893 4.85244 4.85244 4.92893 4.8045 5.02301C4.79923 5.03335 4.77778 5.07802 4.76454 5.24008C4.75059 5.41089 4.75 5.63759 4.75 6V18C4.75 18.3624 4.75059 18.5891 4.76454 18.7599C4.77778 18.922 4.79923 18.9667 4.8045 18.977C4.85244 19.0711 4.92893 19.1476 5.02301 19.1955C5.03335 19.2008 5.07802 19.2222 5.24008 19.2355C5.41089 19.2494 5.63759 19.25 6 19.25H18C18.3624 19.25 18.5891 19.2494 18.7599 19.2355C18.922 19.2222 18.9667 19.2008 18.977 19.1955C19.0711 19.1476 19.1476 19.0711 19.1955 18.977C19.2008 18.9667 19.2222 18.922 19.2355 18.7599C19.2494 18.5891 19.25 18.3624 19.25 18V6C19.25 5.63759 19.2494 5.41089 19.2355 5.24008C19.2222 5.07802 19.2008 5.03335 19.1955 5.02301C19.1476 4.92893 19.0711 4.85244 18.977 4.8045C18.9667 4.79923 18.922 4.77778 18.7599 4.76454C18.5891 4.75059 18.3624 4.75 18 4.75H6C5.63759 4.75 5.41089 4.75059 5.24008 4.76454ZM10.25 8.59861L15.3521 12L10.25 15.4014V8.59861Z" fill="currentColor"/>
</svg>
