<svg width="24" height="24" viewBox="0 0 24 24" fill="none" xmlns="http://www.w3.org/2000/svg">
  <path
    d="M4 11.1429H3.25C3.25 11.5571 3.58579 11.8929 4 11.8929V11.1429ZM20 11.1429V11.8929C20.4142 11.8929 20.75 11.5571 20.75 11.1429H20ZM4 6V5.25C3.58579 5.25 3.25 5.58579 3.25 6H4ZM20 6H20.75C20.75 5.58579 20.4142 5.25 20 5.25V6ZM4 13.8214C3.58579 13.8214 3.25 14.1572 3.25 14.5714C3.25 14.9856 3.58579 15.3214 4 15.3214V13.8214ZM20 15.3214C20.4142 15.3214 20.75 14.9856 20.75 14.5714C20.75 14.1572 20.4142 13.8214 20 13.8214V15.3214ZM4 17.25C3.58579 17.25 3.25 17.5858 3.25 18C3.25 18.4142 3.58579 18.75 4 18.75V17.25ZM20 18.75C20.4142 18.75 20.75 18.4142 20.75 18C20.75 17.5858 20.4142 17.25 20 17.25V18.75ZM4 11.8929H20V10.3929H4V11.8929ZM4 6.75H20V5.25H4V6.75ZM3.25 6V11.1429H4.75V6H3.25ZM19.25 6V11.1429H20.75V6H19.25ZM4 15.3214H20V13.8214H4V15.3214ZM4 18.75H20V17.25H4V18.75Z"
    fill="currentColor" />
</svg>
