<svg width="24" height="24" viewBox="0 0 24 24" fill="none" xmlns="http://www.w3.org/2000/svg">
  <path fill-rule="evenodd" clip-rule="evenodd" d="M5.25 4.75C4.97386 4.75 4.75 4.97386 4.75 5.25V18.75C4.75 19.0261 4.97386 19.25 5.25 19.25H18.75C19.0261 19.25 19.25 19.0261 19.25 18.75V5.25C19.25 4.97386 19.0261 4.75 18.75 4.75H5.25ZM3.25 5.25C3.25 4.14543 4.14543 3.25 5.25 3.25H18.75C19.8546 3.25 20.75 4.14543 20.75 5.25V18.75C20.75 19.8546 19.8546 20.75 18.75 20.75H5.25C4.14543 20.75 3.25 19.8546 3.25 18.75V5.25ZM12.75 6.25V7.54062C13.235 7.60113 13.7367 7.72242 14.2394 7.90543L14.9441 8.16202L14.4309 9.5715L13.7262 9.31491C13.1082 9.08992 12.5186 8.99128 12.0061 8.99545C11.3942 9.00043 10.9351 9.15026 10.6505 9.35627C10.3891 9.54559 10.25 9.7946 10.25 10.1356C10.25 10.3116 10.329 10.4873 10.6947 10.7045C11.0795 10.9332 11.6103 11.0999 12.2157 11.2817L12.2287 11.2856C12.7905 11.4543 13.5031 11.6682 14.0715 12.0059C14.6636 12.3577 15.25 12.9387 15.25 13.8644C15.25 14.7132 14.8581 15.4034 14.2291 15.8587C13.8085 16.1632 13.2988 16.3529 12.75 16.4427V17.75H11.25V16.4594C10.765 16.3989 10.2633 16.2776 9.76065 16.0946L9.05591 15.838L9.56909 14.4285L10.2738 14.6851C10.8918 14.9101 11.4814 15.0087 11.9939 15.0045C12.6058 14.9996 13.0649 14.8497 13.3495 14.6437C13.611 14.4544 13.75 14.2054 13.75 13.8644C13.75 13.6884 13.671 13.5127 13.3053 13.2955C12.9205 13.0668 12.3897 12.9001 11.7843 12.7183L11.7713 12.7144C11.2095 12.5457 10.4969 12.3318 9.92846 11.9941C9.33636 11.6423 8.75 11.0613 8.75 10.1356C8.75 9.28684 9.14191 8.59665 9.7709 8.14127C10.1915 7.83676 10.7012 7.64709 11.25 7.5573V6.25H12.75Z" fill="currentColor"/>
</svg>
