<svg width="24" height="24" viewBox="0 0 24 24" fill="none" xmlns="http://www.w3.org/2000/svg">
  <path fill-rule="evenodd" clip-rule="evenodd" d="M8.58333 4.75H5.25C4.97386 4.75 4.75 4.97386 4.75 5.25V18.75C4.75 19.0261 4.97386 19.25 5.25 19.25H8.58333V4.75ZM9.33277 3.25L5.25 3.25C4.14543 3.25 3.25 4.14543 3.25 5.25V18.75C3.25 19.8546 4.14543 20.75 5.25 20.75H18.75C19.8546 20.75 20.75 19.8546 20.75 18.75V5.25C20.75 4.14543 19.8546 3.25 18.75 3.25L9.3339 3.25C9.33371 3.25 9.33296 3.25 9.33277 3.25C9.33296 3.25 9.33258 3.25 9.33277 3.25ZM10.0833 4.75V19.25H18.75C19.0261 19.25 19.25 19.0261 19.25 18.75V5.25C19.25 4.97386 19.0261 4.75 18.75 4.75L10.0833 4.75Z" fill="currentColor"/>
</svg>
