<svg width="24" height="24" viewBox="0 0 24 24" fill="none" xmlns="http://www.w3.org/2000/svg">
  <path
    d="M13.25 4C13.25 3.58579 12.9142 3.25 12.5 3.25C12.0858 3.25 11.75 3.58579 11.75 4H13.25ZM11.75 20C11.75 20.4142 12.0858 20.75 12.5 20.75C12.9142 20.75 13.25 20.4142 13.25 20H11.75ZM16.25 7.65909C16.6642 7.65909 17 7.3233 17 6.90909C17 6.49488 16.6642 6.15909 16.25 6.15909V7.65909ZM8 9.45455H7.25H8ZM10.625 12V12.75V12ZM14.375 12L14.375 11.25H14.375V12ZM14.375 17.0909L14.375 17.8409H14.375L14.375 17.0909ZM8 16.3409C7.58579 16.3409 7.25 16.6767 7.25 17.0909C7.25 17.5051 7.58579 17.8409 8 17.8409V16.3409ZM11.75 4V20H13.25V4H11.75ZM16.25 6.15909H10.625V7.65909H16.25V6.15909ZM10.625 6.15909C9.73721 6.15909 8.88132 6.50086 8.24674 7.11621L9.29095 8.19306C9.64094 7.85369 10.1204 7.65909 10.625 7.65909V6.15909ZM8.24674 7.11621C7.61137 7.73233 7.25 8.57296 7.25 9.45455H8.75C8.75 8.98594 8.94176 8.53168 9.29095 8.19306L8.24674 7.11621ZM7.25 9.45455C7.25 10.3361 7.61137 11.1768 8.24674 11.7929L9.29095 10.716C8.94176 10.3774 8.75 9.92315 8.75 9.45455H7.25ZM8.24674 11.7929C8.88132 12.4082 9.73721 12.75 10.625 12.75L10.625 11.25C10.1204 11.25 9.64094 11.0554 9.29095 10.716L8.24674 11.7929ZM10.625 12.75H14.375V11.25H10.625V12.75ZM14.375 12.75C14.8796 12.75 15.3591 12.9446 15.709 13.284L16.7533 12.2071C16.1187 11.5918 15.2628 11.25 14.375 11.25L14.375 12.75ZM15.709 13.284C16.0582 13.6226 16.25 14.0768 16.25 14.5455H17.75C17.75 13.6639 17.3886 12.8232 16.7533 12.2071L15.709 13.284ZM16.25 14.5455C16.25 15.0141 16.0582 15.4683 15.709 15.8069L16.7533 16.8838C17.3886 16.2677 17.75 15.427 17.75 14.5455H16.25ZM15.709 15.8069C15.3591 16.1463 14.8796 16.3409 14.375 16.3409L14.375 17.8409C15.2628 17.8409 16.1187 17.4991 16.7533 16.8838L15.709 15.8069ZM14.375 16.3409H8V17.8409H14.375V16.3409Z"
    fill="currentColor" />
</svg>
