<svg width="24" height="24" viewBox="0 0 24 24" fill="none" xmlns="http://www.w3.org/2000/svg">
<path fill-rule="evenodd" clip-rule="evenodd" d="M12.6748 4.17267C12.5494 3.91415 12.2873 3.75 12 3.75C11.7127 3.75 11.4506 3.91415 11.3252 4.17267L9.10326 8.75332L4.13966 9.4916C3.85885 9.53337 3.62569 9.73011 3.53728 9.9999C3.44888 10.2697 3.52039 10.5663 3.72203 10.7661L7.32079 14.333L6.47093 19.3754C6.42338 19.6575 6.54046 19.942 6.77277 20.109C7.00508 20.276 7.31214 20.2963 7.56437 20.1613L12 17.7876L16.4356 20.1613C16.6879 20.2963 16.9949 20.276 17.2272 20.109C17.4595 19.942 17.5766 19.6575 17.5291 19.3754L16.6792 14.333L20.278 10.7661C20.4796 10.5663 20.5511 10.2697 20.4627 9.9999C20.3743 9.73011 20.1411 9.53337 19.8603 9.4916L14.8967 8.75332L12.6748 4.17267ZM10.28 9.76424L12 6.21847L13.7199 9.76424C13.8281 9.98716 14.0393 10.1423 14.2844 10.1787L18.1584 10.755L15.347 13.5415C15.1738 13.7131 15.0949 13.9583 15.1354 14.1988L15.7959 18.1177L12.3539 16.2756C12.1328 16.1573 11.8672 16.1573 11.6461 16.2756L8.20406 18.1177L8.86457 14.1988C8.9051 13.9583 8.82617 13.7131 8.65297 13.5415L5.84158 10.755L9.71559 10.1787C9.96066 10.1423 10.1719 9.98716 10.28 9.76424Z" fill="currentColor"/>
</svg>
