<svg width="24" height="24" viewBox="0 0 24 24" fill="none" xmlns="http://www.w3.org/2000/svg">
<path fill-rule="evenodd" clip-rule="evenodd" d="M4.5 5.25C4.5 4.83579 4.83579 4.5 5.25 4.5H18.75C19.1642 4.5 19.5 4.83579 19.5 5.25V18.75C19.5 19.1642 19.1642 19.5 18.75 19.5H5.25C4.83579 19.5 4.5 19.1642 4.5 18.75V5.25ZM5.25 3C4.00736 3 3 4.00736 3 5.25V18.75C3 19.9926 4.00736 21 5.25 21H18.75C19.9926 21 21 19.9926 21 18.75V5.25C21 4.00736 19.9926 3 18.75 3H5.25ZM15.9283 7.25C14.5412 7.25 13.2674 8.01569 12.6166 9.24067L10.0587 14.0556C9.66824 14.7906 8.90395 15.25 8.07169 15.25H7.75H7V16.75H7.75H8.07169C9.45879 16.75 10.7326 15.9843 11.3834 14.7593L13.9413 9.9444C14.3318 9.20942 15.0961 8.75 15.9283 8.75H16.25H17V7.25H16.25H15.9283Z" fill="currentColor"/>
</svg>
