<svg width="24" height="24" viewBox="0 0 24 24" fill="none" xmlns="http://www.w3.org/2000/svg">
  <path fill-rule="evenodd" clip-rule="evenodd" d="M6.75 3.25V5.75C6.75 6.02614 6.97386 6.25 7.25 6.25H16.75C17.0261 6.25 17.25 6.02614 17.25 5.75V3.25H18.75V5.75C18.75 6.85457 17.8546 7.75 16.75 7.75H7.25C6.14543 7.75 5.25 6.85457 5.25 5.75V3.25H6.75ZM3.25 11.25H8.08333V12.75H3.25V11.25ZM9.58333 11.25H14.4167V12.75H9.58333V11.25ZM15.9167 11.25H20.75V12.75H15.9167V11.25ZM5.25 18.25C5.25 17.1454 6.14543 16.25 7.25 16.25H16.75C17.8546 16.25 18.75 17.1454 18.75 18.25V20.75H17.25V18.25C17.25 17.9739 17.0261 17.75 16.75 17.75H7.25C6.97386 17.75 6.75 17.9739 6.75 18.25V20.75H5.25V18.25Z" fill="currentColor"/>
</svg>
