<svg width="24" height="24" viewBox="0 0 24 24" fill="none" xmlns="http://www.w3.org/2000/svg">
<path d="M11.0816 4.70771C10.8671 3.90751 10.0446 3.43264 9.24444 3.64705L3.44889 5.19997C2.64869 5.41438 2.17382 6.23689 2.38823 7.03708L5.49406 18.6282C5.70847 19.4284 6.53098 19.9033 7.33117 19.6889L13.1267 18.1359C13.9269 17.9215 14.4018 17.099 14.1874 16.2988L11.0816 4.70771Z" fill="transparent" stroke="currentColor" stroke-width="1.5" stroke-linecap="round" stroke-linejoin="round"/>
<path fill-rule="evenodd" clip-rule="evenodd" d="M15.686 19.75H18.25C19.4926 19.75 20.5 18.7426 20.5 17.5V5.5C20.5 4.25736 19.4926 3.25 18.25 3.25H13.5H13.4617C13.5748 3.48534 13.6678 3.73452 13.7379 3.99595L13.9399 4.75H18.25C18.6642 4.75 19 5.08579 19 5.5V17.5C19 17.9142 18.6642 18.25 18.25 18.25H16.691C16.4675 18.8138 16.1251 19.3267 15.686 19.75Z" fill="currentColor"/>
</svg>
