<svg width="24" height="24" viewBox="0 0 24 24" fill="none" xmlns="http://www.w3.org/2000/svg">
<path d="M15.2 11.496L14.4581 11.606L15.2 11.496ZM12.504 8.8L12.394 9.54189L12.504 8.8ZM15.6 6.85C15.1858 6.85 14.85 7.18579 14.85 7.6C14.85 8.01421 15.1858 8.35 15.6 8.35V6.85ZM15.608 8.35C16.0222 8.35 16.358 8.01421 16.358 7.6C16.358 7.18579 16.0222 6.85 15.608 6.85V8.35ZM8 4.75H16V3.25H8V4.75ZM16 4.75C17.7949 4.75 19.25 6.20507 19.25 8H20.75C20.75 5.37665 18.6234 3.25 16 3.25V4.75ZM19.25 8V16H20.75V8H19.25ZM19.25 16C19.25 17.7949 17.7949 19.25 16 19.25V20.75C18.6234 20.75 20.75 18.6234 20.75 16H19.25ZM16 19.25H8V20.75H16V19.25ZM8 19.25C6.20507 19.25 4.75 17.7949 4.75 16H3.25C3.25 18.6234 5.37665 20.75 8 20.75V19.25ZM4.75 16V8H3.25V16H4.75ZM4.75 8C4.75 6.20507 6.20507 4.75 8 4.75V3.25C5.37665 3.25 3.25 5.37665 3.25 8H4.75ZM14.4581 11.606C14.5337 12.1158 14.4466 12.6364 14.2093 13.0938L15.5407 13.7846C15.9234 13.0472 16.0638 12.2078 15.9419 11.386L14.4581 11.606ZM14.2093 13.0938C13.9719 13.5512 13.5964 13.9221 13.1361 14.1538L13.8105 15.4937C14.5526 15.1201 15.1581 14.5221 15.5407 13.7846L14.2093 13.0938ZM13.1361 14.1538C12.6758 14.3855 12.1542 14.4661 11.6454 14.3843L11.4071 15.8652C12.2274 15.9972 13.0684 15.8672 13.8105 15.4937L13.1361 14.1538ZM11.6454 14.3843C11.1366 14.3024 10.6666 14.0622 10.3022 13.6978L9.24154 14.7585C9.82903 15.3459 10.5868 15.7332 11.4071 15.8652L11.6454 14.3843ZM10.3022 13.6978C9.93781 13.3334 9.6976 12.8634 9.61573 12.3546L8.13478 12.5929C8.26677 13.4132 8.65406 14.171 9.24154 14.7585L10.3022 13.6978ZM9.61573 12.3546C9.53386 11.8458 9.6145 11.3242 9.84619 10.8639L8.50633 10.1895C8.1328 10.9316 8.00279 11.7726 8.13478 12.5929L9.61573 12.3546ZM9.84619 10.8639C10.0779 10.4036 10.4488 10.0281 10.9062 9.79071L10.2154 8.45928C9.4779 8.84193 8.87987 9.44738 8.50633 10.1895L9.84619 10.8639ZM10.9062 9.79071C11.3636 9.55337 11.8842 9.4663 12.394 9.54189L12.614 8.05811C11.7922 7.93624 10.9528 8.07662 10.2154 8.45928L10.9062 9.79071ZM12.394 9.54189C12.914 9.61899 13.3953 9.86128 13.767 10.233L14.8277 9.17232C14.2284 8.57306 13.4523 8.18242 12.614 8.05811L12.394 9.54189ZM13.767 10.233C14.1387 10.6047 14.381 11.086 14.4581 11.606L15.9419 11.386C15.8176 10.5477 15.4269 9.77157 14.8277 9.17232L13.767 10.233ZM15.6 8.35H15.608V6.85H15.6V8.35Z" fill="currentColor"/>
</svg>
