<svg width="24" height="24" viewBox="0 0 24 24" fill="none" xmlns="http://www.w3.org/2000/svg">
  <path fill-rule="evenodd" clip-rule="evenodd" d="M3.34853 6.62823C3.61002 5.82807 4.3625 5.25 5.25 5.25H18.75C19.6375 5.25 20.39 5.82807 20.6515 6.62823C20.7344 6.7731 20.764 6.93697 20.744 7.0944C20.748 7.14575 20.75 7.19764 20.75 7.25V16.75C20.75 17.8546 19.8546 18.75 18.75 18.75H5.25C4.14543 18.75 3.25 17.8546 3.25 16.75V7.25C3.25 7.19764 3.25201 7.14575 3.25596 7.0944C3.23597 6.93697 3.26562 6.7731 3.34853 6.62823ZM4.75 8.5V16.75C4.75 17.0261 4.97386 17.25 5.25 17.25H18.75C19.0261 17.25 19.25 17.0261 19.25 16.75V8.5L12.45 13.6C12.1833 13.8 11.8167 13.8 11.55 13.6L4.75 8.5ZM18.9967 6.81499C18.9239 6.77362 18.8397 6.75 18.75 6.75H5.25C5.16029 6.75 5.07611 6.77362 5.00332 6.81499L12 12.0625L18.9967 6.81499Z" fill="currentColor"/>
</svg>
