<svg width="24" height="24" viewBox="0 0 24 24" fill="none" xmlns="http://www.w3.org/2000/svg">
<path d="M20.25 4.97158C19.5197 5.47977 18.9898 5.65445 18.134 5.90867C17.6747 5.38767 17.0643 5.0184 16.3853 4.8508C15.7062 4.6832 14.9914 4.72536 14.3375 4.97158C13.6836 5.21779 13.1221 5.65618 12.729 6.22745C12.3358 6.79873 12.13 7.47532 12.1394 8.16573V8.91808C10.7991 8.95237 9.47103 8.65913 8.27343 8.0645C7.07583 7.46986 6.04589 6.59228 5.27535 5.50992C5.27535 5.50992 2.22465 12.2811 9.08872 15.2905C7.51801 16.3423 5.64689 16.8697 3.75 16.7952C10.6141 20.557 19.0035 16.7952 19.0035 8.14316C19.0028 7.93359 19.0434 8.07122 19.0035 7.86538C19.7819 7.10814 19.9913 6.01939 20.25 4.97158Z" fill="transparent" stroke="currentColor" stroke-width="1.5" stroke-linecap="round" stroke-linejoin="round"/>
</svg>
