<svg width="24" height="24" viewBox="0 0 24 24" fill="none" xmlns="http://www.w3.org/2000/svg">
  <path fill-rule="evenodd" clip-rule="evenodd" d="M17.3278 4.79518C17.3416 4.8539 17.3535 4.91296 17.3634 4.97226C17.446 5.4632 17.3989 5.97111 17.221 6.44483C17.1195 6.71487 17.182 7.01913 17.3815 7.22741C17.6506 7.5082 17.8621 7.83319 18.009 8.18439C18.1666 8.56141 18.2499 8.96864 18.25 9.38384" fill="currentColor"/>
  <path d="M14.918 4.26799C13.3532 3.90075 11.7237 3.90075 10.159 4.26799C9.25916 3.70351 8.56354 3.43865 8.04861 3.32507C7.76416 3.26232 7.53585 3.246 7.36095 3.25078C7.2737 3.25317 7.20059 3.26078 7.14131 3.27018C7.1117 3.27487 7.06317 3.28507 7.06317 3.28507C6.84944 3.34806 6.61805 3.51746 6.5298 3.72205C6.14519 4.61368 6.0717 5.60304 6.31314 6.53432C5.67223 7.35061 5.32178 8.36169 5.32692 9.40711C5.32734 11.5055 5.97936 12.9181 7.06246 13.8231C7.77995 14.4225 8.63472 14.7533 9.4771 14.9483C9.47188 14.962 9.46674 14.9757 9.46171 14.9894C9.31661 15.3851 9.25269 15.8056 9.27353 16.226C8.63342 16.382 8.20594 16.3689 7.91409 16.2982C7.59158 16.22 7.36148 16.0542 7.14534 15.8182C7.03234 15.6949 6.92652 15.556 6.81083 15.3961C6.78481 15.3601 6.75732 15.3217 6.72874 15.2818C6.63945 15.157 6.53948 15.0172 6.44032 14.8913C6.17403 14.5529 5.78799 14.1427 5.18081 13.9919L4.45293 13.8111L4.09131 15.2668L4.81919 15.4476C4.92995 15.4751 5.05417 15.5554 5.2616 15.8189C5.33776 15.9157 5.40848 16.0145 5.4915 16.1305C5.52398 16.1759 5.55835 16.2239 5.59566 16.2755C5.71995 16.4472 5.86637 16.6427 6.03927 16.8314C6.39493 17.2197 6.87124 17.5889 7.5609 17.756C8.0578 17.8764 8.62239 17.8814 9.27564 17.7595V19.75H10.7756V16.2392C10.7756 16.2216 10.775 16.2039 10.7738 16.1863C10.7574 15.9554 10.7902 15.7235 10.87 15.5058C10.9499 15.288 11.0751 15.0891 11.2378 14.922C11.4366 14.7179 11.5025 14.4189 11.4081 14.1501C11.3137 13.8813 11.0751 13.6893 10.7924 13.6544C9.70303 13.5199 8.72741 13.2595 8.02421 12.672C7.35944 12.1166 6.82692 11.1721 6.82693 9.4051L6.82691 9.40109C6.82259 8.59312 7.13334 7.814 7.69538 7.22742C7.89494 7.01915 7.95738 6.71487 7.85596 6.44483C7.65654 5.91388 7.62147 5.33999 7.74907 4.79518C8.09917 4.87615 8.70856 5.09879 9.60988 5.69912C9.78959 5.81882 10.0122 5.85526 10.2207 5.79911C11.7385 5.39038 13.3385 5.39038 14.8563 5.79911C15.0648 5.85526 15.2873 5.81882 15.467 5.69912C16.3684 5.09879 16.9777 4.87615 17.3278 4.79518C17.3416 4.8539 17.3535 4.91296 17.3634 4.97226C17.446 5.4632 17.3989 5.97111 17.221 6.44483C17.1195 6.71487 17.182 7.01913 17.3815 7.22741C17.6506 7.5082 17.8621 7.83319 18.009 8.18439C18.1666 8.56141 18.2499 8.96864 18.25 9.38384C18.25 11.1675 17.716 12.1178 17.0527 12.672C16.3522 13.2573 15.3795 13.5116 14.2938 13.6319C14.0089 13.6634 13.7669 13.8547 13.6703 14.1246C13.5737 14.3945 13.6394 14.6959 13.8396 14.9011C14.0043 15.0699 14.1306 15.2712 14.2105 15.4917C14.2904 15.7121 14.3221 15.9467 14.3036 16.18C14.3021 16.1997 14.3013 16.2195 14.3013 16.2392V19.75H15.8013V16.2669C15.8314 15.8303 15.7699 15.3922 15.6207 14.9805C15.6155 14.966 15.6101 14.9515 15.6046 14.9371C16.4457 14.7487 17.2982 14.4215 18.0145 13.8231C19.0994 12.9166 19.75 11.4949 19.75 9.38356C19.7498 8.34626 19.3997 7.34431 18.7638 6.53433C19.0052 5.60305 18.9317 4.61368 18.5471 3.72205C18.4589 3.51746 18.2275 3.34806 18.0137 3.28507C17.9912 3.27998 17.9652 3.27487 17.9356 3.27018C17.8763 3.26078 17.8032 3.25317 17.716 3.25078C17.5411 3.246 17.3128 3.26232 17.0283 3.32507C16.5134 3.43866 15.8178 3.70351 14.918 4.26799Z" fill="currentColor"/>
</svg>
