<svg width="24" height="24" viewBox="0 0 24 24" fill="none" xmlns="http://www.w3.org/2000/svg">
<path fill-rule="evenodd" clip-rule="evenodd" d="M16.4309 4.36863C15.6264 4.17142 14.7794 4.22093 14.004 4.51087C13.2284 4.80086 12.5598 5.3182 12.0904 5.99555C11.6311 6.65837 11.3848 7.44245 11.3849 8.24585C10.4579 8.17631 9.5517 7.93013 8.71802 7.51906C7.66619 7.00043 6.76329 6.23585 6.08866 5.2948C5.9326 5.0771 5.67228 4.95916 5.40571 4.98537C5.13914 5.01159 4.89353 5.20798 4.78286 5.45191C4.77579 5.4682 4.76618 5.4907 4.75444 5.5191C4.73097 5.57586 4.69889 5.65631 4.66139 5.75793C4.58647 5.96093 4.48934 6.24986 4.39573 6.60442C4.20946 7.30998 4.03203 8.29469 4.0828 9.38898C4.13375 10.487 4.41557 11.7097 5.16128 12.8631C5.71198 13.7149 6.49943 14.5037 7.58717 15.1701C6.47764 15.662 5.25988 15.8976 4.02919 15.8497C3.68103 15.8361 3.36938 16.0641 3.27689 16.4C3.1844 16.7359 3.33543 17.0913 3.64147 17.2579C7.17433 19.1806 11.1368 19.1983 14.2384 17.5811C17.3535 15.9569 19.5321 12.7172 19.5412 8.29529C20.2222 7.49399 20.4682 6.47103 20.6634 5.65946C20.6853 5.5682 20.7066 5.47961 20.7278 5.39431C20.8031 5.09157 20.6831 4.77385 20.4265 4.59645C20.1699 4.41905 19.8303 4.419 19.5736 4.59635C19.0813 4.93652 18.712 5.09386 18.1582 5.26856C17.6666 4.83578 17.0739 4.52624 16.4309 4.36863ZM5.78292 7.24224C5.64994 7.81704 5.54509 8.5414 5.58119 9.31946C5.62269 10.2138 5.84932 11.1646 6.42095 12.0487C6.98992 12.9288 7.93056 13.7895 9.47632 14.4625C9.72812 14.5721 9.89986 14.8106 9.92402 15.0841C9.94818 15.3577 9.8209 15.6226 9.59222 15.7747C8.79798 16.3028 7.93127 16.7044 7.02402 16.9706C9.33701 17.5246 11.6495 17.2393 13.5449 16.251C16.1549 14.8902 18.0413 12.1629 18.0413 8.26749V8C18.0413 7.7966 18.1239 7.60193 18.2701 7.4606C18.5088 7.23006 18.6761 6.95613 18.8103 6.634C18.6056 6.70257 18.392 6.76677 18.1603 6.83511C17.8815 6.91736 17.5803 6.83107 17.3873 6.61368C17.0441 6.22711 16.586 5.95106 16.0738 5.8255C15.5615 5.69993 15.0221 5.73162 14.5293 5.91587C14.0367 6.10007 13.6164 6.42703 13.3233 6.84992C13.0304 7.27258 12.8782 7.77138 12.8851 8.27896L12.8853 8.28922L12.8852 9.01371C12.8852 9.4205 12.5609 9.75314 12.1542 9.76347C10.7336 9.79955 9.32538 9.49097 8.05466 8.86441C7.20989 8.44787 6.44299 7.89921 5.78292 7.24224Z" fill="currentColor"/>
</svg>
