<svg width="24" height="24" viewBox="0 0 24 24" fill="none" xmlns="http://www.w3.org/2000/svg">
  <path fill-rule="evenodd" clip-rule="evenodd" d="M12 4.75C9.91869 4.75 8.25 6.41024 8.25 8.43554C8.25 8.77749 8.38664 9.28661 8.67452 9.93689C8.95463 10.5696 9.34589 11.2661 9.78119 11.9601C10.5533 13.1909 11.4345 14.3672 12 15.0921C12.5655 14.3672 13.4467 13.1909 14.2188 11.9601C14.6541 11.2661 15.0454 10.5696 15.3255 9.93689C15.6134 9.28661 15.75 8.77749 15.75 8.43554C15.75 6.41024 14.0813 4.75 12 4.75ZM6.75 8.43554C6.75 5.56148 9.11074 3.25 12 3.25C14.8893 3.25 17.25 5.56148 17.25 8.43554C17.25 9.09675 17.0093 9.83881 16.6971 10.5441C16.3771 11.267 15.9454 12.0304 15.4895 12.7572C14.577 14.2118 13.5299 15.5787 12.9766 16.2768C12.4766 16.9077 11.5234 16.9077 11.0234 16.2768C10.4701 15.5787 9.423 14.2118 8.51051 12.7572C8.0546 12.0304 7.62293 11.267 7.30292 10.5441C6.99068 9.83881 6.75 9.09675 6.75 8.43554ZM12 7.28459C11.5164 7.28459 11.1429 7.66821 11.1429 8.11871C11.1429 8.56922 11.5164 8.95283 12 8.95283C12.4836 8.95283 12.8571 8.56922 12.8571 8.11871C12.8571 7.66821 12.4836 7.28459 12 7.28459ZM9.64286 8.11871C9.64286 6.81945 10.7084 5.78459 12 5.78459C13.2916 5.78459 14.3571 6.81945 14.3571 8.11871C14.3571 9.41798 13.2916 10.4528 12 10.4528C10.7084 10.4528 9.64286 9.41798 9.64286 8.11871ZM7.50623 14.6646L5.21352 19.25H18.7865L16.4938 14.6646L17.8354 13.9938L20.309 18.941C20.7246 19.7721 20.1202 20.75 19.191 20.75H4.80902C3.87979 20.75 3.27542 19.7721 3.69098 18.941L6.16459 13.9938L7.50623 14.6646Z" fill="currentColor"/>
</svg>
