<svg width="24" height="24" viewBox="0 0 24 24" fill="none" xmlns="http://www.w3.org/2000/svg">
  <path fill-rule="evenodd" clip-rule="evenodd"
    d="M20.5739 6H3.43839C2.6504 6 2 6.624 2 7.38V16.608C2 17.376 2.6504 18 3.43839 18H20.5614C21.3619 18 21.9998 17.376 21.9998 16.62V7.38C22.0123 6.624 21.3619 6 20.5739 6ZM13.2569 15.6H10.7554V12L8.87924 14.304L7.00308 12V15.6H4.50154V8.4H7.00308L8.87924 10.8L10.7554 8.4H13.2569V15.6ZM16.9967 16.2L13.8823 12H15.7585V8.4H18.26V12H20.1362L16.9967 16.2Z"
    fill="currentColor" />
</svg>
