<svg width="24" height="24" viewBox="0 0 24 24" fill="none" xmlns="http://www.w3.org/2000/svg">
  <path fill-rule="evenodd" clip-rule="evenodd" d="M11 5.75C6.99594 5.75 3.75 8.99594 3.75 13C3.75 17.0041 6.99594 20.25 11 20.25C15.0041 20.25 18.25 17.0041 18.25 13V10.25H19.75V13C19.75 17.8325 15.8325 21.75 11 21.75C6.42015 21.75 2.66212 18.2314 2.28169 13.75H2.25V13C2.25 8.16751 6.16751 4.25 11 4.25H11.75V5.75H11Z" fill="currentColor"/>
  <path fill-rule="evenodd" clip-rule="evenodd" d="M13.375 1.625C13.375 0.934644 13.9346 0.375 14.625 0.375H22.375C23.0654 0.375 23.625 0.934644 23.625 1.625V1.99031C23.6251 1.99639 23.6251 2.00247 23.625 2.00855V7.375C23.625 8.06536 23.0654 8.625 22.375 8.625H14.625C13.9346 8.625 13.375 8.06536 13.375 7.375V2.00855C13.3749 2.00247 13.3749 1.99639 13.375 1.99031V1.625ZM14.625 3.16782V7.375H22.375V3.16782L18.8467 5.52003C18.6368 5.65999 18.3632 5.65999 18.1533 5.52003L14.625 3.16782ZM22.375 1.66551V1.625L14.625 1.625V1.66551L18.5 4.24884L22.375 1.66551Z" fill="currentColor"/>
  <path d="M8 13C8 14.6569 9.34315 16 11 16C12.6569 16 14 14.6569 14 13C14 11.3431 12.6569 10 11 10C9.34315 10 8 11.3431 8 13Z" fill="currentColor"/>
</svg>
