<svg width="24" height="24" viewBox="0 0 24 24" fill="none" xmlns="http://www.w3.org/2000/svg">
  <path fill-rule="evenodd" clip-rule="evenodd" d="M3.25 5.25C3.25 4.14543 4.14543 3.25 5.25 3.25H18.75C19.8546 3.25 20.75 4.14543 20.75 5.25V11.75H19.25V5.25C19.25 4.97386 19.0261 4.75 18.75 4.75H5.25C4.97386 4.75 4.75 4.97386 4.75 5.25V8.25H3.25V5.25ZM4.75 11.6797V18.75C4.75 19.0261 4.97386 19.25 5.25 19.25H18.75C19.0261 19.25 19.25 19.0261 19.25 18.75V14.75H20.75V18.75C20.75 19.8546 19.8546 20.75 18.75 20.75H5.25C4.14543 20.75 3.25 19.8546 3.25 18.75V11.6797H4.75Z" fill="currentColor"/>
  <path fill-rule="evenodd" clip-rule="evenodd" d="M4.26172 12L3.91687 11.334L3.25085 11.6788L3.94056 13.0108L4.60622 12.6662L4.60624 12.6662L4.60637 12.6661L4.60658 12.666L4.60716 12.6657L4.6129 12.6628L4.63941 12.6494C4.66362 12.6372 4.7007 12.6188 4.74951 12.5952C4.84717 12.5479 4.99153 12.4798 5.17363 12.3989C5.53858 12.2367 6.05115 12.025 6.64032 11.8268C7.84872 11.4204 9.26056 11.1129 10.3761 11.2998C11.617 11.5077 12.1106 12.5303 12.7972 14.0291C13.1107 14.7134 13.4768 15.5066 14.0231 16.1203C14.6052 16.7743 15.3903 17.2268 16.4847 17.2491C17.3869 17.2675 18.4014 16.8622 19.1081 16.5223C19.4792 16.3438 19.8015 16.1651 20.031 16.0311C20.1462 15.9639 20.2388 15.9074 20.3036 15.8672C20.3361 15.847 20.3616 15.8309 20.3795 15.8195L20.4006 15.806L20.4067 15.802L20.4087 15.8007L20.4093 15.8003L20.4096 15.8001C20.4097 15.8 20.4098 15.8 20 15.1719L20.4098 15.8L20.75 15.578V14.9488L20.6203 14.75H19.2502C19.0475 14.8676 18.7711 15.0198 18.4578 15.1706C17.7698 15.5015 17.0343 15.76 16.5153 15.7494C15.8829 15.7366 15.4793 15.5002 15.1435 15.123C14.7719 14.7055 14.4911 14.125 14.161 13.4044C14.1349 13.3476 14.1085 13.2896 14.0817 13.2307C13.4903 11.9307 12.6874 10.1661 10.6239 9.82041C9.12714 9.56968 7.41984 9.98211 6.16218 10.4051C5.51831 10.6216 4.96112 10.8519 4.56457 11.0281C4.36591 11.1163 4.20659 11.1915 4.09575 11.2451C4.04031 11.272 3.99693 11.2935 3.96675 11.3086L3.9315 11.3265L3.92156 11.3315L3.91855 11.3331L3.91754 11.3336L3.91716 11.3338C3.91701 11.3339 3.91687 11.334 4.26172 12Z" fill="currentColor"/>
</svg>
