<svg width="24" height="24" viewBox="0 0 24 24" fill="none" xmlns="http://www.w3.org/2000/svg">
<path d="M10.5 5.68182C8.41011 5.68182 6.71591 7.37602 6.71591 9.46591C6.71591 11.5558 8.41011 13.25 10.5 13.25C11.9234 13.25 13.1632 12.4641 13.8092 11.3026" fill="transparent" stroke="currentColor" stroke-width="1.5" stroke-linecap="square" stroke-linejoin="round"/>
<path d="M16.8068 21.1313V19.4341C16.8068 18.594 16.8068 18.174 16.6433 17.8531C16.4995 17.5709 16.27 17.3414 15.9878 17.1976C15.6669 17.0341 15.2469 17.0341 14.4068 17.0341H6.59318C5.7531 17.0341 5.33306 17.0341 5.01219 17.1976C4.72995 17.3414 4.50048 17.5709 4.35667 17.8531C4.19318 18.174 4.19318 18.594 4.19318 19.4341V21.1313" fill="transparent" stroke="currentColor" stroke-width="1.5" stroke-linecap="round"/>
<path d="M22.25 2.95L18.4759 4.99243C18.179 5.15313 17.821 5.15313 17.5241 4.99243L13.75 2.95M14.3403 8.25H21.6597C21.9857 8.25 22.25 7.99017 22.25 7.66964V2.33036C22.25 2.00983 21.9857 1.75 21.6597 1.75H14.3403C14.0143 1.75 13.75 2.00983 13.75 2.33036V7.66964C13.75 7.99017 14.0143 8.25 14.3403 8.25Z" fill="transparent" stroke="currentColor" stroke-width="1.25" stroke-linecap="round" stroke-linejoin="round"/>
</svg>
