<svg width="24" height="24" viewBox="0 0 24 24" fill="none" xmlns="http://www.w3.org/2000/svg">
<path fill-rule="evenodd" clip-rule="evenodd" d="M13.25 2.25V21.75H11.75V19.75H4.25C3.14543 19.75 2.25 18.8546 2.25 17.75V6.25C2.25 5.14543 3.14543 4.25 4.25 4.25H11.75V2.25H13.25ZM11.75 5.75H4.25C3.97386 5.75 3.75 5.97386 3.75 6.25V15.1893L8 10.9393L11.75 14.6893V5.75ZM11.75 16.8107L8 13.0607L3.75 17.3107V17.75C3.75 18.0261 3.97386 18.25 4.25 18.25H11.75V16.8107Z" fill="currentColor"/>
<path d="M22.75 6.25C22.75 5.14543 21.8546 4.25 20.75 4.25H15.25V5.75H20.75C21.0261 5.75 21.25 5.97386 21.25 6.25V10.1893L19 7.93934L15.25 11.6893V13.8107L19 10.0607L21.25 12.3107V17.75C21.25 18.0261 21.0261 18.25 20.75 18.25H15.25V19.75H20.75C21.8546 19.75 22.75 18.8546 22.75 17.75V6.25Z" fill="currentColor"/>
</svg>
