<svg width="24" height="24" viewBox="0 0 24 24" fill="none" xmlns="http://www.w3.org/2000/svg">
<path fill-rule="evenodd" clip-rule="evenodd" d="M6.75 5H6.72475H6.72474C6.28028 4.99999 5.90925 4.99999 5.60464 5.02077C5.28754 5.04241 4.98801 5.08905 4.69762 5.20933C4.02379 5.48844 3.48844 6.02379 3.20933 6.69762C3.08905 6.98801 3.04241 7.28754 3.02077 7.60464C2.99999 7.90925 2.99999 8.28029 3 8.72475V8.75V8.77525V8.8243V9.5H3.00453C3.00753 9.64259 3.01251 9.77423 3.02077 9.89537C3.04241 10.2125 3.08905 10.512 3.20933 10.8024C3.48844 11.4762 4.02379 12.0116 4.69762 12.2907C4.98801 12.411 5.28754 12.4576 5.60464 12.4792C5.90925 12.5 6.28028 12.5 6.72474 12.5H6.75H17.25H17.2753C17.7197 12.5 18.0908 12.5 18.3954 12.4792C18.7125 12.4576 19.012 12.411 19.3024 12.2907C19.9762 12.0116 20.5116 11.4762 20.7907 10.8024C20.911 10.512 20.9576 10.2125 20.9792 9.89537C20.9875 9.77423 20.9925 9.64259 20.9955 9.5H21V8.81908V8.77526V8.75V8.72474C21 8.28028 21 7.90925 20.9792 7.60464C20.9576 7.28754 20.911 6.98801 20.7907 6.69762C20.5116 6.02379 19.9762 5.48844 19.3024 5.20933C19.012 5.08905 18.7125 5.04241 18.3954 5.02077C18.0908 4.99999 17.7197 4.99999 17.2753 5H17.2753H17.25H6.75ZM4.51729 9.79326C4.50041 9.5458 4.5 9.2262 4.5 8.75C4.5 8.2738 4.50041 7.95421 4.51729 7.70674C4.53372 7.46602 4.56319 7.3488 4.59515 7.27165C4.72202 6.96536 4.96536 6.72202 5.27165 6.59515C5.3488 6.56319 5.46602 6.53372 5.70674 6.51729C5.95421 6.50041 6.2738 6.5 6.75 6.5H17.25C17.7262 6.5 18.0458 6.50041 18.2933 6.51729C18.534 6.53372 18.6512 6.56319 18.7284 6.59515C19.0346 6.72202 19.278 6.96536 19.4049 7.27165C19.4368 7.3488 19.4663 7.46602 19.4827 7.70674C19.4996 7.95421 19.5 8.2738 19.5 8.75C19.5 9.2262 19.4996 9.5458 19.4827 9.79326C19.4663 10.034 19.4368 10.1512 19.4049 10.2284C19.278 10.5346 19.0346 10.778 18.7284 10.9049C18.6512 10.9368 18.534 10.9663 18.2933 10.9827C18.0458 10.9996 17.7262 11 17.25 11H6.75C6.2738 11 5.95421 10.9996 5.70674 10.9827C5.46602 10.9663 5.3488 10.9368 5.27165 10.9049C4.96536 10.778 4.72202 10.5346 4.59515 10.2284C4.56319 10.1512 4.53372 10.034 4.51729 9.79326ZM4.75 14.5H4V16H4.75H11.25H12V14.5H11.25H4.75ZM14 14.5H14.75H19.25H20V16H19.25H14.75H14V14.5ZM4.75 17.5H4V19H4.75H16.25H17V17.5H16.25H4.75Z" fill="currentColor"/>
</svg>
