<svg width="24" height="24" viewBox="0 0 24 24" fill="none" xmlns="http://www.w3.org/2000/svg">
<path fill-rule="evenodd" clip-rule="evenodd" d="M8.97222 3.25H15.0278C15.354 3.24999 15.6428 3.24997 15.8821 3.26952C16.1369 3.29034 16.4009 3.33702 16.658 3.46799C17.0343 3.65974 17.3403 3.9657 17.532 4.34202C17.663 4.59907 17.7097 4.86311 17.7305 5.11793C17.734 5.16042 17.7368 5.20446 17.7392 5.25H19C19.9665 5.25 20.75 6.0335 20.75 7V17C20.75 17.9665 19.9665 18.75 19 18.75H17.7392C17.7368 18.7955 17.734 18.8396 17.7305 18.8821C17.7097 19.1369 17.663 19.4009 17.532 19.658C17.3403 20.0343 17.0343 20.3403 16.658 20.532C16.4009 20.663 16.1369 20.7097 15.8821 20.7305C15.6428 20.75 15.354 20.75 15.0278 20.75H8.97221C8.64596 20.75 8.35722 20.75 8.11793 20.7305C7.86311 20.7097 7.59906 20.663 7.34202 20.532C6.96569 20.3403 6.65973 20.0343 6.46799 19.658C6.33702 19.4009 6.29034 19.1369 6.26952 18.8821C6.26605 18.8396 6.2632 18.7955 6.26085 18.75H5C4.0335 18.75 3.25 17.9665 3.25 17V7C3.25 6.0335 4.0335 5.25 5 5.25H6.26085C6.2632 5.20446 6.26605 5.16042 6.26952 5.11793C6.29034 4.86311 6.33702 4.59907 6.46799 4.34202C6.65973 3.9657 6.96569 3.65974 7.34202 3.46799C7.59906 3.33702 7.86311 3.29034 8.11793 3.26952C8.35722 3.24997 8.64597 3.24999 8.97222 3.25ZM6.25 6.75H5C4.86193 6.75 4.75 6.86193 4.75 7V17C4.75 17.1381 4.86193 17.25 5 17.25H6.25V6.75ZM17.75 17.25H19C19.1381 17.25 19.25 17.1381 19.25 17V7C19.25 6.86193 19.1381 6.75 19 6.75H17.75V17.25ZM8.24008 4.76454C8.07802 4.77778 8.03335 4.79923 8.023 4.8045C7.92892 4.85243 7.85243 4.92893 7.8045 5.02301C7.79923 5.03335 7.77778 5.07802 7.76454 5.24008C7.75058 5.41089 7.75 5.63759 7.75 6V18C7.75 18.3624 7.75058 18.5891 7.76454 18.7599C7.77778 18.922 7.79923 18.9667 7.8045 18.977C7.85243 19.0711 7.92892 19.1476 8.023 19.1955C8.03335 19.2008 8.07802 19.2222 8.24008 19.2355C8.41089 19.2494 8.63759 19.25 9 19.25H15C15.3624 19.25 15.5891 19.2494 15.7599 19.2355C15.922 19.2222 15.9667 19.2008 15.977 19.1955C16.0711 19.1476 16.1476 19.0711 16.1955 18.977C16.2008 18.9667 16.2222 18.922 16.2355 18.7599C16.2494 18.5891 16.25 18.3624 16.25 18V6C16.25 5.63759 16.2494 5.41089 16.2355 5.24008C16.2222 5.07802 16.2008 5.03335 16.1955 5.02301C16.1476 4.92893 16.0711 4.85244 15.977 4.8045C15.9667 4.79923 15.922 4.77778 15.7599 4.76454C15.5891 4.75059 15.3624 4.75 15 4.75H9C8.63759 4.75 8.41089 4.75059 8.24008 4.76454Z" fill="currentColor"/>
</svg>
