<svg width="24" height="24" viewBox="0 0 24 24" fill="none" xmlns="http://www.w3.org/2000/svg">
<path fill-rule="evenodd" clip-rule="evenodd" d="M4.5 5.25C4.5 4.83579 4.83579 4.5 5.25 4.5H18.75C19.1642 4.5 19.5 4.83579 19.5 5.25V18.75C19.5 19.1642 19.1642 19.5 18.75 19.5H5.25C4.83579 19.5 4.5 19.1642 4.5 18.75V5.25ZM5.25 3C4.00736 3 3 4.00736 3 5.25V18.75C3 19.9926 4.00736 21 5.25 21H18.75C19.9926 21 21 19.9926 21 18.75V5.25C21 4.00736 19.9926 3 18.75 3H5.25ZM7 9.5H10.5V11.5H8.25C7.55964 11.5 7 12.0596 7 12.75V15.25V16H7.75H12V14.5H8.5V13H10.75C11.4404 13 12 12.4404 12 11.75V9.25C12 8.55964 11.4404 8 10.75 8H7V9.5ZM15 15.25V16H16.5V15.25V10.5607L16.9697 11.0303L17.5 11.5607L18.5607 10.5L18.0303 9.96967L16.2803 8.21967C15.9874 7.92678 15.5126 7.92678 15.2197 8.21967L13.4697 9.96967L12.9393 10.5L14 11.5607L14.5303 11.0303L15 10.5607V15.25Z" fill="currentColor"/>
</svg>
