<svg width="24" height="24" viewBox="0 0 24 24" fill="none" xmlns="http://www.w3.org/2000/svg">
<path fill-rule="evenodd" clip-rule="evenodd" d="M14.3403 1.125C13.6791 1.125 13.125 1.65471 13.125 2.33036V2.93722C13.1248 2.94538 13.1248 2.95354 13.125 2.96169V7.66964C13.125 8.34529 13.6791 8.875 14.3403 8.875H21.6597C22.3209 8.875 22.875 8.34529 22.875 7.66964V2.96168C22.8752 2.95354 22.8752 2.94538 22.875 2.93722V2.33036C22.875 1.65471 22.3209 1.125 21.6597 1.125H14.3403ZM14.375 7.625V3.99889L17.2266 5.5421C17.7091 5.80324 18.2909 5.80324 18.7734 5.5421L21.625 3.99889V7.625H14.375ZM18.1785 4.44276L21.625 2.57758V2.375H14.375V2.57758L17.8215 4.44276C17.9329 4.50302 18.0671 4.50302 18.1785 4.44276ZM4.53033 5.46967L4 4.93934L2.93934 6L3.46967 6.53033L5.83303 8.89369C4.61805 9.95124 3.60297 11.2219 2.83913 12.6454C2.72391 12.8601 2.7202 13.1174 2.82918 13.3354L3.5 13C2.82918 13.3354 2.8293 13.3357 2.82944 13.3359L2.82977 13.3366L2.8306 13.3382L2.83304 13.3431L2.84096 13.3586C2.84758 13.3714 2.8569 13.3894 2.86889 13.412C2.89286 13.4574 2.92756 13.5216 2.97283 13.6021C3.0633 13.7629 3.19633 13.9892 3.37068 14.2592C3.71845 14.7977 4.23552 15.5175 4.91307 16.2402C6.2545 17.6711 8.31401 19.2045 11 19.2045V19.2046L11.0123 19.2044C12.4169 19.1815 13.7832 18.7707 14.9629 18.0235L17.4697 20.5303L18 21.0607L19.0607 20L18.5303 19.4697L15.5803 16.5197L12.9758 13.9151L10.0849 11.0242L7.48033 8.41967L4.53033 5.46967ZM4.35786 13.0021C5.02708 11.851 5.88553 10.8217 6.89656 9.95722L8.55198 11.6126C8.49392 11.7094 8.44165 11.8098 8.39552 11.9133C8.24274 12.2562 8.16058 12.6264 8.15396 13.0017C8.14734 13.3771 8.21638 13.7499 8.35698 14.098C8.49757 14.4461 8.70684 14.7623 8.97229 15.0277C9.23774 15.2932 9.55394 15.5024 9.90203 15.643C10.2501 15.7836 10.6229 15.8527 10.9983 15.846C11.3736 15.8394 11.7438 15.7573 12.0867 15.6045C12.1902 15.5584 12.2906 15.5061 12.3874 15.448L13.869 16.9297C12.993 17.4187 12.0059 17.687 10.9939 17.7045C8.90996 17.7022 7.22159 16.5095 6.00738 15.2143C5.40652 14.5734 4.94348 13.9296 4.63074 13.4454C4.52023 13.2743 4.42909 13.124 4.35786 13.0021ZM9.65372 13.0282C9.65538 12.9341 9.66728 12.8407 9.68905 12.7497L11.2503 14.3109C11.1593 14.3327 11.0659 14.3446 10.9718 14.3463C10.7979 14.3493 10.6251 14.3173 10.4638 14.2522C10.3025 14.187 10.156 14.0901 10.033 13.967C9.90994 13.844 9.81296 13.6975 9.74781 13.5362C9.68265 13.3749 9.65066 13.2021 9.65372 13.0282ZM9.73912 8.43935C10.1518 8.34275 10.5744 8.29446 10.9982 8.29545L11.7482 8.29721L11.7518 6.79722L11.0018 6.79546C10.4616 6.79419 9.92317 6.85572 9.39725 6.97883L8.66699 7.14976L9.00886 8.61029L9.73912 8.43935ZM17.7164 10.482L17.2438 9.89961L16.0791 10.8448L16.5516 11.4272C16.9741 11.9478 17.297 12.4314 17.5135 12.7834C17.562 12.8623 17.605 12.9344 17.6425 12.9986C17.2964 13.5965 16.8985 14.1631 16.4534 14.6921L15.9705 15.266L17.1183 16.2317L17.6011 15.6579C18.2 14.9462 18.7229 14.1739 19.1614 13.3536C19.2761 13.139 19.2796 12.8822 19.1708 12.6646L18.5 13C19.1708 12.6646 19.1708 12.6645 19.1707 12.6644L19.1706 12.6642L19.1704 12.6637L19.1697 12.6624L19.1679 12.6588L19.1622 12.6475L19.1423 12.6092C19.1254 12.5769 19.101 12.5311 19.0693 12.4736C19.0059 12.3584 18.913 12.1957 18.7913 11.9977C18.5483 11.6025 18.1882 11.0634 17.7164 10.482Z" fill="currentColor"/>
</svg>
