<svg width="24" height="24" viewBox="0 0 24 24" fill="none" xmlns="http://www.w3.org/2000/svg">
<path fill-rule="evenodd" clip-rule="evenodd" d="M6.31266 7C7.69618 5.4655 9.70629 4.5 11.9444 4.5C16.122 4.5 19.5 7.8626 19.5 12C19.5 16.1374 16.122 19.5 11.9444 19.5C9.14628 19.5 6.7045 17.9908 5.39811 15.7476L5.02067 15.0995L3.72446 15.8543L4.10189 16.5024C5.66764 19.191 8.59411 21 11.9444 21C16.9409 21 21 16.9753 21 12C21 7.0247 16.9409 3 11.9444 3C9.42316 3 7.14189 4.0245 5.5 5.67733V4.25079V3.50079H4V4.25079V7.75V8.5H4.75H4.82428H8.25194H9.00194V7H8.25194H6.31266ZM12.5 8.25V7.5H11V8.25V12.2857V12.721L11.3779 12.9369L14.3779 14.6512L15.0291 15.0233L15.7733 13.7209L15.1221 13.3488L12.5 11.8505V8.25Z" fill="currentColor"/>
</svg>
