<svg width="24" height="24" viewBox="0 0 24 24" fill="none" xmlns="http://www.w3.org/2000/svg">
  <path fill-rule="evenodd" clip-rule="evenodd" d="M6.97222 3.25C6.98145 3.25 6.99071 3.25 7 3.25L17.0278 3.25C17.354 3.24999 17.6428 3.24997 17.8821 3.26952C18.1369 3.29034 18.4009 3.33702 18.658 3.46799C19.0343 3.65974 19.3403 3.9657 19.532 4.34202C19.663 4.59907 19.7097 4.86311 19.7305 5.11793C19.75 5.35722 19.75 5.64596 19.75 5.97221V8.0278C19.75 8.35404 19.75 8.64278 19.7305 8.88207C19.7097 9.13689 19.663 9.40094 19.532 9.65798C19.3403 10.0343 19.0343 10.3403 18.658 10.532C18.4009 10.663 18.1369 10.7097 17.8821 10.7305C17.6428 10.75 17.354 10.75 17.0278 10.75H6.97223C6.64597 10.75 6.35723 10.75 6.11793 10.7305C5.86311 10.7097 5.59907 10.663 5.34202 10.532C4.9657 10.3403 4.65974 10.0343 4.46799 9.65798C4.33702 9.40094 4.29034 9.13689 4.26952 8.88207C4.24997 8.64278 4.24999 8.35403 4.25 8.02778L4.25 6C4.25 5.99071 4.25 5.98145 4.25 5.97222C4.24999 5.64597 4.24997 5.35723 4.26952 5.11793C4.29034 4.86311 4.33702 4.59907 4.46799 4.34202C4.65974 3.9657 4.9657 3.65974 5.34202 3.46799C5.59907 3.33702 5.86311 3.29034 6.11793 3.26952C6.35723 3.24997 6.64597 3.24999 6.97222 3.25ZM6.24008 4.76454C6.07802 4.77778 6.03335 4.79923 6.02301 4.8045C5.92893 4.85244 5.85244 4.92893 5.8045 5.02301C5.79923 5.03335 5.77778 5.07802 5.76454 5.24008C5.75059 5.41089 5.75 5.63759 5.75 6V8C5.75 8.36241 5.75059 8.58911 5.76454 8.75993C5.77778 8.92199 5.79923 8.96665 5.8045 8.977C5.85243 9.07108 5.92893 9.14757 6.02301 9.19551C6.03335 9.20078 6.07802 9.22222 6.24008 9.23546C6.41089 9.24942 6.63759 9.25 7 9.25H17C17.3624 9.25 17.5891 9.24942 17.7599 9.23546C17.922 9.22222 17.9667 9.20078 17.977 9.19551C18.0711 9.14757 18.1476 9.07108 18.1955 8.977C18.2008 8.96665 18.2222 8.92199 18.2355 8.75993C18.2494 8.58911 18.25 8.36241 18.25 8V6C18.25 5.63759 18.2494 5.41089 18.2355 5.24008C18.2222 5.07802 18.2008 5.03335 18.1955 5.02301C18.1476 4.92893 18.0711 4.85244 17.977 4.8045C17.9667 4.79923 17.922 4.77778 17.7599 4.76454C17.5891 4.75059 17.3624 4.75 17 4.75H7C6.63759 4.75 6.41089 4.75059 6.24008 4.76454ZM8.58334 6.25H15.4167V7.75H8.58334V6.25ZM6.97221 13.25H17.0278C17.354 13.25 17.6428 13.25 17.8821 13.2695C18.1369 13.2903 18.4009 13.337 18.658 13.468C19.0343 13.6597 19.3403 13.9657 19.532 14.342C19.663 14.5991 19.7097 14.8631 19.7305 15.1179C19.75 15.3572 19.75 15.646 19.75 15.9722V18.0278C19.75 18.354 19.75 18.6428 19.7305 18.8821C19.7097 19.1369 19.663 19.4009 19.532 19.658C19.3403 20.0343 19.0343 20.3403 18.658 20.532C18.4009 20.663 18.1369 20.7097 17.8821 20.7305C17.6428 20.75 17.354 20.75 17.0278 20.75H6.97221C6.64596 20.75 6.35722 20.75 6.11793 20.7305C5.86311 20.7097 5.59907 20.663 5.34202 20.532C4.9657 20.3403 4.65974 20.0343 4.46799 19.658C4.33702 19.4009 4.29034 19.1369 4.26952 18.8821C4.24997 18.6428 4.24999 18.354 4.25 18.0278V15.9722C4.24999 15.646 4.24997 15.3572 4.26952 15.1179C4.29034 14.8631 4.33702 14.5991 4.46799 14.342C4.65974 13.9657 4.9657 13.6597 5.34202 13.468C5.59907 13.337 5.86311 13.2903 6.11793 13.2695C6.35722 13.25 6.64596 13.25 6.97221 13.25ZM6.24008 14.7645C6.07802 14.7778 6.03335 14.7992 6.02301 14.8045C5.92893 14.8524 5.85244 14.9289 5.8045 15.023C5.79923 15.0334 5.77778 15.078 5.76454 15.2401C5.75059 15.4109 5.75 15.6376 5.75 16V18C5.75 18.3624 5.75059 18.5891 5.76454 18.7599C5.77778 18.922 5.79923 18.9667 5.8045 18.977C5.85244 19.0711 5.92893 19.1476 6.02301 19.1955C6.03335 19.2008 6.07802 19.2222 6.24008 19.2355C6.41089 19.2494 6.63759 19.25 7 19.25H17C17.3624 19.25 17.5891 19.2494 17.7599 19.2355C17.922 19.2222 17.9667 19.2008 17.977 19.1955C18.0711 19.1476 18.1476 19.0711 18.1955 18.977C18.2008 18.9667 18.2222 18.922 18.2355 18.7599C18.2494 18.5891 18.25 18.3624 18.25 18V16C18.25 15.6376 18.2494 15.4109 18.2355 15.2401C18.2222 15.078 18.2008 15.0334 18.1955 15.023C18.1476 14.9289 18.0711 14.8524 17.977 14.8045C17.9667 14.7992 17.922 14.7778 17.7599 14.7645C17.5891 14.7506 17.3624 14.75 17 14.75H7C6.63759 14.75 6.41089 14.7506 6.24008 14.7645ZM8.58334 16.25H15.4167V17.75H8.58334V16.25Z" fill="currentColor"/>
</svg>
