<svg width="24" height="24" viewBox="0 0 24 24" fill="none" xmlns="http://www.w3.org/2000/svg">
<path fill-rule="evenodd" clip-rule="evenodd" d="M21 10.9984V10.2484V5.25001C21 4.00737 19.9926 3.00001 18.75 3.00001H5.25C4.00736 3.00001 3 4.00737 3 5.25001V7.25275V8.00275H4.5V7.25275V5.25001C4.5 4.83579 4.83578 4.50001 5.25 4.50001H18.75C19.1642 4.50001 19.5 4.83579 19.5 5.25001V10.2484V10.9984H21ZM3 12.0046V12.7546V18.75C3 19.9926 4.00735 21 5.25 21H18.75C19.9926 21 21 19.9926 21 18.75V15.7467V14.9967H19.5V15.0014L19.4853 15.0102C19.2741 15.1367 18.9786 15.3047 18.6418 15.4711C17.9317 15.8217 17.1721 16.0961 16.6357 16.0855C15.9689 16.0723 15.5453 15.8292 15.198 15.4507C14.8147 15.0328 14.5254 14.4527 14.1854 13.7325L14.1061 13.5639C13.4928 12.2568 12.668 10.4988 10.557 10.1557C9.02573 9.90681 7.27482 10.3161 5.97942 10.7388C5.31719 10.9549 4.74398 11.1847 4.33597 11.3606C4.1316 11.4487 3.96772 11.5237 3.85377 11.5773C3.79678 11.604 3.7522 11.6255 3.72122 11.6406L3.68508 11.6583L3.67492 11.6633L3.67186 11.6649L3.67085 11.6654L3.67047 11.6656C3.67034 11.6656 3.67023 11.6657 3.84042 12.0046H3.8404L3.67017 11.6657L2.99999 12.0024L3.00108 12.0046H3ZM4.5 12.931V18.75C4.5 19.1642 4.83578 19.5 5.25 19.5H18.75C19.1642 19.5 19.5 19.1642 19.5 18.75V16.7181C19.437 16.7506 19.3723 16.7833 19.306 16.816C18.5786 17.1752 17.5345 17.6035 16.6061 17.5852C15.493 17.5632 14.6915 17.1175 14.0927 16.4647C13.53 15.8513 13.1523 15.0577 12.829 14.373C12.1253 12.8826 11.6153 11.8474 10.3164 11.6363C9.1551 11.4475 7.6911 11.7581 6.44472 12.1648C5.83607 12.3634 5.30667 12.5756 4.92979 12.7381C4.74685 12.817 4.60074 12.8837 4.5 12.931Z" fill="currentColor"/>
</svg>
