<svg width="24" height="24" viewBox="0 0 24 24" fill="none" xmlns="http://www.w3.org/2000/svg">
  <path
    d="M4 8.58333C3.58579 8.58333 3.25 8.91912 3.25 9.33333C3.25 9.74755 3.58579 10.0833 4 10.0833V8.58333ZM20 10.0833C20.4142 10.0833 20.75 9.74755 20.75 9.33333C20.75 8.91912 20.4142 8.58333 20 8.58333V10.0833ZM8.58333 20C8.58333 20.4142 8.91912 20.75 9.33333 20.75C9.74755 20.75 10.0833 20.4142 10.0833 20H8.58333ZM10.0833 9.33333C10.0833 8.91912 9.74755 8.58333 9.33333 8.58333C8.91912 8.58333 8.58333 8.91912 8.58333 9.33333H10.0833ZM5.77778 4.75H18.2222V3.25H5.77778V4.75ZM18.2222 4.75C18.7898 4.75 19.25 5.21015 19.25 5.77778H20.75C20.75 4.38172 19.6183 3.25 18.2222 3.25V4.75ZM19.25 5.77778V18.2222H20.75V5.77778H19.25ZM19.25 18.2222C19.25 18.7898 18.7898 19.25 18.2222 19.25V20.75C19.6183 20.75 20.75 19.6183 20.75 18.2222H19.25ZM18.2222 19.25H5.77778V20.75H18.2222V19.25ZM5.77778 19.25C5.21015 19.25 4.75 18.7898 4.75 18.2222H3.25C3.25 19.6183 4.38172 20.75 5.77778 20.75V19.25ZM4.75 18.2222V5.77778H3.25V18.2222H4.75ZM4.75 5.77778C4.75 5.21015 5.21015 4.75 5.77778 4.75V3.25C4.38172 3.25 3.25 4.38172 3.25 5.77778H4.75ZM4 10.0833H20V8.58333H4V10.0833ZM10.0833 20V9.33333H8.58333V20H10.0833Z"
    fill="currentColor" />
</svg>
