<svg width="24" height="24" viewBox="0 0 24 24" fill="none" xmlns="http://www.w3.org/2000/svg">
<path d="M13.9828 8.61017C13.289 8.35759 12.6106 8.24051 12 8.24548M12 6.75V8.24548M10.0172 15.3898C10.711 15.6424 11.3894 15.7595 12 15.7545M12 17.25V15.7545M12 15.7545C13.4381 15.7428 14.5 15.0542 14.5 13.8644C14.5 12.7627 13.1692 12.351 12 12C10.8308 11.649 9.5 11.2373 9.5 10.1356C9.5 8.94585 10.5619 8.25718 12 8.24548" fill="transparent" stroke="currentColor" stroke-width="1.5" stroke-linecap="square"/>
<path d="M18.75 20.25H5.25C4.42157 20.25 3.75 19.5784 3.75 18.75V5.25C3.75 4.42157 4.42157 3.75 5.25 3.75H18.75C19.5784 3.75 20.25 4.42157 20.25 5.25V18.75C20.25 19.5784 19.5784 20.25 18.75 20.25Z" fill="transparent" stroke="currentColor" stroke-width="1.5" stroke-linecap="round" stroke-linejoin="round"/>
</svg>
