<svg width="24" height="24" viewBox="0 0 24 24" fill="none" xmlns="http://www.w3.org/2000/svg">
<path d="M10.0312 14.0312H5.26562L4.19531 17H2.64844L6.99219 5.625H8.30469L12.6562 17H11.1172L10.0312 14.0312ZM5.71875 12.7969H9.58594L7.64844 7.47656L5.71875 12.7969ZM19.1797 17C19.0964 16.8333 19.0286 16.5365 18.9766 16.1094C18.3047 16.8073 17.5026 17.1562 16.5703 17.1562C15.737 17.1562 15.0521 16.9219 14.5156 16.4531C13.9844 15.9792 13.7188 15.3802 13.7188 14.6562C13.7188 13.776 14.0521 13.0938 14.7188 12.6094C15.3906 12.1198 16.3333 11.875 17.5469 11.875H18.9531V11.2109C18.9531 10.7057 18.8021 10.3047 18.5 10.0078C18.1979 9.70573 17.7526 9.55469 17.1641 9.55469C16.6484 9.55469 16.2161 9.6849 15.8672 9.94531C15.5182 10.2057 15.3438 10.5208 15.3438 10.8906H13.8906C13.8906 10.4688 14.0391 10.0625 14.3359 9.67188C14.638 9.27604 15.0443 8.96354 15.5547 8.73438C16.0703 8.50521 16.6354 8.39062 17.25 8.39062C18.224 8.39062 18.987 8.63542 19.5391 9.125C20.0911 9.60938 20.3776 10.2786 20.3984 11.1328V15.0234C20.3984 15.7995 20.4974 16.4167 20.6953 16.875V17H19.1797ZM16.7812 15.8984C17.2344 15.8984 17.6641 15.7812 18.0703 15.5469C18.4766 15.3125 18.7708 15.0078 18.9531 14.6328V12.8984H17.8203C16.0495 12.8984 15.1641 13.4167 15.1641 14.4531C15.1641 14.9062 15.3151 15.2604 15.6172 15.5156C15.9193 15.7708 16.3073 15.8984 16.7812 15.8984Z" fill="currentColor"/>
</svg>
