<svg width="24" height="24" viewBox="0 0 24 24" fill="none" xmlns="http://www.w3.org/2000/svg">
<path d="M9.95513 17.0385C6.23718 18.1443 6.23718 15.1957 4.75 14.8271M9.95513 17.0385V16.3972C9.93045 16.0493 9.97993 15.7002 10.1004 15.3725C10.2208 15.0448 10.4095 14.746 10.6541 14.4954C8.31923 14.2079 5.86538 13.3306 5.86538 9.33527C5.85982 8.29843 6.25958 7.29976 6.98077 6.54882C6.6418 5.64839 6.66577 4.65312 7.04769 3.76975C7.04769 3.76975 7.92513 3.51175 9.95513 4.86074C11.6594 4.40284 13.456 4.40284 15.1603 4.86074C17.1903 3.51175 18.0677 3.76975 18.0677 3.76975C18.4496 4.65312 18.4736 5.64839 18.1346 6.54882C18.8505 7.29423 19.2498 8.28396 19.25 9.31315C19.25 13.338 16.7962 14.2152 14.4613 14.4732C14.7088 14.7264 14.8992 15.0289 15.0197 15.3606C15.1402 15.6923 15.1881 16.0457 15.1603 16.3972V19.25M9.95513 17.0385V19.25" fill="transparent" stroke="currentColor" stroke-width="1.5" stroke-linecap="square" stroke-linejoin="round"/>
</svg>
