<svg width="24" height="24" viewBox="0 0 24 24" fill="none" xmlns="http://www.w3.org/2000/svg">
<path fill-rule="evenodd" clip-rule="evenodd" d="M12 2.75V2H10.5V2.75V4H4.25C3.00736 4 2 5.00736 2 6.25V17.75C2 18.9926 3.00736 20 4.25 20H10.5V21.25V22H12V21.25V20V18.5V5.5V4V2.75ZM10.5 5.5H4.25C3.83579 5.5 3.5 5.83579 3.5 6.25V14.6893L6.46967 11.7197L7 11.1893L7.53033 11.7197L10.5 14.6893V5.5ZM10.5 16.809C10.4897 16.7998 10.4796 16.7902 10.4697 16.7803L7 13.3107L3.53033 16.7803C3.52042 16.7902 3.51031 16.7998 3.5 16.809V17.75C3.5 18.1642 3.83579 18.5 4.25 18.5H10.5V16.809ZM14 4H14.75H18.75C19.9926 4 21 5.00736 21 6.25V17.75C21 18.9926 19.9926 20 18.75 20H14.75H14V18.5H14.75H18.75C19.1642 18.5 19.5 18.1642 19.5 17.75V11.8107L17.75 10.0607L14.2803 13.5303L14 13.8107V11.6893L17.2197 8.46966L17.75 7.93933L18.2803 8.46966L19.5 9.68933V6.25C19.5 5.83579 19.1642 5.5 18.75 5.5H14.75H14V4Z" fill="currentColor"/>
</svg>
