<svg width="24" height="24" viewBox="0 0 24 24" fill="none" xmlns="http://www.w3.org/2000/svg">
  <path fill-rule="evenodd" clip-rule="evenodd" d="M12 6.375C12.2379 6.375 12.4551 6.51005 12.5604 6.72336L13.9602 9.55904L17.0904 10.0166C17.3257 10.051 17.5212 10.216 17.5945 10.4422C17.6679 10.6685 17.6065 10.9168 17.4361 11.0827L15.1716 13.2884L15.706 16.4043C15.7462 16.6388 15.6498 16.8758 15.4573 17.0157C15.2648 17.1555 15.0097 17.1739 14.7991 17.0632L12 15.5912L9.20091 17.0632C8.99033 17.1739 8.73515 17.1555 8.54267 17.0157C8.35018 16.8758 8.25378 16.6388 8.29399 16.4043L8.82842 13.2884L6.56392 11.0827C6.39353 10.9168 6.33211 10.6685 6.40547 10.4422C6.47883 10.216 6.67426 10.051 6.90961 10.0166L10.0398 9.55904L11.4396 6.72336C11.5449 6.51005 11.7621 6.375 12 6.375ZM12 8.41203L11.0154 10.4066C10.9245 10.5909 10.7487 10.7187 10.5454 10.7484L8.34276 11.0704L9.93608 12.6223C10.0835 12.7659 10.1508 12.9728 10.116 13.1757L9.74011 15.3673L11.7091 14.3318C11.8912 14.2361 12.1088 14.2361 12.2909 14.3318L14.2599 15.3673L13.884 13.1757C13.8492 12.9728 13.9165 12.7659 14.0639 12.6223L15.6572 11.0704L13.4546 10.7484C13.2513 10.7187 13.0755 10.5909 12.9846 10.4066L12 8.41203Z" fill="currentColor"/>
  <path fill-rule="evenodd" clip-rule="evenodd" d="M5.25 4.75C4.97386 4.75 4.75 4.97386 4.75 5.25V18.75C4.75 19.0261 4.97386 19.25 5.25 19.25H18.75C19.0261 19.25 19.25 19.0261 19.25 18.75V5.25C19.25 4.97386 19.0261 4.75 18.75 4.75H5.25ZM3.25 5.25C3.25 4.14543 4.14543 3.25 5.25 3.25H18.75C19.8546 3.25 20.75 4.14543 20.75 5.25V18.75C20.75 19.8546 19.8546 20.75 18.75 20.75H5.25C4.14543 20.75 3.25 19.8546 3.25 18.75V5.25Z" fill="currentColor"/>
</svg>
