<svg width="24" height="24" viewBox="0 0 24 24" fill="none" xmlns="http://www.w3.org/2000/svg">
  <path fill-rule="evenodd" clip-rule="evenodd" d="M13.375 1.625C13.375 0.934644 13.9346 0.375 14.625 0.375H22.375C23.0654 0.375 23.625 0.934644 23.625 1.625V1.99031C23.6251 1.99639 23.6251 2.00247 23.625 2.00855V7.375C23.625 8.06536 23.0654 8.625 22.375 8.625H14.625C13.9346 8.625 13.375 8.06536 13.375 7.375V2.00855C13.3749 2.00247 13.3749 1.99639 13.375 1.99031V1.625ZM14.625 3.16782V7.375H22.375V3.16782L18.8467 5.52003C18.6368 5.65999 18.3633 5.65999 18.1533 5.52003L14.625 3.16782ZM22.375 1.66551V1.625L14.625 1.625V1.66551L18.5 4.24884L22.375 1.66551Z" fill="currentColor"/>
  <path fill-rule="evenodd" clip-rule="evenodd" d="M5.30902 5.75C5.22224 5.75 5.13665 5.77021 5.05902 5.80902C4.86164 5.90771 4.76154 6.09431 4.77109 6.26771C5.17289 13.5658 11.2382 18.9246 16.5184 19.2357C16.6508 19.2435 16.8026 19.1974 16.9424 19.0857L16.9685 19.0647C17.1464 18.9224 17.25 18.7069 17.25 18.4791V16.1872C17.25 15.8263 16.9843 15.5018 16.5947 15.4306C15.9522 15.313 15.4144 15.1829 14.8768 14.9744C14.4073 14.7923 13.9706 14.9068 13.7532 15.1677L13.0762 15.9801C12.8308 16.2746 12.4029 16.3366 12.084 16.124L12.0768 16.1193C10.5544 15.1043 8.91827 14.0136 7.57919 11.3354C7.45214 11.0813 7.47956 10.7773 7.65001 10.55L8.58072 9.30905C8.74261 9.0932 8.79115 8.75405 8.65943 8.38518C8.40727 7.67901 8.31843 7.0517 8.23094 6.43387C8.22474 6.39011 8.21855 6.3464 8.21231 6.30272C8.16857 5.99649 7.89662 5.75 7.53583 5.75H5.30902ZM4.3882 4.46738C4.67411 4.32442 4.98937 4.25 5.30902 4.25H7.53583C8.59106 4.25 9.54073 4.99502 9.69724 6.09059C9.70215 6.12499 9.70698 6.15894 9.71176 6.19248C9.80306 6.83386 9.87255 7.322 10.0721 7.88074C10.3301 8.60327 10.3142 9.49778 9.78072 10.209L9.13402 11.0713C10.0943 12.8184 11.1843 13.6972 12.3571 14.5L12.6008 14.2075C13.3306 13.3317 14.5093 13.223 15.4192 13.5759C15.8334 13.7365 16.2687 13.846 16.8646 13.955C17.9317 14.1502 18.75 15.067 18.75 16.1872V18.4791C18.75 19.1626 18.4393 19.809 17.9056 20.236L17.8794 20.257C17.4872 20.5707 16.9778 20.7654 16.4301 20.7331C10.3556 20.3752 3.71523 14.376 3.27335 6.35017C3.22839 5.53344 3.69864 4.81216 4.3882 4.46738Z" fill="currentColor"/>
</svg>
