<svg width="24" height="24" viewBox="0 0 24 24" fill="none" xmlns="http://www.w3.org/2000/svg">
<path fill-rule="evenodd" clip-rule="evenodd" d="M14.3403 1.125C13.6791 1.125 13.125 1.65471 13.125 2.33036V2.93722C13.1248 2.94538 13.1248 2.95354 13.125 2.96169V7.66964C13.125 8.34529 13.6791 8.875 14.3403 8.875H21.6597C22.3209 8.875 22.875 8.34529 22.875 7.66964V2.96168C22.8752 2.95354 22.8752 2.94538 22.875 2.93722V2.33036C22.875 1.65471 22.3209 1.125 21.6597 1.125H14.3403ZM14.375 7.625V3.99889L17.2266 5.5421C17.7091 5.80324 18.2909 5.80324 18.7734 5.5421L21.625 3.99889V7.625H14.375ZM18.1785 4.44276L21.625 2.57758V2.375H14.375V2.57758L17.8215 4.44276C17.9329 4.50302 18.0671 4.50302 18.1785 4.44276ZM4.5 13C4.5 9.41015 7.41015 6.5 11 6.5H11.75V5H11C6.58172 5 3 8.58172 3 13C3 17.4183 6.58172 21 11 21H14.2222H14.9722V19.5H14.2222H11C7.41015 19.5 4.5 16.5899 4.5 13ZM8.52778 13C8.52778 11.6346 9.63463 10.5278 11 10.5278C12.3654 10.5278 13.4722 11.6346 13.4722 13C13.4722 14.3654 12.3654 15.4722 11 15.4722C9.63463 15.4722 8.52778 14.3654 8.52778 13ZM16.2361 16.9722C15.2603 16.9722 14.4026 16.4665 13.9108 15.7029C13.1854 16.4837 12.1498 16.9722 11 16.9722C8.8062 16.9722 7.02778 15.1938 7.02778 13C7.02778 10.8062 8.8062 9.02778 11 9.02778C13.1938 9.02778 14.9722 10.8062 14.9722 13V14.2083C14.9722 14.9064 15.5381 15.4722 16.2361 15.4722C16.9341 15.4722 17.5 14.9064 17.5 14.2083V13C17.5 12.3282 17.3983 11.6815 17.2101 11.0738L16.9881 10.3574L18.4209 9.9135L18.6429 10.6299C18.8752 11.3798 19 12.176 19 13V14.2083C19 15.7348 17.7626 16.9722 16.2361 16.9722Z" fill="currentColor"/>
</svg>
