<svg width="24" height="24" viewBox="0 0 24 24" fill="none" xmlns="http://www.w3.org/2000/svg">
<path fill-rule="evenodd" clip-rule="evenodd" d="M8 8.37035C8 6.25225 9.77116 4.5 12 4.5C14.2288 4.5 16 6.25225 16 8.37035C16 8.73111 15.8542 9.26498 15.5498 9.94353C15.2534 10.6042 14.8397 11.331 14.3798 12.0546C13.5475 13.3638 12.5955 14.6137 12 15.365C11.4045 14.6137 10.4525 13.3638 9.62024 12.0546C9.16031 11.331 8.74656 10.6042 8.45017 9.94353C8.14576 9.26498 8 8.73111 8 8.37035ZM12 3C8.98213 3 6.5 5.38496 6.5 8.37035C6.5 9.05455 6.75252 9.824 7.08157 10.5575C7.41864 11.3089 7.87353 12.1029 8.35434 12.8592C9.31665 14.3731 10.4212 15.796 11.0048 16.5227C11.5158 17.1591 12.4842 17.1591 12.9952 16.5227C13.5788 15.796 14.6833 14.3731 15.6457 12.8592C16.1265 12.1029 16.5814 11.3089 16.9184 10.5575C17.2475 9.824 17.5 9.05455 17.5 8.37035C17.5 5.38496 15.0179 3 12 3ZM11.0536 8.04033C11.0536 7.56263 11.4576 7.1402 12 7.1402C12.5424 7.1402 12.9464 7.56263 12.9464 8.04033C12.9464 8.51802 12.5424 8.94045 12 8.94045C11.4576 8.94045 11.0536 8.51802 11.0536 8.04033ZM12 5.6402C10.6686 5.6402 9.55357 6.69534 9.55357 8.04033C9.55357 9.38531 10.6686 10.4405 12 10.4405C13.3314 10.4405 14.4464 9.38531 14.4464 8.04033C14.4464 6.69534 13.3314 5.6402 12 5.6402ZM16.8292 15.5854L16.4938 14.9146L17.8354 14.2438L18.1708 14.9146L20.309 19.191C20.7246 20.0221 20.1202 21 19.191 21H4.80902C3.87979 21 3.27542 20.0221 3.69098 19.191L5.82918 14.9146L6.16459 14.2438L7.50623 14.9146L7.17082 15.5854L5.21353 19.5H18.7865L16.8292 15.5854Z" fill="currentColor"/>
</svg>
