<svg width="24" height="24" viewBox="0 0 24 24" fill="none" xmlns="http://www.w3.org/2000/svg">
<path fill-rule="evenodd" clip-rule="evenodd" d="M6.15 7H6.12109H6.12107C5.72572 6.99999 5.38465 6.99998 5.10373 7.02293C4.80722 7.04715 4.51231 7.10064 4.22852 7.24524C3.80516 7.46095 3.46095 7.80516 3.24524 8.22852C3.10064 8.51231 3.04715 8.80722 3.02293 9.10373C2.99998 9.38465 2.99999 9.72571 3 10.1211V10.1211V10.15V13.35V13.3789V13.3789C2.99999 13.7743 2.99998 14.1154 3.02293 14.3963C3.04715 14.6928 3.10064 14.9877 3.24524 15.2715C3.46095 15.6948 3.80516 16.0391 4.22852 16.2548C4.51231 16.3994 4.80722 16.4528 5.10373 16.4771C5.38466 16.5 5.72572 16.5 6.12108 16.5H6.15H17.85H17.8789C18.2743 16.5 18.6153 16.5 18.8963 16.4771C19.1928 16.4528 19.4877 16.3994 19.7715 16.2548C20.1948 16.0391 20.5391 15.6948 20.7548 15.2715C20.8994 14.9877 20.9528 14.6928 20.9771 14.3963C21 14.1154 21 13.7743 21 13.379V13.3789V13.35V10.15V10.1211V10.121C21 9.72567 21 9.38463 20.9771 9.10373C20.9528 8.80722 20.8994 8.51231 20.7548 8.22852C20.5391 7.80516 20.1948 7.46095 19.7715 7.24524C19.4877 7.10064 19.1928 7.04715 18.8963 7.02293C18.6153 6.99998 18.2743 6.99999 17.8789 7H17.8789H17.85H6.15ZM4.90951 8.58175C4.94659 8.56285 5.02213 8.53459 5.22588 8.51795C5.43838 8.50058 5.71759 8.5 6.15 8.5H17.85C18.2824 8.5 18.5616 8.50058 18.7741 8.51795C18.9779 8.53459 19.0534 8.56285 19.0905 8.58175C19.2316 8.65365 19.3464 8.76839 19.4183 8.90951C19.4372 8.94659 19.4654 9.02213 19.4821 9.22588C19.4994 9.43838 19.5 9.71759 19.5 10.15V13.35C19.5 13.7824 19.4994 14.0616 19.4821 14.2741C19.4654 14.4779 19.4372 14.5534 19.4183 14.5905C19.3464 14.7316 19.2316 14.8464 19.0905 14.9183C19.0534 14.9372 18.9779 14.9654 18.7741 14.9821C18.5616 14.9994 18.2824 15 17.85 15H6.15C5.71759 15 5.43838 14.9994 5.22588 14.9821C5.02213 14.9654 4.94659 14.9372 4.90951 14.9183C4.76839 14.8464 4.65365 14.7316 4.58175 14.5905C4.56285 14.5534 4.53459 14.4779 4.51795 14.2741C4.50058 14.0616 4.5 13.7824 4.5 13.35V10.15C4.5 9.71759 4.50058 9.43838 4.51795 9.22588C4.53459 9.02213 4.56285 8.94659 4.58175 8.90951C4.65365 8.76839 4.76839 8.65365 4.90951 8.58175ZM9.25 11H8.5V12.5H9.25H14.75H15.5V11H14.75H9.25Z" fill="currentColor"/>
</svg>
