<svg width="24" height="24" viewBox="0 0 24 24" fill="none" xmlns="http://www.w3.org/2000/svg">
<path fill-rule="evenodd" clip-rule="evenodd" d="M4.5 7.875C4.5 6.01104 6.01104 4.5 7.875 4.5H16.125C17.989 4.5 19.5 6.01104 19.5 7.875V16.125C19.5 17.989 17.989 19.5 16.125 19.5H7.875C6.01104 19.5 4.5 17.989 4.5 16.125V7.875ZM7.875 3C5.18261 3 3 5.18261 3 7.875V16.125C3 18.8174 5.18261 21 7.875 21H16.125C18.8174 21 21 18.8174 21 16.125V7.875C21 5.18261 18.8174 3 16.125 3H7.875ZM10.8612 9.70087C11.3373 9.45384 11.8792 9.36321 12.4097 9.44189C12.9509 9.52214 13.452 9.77432 13.8388 10.1612C14.2257 10.548 14.4779 11.0491 14.5581 11.5903C14.6368 12.1208 14.5462 12.6627 14.2991 13.1388C14.0521 13.6148 13.6612 14.0009 13.1821 14.2421C12.7031 14.4832 12.1601 14.5671 11.6306 14.4819C11.101 14.3967 10.6118 14.1467 10.2326 13.7674C9.85331 13.3882 9.60329 12.899 9.51808 12.3694C9.43287 11.8399 9.5168 11.2969 9.75795 10.8179C9.99909 10.3388 10.3852 9.9479 10.8612 9.70087ZM12.6298 7.95811C11.7871 7.83316 10.9265 7.97709 10.1704 8.36943C9.41425 8.76178 8.80108 9.38255 8.41809 10.1435C8.0351 10.9044 7.9018 11.7667 8.03713 12.6077C8.17247 13.4488 8.56955 14.2257 9.17191 14.8281C9.77427 15.4304 10.5512 15.8275 11.3923 15.9629C12.2333 16.0982 13.0956 15.9649 13.8565 15.5819C14.6174 15.1989 15.2382 14.5857 15.6306 13.8296C16.0229 13.0735 16.1668 12.2129 16.0419 11.3702C15.9144 10.5107 15.5139 9.71495 14.8995 9.10052C14.285 8.48609 13.4893 8.08557 12.6298 7.95811ZM15.7125 6.7125C15.2983 6.7125 14.9625 7.04829 14.9625 7.4625C14.9625 7.87672 15.2983 8.2125 15.7125 8.2125H15.7208C16.135 8.2125 16.4708 7.87672 16.4708 7.4625C16.4708 7.04829 16.135 6.7125 15.7208 6.7125H15.7125Z" fill="currentColor"/>
</svg>
