<svg width="24" height="24" viewBox="0 0 24 24" fill="none" xmlns="http://www.w3.org/2000/svg">
  <path fill-rule="evenodd" clip-rule="evenodd" d="M13.375 1.625C13.375 0.934644 13.9346 0.375 14.625 0.375H22.375C23.0654 0.375 23.625 0.934644 23.625 1.625V1.99031C23.6251 1.99639 23.6251 2.00247 23.625 2.00855V7.375C23.625 8.06536 23.0654 8.625 22.375 8.625H14.625C13.9346 8.625 13.375 8.06536 13.375 7.375V2.00855C13.3749 2.00247 13.3749 1.99639 13.375 1.99031V1.625ZM14.625 3.16782V7.375H22.375V3.16782L18.8467 5.52003C18.6368 5.65999 18.3632 5.65999 18.1533 5.52003L14.625 3.16782ZM22.375 1.66551V1.625L14.625 1.625V1.66551L18.5 4.24884L22.375 1.66551Z" fill="currentColor"/>
  <path fill-rule="evenodd" clip-rule="evenodd" d="M11 6.25C7.27208 6.25 4.25 9.27208 4.25 13C4.25 16.7279 7.27208 19.75 11 19.75H15.0833V21.25H11C6.44365 21.25 2.75 17.5563 2.75 13C2.75 8.44365 6.44365 4.75 11 4.75H11.75V6.25H11ZM11 10.4167C9.57326 10.4167 8.41667 11.5733 8.41667 13C8.41667 14.4267 9.57326 15.5833 11 15.5833C12.4267 15.5833 13.5833 14.4267 13.5833 13C13.5833 11.5733 12.4267 10.4167 11 10.4167ZM14.015 15.7539C14.516 16.5524 15.4044 17.0833 16.4167 17.0833C17.9815 17.0833 19.25 15.8148 19.25 14.25V13C19.25 12.1502 19.1213 11.3291 18.8817 10.5558L18.6598 9.83943L17.227 10.2833L17.4489 10.9997C17.6444 11.6309 17.75 12.3024 17.75 13V14.25C17.75 14.9864 17.153 15.5833 16.4167 15.5833C15.6803 15.5833 15.0833 14.9864 15.0833 14.25V13C15.0833 10.7448 13.2552 8.91667 11 8.91667C8.74484 8.91667 6.91667 10.7448 6.91667 13C6.91667 15.2552 8.74484 17.0833 11 17.0833C12.194 17.0833 13.2683 16.5709 14.015 15.7539Z" fill="currentColor"/>
</svg>
