<svg width="24" height="24" viewBox="0 0 24 24" fill="none" xmlns="http://www.w3.org/2000/svg">
  <path
    d="M10.4727 6.18002C10.9733 6.05918 11.4859 5.99877 12 6.00002C17.0909 6.00002 20 12 20 12C19.5585 12.8517 19.032 13.6536 18.4291 14.3925M13.5418 13.59C13.3421 13.8111 13.1012 13.9884 12.8336 14.1113C12.5659 14.2343 12.277 14.3005 11.9841 14.3058C11.6911 14.3111 11.4001 14.2555 11.1284 14.1424C10.8568 14.0292 10.61 13.8608 10.4028 13.6471C10.1956 13.4335 10.0323 13.179 9.92255 12.8988C9.81282 12.6186 9.75893 12.3185 9.7641 12.0164C9.76927 11.7143 9.83339 11.4164 9.95264 11.1404C10.0719 10.8644 10.2438 10.616 10.4582 10.41M16.32 16.455C15.0768 17.4323 13.563 17.9736 12 18C6.90909 18 4 12 4 12C4.90465 10.2614 6.15937 8.74247 7.68 7.54502L16.32 16.455Z"
    fill="transparent" stroke="currentColor" stroke-width="1.5" stroke-linecap="round" stroke-linejoin="round" />
  <path d="M4 4L20 20" fill="transparent" stroke="currentColor" stroke-width="1.5" stroke-linecap="round"
    stroke-linejoin="round" />
</svg>
