<svg width="24" height="24" viewBox="0 0 24 24" fill="none" xmlns="http://www.w3.org/2000/svg">
<path fill-rule="evenodd" clip-rule="evenodd" d="M4.5 5.25C4.5 4.83579 4.83579 4.5 5.25 4.5H18.75C19.1642 4.5 19.5 4.83579 19.5 5.25V18.75C19.5 19.1642 19.1642 19.5 18.75 19.5H5.25C4.83579 19.5 4.5 19.1642 4.5 18.75V5.25ZM5.25 3C4.00736 3 3 4.00736 3 5.25V18.75C3 19.9926 4.00736 21 5.25 21H18.75C19.9926 21 21 19.9926 21 18.75V5.25C21 4.00736 19.9926 3 18.75 3H5.25ZM12.6724 6.66775C12.546 6.41193 12.2854 6.25 12 6.25C11.7146 6.25 11.454 6.41193 11.3276 6.66775L9.95703 9.44146L6.89164 9.88905C6.60912 9.9303 6.37453 10.1284 6.28652 10.4C6.19851 10.6716 6.27235 10.9696 6.47698 11.1687L8.69401 13.3258L8.17082 16.3731C8.12251 16.6544 8.23811 16.9388 8.46901 17.1067C8.69992 17.2745 9.00609 17.2967 9.2588 17.164L12 15.7239L14.7412 17.164C14.9939 17.2967 15.3001 17.2745 15.531 17.1067C15.7619 16.9388 15.8775 16.6544 15.8292 16.3731L15.306 13.3258L17.523 11.1687C17.7277 10.9696 17.8015 10.6716 17.7135 10.4C17.6255 10.1284 17.3909 9.9303 17.1084 9.88905L14.043 9.44147L12.6724 6.66775ZM11.1274 10.459L12 8.69301L12.8726 10.459C12.9818 10.68 13.1927 10.8332 13.4366 10.8688L15.3875 11.1537L13.977 12.5261C13.7999 12.6984 13.719 12.947 13.7608 13.1905L14.0937 15.1294L12.3488 14.2128C12.1304 14.098 11.8696 14.098 11.6512 14.2128L9.90629 15.1294L10.2392 13.1905C10.281 12.947 10.2001 12.6984 10.023 12.5261L8.61251 11.1537L10.5634 10.8688C10.8073 10.8332 11.0182 10.68 11.1274 10.459Z" fill="currentColor"/>
</svg>
