<svg width="24" height="24" viewBox="0 0 24 24" fill="none" xmlns="http://www.w3.org/2000/svg">
<path fill-rule="evenodd" clip-rule="evenodd" d="M6.15 3H6.12109H6.12106C5.72571 2.99999 5.38465 2.99998 5.10373 3.02293C4.80722 3.04715 4.51231 3.10064 4.22852 3.24524C3.80516 3.46095 3.46095 3.80516 3.24524 4.22852C3.10064 4.51231 3.04715 4.80722 3.02293 5.10373C2.99998 5.38465 2.99999 5.72571 3 6.12106V6.12109V6.15V17.85V17.8789V17.8789C2.99999 18.2743 2.99998 18.6154 3.02293 18.8963C3.04715 19.1928 3.10064 19.4877 3.24524 19.7715C3.46095 20.1948 3.80516 20.5391 4.22852 20.7548C4.51231 20.8994 4.80722 20.9528 5.10373 20.9771C5.38463 21 5.72567 21 6.12098 21H6.12108H6.15H17.85H17.8789H17.879C18.2743 21 18.6154 21 18.8963 20.9771C19.1928 20.9528 19.4877 20.8994 19.7715 20.7548C20.1948 20.5391 20.5391 20.1948 20.7548 19.7715C20.8994 19.4877 20.9528 19.1928 20.9771 18.8963C21 18.6154 21 18.2743 21 17.879V17.8789V17.85V6.15V6.12108V6.12098C21 5.72567 21 5.38463 20.9771 5.10373C20.9528 4.80722 20.8994 4.51231 20.7548 4.22852C20.5391 3.80516 20.1948 3.46095 19.7715 3.24524C19.4877 3.10064 19.1928 3.04715 18.8963 3.02293C18.6154 2.99998 18.2743 2.99999 17.8789 3H17.8789H17.85H6.15ZM4.90951 4.58175C4.94659 4.56285 5.02213 4.53459 5.22588 4.51795C5.43838 4.50059 5.71759 4.5 6.15 4.5H17.85C18.2824 4.5 18.5616 4.50059 18.7741 4.51795C18.9779 4.53459 19.0534 4.56285 19.0905 4.58175C19.2316 4.65365 19.3464 4.76839 19.4183 4.90951C19.4372 4.94659 19.4654 5.02213 19.4821 5.22588C19.4994 5.43838 19.5 5.71759 19.5 6.15V17.85C19.5 18.2824 19.4994 18.5616 19.4821 18.7741C19.4654 18.9779 19.4372 19.0534 19.4183 19.0905C19.3464 19.2316 19.2316 19.3464 19.0905 19.4183C19.0534 19.4372 18.9779 19.4654 18.7741 19.4821C18.5616 19.4994 18.2824 19.5 17.85 19.5H6.15C5.71759 19.5 5.43838 19.4994 5.22588 19.4821C5.02213 19.4654 4.94659 19.4372 4.90951 19.4183C4.76839 19.3464 4.65365 19.2316 4.58175 19.0905C4.56285 19.0534 4.53459 18.9779 4.51795 18.7741C4.50059 18.5616 4.5 18.2824 4.5 17.85V6.15C4.5 5.71759 4.50059 5.43838 4.51795 5.22588C4.53459 5.02213 4.56285 4.94659 4.58175 4.90951C4.65365 4.76839 4.76839 4.65365 4.90951 4.58175ZM15 12L10 9V15L15 12Z" fill="currentColor"/>
</svg>
