<svg width="24" height="24" viewBox="0 0 24 24" fill="none" xmlns="http://www.w3.org/2000/svg">
<path d="M19.15 14.128C19.15 13.7138 18.8142 13.378 18.4 13.378C17.9858 13.378 17.65 13.7138 17.65 14.128H19.15ZM4 18.4H3.25H4ZM5.6 5.6L5.6 4.85L5.6 5.6ZM9.872 6.35C10.2862 6.35 10.622 6.01421 10.622 5.6C10.622 5.18579 10.2862 4.85 9.872 4.85V6.35ZM16.8 4L17.3303 3.46967C17.0374 3.17678 16.5626 3.17678 16.2697 3.46967L16.8 4ZM20 7.2L20.5303 7.73033C20.8232 7.43744 20.8232 6.96256 20.5303 6.66967L20 7.2ZM12 15.2V15.95C12.1989 15.95 12.3897 15.871 12.5303 15.7303L12 15.2ZM8.8 15.2H8.05C8.05 15.6142 8.38579 15.95 8.8 15.95V15.2ZM8.8 12L8.26967 11.4697C8.12902 11.6103 8.05 11.8011 8.05 12H8.8ZM17.65 14.128V18.4H19.15V14.128H17.65ZM17.65 18.4C17.65 18.6254 17.5604 18.8416 17.401 19.001L18.4617 20.0617C18.9024 19.621 19.15 19.0233 19.15 18.4H17.65ZM17.401 19.001C17.2416 19.1604 17.0254 19.25 16.8 19.25V20.75C17.4233 20.75 18.021 20.5024 18.4617 20.0617L17.401 19.001ZM16.8 19.25H5.6V20.75H16.8V19.25ZM5.6 19.25C5.37457 19.25 5.15837 19.1604 4.99896 19.001L3.9383 20.0617C4.37901 20.5024 4.97674 20.75 5.6 20.75V19.25ZM4.99896 19.001C4.83955 18.8416 4.75 18.6254 4.75 18.4H3.25C3.25 19.0233 3.49759 19.621 3.9383 20.0617L4.99896 19.001ZM4.75 18.4V7.2H3.25V18.4H4.75ZM4.75 7.2C4.75 6.97457 4.83955 6.75837 4.99896 6.59896L3.9383 5.5383C3.49759 5.97901 3.25 6.57674 3.25 7.2H4.75ZM4.99896 6.59896C5.15836 6.43955 5.37457 6.35 5.6 6.35L5.6 4.85C4.97674 4.85 4.37901 5.09759 3.9383 5.5383L4.99896 6.59896ZM5.6 6.35H9.872V4.85H5.6V6.35ZM16.2697 4.53033L19.4697 7.73033L20.5303 6.66967L17.3303 3.46967L16.2697 4.53033ZM19.4697 6.66967L11.4697 14.6697L12.5303 15.7303L20.5303 7.73033L19.4697 6.66967ZM12 14.45H8.8V15.95H12V14.45ZM9.55 15.2V12H8.05V15.2H9.55ZM9.33033 12.5303L17.3303 4.53033L16.2697 3.46967L8.26967 11.4697L9.33033 12.5303Z" fill="currentColor"/>
</svg>
