<svg width="24" height="24" viewBox="0 0 24 24" fill="none" xmlns="http://www.w3.org/2000/svg">
<path d="M18.25 11.5625V13.5C18.25 17.7802 14.7802 21.25 10.5 21.25V21.25C6.21979 21.25 2.75 17.7802 2.75 13.5V13.5C2.75 9.21979 6.21979 5.75 10.5 5.75V5.75" fill="transparent" stroke="currentColor" stroke-width="1.5" stroke-linecap="square" stroke-linejoin="round"/>
<path d="M7.7 12.5L10.5 15.3L13.3 12.5" fill="transparent" stroke="currentColor" stroke-width="1.5" stroke-linecap="square" stroke-linejoin="round"/>
<path d="M22.25 2.95L18.4759 4.99243C18.179 5.15313 17.821 5.15313 17.5241 4.99243L13.75 2.95M14.3403 8.25H21.6597C21.9857 8.25 22.25 7.99017 22.25 7.66964V2.33036C22.25 2.00983 21.9857 1.75 21.6597 1.75H14.3403C14.0143 1.75 13.75 2.00983 13.75 2.33036V7.66964C13.75 7.99017 14.0143 8.25 14.3403 8.25Z" fill="transparent" stroke="currentColor" stroke-width="1.25" stroke-linecap="round" stroke-linejoin="round"/>
</svg>
