<svg width="24" height="24" viewBox="0 0 24 24" fill="none" xmlns="http://www.w3.org/2000/svg">
<path d="M21 4H15V5.5H21C21.3 5.5 21.5 5.7 21.5 6V6.4L17.9 9.9L15 8.1V9.9L17.6 11.6C17.7 11.7 17.9 11.7 18 11.7C18.2 11.7 18.4 11.6 18.5 11.5L21.5 8.6V18C21.5 18.3 21.3 18.5 21 18.5H15V20H21C22.1 20 23 19.1 23 18V6C23 4.9 22.1 4 21 4ZM1 6V18C1 19.1 1.9 20 3 20H13.5V4H3C1.9 4 1 4.9 1 6ZM12 18.5H3C2.7 18.5 2.5 18.3 2.5 18V16.6L5 14.7L6.5 13.6L6.6 13.5L9.6 15.4C9.7 15.5 9.9 15.5 10 15.5C10.2 15.5 10.4 15.4 10.5 15.3L12 14V18.5ZM12 11.9L9.9 13.9L7 12C6.9 11.9 6.7 11.9 6.6 11.9H6.5C6.4 11.9 6.2 12 6.1 12L5 12.9L2.5 14.7V6C2.5 5.7 2.7 5.5 3 5.5H12V11.9Z" fill="currentColor"/>
</svg>
