<svg width="24" height="24" viewBox="0 0 24 24" fill="none" xmlns="http://www.w3.org/2000/svg">
  <path
    d="M9.4 13.15C9.15147 12.8186 8.68137 12.7515 8.35 13C8.01863 13.2485 7.95147 13.7186 8.2 14.05L9.4 13.15ZM15.8 14.05C16.0485 13.7186 15.9814 13.2485 15.65 13C15.3186 12.7515 14.8485 12.8186 14.6 13.15L15.8 14.05ZM9.6 8.85C9.18579 8.85 8.85 9.18579 8.85 9.6C8.85 10.0142 9.18579 10.35 9.6 10.35V8.85ZM9.608 10.35C10.0222 10.35 10.358 10.0142 10.358 9.6C10.358 9.18579 10.0222 8.85 9.608 8.85V10.35ZM14.4 8.85C13.9858 8.85 13.65 9.18579 13.65 9.6C13.65 10.0142 13.9858 10.35 14.4 10.35V8.85ZM14.408 10.35C14.8222 10.35 15.158 10.0142 15.158 9.6C15.158 9.18579 14.8222 8.85 14.408 8.85V10.35ZM19.25 12C19.25 16.0041 16.0041 19.25 12 19.25V20.75C16.8325 20.75 20.75 16.8325 20.75 12H19.25ZM12 19.25C7.99594 19.25 4.75 16.0041 4.75 12H3.25C3.25 16.8325 7.16751 20.75 12 20.75V19.25ZM4.75 12C4.75 7.99594 7.99594 4.75 12 4.75V3.25C7.16751 3.25 3.25 7.16751 3.25 12H4.75ZM12 4.75C16.0041 4.75 19.25 7.99594 19.25 12H20.75C20.75 7.16751 16.8325 3.25 12 3.25V4.75ZM8.8 13.6C8.2 14.05 8.20018 14.0502 8.20037 14.0505C8.20043 14.0506 8.20062 14.0508 8.20076 14.051C8.20103 14.0514 8.20133 14.0518 8.20164 14.0522C8.20226 14.053 8.20296 14.0539 8.20373 14.0549C8.20528 14.057 8.20714 14.0594 8.2093 14.0622C8.21363 14.0678 8.21917 14.075 8.22593 14.0835C8.23944 14.1006 8.25782 14.1233 8.28099 14.1509C8.32727 14.206 8.39293 14.2809 8.47726 14.3689C8.6453 14.5443 8.89101 14.7754 9.20887 15.0066C9.8417 15.4668 10.7934 15.95 12 15.95V14.45C11.2066 14.45 10.5583 14.1332 10.0911 13.7934C9.85899 13.6246 9.6797 13.4557 9.56024 13.3311C9.50082 13.2691 9.45711 13.219 9.42995 13.1866C9.41639 13.1704 9.40704 13.1588 9.402 13.1524C9.39948 13.1493 9.39804 13.1474 9.3977 13.147C9.39753 13.1467 9.39764 13.1469 9.39802 13.1474C9.39821 13.1476 9.39847 13.148 9.3988 13.1484C9.39897 13.1486 9.39915 13.1489 9.39935 13.1491C9.39945 13.1493 9.39961 13.1495 9.39966 13.1495C9.39983 13.1498 9.4 13.15 8.8 13.6ZM12 15.95C13.2066 15.95 14.1583 15.4668 14.7911 15.0066C15.109 14.7754 15.3547 14.5443 15.5227 14.3689C15.6071 14.2809 15.6727 14.206 15.719 14.1509C15.7422 14.1233 15.7606 14.1006 15.7741 14.0835C15.7808 14.075 15.7864 14.0678 15.7907 14.0622C15.7929 14.0594 15.7947 14.057 15.7963 14.0549C15.797 14.0539 15.7977 14.053 15.7984 14.0522C15.7987 14.0518 15.799 14.0514 15.7992 14.051C15.7994 14.0508 15.7996 14.0506 15.7996 14.0505C15.7998 14.0502 15.8 14.05 15.2 13.6C14.6 13.15 14.6002 13.1498 14.6003 13.1495C14.6004 13.1495 14.6006 13.1493 14.6007 13.1491C14.6009 13.1489 14.601 13.1486 14.6012 13.1484C14.6015 13.148 14.6018 13.1476 14.602 13.1474C14.6024 13.1469 14.6025 13.1467 14.6023 13.147C14.602 13.1474 14.6005 13.1493 14.598 13.1524C14.593 13.1588 14.5836 13.1704 14.5701 13.1866C14.5429 13.219 14.4992 13.2691 14.4398 13.3311C14.3203 13.4557 14.141 13.6246 13.9089 13.7934C13.4417 14.1332 12.7934 14.45 12 14.45V15.95ZM9.6 10.35H9.608V8.85H9.6V10.35ZM14.4 10.35H14.408V8.85H14.4V10.35Z"
    fill="currentColor" />
</svg>
