<svg width="24" height="24" viewBox="0 0 24 24" fill="none" xmlns="http://www.w3.org/2000/svg">
  <path fill-rule="evenodd" clip-rule="evenodd" d="M19.25 6.75V9.25H21.75V10.75H19.25V13.25H17.75V10.75H15.25V9.25H17.75V6.75H19.25Z" fill="currentColor"/>
  <path fill-rule="evenodd" clip-rule="evenodd" d="M4.97222 6.5C4.98145 6.5 4.99071 6.5 5 6.5H14.75V8H5C4.63759 8 4.41089 8.00059 4.24008 8.01454C4.07802 8.02778 4.03335 8.04923 4.02301 8.0545C3.92893 8.10244 3.85244 8.17893 3.8045 8.27301C3.79923 8.28335 3.77778 8.32802 3.76454 8.49008C3.75059 8.66089 3.75 8.88759 3.75 9.25V10.75C3.75 11.1124 3.75059 11.3391 3.76454 11.5099C3.77778 11.672 3.79923 11.7167 3.8045 11.727C3.85244 11.8211 3.92893 11.8976 4.02301 11.9455C4.03335 11.9508 4.07802 11.9722 4.24008 11.9855C4.41089 11.9994 4.63759 12 5 12H14.75V13.5L4.97223 13.5C4.64597 13.5 4.35723 13.5 4.11793 13.4805C3.86311 13.4597 3.59907 13.413 3.34202 13.282C2.9657 13.0903 2.65974 12.7843 2.46799 12.408C2.33702 12.1509 2.29034 11.8869 2.26952 11.6321C2.24997 11.3928 2.24999 11.104 2.25 10.7778L2.25 9.25C2.25 9.24071 2.25 9.23145 2.25 9.22222C2.24999 8.89597 2.24997 8.60723 2.26952 8.36793C2.29034 8.11311 2.33702 7.84907 2.46799 7.59202C2.65974 7.2157 2.9657 6.90974 3.34202 6.71799C3.59907 6.58702 3.86311 6.54034 4.11793 6.51952C4.35723 6.49997 4.64597 6.49999 4.97222 6.5Z" fill="currentColor"/>
  <path fill-rule="evenodd" clip-rule="evenodd" d="M4.25 16.25H19.75V17.75H4.25V16.25Z" fill="currentColor"/>
</svg>
