<svg width="24" height="24" viewBox="0 0 24 24" fill="none" xmlns="http://www.w3.org/2000/svg">
  <path fill-rule="evenodd" clip-rule="evenodd" d="M10 6.25C5.71979 6.25 2.25 9.71979 2.25 14C2.25 18.2802 5.71979 21.75 10 21.75C14.2802 21.75 17.75 18.2802 17.75 14V11.125H19.25V14C19.25 19.1086 15.1086 23.25 10 23.25C5.14386 23.25 1.16173 19.5079 0.779966 14.75H0.75V14C0.75 8.89137 4.89137 4.75 10 4.75H10.75V6.25H10Z" fill="currentColor"/>
  <path fill-rule="evenodd" clip-rule="evenodd" d="M13.375 1.625C13.375 0.934644 13.9346 0.375 14.625 0.375H22.375C23.0654 0.375 23.625 0.934644 23.625 1.625V1.99031C23.6251 1.99639 23.6251 2.00247 23.625 2.00855V7.375C23.625 8.06536 23.0654 8.625 22.375 8.625H14.625C13.9346 8.625 13.375 8.06536 13.375 7.375V2.00855C13.3749 2.00247 13.3749 1.99639 13.375 1.99031V1.625ZM14.625 3.16782V7.375H22.375V3.16782L18.8467 5.52003C18.6368 5.65999 18.3632 5.65999 18.1533 5.52003L14.625 3.16782ZM22.375 1.66551V1.625L14.625 1.625V1.66551L18.5 4.24884L22.375 1.66551Z" fill="currentColor"/>
  <path fill-rule="evenodd" clip-rule="evenodd" d="M7.2 11.5393L10 14.3393L12.8 11.5393L13.8607 12.6L10.5303 15.9303C10.2374 16.2232 9.76256 16.2232 9.46967 15.9303L6.13934 12.6L7.2 11.5393Z" fill="currentColor"/>
</svg>
