<svg width="24" height="24" viewBox="0 0 24 24" fill="none" xmlns="http://www.w3.org/2000/svg">
  <path fill-rule="evenodd" clip-rule="evenodd" d="M18.0278 8.25C18.0185 8.25 18.0093 8.25 18 8.25L5.97222 8.25C5.64597 8.24999 5.35722 8.24997 5.11793 8.26952C4.86311 8.29034 4.59906 8.33702 4.34202 8.46799C3.96569 8.65974 3.65973 8.9657 3.46799 9.34202C3.33701 9.59907 3.29034 9.86311 3.26952 10.1179C3.24997 10.3572 3.24998 10.646 3.25 10.9722V13.0278C3.24998 13.354 3.24997 13.6428 3.26952 13.8821C3.29034 14.1369 3.33701 14.4009 3.46799 14.658C3.65973 15.0343 3.96569 15.3403 4.34202 15.532C4.59906 15.663 4.86311 15.7097 5.11793 15.7305C5.35722 15.75 5.64597 15.75 5.97222 15.75H18.0278C18.354 15.75 18.6428 15.75 18.8821 15.7305C19.1369 15.7097 19.4009 15.663 19.658 15.532C20.0343 15.3403 20.3403 15.0343 20.532 14.658C20.663 14.4009 20.7097 14.1369 20.7305 13.8821C20.75 13.6428 20.75 13.354 20.75 13.0278L20.75 11C20.75 10.9907 20.75 10.9815 20.75 10.9722C20.75 10.646 20.75 10.3572 20.7305 10.1179C20.7097 9.86311 20.663 9.59907 20.532 9.34202C20.3403 8.9657 20.0343 8.65974 19.658 8.46799C19.4009 8.33702 19.1369 8.29034 18.8821 8.26952C18.6428 8.24997 18.354 8.24999 18.0278 8.25ZM18.7599 9.76454C18.922 9.77778 18.9666 9.79923 18.977 9.8045C19.0711 9.85244 19.1476 9.92893 19.1955 10.023C19.2008 10.0334 19.2222 10.078 19.2355 10.2401C19.2494 10.4109 19.25 10.6376 19.25 11V13C19.25 13.3624 19.2494 13.5891 19.2355 13.7599C19.2222 13.922 19.2008 13.9667 19.1955 13.977C19.1476 14.0711 19.0711 14.1476 18.977 14.1955C18.9666 14.2008 18.922 14.2222 18.7599 14.2355C18.5891 14.2494 18.3624 14.25 18 14.25H14.5278V9.75H18C18.3624 9.75 18.5891 9.75059 18.7599 9.76454ZM13.0278 9.75V14.25H6C5.63759 14.25 5.41089 14.2494 5.24007 14.2355C5.07802 14.2222 5.03335 14.2008 5.023 14.1955C4.92892 14.1476 4.85243 14.0711 4.80449 13.977C4.79922 13.9667 4.77778 13.922 4.76454 13.7599C4.75058 13.5891 4.75 13.3624 4.75 13V11C4.75 10.6376 4.75058 10.4109 4.76454 10.2401C4.77778 10.078 4.79922 10.0334 4.80449 10.023C4.85243 9.92893 4.92892 9.85244 5.023 9.8045C5.03335 9.79923 5.07802 9.77778 5.24008 9.76454C5.41089 9.75059 5.63759 9.75 6 9.75H13.0278Z" fill="currentColor"/>
</svg>
