<svg width="24" height="24" viewBox="0 0 24 24" fill="none" xmlns="http://www.w3.org/2000/svg">
  <path
    d="M19.7341 5.21337L20.4626 5.39148C20.5369 5.08791 20.4151 4.77015 20.157 4.59395C19.8989 4.41775 19.5586 4.42005 19.3029 4.59972L19.7341 5.21337ZM17.7164 6.11575L17.1514 6.60901C17.3449 6.83063 17.6501 6.91866 17.9319 6.83413L17.7164 6.11575ZM12 8.28922H12.7501L12.7499 8.27913L12 8.28922ZM12 9.01371L12.0194 9.76346C12.4259 9.75296 12.75 9.42038 12.75 9.01371H12ZM5.45455 5.73177L6.06753 5.29963C5.9121 5.07916 5.65024 4.95913 5.38176 4.98531C5.11327 5.01149 4.87953 5.17984 4.76962 5.42619L5.45455 5.73177ZM9.09091 15.1501L9.51103 15.7714C9.73697 15.6186 9.86216 15.3552 9.83795 15.0836C9.81374 14.8119 9.64394 14.5748 9.39454 14.4643L9.09091 15.1501ZM4 16.5991L4.02969 15.8497C3.68245 15.8359 3.37123 16.0625 3.27768 16.3972C3.18414 16.7319 3.33277 17.087 3.63683 17.2553L4 16.5991ZM18.5455 8.26749L19.2955 8.26749L19.2955 8.265L18.5455 8.26749ZM18.5455 8L18.0199 7.46499C17.8408 7.64092 17.7616 7.89479 17.8089 8.14133L18.5455 8ZM19.3029 4.59972C18.7077 5.01796 18.2967 5.15865 17.5009 5.39738L17.9319 6.83413C18.7682 6.58326 19.3676 6.38753 20.1653 5.82702L19.3029 4.59972ZM18.2813 5.6225C17.7422 5.00501 17.0262 4.56775 16.2301 4.36933L15.8674 5.8248C16.3663 5.94917 16.8145 6.22309 17.1514 6.60901L18.2813 5.6225ZM16.2301 4.36933C15.4342 4.17093 14.5962 4.22082 13.8295 4.51233L14.3626 5.91441C14.8431 5.73173 15.3684 5.70042 15.8674 5.8248L16.2301 4.36933ZM13.8295 4.51233C13.0628 4.80386 12.4039 5.32312 11.9424 6.00038L13.1819 6.84508C13.4702 6.42211 13.8822 6.09707 14.3626 5.91441L13.8295 4.51233ZM11.9424 6.00038C11.4808 6.67768 11.239 7.48018 11.2501 8.29931L12.7499 8.27913C12.7431 7.76859 12.8937 7.26801 13.1819 6.84508L11.9424 6.00038ZM11.25 8.28922V9.01371H12.75V8.28922H11.25ZM11.9806 8.26396C10.8257 8.29379 9.68136 8.03861 8.64963 7.52129L7.9773 8.86218C9.22959 9.49009 10.6182 9.79965 12.0194 9.76346L11.9806 8.26396ZM8.64963 7.52129C7.61791 7.00399 6.73095 6.24069 6.06753 5.29963L4.84156 6.16391C5.64769 7.30741 6.72499 8.23426 7.9773 8.86218L8.64963 7.52129ZM5.45455 5.73177C4.76962 5.42619 4.76946 5.42655 4.76929 5.42694C4.76922 5.4271 4.76903 5.42751 4.76889 5.42784C4.7686 5.42849 4.76827 5.42924 4.76789 5.43009C4.76714 5.43179 4.76622 5.43389 4.76513 5.43639C4.76295 5.44139 4.7601 5.44797 4.75662 5.4561C4.74968 5.47236 4.74025 5.49482 4.72872 5.52318C4.70567 5.57986 4.67417 5.66022 4.63732 5.76174C4.56372 5.96454 4.4683 6.25319 4.37634 6.6074C4.19333 7.31233 4.01911 8.29577 4.06896 9.38841C4.11897 10.4844 4.39554 11.7055 5.12845 12.8583C5.86431 14.0158 7.0313 15.0585 8.78728 15.8359L9.39454 14.4643C7.87779 13.7928 6.95387 12.9337 6.39428 12.0536C5.83173 11.1687 5.6083 10.2164 5.5674 9.32003C5.52635 8.42033 5.67031 7.59254 5.82821 6.98433C5.9067 6.68198 5.98741 6.43858 6.04733 6.27347C6.07725 6.19104 6.10186 6.12848 6.11822 6.08824C6.1264 6.06813 6.13251 6.05362 6.13618 6.04503C6.13801 6.04074 6.13923 6.03793 6.1398 6.03663C6.14008 6.03599 6.1402 6.03572 6.14014 6.03584C6.14012 6.0359 6.14005 6.03605 6.13994 6.03631C6.13988 6.03643 6.13976 6.03669 6.13974 6.03676C6.13961 6.03704 6.13947 6.03735 5.45455 5.73177ZM8.67079 14.5288C7.30561 15.452 5.67898 15.915 4.02969 15.8497L3.97031 17.3485C5.9387 17.4265 7.88061 16.8739 9.51103 15.7714L8.67079 14.5288ZM3.63683 17.2553C7.11647 19.1811 11.0219 19.1994 14.0786 17.5787C17.154 15.9481 19.2955 12.6972 19.2955 8.26749H17.7955C17.7955 12.1694 15.9369 14.8956 13.3759 16.2535C10.7963 17.6212 7.42898 17.6396 4.36317 15.9429L3.63683 17.2553ZM19.2955 8.265C19.2953 8.23387 19.2972 8.2476 19.2917 8.28282C19.2851 8.32599 19.2634 8.39845 19.2804 8.33916C19.2922 8.29794 19.305 8.24178 19.31 8.17318C19.3144 8.11265 19.3114 8.06169 19.3082 8.02757C19.3027 7.96819 19.2911 7.90619 19.282 7.85867L17.8089 8.14133C17.813 8.16294 17.8152 8.17522 17.8162 8.18158C17.8175 8.18909 17.8161 8.1818 17.8146 8.16651C17.8132 8.15099 17.8104 8.11349 17.814 8.06388C17.8159 8.03795 17.8193 8.01169 17.8243 7.98542C17.8292 7.95958 17.8347 7.93885 17.8385 7.92563C17.8414 7.91559 17.8446 7.90583 17.8423 7.91284C17.8412 7.91661 17.8374 7.92853 17.8332 7.94345C17.8237 7.9771 17.8155 8.01357 17.8093 8.05404C17.798 8.12736 17.7952 8.2002 17.7955 8.26997L19.2955 8.265ZM19.0711 8.53501C20.0007 7.62176 20.237 6.3145 20.4626 5.39148L19.0056 5.03526C18.7379 6.13024 18.5748 6.91983 18.0199 7.46499L19.0711 8.53501Z"
    fill="currentColor" />
</svg>
