<svg width="24" height="24" viewBox="0 0 24 24" fill="none" xmlns="http://www.w3.org/2000/svg">
<path d="M20.25 10.2484V5.25001C20.25 4.42158 19.5784 3.75001 18.75 3.75001H5.25C4.42157 3.75001 3.75 4.42158 3.75 5.25001V7.25275" fill="transparent" stroke="currentColor" stroke-width="1.5" stroke-linecap="square" stroke-linejoin="round"/>
<path d="M3.75 12.7546V18.75C3.75 19.5784 4.42157 20.25 5.25 20.25H18.75C19.5784 20.25 20.25 19.5784 20.25 18.75V15.7467" fill="transparent" stroke="currentColor" stroke-width="1.5" stroke-linecap="square" stroke-linejoin="round"/>
<path fill-rule="evenodd" clip-rule="evenodd" d="M4.00686 12.3359L3.67018 11.6657L3 12.0024L3.67337 13.3428L4.3432 13.0063L4.34322 13.0062L4.34322 13.0062L4.34334 13.0062L4.34355 13.0061L4.34424 13.0057L4.35025 13.0028L4.37775 12.9893C4.40284 12.9771 4.44119 12.9586 4.49164 12.9349C4.59259 12.8875 4.74173 12.8192 4.9298 12.7381C5.30667 12.5756 5.83607 12.3634 6.44472 12.1648C7.6911 11.7581 9.1551 11.4475 10.3164 11.6363C11.6153 11.8474 12.1253 12.8826 12.829 14.373C13.1523 15.0577 13.53 15.8513 14.0927 16.4647C14.6915 17.1175 15.4931 17.5632 16.6061 17.5852C17.5332 17.6035 18.5765 17.1787 19.3041 16.8219C19.686 16.6346 20.0178 16.4472 20.254 16.3067C20.3725 16.2362 20.4679 16.1771 20.5345 16.1349C20.5678 16.1138 20.594 16.0969 20.6124 16.085L20.6341 16.0708L20.6404 16.0667L20.6423 16.0654L20.643 16.0649L20.6433 16.0647C20.6434 16.0647 20.6435 16.0646 20.2283 15.44L20.6435 16.0646L20.9693 15.848V15.1999L20.8364 15H19.5166L19.4873 15.0175C19.276 15.1431 18.9806 15.31 18.6437 15.4751C17.9338 15.8233 17.1734 16.0961 16.6357 16.0855C15.9689 16.0723 15.5453 15.8292 15.198 15.4507C14.8147 15.0328 14.5254 14.4527 14.1854 13.7325L14.1062 13.5639C13.4929 12.2568 12.668 10.4988 10.557 10.1557C9.02573 9.90681 7.27483 10.3161 5.97943 10.7388C5.31719 10.9549 4.74399 11.1847 4.33598 11.3606C4.1316 11.4487 3.96773 11.5237 3.85378 11.5773C3.79678 11.604 3.7522 11.6255 3.72123 11.6406L3.68509 11.6583L3.67492 11.6633L3.67187 11.6649L3.67085 11.6654L3.67047 11.6656C3.67032 11.6656 3.67018 11.6657 4.00686 12.3359Z" fill="currentColor"/>
</svg>
