<svg width="24" height="24" viewBox="0 0 24 24" fill="none" xmlns="http://www.w3.org/2000/svg">
  <path fill-rule="evenodd" clip-rule="evenodd" d="M3.25 6.25C3.25 5.14543 4.14543 4.25 5.25 4.25H8.75C9.85457 4.25 10.75 5.14543 10.75 6.25V7.25H18.75C19.8546 7.25 20.75 8.14543 20.75 9.25V17.75C20.75 18.8546 19.8546 19.75 18.75 19.75H5.25C4.14543 19.75 3.25 18.8546 3.25 17.75V6.25ZM6.80556 8.75V7.25H9.25V6.25C9.25 5.97386 9.02614 5.75 8.75 5.75H5.25C4.97386 5.75 4.75 5.97386 4.75 6.25V17.75C4.75 18.0261 4.97386 18.25 5.25 18.25H18.75C19.0261 18.25 19.25 18.0261 19.25 17.75V9.25C19.25 8.97386 19.0261 8.75 18.75 8.75H6.80556Z" fill="currentColor"/>
</svg>
