<svg width="24" height="24" viewBox="0 0 24 24" fill="none" xmlns="http://www.w3.org/2000/svg">
  <path fill-rule="evenodd" clip-rule="evenodd" d="M13.375 1.625C13.375 0.934644 13.9346 0.375 14.625 0.375H22.375C23.0654 0.375 23.625 0.934644 23.625 1.625V1.99031C23.6251 1.99639 23.6251 2.00247 23.625 2.00855V7.375C23.625 8.06536 23.0654 8.625 22.375 8.625H14.625C13.9346 8.625 13.375 8.06536 13.375 7.375V2.00855C13.3749 2.00247 13.3749 1.99639 13.375 1.99031V1.625ZM14.625 3.16782V7.375H22.375V3.16782L18.8467 5.52003C18.6368 5.65999 18.3632 5.65999 18.1533 5.52003L14.625 3.16782ZM22.375 1.66551V1.625L14.625 1.625V1.66551L18.5 4.24884L22.375 1.66551Z" fill="currentColor"/>
  <path fill-rule="evenodd" clip-rule="evenodd" d="M7.44444 11.75C5.48466 11.75 3.75 13.5673 3.75 16C3.75 18.4327 5.48466 20.25 7.44444 20.25H9.97222V21.75H7.44444C4.49503 21.75 2.25 19.0902 2.25 16C2.25 12.9098 4.49503 10.25 7.44444 10.25H9.97222V11.75H7.44444ZM12.0278 10.25H14.5556C17.505 10.25 19.75 12.9098 19.75 16C19.75 19.0902 17.505 21.75 14.5556 21.75H12.0278V20.25H14.5556C16.5153 20.25 18.25 18.4327 18.25 16C18.25 13.5673 16.5153 11.75 14.5556 11.75H12.0278V10.25ZM6.69444 15.25H15.3056V16.75H6.69444V15.25Z" fill="currentColor"/>
</svg>
