<svg width="24" height="24" viewBox="0 0 24 24" fill="none" xmlns="http://www.w3.org/2000/svg">
<path fill-rule="evenodd" clip-rule="evenodd" d="M6.25 4C5.00736 4 4 5.00736 4 6.25V17.75C4 18.9926 5.00736 20 6.25 20H17.75C18.9926 20 20 18.9926 20 17.75V6.25C20 5.00736 18.9926 4 17.75 4H6.25ZM5.5 6.25C5.5 5.83579 5.83579 5.5 6.25 5.5H17.75C18.1642 5.5 18.5 5.83579 18.5 6.25V17.75C18.5 18.1642 18.1642 18.5 17.75 18.5H6.25C5.83579 18.5 5.5 18.1642 5.5 17.75V6.25ZM10.8107 10L10.2803 10.5303L8.81066 12L10.2803 13.4697L10.8107 14L9.75 15.0607L9.21967 14.5303L7.21967 12.5303C6.92678 12.2374 6.92678 11.7626 7.21967 11.4697L9.21967 9.46967L9.75 8.93934L10.8107 10ZM14.25 8.93934L14.7803 9.46967L16.7803 11.4697C17.0732 11.7626 17.0732 12.2374 16.7803 12.5303L14.7803 14.5303L14.25 15.0607L13.1893 14L13.7197 13.4697L15.1893 12L13.7197 10.5303L13.1893 10L14.25 8.93934Z" fill="currentColor"/>
</svg>
