<svg width="24" height="24" viewBox="0 0 24 24" fill="none" xmlns="http://www.w3.org/2000/svg">
<path fill-rule="evenodd" clip-rule="evenodd" d="M14.5 4.75C11.8766 4.75 9.75 6.87665 9.75 9.5C9.75 12.1234 11.8766 14.25 14.5 14.25C17.1234 14.25 19.25 12.1234 19.25 9.5C19.25 6.87665 17.1234 4.75 14.5 4.75ZM9.01004 6.51041C10.0701 4.56786 12.1312 3.25 14.5 3.25C17.9518 3.25 20.75 6.04822 20.75 9.5C20.75 11.8688 19.4321 13.9299 17.4896 14.99C16.9091 16.0536 16.028 16.9305 14.9599 17.5059C14.943 17.5615 14.9192 17.616 14.8884 17.6683C13.803 19.5109 11.7966 20.75 9.5 20.75C6.04822 20.75 3.25 17.9518 3.25 14.5C3.25 12.1301 4.56923 10.0695 6.51019 9.01033C7.0858 7.95568 7.95629 7.08546 9.01004 6.51041ZM8.26491 9.06494C7.62891 9.8732 7.25 10.8926 7.25 12C7.25 14.6234 9.37665 16.75 12 16.75C13.1074 16.75 14.1268 16.3711 14.9351 15.7351C14.7913 15.745 14.6462 15.75 14.5 15.75C11.0482 15.75 8.25 12.9518 8.25 9.5C8.25 9.35375 8.25502 9.20868 8.26491 9.06494ZM5.76491 11.5649C5.12891 12.3732 4.75 13.3926 4.75 14.5C4.75 17.1234 6.87665 19.25 9.5 19.25C10.6075 19.25 11.6268 18.8712 12.4351 18.2351C12.2913 18.245 12.1463 18.25 12 18.25C8.54822 18.25 5.75 15.4518 5.75 12C5.75 11.8537 5.75502 11.7087 5.76491 11.5649Z" fill="currentColor"/>
</svg>
