<svg width="24" height="24" viewBox="0 0 24 24" fill="none" xmlns="http://www.w3.org/2000/svg">
<path fill-rule="evenodd" clip-rule="evenodd" d="M20.6746 11.6723L20.6731 11.6693C20.665 11.6529 20.6452 11.6133 20.6334 11.5902C20.6081 11.541 20.5714 11.4709 20.5235 11.383C20.4277 11.2074 20.2866 10.9599 20.1016 10.6644C19.7324 10.075 19.1834 9.28681 18.464 8.4955C17.0407 6.92984 14.8542 5.25 12 5.25C9.14575 5.25 6.95928 6.92984 5.53595 8.4955C4.81658 9.28681 4.26759 10.075 3.89845 10.6644C3.71341 10.9599 3.57233 11.2074 3.47652 11.383C3.42859 11.4709 3.3919 11.541 3.36663 11.5902C3.35453 11.6138 3.33443 11.6541 3.32667 11.6697L3.32571 11.6716C3.22553 11.8782 3.22495 12.1206 3.32514 12.3272L3.32678 12.3305C3.33504 12.3471 3.35487 12.3869 3.36663 12.4098C3.3919 12.459 3.42859 12.5291 3.47652 12.617C3.57233 12.7926 3.71341 13.0401 3.89845 13.3356C4.26759 13.925 4.81658 14.7132 5.53595 15.5045C6.95928 17.0702 9.14575 18.75 12 18.75C14.8542 18.75 17.0407 17.0702 18.464 15.5045C19.1834 14.7132 19.7324 13.925 20.1016 13.3356C20.2866 13.0401 20.4277 12.7926 20.5235 12.617C20.5714 12.5291 20.6081 12.459 20.6334 12.4098C20.6454 12.3863 20.6653 12.3464 20.6732 12.3306L20.6743 12.3284C20.7745 12.1218 20.7748 11.8789 20.6746 11.6723ZM4.84938 12C4.92945 12.143 5.03649 12.3267 5.16973 12.5394C5.50514 13.075 6.0016 13.7868 6.64586 14.4955C7.94981 15.9298 9.76334 17.25 12 17.25C14.2367 17.25 16.0502 15.9298 17.3541 14.4955C17.9984 13.7868 18.4949 13.075 18.8303 12.5394C18.9635 12.3267 19.0705 12.143 19.1506 12C19.0705 11.857 18.9635 11.6733 18.8303 11.4606C18.4949 10.925 17.9984 10.2132 17.3541 9.5045C16.0502 8.07016 14.2367 6.75 12 6.75C9.76334 6.75 7.94981 8.07016 6.64586 9.5045C6.0016 10.2132 5.50514 10.925 5.16973 11.4606C5.03649 11.6733 4.92945 11.857 4.84938 12Z" fill="currentColor"/>
<path fill-rule="evenodd" clip-rule="evenodd" d="M12 9.25C10.4812 9.25 9.25 10.4812 9.25 12C9.25 13.5188 10.4812 14.75 12 14.75C13.5188 14.75 14.75 13.5188 14.75 12C14.75 10.4812 13.5188 9.25 12 9.25ZM12 10.75C11.3096 10.75 10.75 11.3096 10.75 12C10.75 12.6904 11.3096 13.25 12 13.25C12.6904 13.25 13.25 12.6904 13.25 12C13.25 11.3096 12.6904 10.75 12 10.75Z" fill="currentColor"/>
</svg>
