<svg width="24" height="24" viewBox="0 0 24 24" fill="none" xmlns="http://www.w3.org/2000/svg">
<path fill-rule="evenodd" clip-rule="evenodd" d="M4.92273 12.4793C4.79745 12.2934 4.69475 12.1308 4.61522 12C4.69475 11.8692 4.79745 11.7066 4.92273 11.5207C5.26759 11.009 5.77863 10.328 6.44238 9.64947C7.78134 8.28075 9.66229 7 12 7C14.3377 7 16.2187 8.28075 17.5576 9.64947C18.2214 10.328 18.7324 11.009 19.0773 11.5207C19.2025 11.7066 19.3053 11.8692 19.3848 12C19.3053 12.1308 19.2025 12.2934 19.0773 12.4793C18.7324 12.991 18.2214 13.672 17.5576 14.3505C16.2187 15.7193 14.3377 17 12 17C9.66229 17 7.78134 15.7193 6.44238 14.3505C5.77863 13.672 5.26759 12.991 4.92273 12.4793ZM20.9147 11.6525C20.9148 11.6528 20.9149 11.6531 20.25 12C20.9149 12.3469 20.9148 12.3472 20.9147 12.3475L20.9143 12.3481L20.9134 12.3498L20.9108 12.3549L20.9021 12.371C20.8949 12.3845 20.8847 12.4033 20.8716 12.4271C20.8453 12.4747 20.8073 12.5421 20.7577 12.6267C20.6584 12.7958 20.5125 13.0337 20.3212 13.3176C19.9395 13.884 19.3724 14.6405 18.6299 15.3995C17.1563 16.9057 14.9123 18.5 12 18.5C9.08771 18.5 6.84366 16.9057 5.37012 15.3995C4.62762 14.6405 4.06054 13.884 3.67883 13.3176C3.48753 13.0337 3.34158 12.7958 3.24235 12.6267C3.1927 12.5421 3.15467 12.4747 3.12841 12.4271C3.11529 12.4033 3.10509 12.3845 3.09786 12.371L3.08924 12.3549L3.08659 12.3498L3.08569 12.3481L3.08534 12.3475C3.08519 12.3472 3.08506 12.3469 3.75 12C3.08506 11.6531 3.08519 11.6528 3.08534 11.6525L3.08569 11.6519L3.08659 11.6502L3.08924 11.6451L3.09786 11.629C3.10509 11.6155 3.11529 11.5967 3.12841 11.5729C3.15467 11.5253 3.1927 11.4579 3.24235 11.3733C3.34158 11.2042 3.48753 10.9663 3.67883 10.6824C4.06054 10.116 4.62762 9.35953 5.37012 8.60053C6.84366 7.09425 9.08771 5.5 12 5.5C14.9123 5.5 17.1563 7.09425 18.6299 8.60053C19.3724 9.35953 19.9395 10.116 20.3212 10.6824C20.5125 10.9663 20.6584 11.2042 20.7577 11.3733C20.8073 11.4579 20.8453 11.5253 20.8716 11.5729C20.8847 11.5967 20.8949 11.6155 20.9021 11.629L20.9108 11.6451L20.9134 11.6502L20.9143 11.6519L20.9147 11.6525ZM20.25 12L20.9149 11.6531C21.0284 11.8705 21.0284 12.1295 20.9149 12.3469L20.25 12ZM3.08506 11.6531L3.75 12L3.08506 12.3469C2.97165 12.1295 2.97165 11.8705 3.08506 11.6531ZM10.5 12C10.5 11.1716 11.1716 10.5 12 10.5C12.8284 10.5 13.5 11.1716 13.5 12C13.5 12.8284 12.8284 13.5 12 13.5C11.1716 13.5 10.5 12.8284 10.5 12ZM12 9C10.3431 9 9 10.3431 9 12C9 13.6569 10.3431 15 12 15C13.6569 15 15 13.6569 15 12C15 10.3431 13.6569 9 12 9Z" fill="currentColor"/>
</svg>
