<svg width="24" height="24" viewBox="0 0 24 24" fill="none" xmlns="http://www.w3.org/2000/svg">
  <path fill-rule="evenodd" clip-rule="evenodd" d="M3.75 5.75C3.75 4.64543 4.64543 3.75 5.75 3.75H18.25C19.3546 3.75 20.25 4.64543 20.25 5.75V18.25C20.25 19.3546 19.3546 20.25 18.25 20.25H5.75C4.64543 20.25 3.75 19.3546 3.75 18.25V5.75ZM5.75 5.25C5.47386 5.25 5.25 5.47386 5.25 5.75V18.25C5.25 18.5261 5.47386 18.75 5.75 18.75H18.25C18.5261 18.75 18.75 18.5261 18.75 18.25V5.75C18.75 5.47386 18.5261 5.25 18.25 5.25H5.75ZM11.0607 10L9.06066 12L11.0607 14L10 15.0607L7.46967 12.5303C7.17678 12.2374 7.17678 11.7626 7.46967 11.4697L10 8.93934L11.0607 10ZM14 8.93934L16.5303 11.4697C16.8232 11.7626 16.8232 12.2374 16.5303 12.5303L14 15.0607L12.9393 14L14.9393 12L12.9393 10L14 8.93934Z" fill="currentColor"/>
</svg>
