<svg width="24" height="24" viewBox="0 0 24 24" fill="none" xmlns="http://www.w3.org/2000/svg">
<path d="M14.5 14.75C17.3995 14.75 19.75 12.3995 19.75 9.5C19.75 6.60051 17.3995 4.25 14.5 4.25C11.6005 4.25 9.25 6.60051 9.25 9.5C9.25 12.3995 11.6005 14.75 14.5 14.75Z" fill="transparent" stroke="currentColor" stroke-width="1.5" stroke-linecap="round" stroke-linejoin="round"/>
<path fill-rule="evenodd" clip-rule="evenodd" d="M15.6577 14.6219C14.841 15.7592 13.507 16.5 12 16.5C9.51472 16.5 7.5 14.4853 7.5 12C7.5 10.493 8.24078 9.15902 9.37806 8.34233C9.5563 7.55032 9.91354 6.82607 10.405 6.21429C7.86552 6.9128 6 9.23854 6 12C6 15.3137 8.68629 18 12 18C14.7615 18 17.0872 16.1345 17.7857 13.5949C17.1739 14.0865 16.4497 14.4437 15.6577 14.6219Z" fill="currentColor"/>
<path fill-rule="evenodd" clip-rule="evenodd" d="M13.1577 17.1219C12.341 18.2592 11.007 19 9.5 19C7.01472 19 5 16.9853 5 14.5C5 12.993 5.74078 11.659 6.87806 10.8423C7.0563 10.0503 7.41354 9.32607 7.90504 8.71429C5.36552 9.4128 3.5 11.7385 3.5 14.5C3.5 17.8137 6.18629 20.5 9.5 20.5C12.2615 20.5 14.5872 18.6345 15.2857 16.0949C14.6739 16.5865 13.9497 16.9437 13.1577 17.1219Z" fill="currentColor"/>
</svg>
