<svg width="24" height="24" viewBox="0 0 24 24" fill="none" xmlns="http://www.w3.org/2000/svg">
  <path fill-rule="evenodd" clip-rule="evenodd" d="M4.25 6.25C4.25 5.14543 5.14543 4.25 6.25 4.25H17.75C18.8546 4.25 19.75 5.14543 19.75 6.25V17.75C19.75 18.8546 18.8546 19.75 17.75 19.75H6.25C5.14543 19.75 4.25 18.8546 4.25 17.75V6.25ZM6.25 5.75C5.97386 5.75 5.75 5.97386 5.75 6.25V17.75C5.75 18.0261 5.97386 18.25 6.25 18.25H17.75C18.0261 18.25 18.25 18.0261 18.25 17.75V6.25C18.25 5.97386 18.0261 5.75 17.75 5.75H6.25Z" fill="currentColor"/>
</svg>
