<svg width="24" height="24" viewBox="0 0 256 256" fill="none" xmlns="http://www.w3.org/2000/svg">
  <path fill-rule="evenodd" clip-rule="evenodd"
    d="M128 0C57.3076 0 0 57.3076 0 128C0 198.692 57.3076 256 128 256C198.692 256 256 198.692 256 128C256 57.3076 198.692 0 128 0ZM94 108C94 89.2223 109.222 74 128 74C146.778 74 162 89.2223 162 108C162 126.778 146.778 142 128 142C109.222 142 94 126.778 94 108ZM128 58C100.386 58 78 80.3858 78 108C78 135.614 100.386 158 128 158C155.614 158 178 135.614 178 108C178 80.3858 155.614 58 128 58ZM97.5375 173.825C93.5746 171.871 88.7783 173.5 86.8246 177.463C84.8709 181.425 86.4997 186.222 90.4625 188.175C114.329 199.942 141.671 199.942 165.537 188.175C169.5 186.222 171.129 181.425 169.175 177.463C167.222 173.5 162.425 171.871 158.463 173.825C139.056 183.392 116.944 183.392 97.5375 173.825Z"
    fill="#2F1747" />
</svg>
