<svg width="170" height="36" viewBox="0 0 170 36" fill="none" xmlns="http://www.w3.org/2000/svg">
  <mask id="mask0_4497_1572" style="mask-type:alpha" maskUnits="userSpaceOnUse" x="0" y="0" width="36" height="36">
    <path fill-rule="evenodd" clip-rule="evenodd"
      d="M31.9373 29.3917C34.1197 26.7249 35.5517 23.4202 35.9111 19.8H29.1068C28.8231 21.5643 28.1291 23.1913 27.1259 24.5803L31.9373 29.3917ZM29.3917 31.9373L24.5803 27.1259C23.1913 28.1291 21.5643 28.8231 19.8 29.1068V35.9111C23.4202 35.5517 26.7249 34.1197 29.3917 31.9373ZM18 0C27.3336 0 35.008 7.10402 35.9111 16.2H29.1068C28.2452 10.8424 23.6005 6.75 18 6.75C11.7868 6.75 6.75 11.7868 6.75 18C6.75 23.6005 10.8424 28.2452 16.2 29.1068V35.9111C7.10402 35.008 0 27.3336 0 18C0 8.05887 8.05887 0 18 0Z"
      fill="currentColor" />
  </mask>
  <g mask="url(#mask0_4497_1572)">
    <circle cx="18" cy="18" r="18" fill="currentColor" />
  </g>
  <path
    d="M58.262 26.242C56.4873 26.242 54.9913 25.9193 53.774 25.274C52.5713 24.614 51.662 23.69 51.046 22.502C50.43 21.2993 50.122 19.8987 50.122 18.3C50.122 16.6573 50.452 15.2347 51.112 14.032C51.7867 12.8293 52.7547 11.898 54.016 11.238C55.2773 10.578 56.788 10.248 58.548 10.248C59.6773 10.248 60.6673 10.3947 61.518 10.688C62.3833 10.9667 63.1387 11.37 63.784 11.898L62.684 14.56C62.2147 14.2227 61.7747 13.9587 61.364 13.768C60.9533 13.5627 60.528 13.4233 60.088 13.35C59.648 13.262 59.142 13.218 58.57 13.218C56.9567 13.218 55.7393 13.658 54.918 14.538C54.1113 15.4033 53.708 16.6647 53.708 18.322C53.708 19.9647 54.0893 21.2113 54.852 22.062C55.6147 22.9127 56.81 23.338 58.438 23.338C58.9807 23.338 59.538 23.2867 60.11 23.184C60.682 23.0813 61.2467 22.9273 61.804 22.722L61.188 24.042V19.862H57.778V17.42H64.026V25.032C63.2487 25.4133 62.3467 25.714 61.32 25.934C60.308 26.1393 59.2887 26.242 58.262 26.242ZM66.9766 26V10.49H70.4086V16.716H77.5146V10.49H80.9686V26H77.5146V19.554H70.4086V26H66.9766ZM83.6591 18.234C83.6591 16.6207 83.9598 15.22 84.5611 14.032C85.1771 12.8293 86.0571 11.898 87.2011 11.238C88.3451 10.578 89.7018 10.248 91.2711 10.248C92.8404 10.248 94.1971 10.578 95.3411 11.238C96.4851 11.898 97.3651 12.8293 97.9811 14.032C98.6118 15.22 98.9271 16.6133 98.9271 18.212C98.9271 19.84 98.6118 21.2553 97.9811 22.458C97.3651 23.646 96.4851 24.5773 95.3411 25.252C94.1971 25.912 92.8404 26.242 91.2711 26.242C89.7018 26.242 88.3451 25.912 87.2011 25.252C86.0718 24.5773 85.1991 23.6387 84.5831 22.436C83.9671 21.2333 83.6591 19.8327 83.6591 18.234ZM87.2451 18.234C87.2451 19.8327 87.5751 21.0867 88.2351 21.996C88.9098 22.8907 89.9218 23.338 91.2711 23.338C92.5911 23.338 93.5958 22.8907 94.2851 21.996C94.9744 21.0867 95.3191 19.8327 95.3191 18.234C95.3191 16.6207 94.9744 15.374 94.2851 14.494C93.6104 13.5993 92.6058 13.152 91.2711 13.152C89.9218 13.152 88.9098 13.5993 88.2351 14.494C87.5751 15.374 87.2451 16.6207 87.2451 18.234ZM107.219 26.242C105.973 26.242 104.807 26.088 103.721 25.78C102.636 25.472 101.712 25.0467 100.949 24.504L101.961 21.82C102.46 22.1573 102.988 22.4433 103.545 22.678C104.103 22.9127 104.689 23.096 105.305 23.228C105.921 23.3453 106.567 23.404 107.241 23.404C108.297 23.404 109.045 23.2427 109.485 22.92C109.94 22.5973 110.167 22.1867 110.167 21.688C110.167 21.2333 110.013 20.8887 109.705 20.654C109.412 20.4047 108.869 20.192 108.077 20.016L105.481 19.488C104.059 19.1947 102.995 18.696 102.291 17.992C101.587 17.288 101.235 16.3493 101.235 15.176C101.235 14.1787 101.499 13.3133 102.027 12.58C102.555 11.8467 103.296 11.2747 104.249 10.864C105.217 10.4533 106.347 10.248 107.637 10.248C108.737 10.248 109.764 10.402 110.717 10.71C111.671 11.018 112.455 11.458 113.071 12.03L112.059 14.538C111.458 14.054 110.783 13.6947 110.035 13.46C109.302 13.2107 108.481 13.086 107.571 13.086C106.618 13.086 105.885 13.2547 105.371 13.592C104.873 13.9293 104.623 14.3913 104.623 14.978C104.623 15.418 104.777 15.7773 105.085 16.056C105.393 16.32 105.936 16.5327 106.713 16.694L109.265 17.2C110.717 17.4933 111.795 17.9847 112.499 18.674C113.203 19.3633 113.555 20.28 113.555 21.424C113.555 22.392 113.291 23.2353 112.763 23.954C112.25 24.6727 111.517 25.2373 110.563 25.648C109.625 26.044 108.51 26.242 107.219 26.242ZM119.354 26V13.284H114.426V10.49H127.714V13.284H122.786V26H119.354ZM135.791 26V10.49H139.223V17.244H139.267L145.625 10.49H149.695L141.885 18.608L141.907 17.2L150.179 26H145.977L139.267 18.916H139.223V26H135.791ZM150.852 26V10.49H154.284V26H150.852ZM161.012 26V13.284H156.084V10.49H169.372V13.284H164.444V26H161.012Z"
    fill="currentColor" />
</svg>