<svg width="256" height="256" viewBox="0 0 256 256" fill="none" xmlns="http://www.w3.org/2000/svg">
<path d="M194 98.0604L204 98.0604L194 98.0604ZM62 98.0604L72 98.0604L62 98.0604ZM79.495 203.144C74.5781 200.629 68.5533 202.576 66.0382 207.493C63.5232 212.41 65.4704 218.435 70.3873 220.95L79.495 203.144ZM185.613 220.95C190.53 218.435 192.477 212.41 189.962 207.493C187.447 202.576 181.422 200.629 176.505 203.144L185.613 220.95ZM128 42C158.919 42 184 67.0905 184 98.0604L204 98.0604C204 56.062 169.982 22 128 22L128 42ZM184 98.0604C184 129.03 158.919 154.121 128 154.121L128 174.121C169.982 174.121 204 140.059 204 98.0604L184 98.0604ZM128 154.121C97.0807 154.121 72 129.03 72 98.0604L52 98.0604C52 140.059 86.0177 174.121 128 174.121L128 154.121ZM72 98.0604C72 67.0905 97.0807 42 128 42L128 22C86.0177 22 52 56.062 52 98.0604L72 98.0604ZM70.3873 220.95C107.012 239.683 148.988 239.683 185.613 220.95L176.505 203.144C145.6 218.952 110.4 218.952 79.495 203.144L70.3873 220.95Z" fill="currentColor"/>
</svg>
