<svg width="20" height="20" viewBox="0 0 80 80" fill="none" xmlns="http://www.w3.org/2000/svg">
  <mask id="mask0_4496_1440" style="mask-type:alpha" maskUnits="userSpaceOnUse" x="0" y="0" width="80" height="80">
    <path fill-rule="evenodd" clip-rule="evenodd"
      d="M70.9718 65.3149C75.8214 59.3886 79.0038 52.0449 79.8025 44H64.6817C64.0513 47.9206 62.5091 51.5363 60.2797 54.6228L70.9718 65.3149ZM65.3149 70.9718L54.6228 60.2797C51.5363 62.5091 47.9206 64.0513 44 64.6817V79.8025C52.0449 79.0038 59.3886 75.8214 65.3149 70.9718ZM40 0C60.7414 0 77.7956 15.7867 79.8025 36H64.6817C62.7672 24.0943 52.4456 15 40 15C26.1929 15 15 26.1929 15 40C15 52.4456 24.0943 62.7672 36 64.6817V79.8025C15.7867 77.7956 0 60.7414 0 40C0 17.9086 17.9086 0 40 0Z"
      fill="currentColor" />
  </mask>
  <g mask="url(#mask0_4496_1440)">
    <circle cx="40" cy="40" r="40" fill="currentColor" />
  </g>
</svg>