<svg width="55" height="55" viewBox="0 0 55 55" fill="none" xmlns="http://www.w3.org/2000/svg">
<rect width="55" height="55" rx="10" fill="url(#paint0_linear)"/>
<path fill-rule="evenodd" clip-rule="evenodd" d="M29.387 42.0027C34.4918 40.3011 43.0001 34.9924 43 26.1209C42.9999 17.2495 36.1934 11.3736 29.387 11.3736C22.5807 11.3736 16.5594 15.667 15.7742 22.7177C15.3268 26.7353 16.3101 29.1209 17.2388 31.3744C17.9401 33.0757 18.6102 34.7018 18.6102 36.8978C18.6102 42.0027 11.8038 41.4355 11.8038 41.4355C14.508 44.562 24.2823 43.7043 29.387 42.0027ZM35.201 26.121C36.7673 26.121 38.037 24.8512 38.037 23.2849C38.037 21.7187 36.7673 20.4489 35.201 20.4489C33.6347 20.4489 32.3649 21.7187 32.3649 23.2849C32.3649 24.8512 33.6347 26.121 35.201 26.121ZM28.1109 26.121C29.2856 26.121 30.2379 25.1687 30.2379 23.994C30.2379 22.8192 29.2856 21.8669 28.1109 21.8669C26.9362 21.8669 25.9839 22.8192 25.9839 23.994C25.9839 25.1687 26.9362 26.121 28.1109 26.121Z" fill="white"/>
<defs>
<linearGradient id="paint0_linear" x1="11.7552" y1="-15.62" x2="68.6055" y2="3.89687" gradientUnits="userSpaceOnUse">
<stop stop-color="#C9586C"/>
<stop offset="1" stop-color="#1A354E"/>
</linearGradient>
</defs>
</svg>
