<svg width="24" height="24" viewBox="0 0 24 24" fill="none" xmlns="http://www.w3.org/2000/svg">
<path fill-rule="evenodd" clip-rule="evenodd" d="M20.1342 4.60588C20.3611 4.7412 20.5 4.98586 20.5 5.25V16.05C20.5 16.3256 20.3489 16.579 20.1064 16.7099L15.1064 19.4099C14.893 19.5251 14.6371 19.5301 14.4195 19.4233L9.26636 16.8935L4.60636 19.4099C4.37394 19.5354 4.09264 19.5294 3.86579 19.3941C3.63895 19.2588 3.5 19.0141 3.5 18.75V7.95C3.5 7.67441 3.65114 7.42102 3.89364 7.29007L8.89364 4.59007C9.10698 4.47487 9.36286 4.4699 9.5805 4.57675L14.7336 7.10647L19.3936 4.59007C19.6261 4.46457 19.9074 4.47057 20.1342 4.60588ZM14 8.41732L10 6.45368V15.5827L14 17.5463V8.41732ZM15.5 17.4926L19 15.6026V6.50736L15.5 8.39736V17.4926ZM8.5 15.6026V6.50736L5 8.39736V17.4926L8.5 15.6026Z" fill="currentColor"/>
</svg>
