<svg width="34" height="34" viewBox="0 0 34 34" fill="none" xmlns="http://www.w3.org/2000/svg">
  <g clip-path="url(#clip0)">
    <path
      d="M0 17C0 7.61116 7.61116 0 17 0C26.3888 0 34 7.61116 34 17C34 26.3888 26.3888 34 17 34C7.61116 34 0 26.3888 0 17Z"
      fill="#2CC9BF" />
    <path
      d="M17.4184 25C20.2391 25 22.5131 23.967 24 22.0989L21.2449 19.5934C20.2828 20.7582 19.102 21.3956 17.637 21.3956C15.1224 21.3956 13.3732 19.6374 13.3732 17C13.3732 14.3626 15.1224 12.6044 17.637 12.6044C19.102 12.6044 20.2828 13.2418 21.2449 14.4066L24 11.9011C22.5131 10.033 20.2391 9 17.4184 9C12.5641 9 9 12.3187 9 17C9 21.6813 12.5641 25 17.4184 25Z"
      fill="white" />
  </g>
  <defs>
    <clipPath id="clip0">
      <rect width="34" height="34" fill="white" />
    </clipPath>
  </defs>
</svg>
