<svg width="24" height="24" viewBox="0 0 24 24" fill="none" xmlns="http://www.w3.org/2000/svg">
<path fill-rule="evenodd" clip-rule="evenodd" d="M19.75 12.74L4.25 12.74L4.25 11.24L19.75 11.24L19.75 12.74ZM17.25 9.23999L17.25 6.73999C17.25 6.46385 17.0261 6.23999 16.75 6.23999L7.25 6.23999C6.97386 6.23999 6.75 6.46385 6.75 6.73999L6.75 9.23999L5.25 9.23999L5.25 6.73999C5.25 5.63542 6.14543 4.73999 7.25 4.73999L16.75 4.73999C17.8546 4.73999 18.75 5.63542 18.75 6.73999L18.75 9.23999L17.25 9.23999Z" fill="currentColor"/>
<path fill-rule="evenodd" clip-rule="evenodd" d="M17.25 19.25C18.0784 19.25 18.75 18.5784 18.75 17.75L17.25 17.75L17.25 19.25Z" fill="currentColor"/>
<path fill-rule="evenodd" clip-rule="evenodd" d="M18.75 14.74L18.75 16.25L17.25 16.25L17.25 14.74L18.75 14.74ZM14.75 17.75L14.75 19.26L13.25 19.26L13.25 17.75L14.75 17.75ZM10.75 17.75L10.75 19.26L9.25 19.26L9.25 17.75L10.75 17.75ZM6.75 14.74L6.75 16.25L5.25 16.25L5.25 14.74L6.75 14.74Z" fill="currentColor"/>
<path fill-rule="evenodd" clip-rule="evenodd" d="M6.75 19.25C5.92157 19.25 5.25 18.5784 5.25 17.75L6.75 17.75L6.75 19.25Z" fill="currentColor"/>
</svg>
