<svg width="24" height="24" viewBox="0 0 24 24" fill="none" xmlns="http://www.w3.org/2000/svg">
  <path
    d="M13 4C13 3.44771 12.5523 3 12 3C11.4477 3 11 3.44771 11 4L13 4ZM12 20L11.2929 20.7071C11.6834 21.0976 12.3166 21.0976 12.7071 20.7071L12 20ZM20.7071 12.7071C21.0976 12.3166 21.0976 11.6834 20.7071 11.2929C20.3166 10.9024 19.6834 10.9024 19.2929 11.2929L20.7071 12.7071ZM4.70711 11.2929C4.31658 10.9024 3.68342 10.9024 3.29289 11.2929C2.90237 11.6834 2.90237 12.3166 3.29289 12.7071L4.70711 11.2929ZM11 4L11 20L13 20L13 4L11 4ZM19.2929 11.2929L11.2929 19.2929L12.7071 20.7071L20.7071 12.7071L19.2929 11.2929ZM12.7071 19.2929L4.70711 11.2929L3.29289 12.7071L11.2929 20.7071L12.7071 19.2929Z"
    fill="currentColor" />
</svg>
