<svg width="24" height="24" viewBox="0 0 24 24" fill="none" xmlns="http://www.w3.org/2000/svg">
  <path
    d="M4 11C3.44771 11 3 11.4477 3 12C3 12.5523 3.44771 13 4 13L4 11ZM20 12L20.7071 12.7071C21.0976 12.3166 21.0976 11.6834 20.7071 11.2929L20 12ZM12.7071 3.29289C12.3166 2.90237 11.6834 2.90237 11.2929 3.29289C10.9024 3.68342 10.9024 4.31658 11.2929 4.70711L12.7071 3.29289ZM11.2929 19.2929C10.9024 19.6834 10.9024 20.3166 11.2929 20.7071C11.6834 21.0976 12.3166 21.0976 12.7071 20.7071L11.2929 19.2929ZM4 13L20 13L20 11L4 11L4 13ZM11.2929 4.70711L19.2929 12.7071L20.7071 11.2929L12.7071 3.29289L11.2929 4.70711ZM19.2929 11.2929L11.2929 19.2929L12.7071 20.7071L20.7071 12.7071L19.2929 11.2929Z"
    fill="currentColor" />
</svg>
