<svg width="24" height="24" viewBox="0 0 24 24" fill="none" xmlns="http://www.w3.org/2000/svg">
  <path
    d="M9.76562 14.6562H5.65625L4.875 17H2.38281L6.61719 5.625H8.78906L13.0469 17H10.5547L9.76562 14.6562ZM6.28906 12.7578H9.13281L7.70312 8.5L6.28906 12.7578ZM18.8594 17C18.7552 16.7969 18.6797 16.5443 18.6328 16.2422C18.0859 16.8516 17.375 17.1562 16.5 17.1562C15.6719 17.1562 14.9844 16.9167 14.4375 16.4375C13.8958 15.9583 13.625 15.3542 13.625 14.625C13.625 13.7292 13.9557 13.0417 14.6172 12.5625C15.2839 12.0833 16.2448 11.8411 17.5 11.8359H18.5391V11.3516C18.5391 10.9609 18.4375 10.6484 18.2344 10.4141C18.0365 10.1797 17.7214 10.0625 17.2891 10.0625C16.9089 10.0625 16.6094 10.1536 16.3906 10.3359C16.1771 10.5182 16.0703 10.7682 16.0703 11.0859H13.8125C13.8125 10.5964 13.9635 10.1432 14.2656 9.72656C14.5677 9.3099 14.9948 8.98438 15.5469 8.75C16.099 8.51042 16.7188 8.39062 17.4062 8.39062C18.4479 8.39062 19.2734 8.65365 19.8828 9.17969C20.4974 9.70052 20.8047 10.4349 20.8047 11.3828V15.0469C20.8099 15.849 20.9219 16.4557 21.1406 16.8672V17H18.8594ZM16.9922 15.4297C17.3255 15.4297 17.6328 15.3568 17.9141 15.2109C18.1953 15.0599 18.4036 14.8594 18.5391 14.6094V13.1562H17.6953C16.5651 13.1562 15.9635 13.5469 15.8906 14.3281L15.8828 14.4609C15.8828 14.7422 15.9818 14.974 16.1797 15.1562C16.3776 15.3385 16.6484 15.4297 16.9922 15.4297Z"
    fill="currentColor" />
</svg>
