<svg width="24" height="24" viewBox="0 0 24 24" fill="none" xmlns="http://www.w3.org/2000/svg">
<path d="M4.75 11.75L19.25 11.75" fill="transparent" stroke="currentColor" stroke-width="1.5" stroke-linecap="square" stroke-linejoin="round"/>
<path d="M5.75 8.25L5.75 7C5.75 6.30964 6.30964 5.75 7 5.75L17 5.75C17.6904 5.75 18.25 6.30964 18.25 7L18.25 8.25" fill="transparent" stroke="currentColor" stroke-width="1.5" stroke-linecap="square" stroke-linejoin="round"/>
<rect x="19" y="14.5" width="1.5" height="1.5" transform="rotate(90 19 14.5)" fill="currentColor"/>
<path d="M19 17.5V17.5C19 18.3284 18.3284 19 17.5 19V19L17.5 17.5L19 17.5Z" fill="currentColor"/>
<path d="M6.5 17.5L6.5 19V19C5.67157 19 5 18.3284 5 17.5V17.5L6.5 17.5Z" fill="currentColor"/>
<rect x="6.5" y="14.5" width="1.5" height="1.5" transform="rotate(90 6.5 14.5)" fill="currentColor"/>
<rect x="10.5" y="17.5" width="1.5" height="1.5" transform="rotate(90 10.5 17.5)" fill="currentColor"/>
<rect x="15" y="17.5" width="1.5" height="1.5" transform="rotate(90 15 17.5)" fill="currentColor"/>
</svg>
