<svg width="24" height="24" viewBox="0 0 24 24" fill="none" xmlns="http://www.w3.org/2000/svg">
<path d="M3.42543 17.75H1.5618L5.7493 6.11363H7.77771L11.9652 17.75H10.1016L6.8118 8.22727H6.72089L3.42543 17.75ZM3.73793 13.1932H9.78339V14.6705H3.73793V13.1932ZM13.6456 17.75V6.11363H17.907C18.7327 6.11363 19.4164 6.25 19.9581 6.52272C20.4998 6.79166 20.9051 7.15719 21.174 7.61931C21.443 8.07765 21.5774 8.59469 21.5774 9.17045C21.5774 9.6553 21.4884 10.0644 21.3104 10.3977C21.1323 10.7273 20.8937 10.9924 20.5945 11.1932C20.299 11.3901 19.9733 11.5341 19.6172 11.625V11.7386C20.0036 11.7576 20.3805 11.8826 20.7479 12.1136C21.1191 12.3409 21.4259 12.6648 21.6683 13.0852C21.9108 13.5057 22.032 14.017 22.032 14.6193C22.032 15.214 21.8918 15.7481 21.6115 16.2216C21.335 16.6913 20.907 17.0644 20.3274 17.3409C19.7479 17.6136 19.0073 17.75 18.1058 17.75H13.6456ZM15.4013 16.2443H17.9354C18.7763 16.2443 19.3786 16.0814 19.7422 15.7557C20.1058 15.4299 20.2877 15.0227 20.2877 14.5341C20.2877 14.1667 20.1948 13.8295 20.0092 13.5227C19.8236 13.2159 19.5585 12.9716 19.2138 12.7898C18.8729 12.608 18.4676 12.517 17.9979 12.517H15.4013V16.2443ZM15.4013 11.1477H17.7536C18.1475 11.1477 18.5017 11.072 18.8161 10.9205C19.1342 10.7689 19.3861 10.5568 19.5717 10.2841C19.7611 10.0076 19.8558 9.68181 19.8558 9.30681C19.8558 8.82575 19.6873 8.42234 19.3502 8.09659C19.013 7.77083 18.496 7.60795 17.799 7.60795H15.4013V11.1477Z" fill="currentColor"/>
</svg>
