<svg width="24" height="24" viewBox="0 0 24 24" fill="none" xmlns="http://www.w3.org/2000/svg">
<path fill-rule="evenodd" clip-rule="evenodd" d="M8.72947 4.34284C8.94189 4.22601 9.19769 4.21906 9.41614 4.32419L14.8862 6.95665L19.6386 4.34284C19.8709 4.21505 20.1535 4.21945 20.3817 4.35441C20.61 4.48937 20.75 4.73483 20.75 5V16.2C20.75 16.4735 20.6011 16.7253 20.3614 16.8572L15.2705 19.6572C15.0581 19.774 14.8023 19.7809 14.5839 19.6758L9.11381 17.0434L4.36144 19.6572C4.12909 19.785 3.84654 19.7806 3.61828 19.6456C3.39002 19.5106 3.25 19.2652 3.25 19V7.8C3.25 7.52648 3.3989 7.27465 3.63856 7.14284L8.72947 4.34284ZM9.84091 15.7286L14.1591 17.8067V8.27139L9.84091 6.19327V15.7286ZM8.34091 6.26845V15.7565L4.75 17.7315V8.24345L8.34091 6.26845ZM15.6591 8.24345V17.7315L19.25 15.7565V6.26845L15.6591 8.24345Z" fill="currentColor"/>
</svg>
