<svg width="24" height="24" viewBox="0 0 24 24" fill="none" xmlns="http://www.w3.org/2000/svg">
<path fill-rule="evenodd" clip-rule="evenodd" d="M2.21799 5.09202C2 5.51984 2 6.0799 2 7.2V16.8C2 17.9201 2 18.4802 2.21799 18.908C2.40973 19.2843 2.71569 19.5903 3.09202 19.782C3.51984 20 4.0799 20 5.2 20H18.8C19.9201 20 20.4802 20 20.908 19.782C21.2843 19.5903 21.5903 19.2843 21.782 18.908C22 18.4802 22 17.9201 22 16.8V7.2C22 6.0799 22 5.51984 21.782 5.09202C21.5903 4.71569 21.2843 4.40973 20.908 4.21799C20.4802 4 19.9201 4 18.8 4H5.2C4.0799 4 3.51984 4 3.09202 4.21799C2.71569 4.40973 2.40973 4.71569 2.21799 5.09202ZM4.41406 15H8.24609V13.9844H5.91797V13.9297L6.60547 13.2383C6.80859 13.0378 6.9987 12.8411 7.17578 12.6484C7.35547 12.4531 7.51302 12.2578 7.64844 12.0625C7.78385 11.8646 7.89062 11.6641 7.96875 11.4609C8.04688 11.2552 8.08594 11.0404 8.08594 10.8164C8.08594 10.569 8.04427 10.3464 7.96094 10.1484C7.88021 9.95052 7.76302 9.78255 7.60938 9.64453C7.45573 9.50391 7.26953 9.39583 7.05078 9.32031C6.83464 9.24479 6.58984 9.20703 6.31641 9.20703C6.08724 9.20703 5.88021 9.23047 5.69531 9.27734C5.51042 9.32161 5.34115 9.38151 5.1875 9.45703C5.03385 9.53255 4.89323 9.61979 4.76562 9.71875C4.63802 9.8151 4.51562 9.91667 4.39844 10.0234L5.05469 10.8008C5.26302 10.6133 5.46224 10.4688 5.65234 10.3672C5.84245 10.2656 6.04036 10.2148 6.24609 10.2148C6.44141 10.2148 6.59635 10.2682 6.71094 10.375C6.82812 10.4818 6.88672 10.6315 6.88672 10.8242C6.88672 10.9987 6.85938 11.1615 6.80469 11.3125C6.75 11.4635 6.67318 11.612 6.57422 11.7578C6.47526 11.9036 6.35677 12.0534 6.21875 12.207C6.08073 12.3607 5.92708 12.5286 5.75781 12.7109L4.41406 14.1602V15ZM10.4844 15H11.6914V9.28906H10.6992L8.85938 10.7539L9.44531 11.4805L10.1016 10.9531C10.1406 10.9219 10.181 10.8867 10.2227 10.8477L10.3438 10.7344L10.4492 10.6289C10.4805 10.5977 10.5026 10.5742 10.5156 10.5586C10.513 10.6445 10.5091 10.7396 10.5039 10.8438C10.5013 10.9479 10.4974 11.0521 10.4922 11.1562L10.4844 11.4531V11.6953V15ZM13.5664 14.1328C13.5326 14.2161 13.5156 14.319 13.5156 14.4414C13.5156 14.5586 13.5326 14.6589 13.5664 14.7422C13.6029 14.8255 13.6523 14.8945 13.7148 14.9492C13.7773 15.0039 13.8503 15.043 13.9336 15.0664C14.0169 15.0924 14.1068 15.1055 14.2031 15.1055C14.2943 15.1055 14.3802 15.0924 14.4609 15.0664C14.5443 15.043 14.6172 15.0039 14.6797 14.9492C14.7422 14.8945 14.7917 14.8255 14.8281 14.7422C14.8646 14.6589 14.8828 14.5586 14.8828 14.4414C14.8828 14.319 14.8646 14.2161 14.8281 14.1328C14.7917 14.0469 14.7422 13.9779 14.6797 13.9258C14.6172 13.8737 14.5443 13.8359 14.4609 13.8125C14.3802 13.7891 14.2943 13.7773 14.2031 13.7773C14.1068 13.7773 14.0169 13.7891 13.9336 13.8125C13.8503 13.8359 13.7773 13.8737 13.7148 13.9258C13.6523 13.9779 13.6029 14.0469 13.5664 14.1328ZM13.5664 10.9062C13.5326 10.9896 13.5156 11.0924 13.5156 11.2148C13.5156 11.332 13.5326 11.4336 13.5664 11.5195C13.6029 11.6029 13.6523 11.6719 13.7148 11.7266C13.7773 11.7786 13.8503 11.8177 13.9336 11.8438C14.0169 11.8672 14.1068 11.8789 14.2031 11.8789C14.2943 11.8789 14.3802 11.8672 14.4609 11.8438C14.5443 11.8177 14.6172 11.7786 14.6797 11.7266C14.7422 11.6719 14.7917 11.6029 14.8281 11.5195C14.8646 11.4336 14.8828 11.332 14.8828 11.2148C14.8828 11.0924 14.8646 10.9896 14.8281 10.9062C14.7917 10.8203 14.7422 10.7513 14.6797 10.6992C14.6172 10.6471 14.5443 10.6094 14.4609 10.5859C14.3802 10.5625 14.2943 10.5508 14.2031 10.5508C14.1068 10.5508 14.0169 10.5625 13.9336 10.5859C13.8503 10.6094 13.7773 10.6471 13.7148 10.6992C13.6523 10.7513 13.6029 10.8203 13.5664 10.9062ZM19.5742 12.5469C19.6055 12.2734 19.6211 12 19.6211 11.7266C19.6211 11.2995 19.569 10.9284 19.4648 10.6133C19.3607 10.2982 19.2188 10.0378 19.0391 9.83203C18.8594 9.6263 18.6471 9.47396 18.4023 9.375C18.1576 9.27344 17.8945 9.22266 17.6133 9.22266C17.3268 9.22266 17.0677 9.26823 16.8359 9.35938C16.6068 9.45052 16.4115 9.58203 16.25 9.75391C16.0885 9.92318 15.9635 10.1302 15.875 10.375C15.7891 10.6198 15.7461 10.8971 15.7461 11.207C15.7461 11.4961 15.7826 11.7526 15.8555 11.9766C15.9284 12.2005 16.0326 12.3893 16.168 12.543C16.306 12.6966 16.474 12.8138 16.6719 12.8945C16.8698 12.9753 17.0924 13.0156 17.3398 13.0156C17.4935 13.0156 17.6328 12.9987 17.7578 12.9648C17.8828 12.931 17.9948 12.8841 18.0938 12.8242C18.1927 12.7643 18.2786 12.694 18.3516 12.6133C18.4245 12.5326 18.487 12.4453 18.5391 12.3516H18.5898C18.5768 12.6146 18.5417 12.8555 18.4844 13.0742C18.4297 13.293 18.3359 13.4818 18.2031 13.6406C18.0703 13.7969 17.8906 13.9193 17.6641 14.0078C17.4375 14.0938 17.1484 14.1367 16.7969 14.1367C16.6823 14.1367 16.569 14.1302 16.457 14.1172C16.3477 14.1016 16.2448 14.0807 16.1484 14.0547V15.0234C16.1953 15.0339 16.25 15.0417 16.3125 15.0469C16.375 15.0547 16.4388 15.0599 16.5039 15.0625C16.5716 15.0677 16.638 15.0716 16.7031 15.0742C16.7682 15.0768 16.8281 15.0781 16.8828 15.0781C17.263 15.0781 17.5938 15.0339 17.875 14.9453C18.1589 14.8542 18.401 14.7305 18.6016 14.5742C18.8047 14.418 18.9714 14.2331 19.1016 14.0195C19.2344 13.8034 19.3385 13.5716 19.4141 13.3242C19.4922 13.0768 19.5456 12.8177 19.5742 12.5469ZM17.3438 10.25C17.4323 10.2109 17.5299 10.1914 17.6367 10.1914C17.7669 10.1914 17.8802 10.224 17.9766 10.2891C18.0755 10.3542 18.1576 10.4401 18.2227 10.5469C18.2904 10.651 18.3398 10.7695 18.3711 10.9023C18.4049 11.0326 18.4219 11.1641 18.4219 11.2969C18.4219 11.3932 18.4023 11.4883 18.3633 11.582C18.3268 11.6758 18.2734 11.7604 18.2031 11.8359C18.1328 11.9115 18.0482 11.9727 17.9492 12.0195C17.8503 12.0664 17.7409 12.0898 17.6211 12.0898C17.3841 12.0898 17.207 12.0091 17.0898 11.8477C16.9727 11.6862 16.9141 11.4674 16.9141 11.1914C16.9141 11.0195 16.931 10.8711 16.9648 10.7461C17.0013 10.6185 17.0508 10.5143 17.1133 10.4336C17.1784 10.3503 17.2552 10.2891 17.3438 10.25Z" fill="currentColor"/>
</svg>
