<svg width="24" height="24" viewBox="0 0 24 24" fill="none" xmlns="http://www.w3.org/2000/svg">
<path d="M11.75 19.25L11.75 4.75" fill="transparent" stroke="currentColor" stroke-width="1.5" stroke-linecap="square" stroke-linejoin="round"/>
<path d="M8.25 18.25L7 18.25C6.30964 18.25 5.75 17.6904 5.75 17L5.75 7C5.75 6.30964 6.30964 5.75 7 5.75L8.25 5.75" fill="transparent" stroke="currentColor" stroke-width="1.5" stroke-linecap="square" stroke-linejoin="round"/>
<rect x="14.5" y="5" width="1.5" height="1.5" fill="currentColor"/>
<path d="M17.5 5V5C18.3284 5 19 5.67157 19 6.5V6.5H17.5V5Z" fill="currentColor"/>
<path d="M17.5 17.5H19V17.5C19 18.3284 18.3284 19 17.5 19V19V17.5Z" fill="currentColor"/>
<rect x="14.5" y="17.5" width="1.5" height="1.5" fill="currentColor"/>
<rect x="17.5" y="13.5" width="1.5" height="1.5" fill="currentColor"/>
<rect x="17.5" y="9" width="1.5" height="1.5" fill="currentColor"/>
</svg>
