<svg width="24" height="24" viewBox="0 0 24 24" fill="none" xmlns="http://www.w3.org/2000/svg">
  <path fill-rule="evenodd" clip-rule="evenodd"
    d="M2.43597 4.18404C2 5.03969 2 6.15979 2 8.4V15.6C2 17.8402 2 18.9603 2.43597 19.816C2.81947 20.5686 3.43139 21.1805 4.18404 21.564C5.03969 22 6.15979 22 8.4 22H15.6C17.8402 22 18.9603 22 19.816 21.564C20.5686 21.1805 21.1805 20.5686 21.564 19.816C22 18.9603 22 17.8402 22 15.6V8.4C22 6.15979 22 5.03969 21.564 4.18404C21.1805 3.43139 20.5686 2.81947 19.816 2.43597C18.9603 2 17.8402 2 15.6 2H8.4C6.15979 2 5.03969 2 4.18404 2.43597C3.43139 2.81947 2.81947 3.43139 2.43597 4.18404ZM12.5303 4.46967C12.2374 4.17678 11.7626 4.17678 11.4697 4.46967L9.46967 6.46967C9.17678 6.76256 9.17678 7.23744 9.46967 7.53033C9.76256 7.82322 10.2374 7.82322 10.5303 7.53033L11.25 6.81066V9C11.25 9.41421 11.5858 9.75 12 9.75C12.4142 9.75 12.75 9.41421 12.75 9V6.81066L13.4697 7.53033C13.7626 7.82322 14.2374 7.82322 14.5303 7.53033C14.8232 7.23744 14.8232 6.76256 14.5303 6.46967L12.5303 4.46967ZM12.75 15C12.75 14.5858 12.4142 14.25 12 14.25C11.5858 14.25 11.25 14.5858 11.25 15V17.1893L10.5303 16.4697C10.2374 16.1768 9.76256 16.1768 9.46967 16.4697C9.17678 16.7626 9.17678 17.2374 9.46967 17.5303L11.4697 19.5303C11.7626 19.8232 12.2374 19.8232 12.5303 19.5303L14.5303 17.5303C14.8232 17.2374 14.8232 16.7626 14.5303 16.4697C14.2374 16.1768 13.7626 16.1768 13.4697 16.4697L12.75 17.1893V15Z"
    fill="currentColor" />
</svg>
