<svg width="24" height="24" viewBox="0 0 24 24" fill="none" xmlns="http://www.w3.org/2000/svg">
<path fill-rule="evenodd" clip-rule="evenodd" d="M2.13624 5.68251C2 5.9499 2 6.29993 2 7V17C2 17.7001 2 18.0501 2.13624 18.3175C2.25608 18.5527 2.44731 18.7439 2.68251 18.8638C2.9499 19 3.29993 19 4 19H20C20.7001 19 21.0501 19 21.3175 18.8638C21.5527 18.7439 21.7439 18.5527 21.8638 18.3175C22 18.0501 22 17.7001 22 17V7C22 6.29993 22 5.9499 21.8638 5.68251C21.7439 5.44731 21.5527 5.25608 21.3175 5.13624C21.0501 5 20.7001 5 20 5H4C3.29993 5 2.9499 5 2.68251 5.13624C2.44731 5.25608 2.25608 5.44731 2.13624 5.68251ZM4.31219 14.75H8.30419V13.734H5.81619V13.678L6.55219 12.99C6.80285 12.7553 7.02685 12.5393 7.22419 12.342C7.42152 12.1393 7.58685 11.9447 7.72019 11.758C7.85885 11.566 7.96285 11.3687 8.03219 11.166C8.10685 10.9633 8.14419 10.742 8.14419 10.502C8.14419 10.2087 8.06952 9.94733 7.92019 9.718C7.77619 9.48333 7.56819 9.29933 7.29619 9.166C7.02952 9.02733 6.70952 8.958 6.33619 8.958C5.99485 8.958 5.70152 8.998 5.45619 9.078C5.21619 9.15267 5.00285 9.25133 4.81619 9.374C4.63485 9.49667 4.46152 9.63 4.29619 9.774L4.95219 10.55C5.18152 10.3633 5.40019 10.2193 5.60819 10.118C5.81619 10.0167 6.02952 9.966 6.24819 9.966C6.46152 9.966 6.62952 10.022 6.75219 10.134C6.88019 10.246 6.94419 10.4167 6.94419 10.646C6.94419 10.8327 6.90419 11.0087 6.82419 11.174C6.74419 11.334 6.61619 11.5153 6.44019 11.718C6.26419 11.9153 6.03219 12.1633 5.74419 12.462L4.31219 13.91V14.75ZM10.6663 14.75H11.8743V9.038H10.8823L9.04231 10.502L9.62631 11.23L10.2823 10.702C10.357 10.638 10.437 10.566 10.5223 10.486C10.613 10.4007 10.6716 10.342 10.6983 10.31C10.693 10.422 10.6876 10.55 10.6823 10.694C10.677 10.838 10.6716 10.9767 10.6663 11.11V11.446V14.75ZM13.8044 13.678C13.6711 13.774 13.6044 13.9447 13.6044 14.19C13.6044 14.4247 13.6711 14.5953 13.8044 14.702C13.9378 14.8033 14.1004 14.854 14.2924 14.854C14.4791 14.854 14.6391 14.8033 14.7724 14.702C14.9058 14.5953 14.9724 14.4247 14.9724 14.19C14.9724 13.9447 14.9058 13.774 14.7724 13.678C14.6391 13.5767 14.4791 13.526 14.2924 13.526C14.1004 13.526 13.9378 13.5767 13.8044 13.678ZM13.8044 10.454C13.6711 10.55 13.6044 10.7207 13.6044 10.966C13.6044 11.2007 13.6711 11.3713 13.8044 11.478C13.9378 11.5793 14.1004 11.63 14.2924 11.63C14.4791 11.63 14.6391 11.5793 14.7724 11.478C14.9058 11.3713 14.9724 11.2007 14.9724 10.966C14.9724 10.7207 14.9058 10.55 14.7724 10.454C14.6391 10.3527 14.4791 10.302 14.2924 10.302C14.1004 10.302 13.9378 10.3527 13.8044 10.454ZM19.6457 12.454C19.6937 12.1287 19.7177 11.8033 19.7177 11.478C19.7177 11.0513 19.6644 10.6807 19.5577 10.366C19.451 10.0513 19.3017 9.79267 19.1097 9.59C18.923 9.382 18.7017 9.22733 18.4457 9.126C18.195 9.02467 17.923 8.974 17.6297 8.974C17.235 8.974 16.891 9.054 16.5977 9.214C16.3044 9.36867 16.0777 9.59533 15.9177 9.894C15.763 10.1873 15.6857 10.542 15.6857 10.958C15.6857 11.342 15.7524 11.67 15.8857 11.942C16.019 12.2087 16.2057 12.414 16.4457 12.558C16.6857 12.6967 16.9684 12.766 17.2937 12.766C17.539 12.766 17.739 12.7367 17.8937 12.678C18.0537 12.6193 18.1844 12.5393 18.2857 12.438C18.3924 12.3367 18.483 12.2247 18.5577 12.102H18.6057C18.595 12.3633 18.5577 12.6033 18.4937 12.822C18.435 13.0407 18.339 13.23 18.2057 13.39C18.0724 13.55 17.8884 13.6727 17.6537 13.758C17.4244 13.8433 17.131 13.886 16.7737 13.886C16.6564 13.886 16.539 13.878 16.4217 13.862C16.3044 13.846 16.1924 13.8273 16.0857 13.806V14.774C16.187 14.7953 16.3124 14.8087 16.4617 14.814C16.611 14.8247 16.7417 14.83 16.8537 14.83C17.3284 14.83 17.731 14.7687 18.0617 14.646C18.3977 14.518 18.6724 14.3447 18.8857 14.126C19.1044 13.902 19.2724 13.6487 19.3897 13.366C19.5124 13.078 19.5977 12.774 19.6457 12.454ZM17.0777 10.182C17.227 10.022 17.419 9.942 17.6537 9.942C17.7977 9.942 17.923 9.974 18.0297 10.038C18.1364 10.102 18.2244 10.1873 18.2937 10.294C18.3684 10.4007 18.4244 10.5207 18.4617 10.654C18.499 10.782 18.5177 10.9127 18.5177 11.046C18.5177 11.174 18.4804 11.2993 18.4057 11.422C18.331 11.5393 18.227 11.638 18.0937 11.718C17.9657 11.798 17.811 11.838 17.6297 11.838C17.3684 11.838 17.1737 11.758 17.0457 11.598C16.9177 11.438 16.8537 11.2193 16.8537 10.942C16.8537 10.5953 16.9284 10.342 17.0777 10.182Z" fill="currentColor"/>
</svg>
