<svg width="24" height="24" viewBox="0 0 24 24" fill="none" xmlns="http://www.w3.org/2000/svg">
<path d="M12 10C11.1714 10 10.5 10.6714 10.5 11.5C10.5 12.3286 11.1714 13 12 13C12.8286 13 13.5 12.3286 13.5 11.5C13.5 10.6714 12.8286 10 12 10Z" fill="currentColor"/>
<path d="M12 4C11.1714 4 10.5 4.67137 10.5 5.5C10.5 6.32863 11.1714 7 12 7C12.8286 7 13.5 6.32863 13.5 5.5C13.5 4.67137 12.8286 4 12 4Z" fill="currentColor"/>
<path d="M12 16C11.1714 16 10.5 16.6714 10.5 17.5C10.5 18.3286 11.1714 19 12 19C12.8286 19 13.5 18.3286 13.5 17.5C13.5 16.6714 12.8286 16 12 16Z" fill="currentColor"/>
</svg>
