<svg width="24" height="24" viewBox="0 0 24 24" fill="none" xmlns="http://www.w3.org/2000/svg">
  <path fill-rule="evenodd" clip-rule="evenodd"
    d="M2.21799 5.09202C2 5.51984 2 6.0799 2 7.2V16.8C2 17.9201 2 18.4802 2.21799 18.908C2.40973 19.2843 2.71569 19.5903 3.09202 19.782C3.51984 20 4.0799 20 5.2 20H18.8C19.9201 20 20.4802 20 20.908 19.782C21.2843 19.5903 21.5903 19.2843 21.782 18.908C22 18.4802 22 17.9201 22 16.8V7.2C22 6.0799 22 5.51984 21.782 5.09202C21.5903 4.71569 21.2843 4.40973 20.908 4.21799C20.4802 4 19.9201 4 18.8 4H5.2C4.0799 4 3.51984 4 3.09202 4.21799C2.71569 4.40973 2.40973 4.71569 2.21799 5.09202ZM9.84766 13.8164H10.5352V12.8789H9.84766V9.28906H8.73828L6.3125 12.9766V13.8164H8.67188V15H9.84766V13.8164ZM8.67188 11.9102V12.8789H7.375L8.32812 11.4336C8.40365 11.3112 8.47005 11.1888 8.52734 11.0664C8.58724 10.944 8.64062 10.8281 8.6875 10.7188H8.72266C8.72005 10.7448 8.71615 10.7878 8.71094 10.8477C8.70833 10.9049 8.70443 10.9727 8.69922 11.0508C8.69661 11.1289 8.69271 11.2109 8.6875 11.2969L8.67969 11.5469C8.67708 11.6276 8.67448 11.7005 8.67188 11.7656V11.9102ZM11.3633 14.1328C11.3294 14.2161 11.3125 14.319 11.3125 14.4414C11.3125 14.5586 11.3294 14.6589 11.3633 14.7422C11.3997 14.8255 11.4492 14.8945 11.5117 14.9492C11.5742 15.0039 11.6471 15.043 11.7305 15.0664C11.8138 15.0924 11.9036 15.1055 12 15.1055C12.0911 15.1055 12.1771 15.0924 12.2578 15.0664C12.3411 15.043 12.4141 15.0039 12.4766 14.9492C12.5391 14.8945 12.5885 14.8255 12.625 14.7422C12.6615 14.6589 12.6797 14.5586 12.6797 14.4414C12.6797 14.319 12.6615 14.2161 12.625 14.1328C12.5885 14.0469 12.5391 13.9779 12.4766 13.9258C12.4141 13.8737 12.3411 13.8359 12.2578 13.8125C12.1771 13.7891 12.0911 13.7773 12 13.7773C11.9036 13.7773 11.8138 13.7891 11.7305 13.8125C11.6471 13.8359 11.5742 13.8737 11.5117 13.9258C11.4492 13.9779 11.3997 14.0469 11.3633 14.1328ZM11.3633 10.9062C11.3294 10.9896 11.3125 11.0924 11.3125 11.2148C11.3125 11.332 11.3294 11.4336 11.3633 11.5195C11.3997 11.6029 11.4492 11.6719 11.5117 11.7266C11.5742 11.7786 11.6471 11.8177 11.7305 11.8438C11.8138 11.8672 11.9036 11.8789 12 11.8789C12.0911 11.8789 12.1771 11.8672 12.2578 11.8438C12.3411 11.8177 12.4141 11.7786 12.4766 11.7266C12.5391 11.6719 12.5885 11.6029 12.625 11.5195C12.6615 11.4336 12.6797 11.332 12.6797 11.2148C12.6797 11.0924 12.6615 10.9896 12.625 10.9062C12.5885 10.8203 12.5391 10.7513 12.4766 10.6992C12.4141 10.6471 12.3411 10.6094 12.2578 10.5859C12.1771 10.5625 12.0911 10.5508 12 10.5508C11.9036 10.5508 11.8138 10.5625 11.7305 10.5859C11.6471 10.6094 11.5742 10.6471 11.5117 10.6992C11.4492 10.7513 11.3997 10.8203 11.3633 10.9062ZM17.1289 11.1016C17.194 10.9427 17.2266 10.7643 17.2266 10.5664C17.2266 10.3503 17.181 10.1589 17.0898 9.99219C17.0013 9.82292 16.875 9.68099 16.7109 9.56641C16.5469 9.44922 16.349 9.36068 16.1172 9.30078C15.888 9.23828 15.6328 9.20703 15.3516 9.20703C15.1536 9.20703 14.9674 9.22135 14.793 9.25C14.6185 9.27865 14.4557 9.31901 14.3047 9.37109C14.1536 9.42057 14.013 9.47917 13.8828 9.54688C13.7552 9.61458 13.6367 9.6888 13.5273 9.76953L14.1367 10.5742C14.1992 10.5299 14.2682 10.4857 14.3438 10.4414C14.4219 10.3945 14.5065 10.3529 14.5977 10.3164C14.6914 10.2773 14.7917 10.2461 14.8984 10.2227C15.0078 10.1966 15.125 10.1836 15.25 10.1836C15.5234 10.1836 15.7227 10.2409 15.8477 10.3555C15.9753 10.4701 16.0391 10.6289 16.0391 10.832C16.0391 10.944 16.0195 11.0495 15.9805 11.1484C15.9414 11.2474 15.8737 11.3346 15.7773 11.4102C15.6836 11.4831 15.5573 11.5417 15.3984 11.5859C15.2396 11.6276 15.0404 11.6484 14.8008 11.6484H14.4023V12.4961H14.8086C15.0638 12.4961 15.2786 12.5143 15.4531 12.5508C15.6276 12.5872 15.7682 12.6393 15.875 12.707C15.9844 12.7721 16.0625 12.8529 16.1094 12.9492C16.1589 13.043 16.1836 13.1484 16.1836 13.2656C16.1836 13.3906 16.1641 13.5065 16.125 13.6133C16.0885 13.7174 16.026 13.8073 15.9375 13.8828C15.849 13.9583 15.7305 14.0169 15.582 14.0586C15.4336 14.1003 15.2474 14.1211 15.0234 14.1211C14.9115 14.1211 14.7917 14.1133 14.6641 14.0977C14.5391 14.082 14.4115 14.0586 14.2812 14.0273C14.151 13.9935 14.0208 13.9531 13.8906 13.9062C13.7604 13.8594 13.6367 13.8047 13.5195 13.7422V14.7695C13.7539 14.8737 14.0065 14.9505 14.2773 15C14.5482 15.0521 14.8372 15.0781 15.1445 15.0781C15.5273 15.0781 15.8594 15.0352 16.1406 14.9492C16.4245 14.8607 16.6589 14.7383 16.8438 14.582C17.0312 14.4258 17.1693 14.2422 17.2578 14.0312C17.349 13.8177 17.3945 13.5859 17.3945 13.3359C17.3945 12.9583 17.276 12.6589 17.0391 12.4375C16.8021 12.2135 16.4531 12.0729 15.9922 12.0156V11.9922C16.1667 11.9505 16.3281 11.8906 16.4766 11.8125C16.6276 11.7318 16.7578 11.6328 16.8672 11.5156C16.9792 11.3958 17.0664 11.2578 17.1289 11.1016Z"
    fill="currentColor" />
</svg>
