<svg width="24" height="24" viewBox="0 0 24 24" fill="none" xmlns="http://www.w3.org/2000/svg">
  <path fill-rule="evenodd" clip-rule="evenodd" d="M4.97222 6.25C4.98145 6.25 4.99071 6.25 5 6.25H14.75V7.75H5C4.63759 7.75 4.41089 7.75059 4.24008 7.76454C4.07802 7.77778 4.03335 7.79923 4.02301 7.8045C3.92893 7.85244 3.85244 7.92893 3.8045 8.02301C3.79923 8.03335 3.77778 8.07802 3.76454 8.24008C3.75059 8.41089 3.75 8.63759 3.75 9V11C3.75 11.3624 3.75059 11.5891 3.76454 11.7599C3.77778 11.922 3.79923 11.9667 3.8045 11.977C3.85244 12.0711 3.92893 12.1476 4.02301 12.1955C4.03335 12.2008 4.07802 12.2222 4.24008 12.2355C4.41089 12.2494 4.63759 12.25 5 12.25H14.75V13.75L4.97223 13.75C4.64597 13.75 4.35723 13.75 4.11793 13.7305C3.86311 13.7097 3.59907 13.663 3.34202 13.532C2.9657 13.3403 2.65974 13.0343 2.46799 12.658C2.33702 12.4009 2.29034 12.1369 2.26952 11.8821C2.24997 11.6428 2.24999 11.354 2.25 11.0278L2.25 9C2.25 8.99071 2.25 8.98145 2.25 8.97222C2.24999 8.64597 2.24997 8.35723 2.26952 8.11793C2.29034 7.86311 2.33702 7.59907 2.46799 7.34202C2.65974 6.9657 2.9657 6.65974 3.34202 6.46799C3.59907 6.33702 3.86311 6.29034 4.11793 6.26952C4.35723 6.24997 4.64597 6.24999 4.97222 6.25ZM17 7.93934L19 9.93934L21 7.93934L22.0607 9L19.5303 11.5303C19.2374 11.8232 18.7626 11.8232 18.4697 11.5303L15.9393 9L17 7.93934ZM4.25 16.25H19.75V17.75H4.25V16.25Z" fill="currentColor"/>
</svg>
