<svg width="24" height="24" viewBox="0 0 24 24" fill="none" xmlns="http://www.w3.org/2000/svg">
<path fill-rule="evenodd" clip-rule="evenodd" d="M2.13624 5.68251C2 5.9499 2 6.29993 2 7V17C2 17.7001 2 18.0501 2.13624 18.3175C2.25608 18.5527 2.44731 18.7439 2.68251 18.8638C2.9499 19 3.29993 19 4 19H20C20.7001 19 21.0501 19 21.3175 18.8638C21.5527 18.7439 21.7439 18.5527 21.8638 18.3175C22 18.0501 22 17.7001 22 17V7C22 6.29993 22 5.9499 21.8638 5.68251C21.7439 5.44731 21.5527 5.25608 21.3175 5.13624C21.0501 5 20.7001 5 20 5H4C3.29993 5 2.9499 5 2.68251 5.13624C2.44731 5.25608 2.25608 5.44731 2.13624 5.68251ZM9.84766 13.5664H10.5352V12.6289H9.84766V9.03906H8.73828L6.3125 12.7266V13.5664H8.67188V14.75H9.84766V13.5664ZM8.67188 11.6602V12.6289H7.375L8.32812 11.1836C8.40365 11.0612 8.47005 10.9388 8.52734 10.8164C8.58724 10.694 8.64062 10.5781 8.6875 10.4688H8.72266C8.72005 10.4948 8.71615 10.5378 8.71094 10.5977C8.70833 10.6549 8.70443 10.7227 8.69922 10.8008C8.69661 10.8789 8.69271 10.9609 8.6875 11.0469L8.67969 11.2969C8.67708 11.3776 8.67448 11.4505 8.67188 11.5156V11.6602ZM11.3633 13.8828C11.3294 13.9661 11.3125 14.069 11.3125 14.1914C11.3125 14.3086 11.3294 14.4089 11.3633 14.4922C11.3997 14.5755 11.4492 14.6445 11.5117 14.6992C11.5742 14.7539 11.6471 14.793 11.7305 14.8164C11.8138 14.8424 11.9036 14.8555 12 14.8555C12.0911 14.8555 12.1771 14.8424 12.2578 14.8164C12.3411 14.793 12.4141 14.7539 12.4766 14.6992C12.5391 14.6445 12.5885 14.5755 12.625 14.4922C12.6615 14.4089 12.6797 14.3086 12.6797 14.1914C12.6797 14.069 12.6615 13.9661 12.625 13.8828C12.5885 13.7969 12.5391 13.7279 12.4766 13.6758C12.4141 13.6237 12.3411 13.5859 12.2578 13.5625C12.1771 13.5391 12.0911 13.5273 12 13.5273C11.9036 13.5273 11.8138 13.5391 11.7305 13.5625C11.6471 13.5859 11.5742 13.6237 11.5117 13.6758C11.4492 13.7279 11.3997 13.7969 11.3633 13.8828ZM11.3633 10.6562C11.3294 10.7396 11.3125 10.8424 11.3125 10.9648C11.3125 11.082 11.3294 11.1836 11.3633 11.2695C11.3997 11.3529 11.4492 11.4219 11.5117 11.4766C11.5742 11.5286 11.6471 11.5677 11.7305 11.5938C11.8138 11.6172 11.9036 11.6289 12 11.6289C12.0911 11.6289 12.1771 11.6172 12.2578 11.5938C12.3411 11.5677 12.4141 11.5286 12.4766 11.4766C12.5391 11.4219 12.5885 11.3529 12.625 11.2695C12.6615 11.1836 12.6797 11.082 12.6797 10.9648C12.6797 10.8424 12.6615 10.7396 12.625 10.6562C12.5885 10.5703 12.5391 10.5013 12.4766 10.4492C12.4141 10.3971 12.3411 10.3594 12.2578 10.3359C12.1771 10.3125 12.0911 10.3008 12 10.3008C11.9036 10.3008 11.8138 10.3125 11.7305 10.3359C11.6471 10.3594 11.5742 10.3971 11.5117 10.4492C11.4492 10.5013 11.3997 10.5703 11.3633 10.6562ZM17.1289 10.8516C17.194 10.6927 17.2266 10.5143 17.2266 10.3164C17.2266 10.1003 17.181 9.90885 17.0898 9.74219C17.0013 9.57292 16.875 9.43099 16.7109 9.31641C16.5469 9.19922 16.349 9.11068 16.1172 9.05078C15.888 8.98828 15.6328 8.95703 15.3516 8.95703C15.1536 8.95703 14.9674 8.97135 14.793 9C14.6185 9.02865 14.4557 9.06901 14.3047 9.12109C14.1536 9.17057 14.013 9.22917 13.8828 9.29688C13.7552 9.36458 13.6367 9.4388 13.5273 9.51953L14.1367 10.3242C14.1992 10.2799 14.2682 10.2357 14.3438 10.1914C14.4219 10.1445 14.5065 10.1029 14.5977 10.0664C14.6914 10.0273 14.7917 9.99609 14.8984 9.97266C15.0078 9.94661 15.125 9.93359 15.25 9.93359C15.5234 9.93359 15.7227 9.99089 15.8477 10.1055C15.9753 10.2201 16.0391 10.3789 16.0391 10.582C16.0391 10.694 16.0195 10.7995 15.9805 10.8984C15.9414 10.9974 15.8737 11.0846 15.7773 11.1602C15.6836 11.2331 15.5573 11.2917 15.3984 11.3359C15.2396 11.3776 15.0404 11.3984 14.8008 11.3984H14.4023V12.2461H14.8086C15.0638 12.2461 15.2786 12.2643 15.4531 12.3008C15.6276 12.3372 15.7682 12.3893 15.875 12.457C15.9844 12.5221 16.0625 12.6029 16.1094 12.6992C16.1589 12.793 16.1836 12.8984 16.1836 13.0156C16.1836 13.1406 16.1641 13.2565 16.125 13.3633C16.0885 13.4674 16.026 13.5573 15.9375 13.6328C15.849 13.7083 15.7305 13.7669 15.582 13.8086C15.4336 13.8503 15.2474 13.8711 15.0234 13.8711C14.9115 13.8711 14.7917 13.8633 14.6641 13.8477C14.5391 13.832 14.4115 13.8086 14.2812 13.7773C14.151 13.7435 14.0208 13.7031 13.8906 13.6562C13.7604 13.6094 13.6367 13.5547 13.5195 13.4922V14.5195C13.7539 14.6237 14.0065 14.7005 14.2773 14.75C14.5482 14.8021 14.8372 14.8281 15.1445 14.8281C15.5273 14.8281 15.8594 14.7852 16.1406 14.6992C16.4245 14.6107 16.6589 14.4883 16.8438 14.332C17.0312 14.1758 17.1693 13.9922 17.2578 13.7812C17.349 13.5677 17.3945 13.3359 17.3945 13.0859C17.3945 12.7083 17.276 12.4089 17.0391 12.1875C16.8021 11.9635 16.4531 11.8229 15.9922 11.7656V11.7422C16.1667 11.7005 16.3281 11.6406 16.4766 11.5625C16.6276 11.4818 16.7578 11.3828 16.8672 11.2656C16.9792 11.1458 17.0664 11.0078 17.1289 10.8516Z" fill="currentColor"/>
</svg>
