<svg width="24" height="24" viewBox="0 0 24 24" fill="none" xmlns="http://www.w3.org/2000/svg">
<path d="M4.5 16.25C4.08579 16.25 3.75 16.5858 3.75 17C3.75 17.4142 4.08579 17.75 4.5 17.75V16.25ZM19.5 17.75C19.9142 17.75 20.25 17.4142 20.25 17C20.25 16.5858 19.9142 16.25 19.5 16.25V17.75ZM4.5 19.25C4.08579 19.25 3.75 19.5858 3.75 20C3.75 20.4142 4.08579 20.75 4.5 20.75V19.25ZM19.5 20.75C19.9142 20.75 20.25 20.4142 20.25 20C20.25 19.5858 19.9142 19.25 19.5 19.25V20.75ZM4.5 17.75H19.5V16.25H4.5V17.75ZM4.5 20.75H19.5V19.25H4.5V20.75Z" fill="currentColor"/>
<path d="M5.2 3.75H18.8C19.3724 3.75 19.7566 3.75058 20.0525 3.77476C20.3396 3.79822 20.4769 3.8401 20.5675 3.88624C20.8027 4.00608 20.9939 4.19731 21.1138 4.43251C21.1599 4.52307 21.2018 4.66035 21.2252 4.94748C21.2494 5.24336 21.25 5.62757 21.25 6.2V6.8C21.25 7.37243 21.2494 7.75664 21.2252 8.05252C21.2018 8.33965 21.1599 8.47693 21.1138 8.56749C20.9939 8.80269 20.8027 8.99392 20.5675 9.11376C20.4769 9.1599 20.3396 9.20178 20.0525 9.22524C19.7566 9.24942 19.3724 9.25 18.8 9.25H5.2C4.62757 9.25 4.24336 9.24942 3.94748 9.22524C3.66035 9.20178 3.52307 9.1599 3.43251 9.11376C3.19731 8.99392 3.00608 8.80269 2.88624 8.56749C2.8401 8.47693 2.79822 8.33965 2.77476 8.05252C2.75058 7.75664 2.75 7.37243 2.75 6.8V6.2C2.75 5.62757 2.75058 5.24336 2.77476 4.94748C2.79822 4.66035 2.8401 4.52307 2.88624 4.43251C3.00608 4.19731 3.19731 4.00608 3.43251 3.88624C3.52307 3.8401 3.66035 3.79822 3.94748 3.77476C4.24336 3.75058 4.62757 3.75 5.2 3.75Z" stroke="currentColor" fill="transparent" stroke-width="1.5"/>
<path d="M12 14L11.6464 14.3536C11.8417 14.5488 12.1583 14.5488 12.3536 14.3536L12 14ZM14.3536 12.3536C14.5488 12.1583 14.5488 11.8417 14.3536 11.6464C14.1583 11.4512 13.8417 11.4512 13.6464 11.6464L14.3536 12.3536ZM10.3536 11.6464C10.1583 11.4512 9.84171 11.4512 9.64645 11.6464C9.45118 11.8417 9.45118 12.1583 9.64645 12.3536L10.3536 11.6464ZM13.6464 11.6464L11.6464 13.6464L12.3536 14.3536L14.3536 12.3536L13.6464 11.6464ZM12.3536 13.6464L10.3536 11.6464L9.64645 12.3536L11.6464 14.3536L12.3536 13.6464Z" fill="currentColor"/>
</svg>
