<svg width="24" height="24" viewBox="0 0 24 24" fill="none" xmlns="http://www.w3.org/2000/svg">
<path fill-rule="evenodd" clip-rule="evenodd" d="M2.13624 5.68251C2 5.9499 2 6.29993 2 7V17C2 17.7001 2 18.0501 2.13624 18.3175C2.25608 18.5527 2.44731 18.7439 2.68251 18.8638C2.9499 19 3.29993 19 4 19H20C20.7001 19 21.0501 19 21.3175 18.8638C21.5527 18.7439 21.7439 18.5527 21.8638 18.3175C22 18.0501 22 17.7001 22 17V7C22 6.29993 22 5.9499 21.8638 5.68251C21.7439 5.44731 21.5527 5.25608 21.3175 5.13624C21.0501 5 20.7001 5 20 5H4C3.29993 5 2.9499 5 2.68251 5.13624C2.44731 5.25608 2.25608 5.44731 2.13624 5.68251ZM6.07812 14.75H7.28516V9.03906H6.29297L4.45312 10.5039L5.03906 11.2305L5.69531 10.7031C5.73438 10.6719 5.77474 10.6367 5.81641 10.5977L5.9375 10.4844L6.04297 10.3789C6.07422 10.3477 6.09635 10.3242 6.10938 10.3086C6.10677 10.3945 6.10286 10.4896 6.09766 10.5938C6.09505 10.6979 6.09115 10.8021 6.08594 10.9062L6.07812 11.2031V11.4453V14.75ZM8.83984 11.5078C8.8112 11.7786 8.79688 12.0508 8.79688 12.3242C8.79688 12.7539 8.84766 13.1263 8.94922 13.4414C9.05339 13.7539 9.19531 14.013 9.375 14.2188C9.55729 14.4245 9.77083 14.5781 10.0156 14.6797C10.2604 14.7786 10.5234 14.8281 10.8047 14.8281C11.0911 14.8281 11.349 14.7839 11.5781 14.6953C11.8073 14.6042 12.0026 14.474 12.1641 14.3047C12.3255 14.1328 12.4492 13.9245 12.5352 13.6797C12.6237 13.4349 12.668 13.1576 12.668 12.8477C12.668 12.5586 12.6315 12.3021 12.5586 12.0781C12.4857 11.8542 12.3802 11.6654 12.2422 11.5117C12.1068 11.3581 11.9401 11.2409 11.7422 11.1602C11.5443 11.0794 11.3216 11.0391 11.0742 11.0391C10.9206 11.0391 10.7812 11.056 10.6562 11.0898C10.5339 11.1237 10.4232 11.1706 10.3242 11.2305C10.2253 11.2878 10.138 11.3581 10.0625 11.4414C9.98958 11.5221 9.92708 11.6094 9.875 11.7031H9.82812C9.84115 11.4375 9.875 11.1953 9.92969 10.9766C9.98698 10.7578 10.082 10.5703 10.2148 10.4141C10.3477 10.2578 10.5273 10.1367 10.7539 10.0508C10.9805 9.96224 11.2695 9.91797 11.6211 9.91797C11.7331 9.91797 11.8438 9.92578 11.9531 9.94141C12.0651 9.95443 12.1706 9.97266 12.2695 9.99609V9.03125C12.2201 9.02083 12.1641 9.01172 12.1016 9.00391C12.0391 8.99609 11.974 8.99089 11.9062 8.98828C11.8411 8.98307 11.776 8.97917 11.7109 8.97656C11.6458 8.97396 11.5859 8.97266 11.5312 8.97266C11.1536 8.97266 10.8229 9.01823 10.5391 9.10938C10.2578 9.19792 10.0156 9.32161 9.8125 9.48047C9.61198 9.63672 9.44531 9.82161 9.3125 10.0352C9.18229 10.2487 9.07812 10.4805 9 10.7305C8.92448 10.9779 8.87109 11.237 8.83984 11.5078ZM11.0703 13.8047C10.9844 13.8438 10.888 13.8633 10.7812 13.8633C10.651 13.8633 10.5365 13.8307 10.4375 13.7656C10.3411 13.7005 10.2591 13.6159 10.1914 13.5117C10.1263 13.4049 10.0768 13.2865 10.043 13.1562C10.0117 13.0234 9.99609 12.8906 9.99609 12.7578C9.99609 12.6615 10.0143 12.5664 10.0508 12.4727C10.0898 12.3789 10.1445 12.2943 10.2148 12.2188C10.2852 12.1432 10.3698 12.082 10.4688 12.0352C10.5677 11.9883 10.6771 11.9648 10.7969 11.9648C11.0339 11.9648 11.2096 12.0456 11.3242 12.207C11.4414 12.3659 11.5 12.5846 11.5 12.8633C11.5 13.0352 11.4818 13.1836 11.4453 13.3086C11.4115 13.4336 11.362 13.5378 11.2969 13.6211C11.2344 13.7018 11.1589 13.763 11.0703 13.8047ZM13.5664 13.8828C13.5326 13.9661 13.5156 14.069 13.5156 14.1914C13.5156 14.3086 13.5326 14.4089 13.5664 14.4922C13.6029 14.5755 13.6523 14.6445 13.7148 14.6992C13.7773 14.7539 13.8503 14.793 13.9336 14.8164C14.0169 14.8424 14.1068 14.8555 14.2031 14.8555C14.2943 14.8555 14.3802 14.8424 14.4609 14.8164C14.5443 14.793 14.6172 14.7539 14.6797 14.6992C14.7422 14.6445 14.7917 14.5755 14.8281 14.4922C14.8646 14.4089 14.8828 14.3086 14.8828 14.1914C14.8828 14.069 14.8646 13.9661 14.8281 13.8828C14.7917 13.7969 14.7422 13.7279 14.6797 13.6758C14.6172 13.6237 14.5443 13.5859 14.4609 13.5625C14.3802 13.5391 14.2943 13.5273 14.2031 13.5273C14.1068 13.5273 14.0169 13.5391 13.9336 13.5625C13.8503 13.5859 13.7773 13.6237 13.7148 13.6758C13.6523 13.7279 13.6029 13.7969 13.5664 13.8828ZM13.5664 10.6562C13.5326 10.7396 13.5156 10.8424 13.5156 10.9648C13.5156 11.082 13.5326 11.1836 13.5664 11.2695C13.6029 11.3529 13.6523 11.4219 13.7148 11.4766C13.7773 11.5286 13.8503 11.5677 13.9336 11.5938C14.0169 11.6172 14.1068 11.6289 14.2031 11.6289C14.2943 11.6289 14.3802 11.6172 14.4609 11.5938C14.5443 11.5677 14.6172 11.5286 14.6797 11.4766C14.7422 11.4219 14.7917 11.3529 14.8281 11.2695C14.8646 11.1836 14.8828 11.082 14.8828 10.9648C14.8828 10.8424 14.8646 10.7396 14.8281 10.6562C14.7917 10.5703 14.7422 10.5013 14.6797 10.4492C14.6172 10.3971 14.5443 10.3594 14.4609 10.3359C14.3802 10.3125 14.2943 10.3008 14.2031 10.3008C14.1068 10.3008 14.0169 10.3125 13.9336 10.3359C13.8503 10.3594 13.7773 10.3971 13.7148 10.4492C13.6523 10.5013 13.6029 10.5703 13.5664 10.6562ZM19.5742 12.2969C19.6055 12.0234 19.6211 11.75 19.6211 11.4766C19.6211 11.0495 19.569 10.6784 19.4648 10.3633C19.3607 10.0482 19.2188 9.78776 19.0391 9.58203C18.8594 9.3763 18.6471 9.22396 18.4023 9.125C18.1576 9.02344 17.8945 8.97266 17.6133 8.97266C17.3268 8.97266 17.0677 9.01823 16.8359 9.10938C16.6068 9.20052 16.4115 9.33203 16.25 9.50391C16.0885 9.67318 15.9635 9.88021 15.875 10.125C15.7891 10.3698 15.7461 10.6471 15.7461 10.957C15.7461 11.2461 15.7826 11.5026 15.8555 11.7266C15.9284 11.9505 16.0326 12.1393 16.168 12.293C16.306 12.4466 16.474 12.5638 16.6719 12.6445C16.8698 12.7253 17.0924 12.7656 17.3398 12.7656C17.4935 12.7656 17.6328 12.7487 17.7578 12.7148C17.8828 12.681 17.9948 12.6341 18.0938 12.5742C18.1927 12.5143 18.2786 12.444 18.3516 12.3633C18.4245 12.2826 18.487 12.1953 18.5391 12.1016H18.5898C18.5768 12.3646 18.5417 12.6055 18.4844 12.8242C18.4297 13.043 18.3359 13.2318 18.2031 13.3906C18.0703 13.5469 17.8906 13.6693 17.6641 13.7578C17.4375 13.8438 17.1484 13.8867 16.7969 13.8867C16.6823 13.8867 16.569 13.8802 16.457 13.8672C16.3477 13.8516 16.2448 13.8307 16.1484 13.8047V14.7734C16.1953 14.7839 16.25 14.7917 16.3125 14.7969C16.375 14.8047 16.4388 14.8099 16.5039 14.8125C16.5716 14.8177 16.638 14.8216 16.7031 14.8242C16.7682 14.8268 16.8281 14.8281 16.8828 14.8281C17.263 14.8281 17.5938 14.7839 17.875 14.6953C18.1589 14.6042 18.401 14.4805 18.6016 14.3242C18.8047 14.168 18.9714 13.9831 19.1016 13.7695C19.2344 13.5534 19.3385 13.3216 19.4141 13.0742C19.4922 12.8268 19.5456 12.5677 19.5742 12.2969ZM17.3438 10C17.4323 9.96094 17.5299 9.94141 17.6367 9.94141C17.7669 9.94141 17.8802 9.97396 17.9766 10.0391C18.0755 10.1042 18.1576 10.1901 18.2227 10.2969C18.2904 10.401 18.3398 10.5195 18.3711 10.6523C18.4049 10.7826 18.4219 10.9141 18.4219 11.0469C18.4219 11.1432 18.4023 11.2383 18.3633 11.332C18.3268 11.4258 18.2734 11.5104 18.2031 11.5859C18.1328 11.6615 18.0482 11.7227 17.9492 11.7695C17.8503 11.8164 17.7409 11.8398 17.6211 11.8398C17.3841 11.8398 17.207 11.7591 17.0898 11.5977C16.9727 11.4362 16.9141 11.2174 16.9141 10.9414C16.9141 10.7695 16.931 10.6211 16.9648 10.4961C17.0013 10.3685 17.0508 10.2643 17.1133 10.1836C17.1784 10.1003 17.2552 10.0391 17.3438 10Z" fill="currentColor"/>
</svg>
