<svg width="24" height="24" viewBox="0 0 24 24" fill="none" xmlns="http://www.w3.org/2000/svg">
<path fill-rule="evenodd" clip-rule="evenodd" d="M10.5 4.75C10.3011 4.75 10.1103 4.82902 9.96967 4.96967C9.82902 5.11032 9.75 5.30109 9.75 5.5V6.07353H14.25V5.5C14.25 5.30109 14.171 5.11032 14.0303 4.96967C13.8897 4.82902 13.6989 4.75 13.5 4.75H10.5ZM15.75 6.07353V5.5C15.75 4.90326 15.5129 4.33097 15.091 3.90901C14.669 3.48705 14.0967 3.25 13.5 3.25H10.5C9.90326 3.25 9.33097 3.48705 8.90901 3.90901C8.48705 4.33097 8.25 4.90326 8.25 5.5V6.07353H4.25V7.57353H6V17.5C6 18.0967 6.23705 18.669 6.65901 19.091C7.08097 19.5129 7.65326 19.75 8.25 19.75H15.75C16.3467 19.75 16.919 19.5129 17.341 19.091C17.7629 18.669 18 18.0967 18 17.5V7.57353H19.75V6.07353H15.75ZM7.5 7.75V17.5C7.5 17.6989 7.57902 17.8897 7.71967 18.0303C7.86032 18.171 8.05109 18.25 8.25 18.25H15.75C15.9489 18.25 16.1397 18.171 16.2803 18.0303C16.421 17.8897 16.5 17.6989 16.5 17.5V7.75H7.5Z" fill="currentColor"/>
</svg>
