<svg width="24" height="24" viewBox="0 0 24 24" fill="none" xmlns="http://www.w3.org/2000/svg">
<path d="M4.98203 7.29121L12 10.7756M12 10.7756L19.018 7.29121M12 10.7756V19.2418M12.6453 3.90042L18.4453 6.78007C18.6868 6.89927 18.8901 7.08303 19.0323 7.31068C19.1745 7.53833 19.2499 7.80085 19.25 8.06872V14.9295C19.2499 15.1974 19.1745 15.4599 19.0323 15.6875C18.8901 15.9152 18.6868 16.0989 18.4453 16.2181L12.6453 19.0978C12.4438 19.1979 12.2217 19.25 11.9964 19.25C11.7711 19.25 11.549 19.1979 11.3475 19.0978L5.54753 16.2181C5.3062 16.0974 5.10365 15.9121 4.96274 15.6831C4.82183 15.4541 4.74815 15.1906 4.75004 14.9223V8.06872C4.75018 7.80085 4.82557 7.53833 4.96774 7.31068C5.1099 7.08303 5.3132 6.89927 5.55478 6.78007L11.3548 3.90042C11.5553 3.80148 11.7761 3.75 12 3.75C12.2239 3.75 12.4448 3.80148 12.6453 3.90042Z" fill="transparent" stroke="currentColor" stroke-width="1.5" stroke-linecap="round" stroke-linejoin="round"/>
</svg>
