<svg width="24" height="24" viewBox="0 0 24 24" fill="none" xmlns="http://www.w3.org/2000/svg">
<path d="M14.0536 9.57C14.0536 10.7001 13.1342 11.6162 12 11.6162C10.8658 11.6162 9.94643 10.7001 9.94643 9.57C9.94643 8.43994 10.8658 7.52385 12 7.52385C13.1342 7.52385 14.0536 8.43994 14.0536 9.57Z" fill="transparent" stroke="currentColor" stroke-width="1.5" stroke-linecap="round"/>
<path d="M12 4.25C8.82436 4.25 6.25 6.81507 6.25 9.97924C6.25 12.5707 10.107 17.7251 11.5032 19.5059C11.7583 19.8314 12.2417 19.8314 12.4968 19.5059C13.893 17.7251 17.75 12.5707 17.75 9.97924C17.75 6.81507 15.1756 4.25 12 4.25Z" fill="transparent" stroke="currentColor" stroke-width="1.5" stroke-linecap="round"/>
</svg>
