<svg width="24" height="24" viewBox="0 0 24 24" fill="none" xmlns="http://www.w3.org/2000/svg">
  <path
    d="M12.801 2.18438L13.1312 1.51096L13.1295 1.51016L12.801 2.18438ZM20.001 5.71428L19.6708 6.3877L19.6725 6.38851L20.001 5.71428ZM21 7.29391L21.75 7.29391L21.75 7.2935L21 7.29391ZM21 15.7039L21.75 15.7043V15.7039H21ZM20.001 17.2835L19.6725 16.6093L19.6708 16.6101L20.001 17.2835ZM12.801 20.8134L12.4709 20.14L12.4707 20.1401L12.801 20.8134ZM11.19 20.8134L11.5204 20.1401L11.5202 20.14L11.19 20.8134ZM3.99004 17.2835L3.65783 17.9559L3.65989 17.9569L3.99004 17.2835ZM3.00004 15.6951L3.75004 15.7004V15.6951H3.00004ZM3.00004 7.29391L2.25004 7.2935V7.29391H3.00004ZM3.99904 5.71428L4.32755 6.38851L4.3292 6.3877L3.99904 5.71428ZM11.199 2.18438L10.8705 1.51015L10.8689 1.51096L11.199 2.18438ZM12 2V2.75V2ZM3.6182 5.66741C3.24628 5.48508 2.79696 5.63876 2.61462 6.01068C2.43228 6.3826 2.58597 6.83192 2.95789 7.01426L3.6182 5.66741ZM21.0422 7.01426C21.4141 6.83192 21.5678 6.3826 21.3854 6.01068C21.2031 5.63876 20.7538 5.48508 20.3818 5.66741L21.0422 7.01426ZM11.25 20.9899C11.25 21.4041 11.5858 21.7399 12 21.7399C12.4142 21.7399 12.75 21.4041 12.75 20.9899H11.25ZM12.4709 2.85781L19.6708 6.3877L20.3312 5.04086L13.1312 1.51096L12.4709 2.85781ZM19.6725 6.38851C19.8486 6.47429 19.9946 6.60551 20.0959 6.76558L21.3636 5.96383C21.1119 5.56579 20.7532 5.2465 20.3295 5.04005L19.6725 6.38851ZM20.0959 6.76558C20.197 6.92551 20.2499 7.10858 20.25 7.29432L21.75 7.2935C21.7497 6.82253 21.6154 6.362 21.3636 5.96383L20.0959 6.76558ZM20.25 7.29391V15.7039H21.75V7.29391H20.25ZM20.25 15.7035C20.2499 15.8892 20.197 16.0723 20.0959 16.2322L21.3636 17.034C21.6154 16.6358 21.7497 16.1753 21.75 15.7043L20.25 15.7035ZM20.0959 16.2322C19.9946 16.3923 19.8486 16.5235 19.6725 16.6093L20.3295 17.9577C20.7532 17.7513 21.1119 17.432 21.3636 17.034L20.0959 16.2322ZM19.6708 16.6101L12.4709 20.14L13.1312 21.4868L20.3312 17.9569L19.6708 16.6101ZM12.4707 20.1401C12.3238 20.2121 12.1611 20.25 11.9955 20.25V21.75C12.3892 21.75 12.7781 21.6601 13.1314 21.4867L12.4707 20.1401ZM11.9955 20.25C11.83 20.25 11.6672 20.2121 11.5204 20.1401L10.8597 21.4867C11.213 21.6601 11.6018 21.75 11.9955 21.75V20.25ZM11.5202 20.14L4.3202 16.6101L3.65989 17.9569L10.8599 21.4868L11.5202 20.14ZM4.32225 16.6111C4.1464 16.5242 4.00091 16.3919 3.90059 16.231L2.62759 17.0244C2.87713 17.4248 3.23452 17.7468 3.65783 17.9559L4.32225 16.6111ZM3.90059 16.231C3.80037 16.0702 3.7487 15.8864 3.75002 15.7004L2.25006 15.6897C2.24671 16.1615 2.37796 16.6238 2.62759 17.0244L3.90059 16.231ZM3.75004 15.6951V7.29391H2.25004V15.6951H3.75004ZM3.75004 7.29432C3.75014 7.10858 3.80302 6.92551 3.90417 6.76558L2.63642 5.96383C2.3846 6.36201 2.2503 6.82253 2.25004 7.2935L3.75004 7.29432ZM3.90417 6.76558C4.0054 6.60551 4.15148 6.47429 4.32755 6.38851L3.67053 5.04005C3.24682 5.2465 2.88815 5.56579 2.63642 5.96383L3.90417 6.76558ZM4.3292 6.3877L11.5292 2.85781L10.8689 1.51096L3.66889 5.04086L4.3292 6.3877ZM11.5275 2.85861C11.6737 2.7874 11.8355 2.75 12 2.75V1.25C11.6087 1.25 11.2222 1.33882 10.8705 1.51016L11.5275 2.85861ZM12 2.75C12.1646 2.75 12.3264 2.7874 12.4725 2.85861L13.1295 1.51016C12.7779 1.33882 12.3913 1.25 12 1.25V2.75ZM2.95789 7.01426L11.6699 11.2854L12.3302 9.93859L3.6182 5.66741L2.95789 7.01426ZM12.3302 11.2854L21.0422 7.01426L20.3818 5.66741L11.6699 9.93859L12.3302 11.2854ZM12.75 20.9899V10.612H11.25V20.9899H12.75Z"
    fill="currentColor" />
</svg>
