<svg width="24" height="24" viewBox="0 0 24 24" fill="none" xmlns="http://www.w3.org/2000/svg">
<path fill-rule="evenodd" clip-rule="evenodd" d="M11.7095 4.81784L6.68696 7.31725L12 9.96122L17.3131 7.31725L12.2905 4.81784C12.2006 4.77349 12.1007 4.75 12 4.75C11.8993 4.75 11.7994 4.77349 11.7095 4.81784ZM18.25 8.52647L12.75 11.2635V17.9518L17.8889 15.3945L17.8905 15.3937C17.9991 15.34 18.0899 15.2575 18.1533 15.1558C18.2165 15.0542 18.2499 14.9374 18.25 14.8185V8.52647ZM11.25 17.9552V11.2635L5.75003 8.52647V14.8171C5.7492 14.9363 5.78181 15.0536 5.84454 15.1557C5.90714 15.2577 5.99735 15.3407 6.10543 15.3951L11.25 17.9552ZM5.44455 6.26005L11.0429 3.47411L11.0445 3.47329C11.3416 3.32637 11.6686 3.25 12 3.25C12.3314 3.25 12.6584 3.32637 12.9555 3.47329L12.9572 3.47411L18.5555 6.26005C18.9131 6.43708 19.2153 6.71047 19.4264 7.04921C19.6376 7.38823 19.7498 7.77951 19.75 8.179V14.8189C19.7498 15.2184 19.6376 15.61 19.4264 15.9491C19.2152 16.2879 18.9137 16.561 18.5559 16.738L12.9574 19.524C12.659 19.6726 12.3299 19.75 11.9965 19.75C11.6632 19.75 11.3343 19.6727 11.0359 19.5242L5.43589 16.7374L5.43382 16.7364C5.07625 16.557 4.77563 16.2816 4.56627 15.9406C4.3574 15.6004 4.24779 15.2111 4.25003 14.8119V8.1794C4.25025 7.77991 4.36244 7.38823 4.57367 7.04921C4.7847 6.71051 5.08609 6.43754 5.44362 6.26051" fill="currentColor"/>
</svg>
