<svg width="24" height="24" viewBox="0 0 24 24" fill="none" xmlns="http://www.w3.org/2000/svg">
<path fill-rule="evenodd" clip-rule="evenodd" d="M17 7C17 6.72386 16.7761 6.5 16.5 6.5H7C6.72386 6.5 6.5 6.72386 6.5 7V8.25V9H5V8.25V7C5 5.89543 5.89543 5 7 5H16.5C17.6046 5 18.5 5.89543 18.5 7V8.25V9H17V8.25V7ZM19.5 12.5H18.75H4.75H4V11H4.75H18.75H19.5V12.5ZM18.5 16V14.5H17V16H18.5ZM18.5 17.5C18.5 18.3284 17.8284 19 17 19V17.5H18.5ZM6.5 19V17.5H5C5 18.3284 5.67157 19 6.5 19ZM6.5 14.5V16H5V14.5H6.5ZM12.5 19V17.5H11V19H12.5ZM9.5 17.5V19H8V17.5H9.5ZM15.5 19V17.5H14V19H15.5Z" fill="currentColor"/>
</svg>
