<svg width="24" height="24" viewBox="0 0 24 24" fill="none" xmlns="http://www.w3.org/2000/svg">
<path fill-rule="evenodd" clip-rule="evenodd" d="M12 4.75C9.09027 4.75 6.75 7.07219 6.75 9.91405C6.75 10.4232 6.94953 11.1408 7.33743 12.0171C7.71756 12.8757 8.24597 13.8156 8.82981 14.7463C9.96041 16.5487 11.2637 18.2615 12 19.1945C12.7363 18.2615 14.0396 16.5487 15.1702 14.7463C15.754 13.8156 16.2824 12.8757 16.6626 12.0171C17.0505 11.1408 17.25 10.4232 17.25 9.91405C17.25 7.07219 14.9097 4.75 12 4.75ZM5.25 9.91405C5.25 6.22343 8.28232 3.25 12 3.25C15.7177 3.25 18.75 6.22343 18.75 9.91405C18.75 10.7425 18.4464 11.693 18.0342 12.6243C17.6141 13.573 17.0453 14.5798 16.4409 15.5434C15.2313 17.4716 13.8416 19.286 13.1062 20.2138C12.5397 20.9287 11.4603 20.9287 10.8938 20.2138C10.1584 19.286 8.76869 17.4716 7.55912 15.5434C6.95468 14.5798 6.38586 13.573 5.96583 12.6243C5.55357 11.693 5.25 10.7425 5.25 9.91405ZM12 8.12946C11.2205 8.12946 10.6071 8.74948 10.6071 9.49162C10.6071 10.2338 11.2205 10.8538 12 10.8538C12.7795 10.8538 13.3929 10.2338 13.3929 9.49162C13.3929 8.74948 12.7795 8.12946 12 8.12946ZM9.10714 9.49162C9.10714 7.90072 10.4126 6.62946 12 6.62946C13.5874 6.62946 14.8929 7.90072 14.8929 9.49162C14.8929 11.0825 13.5874 12.3538 12 12.3538C10.4126 12.3538 9.10714 11.0825 9.10714 9.49162Z" fill="currentColor"/>
</svg>
