<svg width="24" height="24" viewBox="0 0 24 24" fill="none" xmlns="http://www.w3.org/2000/svg">
<path fill-rule="evenodd" clip-rule="evenodd" d="M2.21799 5.09202C2 5.51984 2 6.0799 2 7.2V16.8C2 17.9201 2 18.4802 2.21799 18.908C2.40973 19.2843 2.71569 19.5903 3.09202 19.782C3.51984 20 4.0799 20 5.2 20H18.8C19.9201 20 20.4802 20 20.908 19.782C21.2843 19.5903 21.5903 19.2843 21.782 18.908C22 18.4802 22 17.9201 22 16.8V7.2C22 6.0799 22 5.51984 21.782 5.09202C21.5903 4.71569 21.2843 4.40973 20.908 4.21799C20.4802 4 19.9201 4 18.8 4H5.2C4.0799 4 3.51984 4 3.09202 4.21799C2.71569 4.40973 2.40973 4.71569 2.21799 5.09202ZM10.1289 11.1016C10.194 10.9427 10.2266 10.7643 10.2266 10.5664C10.2266 10.3503 10.181 10.1589 10.0898 9.99219C10.0013 9.82292 9.875 9.68099 9.71094 9.56641C9.54688 9.44922 9.34896 9.36068 9.11719 9.30078C8.88802 9.23828 8.63281 9.20703 8.35156 9.20703C8.15365 9.20703 7.96745 9.22135 7.79297 9.25C7.61849 9.27865 7.45573 9.31901 7.30469 9.37109C7.15365 9.42057 7.01302 9.47917 6.88281 9.54688C6.75521 9.61458 6.63672 9.6888 6.52734 9.76953L7.13672 10.5742C7.19922 10.5299 7.26823 10.4857 7.34375 10.4414C7.42188 10.3945 7.50651 10.3529 7.59766 10.3164C7.69141 10.2773 7.79167 10.2461 7.89844 10.2227C8.00781 10.1966 8.125 10.1836 8.25 10.1836C8.52344 10.1836 8.72266 10.2409 8.84766 10.3555C8.97526 10.4701 9.03906 10.6289 9.03906 10.832C9.03906 10.944 9.01953 11.0495 8.98047 11.1484C8.94141 11.2474 8.8737 11.3346 8.77734 11.4102C8.68359 11.4831 8.55729 11.5417 8.39844 11.5859C8.23958 11.6276 8.04036 11.6484 7.80078 11.6484H7.40234V12.4961H7.80859C8.0638 12.4961 8.27865 12.5143 8.45312 12.5508C8.6276 12.5872 8.76823 12.6393 8.875 12.707C8.98438 12.7721 9.0625 12.8529 9.10938 12.9492C9.15885 13.043 9.18359 13.1484 9.18359 13.2656C9.18359 13.3906 9.16406 13.5065 9.125 13.6133C9.08854 13.7174 9.02604 13.8073 8.9375 13.8828C8.84896 13.9583 8.73047 14.0169 8.58203 14.0586C8.43359 14.1003 8.2474 14.1211 8.02344 14.1211C7.91146 14.1211 7.79167 14.1133 7.66406 14.0977C7.53906 14.082 7.41146 14.0586 7.28125 14.0273C7.15104 13.9935 7.02083 13.9531 6.89062 13.9062C6.76042 13.8594 6.63672 13.8047 6.51953 13.7422V14.7695C6.75391 14.8737 7.00651 14.9505 7.27734 15C7.54818 15.0521 7.83724 15.0781 8.14453 15.0781C8.52734 15.0781 8.85938 15.0352 9.14062 14.9492C9.42448 14.8607 9.65885 14.7383 9.84375 14.582C10.0312 14.4258 10.1693 14.2422 10.2578 14.0312C10.349 13.8177 10.3945 13.5859 10.3945 13.3359C10.3945 12.9583 10.276 12.6589 10.0391 12.4375C9.80208 12.2135 9.45312 12.0729 8.99219 12.0156V11.9922C9.16667 11.9505 9.32812 11.8906 9.47656 11.8125C9.6276 11.7318 9.75781 11.6328 9.86719 11.5156C9.97917 11.3958 10.0664 11.2578 10.1289 11.1016ZM11.3633 14.1328C11.3294 14.2161 11.3125 14.319 11.3125 14.4414C11.3125 14.5586 11.3294 14.6589 11.3633 14.7422C11.3997 14.8255 11.4492 14.8945 11.5117 14.9492C11.5742 15.0039 11.6471 15.043 11.7305 15.0664C11.8138 15.0924 11.9036 15.1055 12 15.1055C12.0911 15.1055 12.1771 15.0924 12.2578 15.0664C12.3411 15.043 12.4141 15.0039 12.4766 14.9492C12.5391 14.8945 12.5885 14.8255 12.625 14.7422C12.6615 14.6589 12.6797 14.5586 12.6797 14.4414C12.6797 14.319 12.6615 14.2161 12.625 14.1328C12.5885 14.0469 12.5391 13.9779 12.4766 13.9258C12.4141 13.8737 12.3411 13.8359 12.2578 13.8125C12.1771 13.7891 12.0911 13.7773 12 13.7773C11.9036 13.7773 11.8138 13.7891 11.7305 13.8125C11.6471 13.8359 11.5742 13.8737 11.5117 13.9258C11.4492 13.9779 11.3997 14.0469 11.3633 14.1328ZM11.3633 10.9062C11.3294 10.9896 11.3125 11.0924 11.3125 11.2148C11.3125 11.332 11.3294 11.4336 11.3633 11.5195C11.3997 11.6029 11.4492 11.6719 11.5117 11.7266C11.5742 11.7786 11.6471 11.8177 11.7305 11.8438C11.8138 11.8672 11.9036 11.8789 12 11.8789C12.0911 11.8789 12.1771 11.8672 12.2578 11.8438C12.3411 11.8177 12.4141 11.7786 12.4766 11.7266C12.5391 11.6719 12.5885 11.6029 12.625 11.5195C12.6615 11.4336 12.6797 11.332 12.6797 11.2148C12.6797 11.0924 12.6615 10.9896 12.625 10.9062C12.5885 10.8203 12.5391 10.7513 12.4766 10.6992C12.4141 10.6471 12.3411 10.6094 12.2578 10.5859C12.1771 10.5625 12.0911 10.5508 12 10.5508C11.9036 10.5508 11.8138 10.5625 11.7305 10.5859C11.6471 10.6094 11.5742 10.6471 11.5117 10.6992C11.4492 10.7513 11.3997 10.8203 11.3633 10.9062ZM13.6172 15H17.4492V13.9844H15.1211V13.9297L15.8086 13.2383C16.0117 13.0378 16.2018 12.8411 16.3789 12.6484C16.5586 12.4531 16.7161 12.2578 16.8516 12.0625C16.987 11.8646 17.0938 11.6641 17.1719 11.4609C17.25 11.2552 17.2891 11.0404 17.2891 10.8164C17.2891 10.569 17.2474 10.3464 17.1641 10.1484C17.0833 9.95052 16.9661 9.78255 16.8125 9.64453C16.6589 9.50391 16.4727 9.39583 16.2539 9.32031C16.0378 9.24479 15.793 9.20703 15.5195 9.20703C15.2904 9.20703 15.0833 9.23047 14.8984 9.27734C14.7135 9.32161 14.5443 9.38151 14.3906 9.45703C14.237 9.53255 14.0964 9.61979 13.9688 9.71875C13.8411 9.8151 13.7188 9.91667 13.6016 10.0234L14.2578 10.8008C14.4661 10.6133 14.6654 10.4688 14.8555 10.3672C15.0456 10.2656 15.2435 10.2148 15.4492 10.2148C15.6445 10.2148 15.7995 10.2682 15.9141 10.375C16.0312 10.4818 16.0898 10.6315 16.0898 10.8242C16.0898 10.9987 16.0625 11.1615 16.0078 11.3125C15.9531 11.4635 15.8763 11.612 15.7773 11.7578C15.6784 11.9036 15.5599 12.0534 15.4219 12.207C15.2839 12.3607 15.1302 12.5286 14.9609 12.7109L13.6172 14.1602V15Z" fill="currentColor"/>
</svg>
