<svg width="24" height="24" viewBox="0 0 24 24" fill="none" xmlns="http://www.w3.org/2000/svg">
<path fill-rule="evenodd" clip-rule="evenodd" d="M2.13624 5.68251C2 5.9499 2 6.29993 2 7V17C2 17.7001 2 18.0501 2.13624 18.3175C2.25608 18.5527 2.44731 18.7439 2.68251 18.8638C2.9499 19 3.29993 19 4 19H20C20.7001 19 21.0501 19 21.3175 18.8638C21.5527 18.7439 21.7439 18.5527 21.8638 18.3175C22 18.0501 22 17.7001 22 17V7C22 6.29993 22 5.9499 21.8638 5.68251C21.7439 5.44731 21.5527 5.25608 21.3175 5.13624C21.0501 5 20.7001 5 20 5H4C3.29993 5 2.9499 5 2.68251 5.13624C2.44731 5.25608 2.25608 5.44731 2.13624 5.68251ZM10.1289 10.8516C10.194 10.6927 10.2266 10.5143 10.2266 10.3164C10.2266 10.1003 10.181 9.90885 10.0898 9.74219C10.0013 9.57292 9.875 9.43099 9.71094 9.31641C9.54688 9.19922 9.34896 9.11068 9.11719 9.05078C8.88802 8.98828 8.63281 8.95703 8.35156 8.95703C8.15365 8.95703 7.96745 8.97135 7.79297 9C7.61849 9.02865 7.45573 9.06901 7.30469 9.12109C7.15365 9.17057 7.01302 9.22917 6.88281 9.29688C6.75521 9.36458 6.63672 9.4388 6.52734 9.51953L7.13672 10.3242C7.19922 10.2799 7.26823 10.2357 7.34375 10.1914C7.42188 10.1445 7.50651 10.1029 7.59766 10.0664C7.69141 10.0273 7.79167 9.99609 7.89844 9.97266C8.00781 9.94661 8.125 9.93359 8.25 9.93359C8.52344 9.93359 8.72266 9.99089 8.84766 10.1055C8.97526 10.2201 9.03906 10.3789 9.03906 10.582C9.03906 10.694 9.01953 10.7995 8.98047 10.8984C8.94141 10.9974 8.8737 11.0846 8.77734 11.1602C8.68359 11.2331 8.55729 11.2917 8.39844 11.3359C8.23958 11.3776 8.04036 11.3984 7.80078 11.3984H7.40234V12.2461H7.80859C8.0638 12.2461 8.27865 12.2643 8.45312 12.3008C8.6276 12.3372 8.76823 12.3893 8.875 12.457C8.98438 12.5221 9.0625 12.6029 9.10938 12.6992C9.15885 12.793 9.18359 12.8984 9.18359 13.0156C9.18359 13.1406 9.16406 13.2565 9.125 13.3633C9.08854 13.4674 9.02604 13.5573 8.9375 13.6328C8.84896 13.7083 8.73047 13.7669 8.58203 13.8086C8.43359 13.8503 8.2474 13.8711 8.02344 13.8711C7.91146 13.8711 7.79167 13.8633 7.66406 13.8477C7.53906 13.832 7.41146 13.8086 7.28125 13.7773C7.15104 13.7435 7.02083 13.7031 6.89062 13.6562C6.76042 13.6094 6.63672 13.5547 6.51953 13.4922V14.5195C6.75391 14.6237 7.00651 14.7005 7.27734 14.75C7.54818 14.8021 7.83724 14.8281 8.14453 14.8281C8.52734 14.8281 8.85938 14.7852 9.14062 14.6992C9.42448 14.6107 9.65885 14.4883 9.84375 14.332C10.0312 14.1758 10.1693 13.9922 10.2578 13.7812C10.349 13.5677 10.3945 13.3359 10.3945 13.0859C10.3945 12.7083 10.276 12.4089 10.0391 12.1875C9.80208 11.9635 9.45312 11.8229 8.99219 11.7656V11.7422C9.16667 11.7005 9.32812 11.6406 9.47656 11.5625C9.6276 11.4818 9.75781 11.3828 9.86719 11.2656C9.97917 11.1458 10.0664 11.0078 10.1289 10.8516ZM11.3633 13.8828C11.3294 13.9661 11.3125 14.069 11.3125 14.1914C11.3125 14.3086 11.3294 14.4089 11.3633 14.4922C11.3997 14.5755 11.4492 14.6445 11.5117 14.6992C11.5742 14.7539 11.6471 14.793 11.7305 14.8164C11.8138 14.8424 11.9036 14.8555 12 14.8555C12.0911 14.8555 12.1771 14.8424 12.2578 14.8164C12.3411 14.793 12.4141 14.7539 12.4766 14.6992C12.5391 14.6445 12.5885 14.5755 12.625 14.4922C12.6615 14.4089 12.6797 14.3086 12.6797 14.1914C12.6797 14.069 12.6615 13.9661 12.625 13.8828C12.5885 13.7969 12.5391 13.7279 12.4766 13.6758C12.4141 13.6237 12.3411 13.5859 12.2578 13.5625C12.1771 13.5391 12.0911 13.5273 12 13.5273C11.9036 13.5273 11.8138 13.5391 11.7305 13.5625C11.6471 13.5859 11.5742 13.6237 11.5117 13.6758C11.4492 13.7279 11.3997 13.7969 11.3633 13.8828ZM11.3633 10.6562C11.3294 10.7396 11.3125 10.8424 11.3125 10.9648C11.3125 11.082 11.3294 11.1836 11.3633 11.2695C11.3997 11.3529 11.4492 11.4219 11.5117 11.4766C11.5742 11.5286 11.6471 11.5677 11.7305 11.5938C11.8138 11.6172 11.9036 11.6289 12 11.6289C12.0911 11.6289 12.1771 11.6172 12.2578 11.5938C12.3411 11.5677 12.4141 11.5286 12.4766 11.4766C12.5391 11.4219 12.5885 11.3529 12.625 11.2695C12.6615 11.1836 12.6797 11.082 12.6797 10.9648C12.6797 10.8424 12.6615 10.7396 12.625 10.6562C12.5885 10.5703 12.5391 10.5013 12.4766 10.4492C12.4141 10.3971 12.3411 10.3594 12.2578 10.3359C12.1771 10.3125 12.0911 10.3008 12 10.3008C11.9036 10.3008 11.8138 10.3125 11.7305 10.3359C11.6471 10.3594 11.5742 10.3971 11.5117 10.4492C11.4492 10.5013 11.3997 10.5703 11.3633 10.6562ZM13.6172 14.75H17.4492V13.7344H15.1211V13.6797L15.8086 12.9883C16.0117 12.7878 16.2018 12.5911 16.3789 12.3984C16.5586 12.2031 16.7161 12.0078 16.8516 11.8125C16.987 11.6146 17.0938 11.4141 17.1719 11.2109C17.25 11.0052 17.2891 10.7904 17.2891 10.5664C17.2891 10.319 17.2474 10.0964 17.1641 9.89844C17.0833 9.70052 16.9661 9.53255 16.8125 9.39453C16.6589 9.25391 16.4727 9.14583 16.2539 9.07031C16.0378 8.99479 15.793 8.95703 15.5195 8.95703C15.2904 8.95703 15.0833 8.98047 14.8984 9.02734C14.7135 9.07161 14.5443 9.13151 14.3906 9.20703C14.237 9.28255 14.0964 9.36979 13.9688 9.46875C13.8411 9.5651 13.7188 9.66667 13.6016 9.77344L14.2578 10.5508C14.4661 10.3633 14.6654 10.2188 14.8555 10.1172C15.0456 10.0156 15.2435 9.96484 15.4492 9.96484C15.6445 9.96484 15.7995 10.0182 15.9141 10.125C16.0312 10.2318 16.0898 10.3815 16.0898 10.5742C16.0898 10.7487 16.0625 10.9115 16.0078 11.0625C15.9531 11.2135 15.8763 11.362 15.7773 11.5078C15.6784 11.6536 15.5599 11.8034 15.4219 11.957C15.2839 12.1107 15.1302 12.2786 14.9609 12.4609L13.6172 13.9102V14.75Z" fill="currentColor"/>
</svg>
