<svg width="15" height="14" viewBox="0 0 15 14" fill="none" xmlns="http://www.w3.org/2000/svg">
  <path
    d="M9.64645 4.14645C9.45118 4.34171 9.45118 4.65829 9.64645 4.85355C9.84171 5.04882 10.1583 5.04882 10.3536 4.85355L9.64645 4.14645ZM12 2.5L12.3535 2.14645C12.1583 1.95118 11.8417 1.95118 11.6464 2.14645L12 2.5ZM13.6464 4.85355C13.8417 5.04882 14.1583 5.04882 14.3536 4.85355C14.5488 4.65829 14.5488 4.34171 14.3536 4.14645L13.6464 4.85355ZM10.3536 4.85355L12.3535 2.85355L11.6464 2.14645L9.64645 4.14645L10.3536 4.85355ZM11.6464 2.85355L13.6464 4.85355L14.3536 4.14645L12.3535 2.14645L11.6464 2.85355Z"
    fill="currentColor" />
  <path
    d="M6.40437 9.6717H2.58208L1.78238 12H0L3.72741 2H5.26581L9 12H7.21084L6.40437 9.6717ZM3.06325 8.2706H5.92319L4.49322 4.12225L3.06325 8.2706Z"
    fill="currentColor" />
</svg>
