<svg width="24" height="24" viewBox="0 0 24 24" fill="none" xmlns="http://www.w3.org/2000/svg">
<path fill-rule="evenodd" clip-rule="evenodd" d="M10.5 5.5C10.0858 5.5 9.75 5.83579 9.75 6.25V7H14.25V6.25C14.25 5.83579 13.9142 5.5 13.5 5.5H10.5ZM15.75 7V6.25C15.75 5.00736 14.7426 4 13.5 4H10.5C9.25736 4 8.25 5.00736 8.25 6.25V7H6.75H4.75H4V8.5H4.75H6V17.75C6 18.9926 7.00736 20 8.25 20H15.75C16.9926 20 18 18.9926 18 17.75V8.5H19.25H20V7H19.25H17.25H15.75ZM15.75 8.5H14.25H9.75H8.25H7.5V17.75C7.5 18.1642 7.83579 18.5 8.25 18.5H15.75C16.1642 18.5 16.5 18.1642 16.5 17.75V8.5H15.75Z" fill="currentColor"/>
</svg>
