<svg width="24" height="24" viewBox="0 0 24 24" fill="none" xmlns="http://www.w3.org/2000/svg">
<path fill-rule="evenodd" clip-rule="evenodd" d="M13.2122 19.2378C15.7576 18.3893 20 15.7423 20 11.3188C20 6.89526 16.606 3.96539 13.2122 3.96539C9.81839 3.96539 6.81603 6.10617 6.42452 9.62184C6.20144 11.6251 6.69171 12.8146 7.15483 13.9383C7.50447 14.7866 7.83863 15.5974 7.83863 16.6924C7.83863 19.2378 4.44476 18.955 4.44476 18.955C5.79313 20.514 10.6669 20.0863 13.2122 19.2378ZM16.1112 11.3188C16.8922 11.3188 17.5253 10.6857 17.5253 9.90468C17.5253 9.12368 16.8922 8.49056 16.1112 8.49056C15.3302 8.49056 14.6971 9.12368 14.6971 9.90468C14.6971 10.6857 15.3302 11.3188 16.1112 11.3188ZM12.5759 11.3188C13.1616 11.3188 13.6365 10.844 13.6365 10.2582C13.6365 9.67246 13.1616 9.19762 12.5759 9.19762C11.9902 9.19762 11.5153 9.67246 11.5153 10.2582C11.5153 10.844 11.9902 11.3188 12.5759 11.3188Z" fill="currentColor"/>
</svg>
