<svg width="24" height="24" viewBox="0 0 24 24" fill="none" xmlns="http://www.w3.org/2000/svg">
  <path
    d="M18.375 9.19316L18.925 9.19316L18.375 9.19316ZM6 9.19316L6.55 9.19316L6 9.19316ZM7.4637 19.3897C7.19327 19.2514 6.8619 19.3585 6.72357 19.6289C6.58525 19.8994 6.69234 20.2307 6.96277 20.3691L7.4637 19.3897ZM17.4122 20.3691C17.6827 20.2307 17.7898 19.8994 17.6514 19.6289C17.5131 19.3585 17.1817 19.2514 16.9113 19.3897L17.4122 20.3691ZM12.1875 3.55C15.3005 3.55 17.825 6.07605 17.825 9.19316L18.925 9.19316C18.925 5.46949 15.909 2.45 12.1875 2.45L12.1875 3.55ZM17.825 9.19316C17.825 12.3103 15.3005 14.8363 12.1875 14.8363L12.1875 15.9363C15.909 15.9363 18.925 12.9168 18.925 9.19316L17.825 9.19316ZM12.1875 14.8363C9.07447 14.8363 6.55 12.3103 6.55 9.19316L5.45 9.19316C5.45 12.9168 8.46601 15.9363 12.1875 15.9363L12.1875 14.8363ZM6.55 9.19316C6.55 6.07606 9.07447 3.55 12.1875 3.55L12.1875 2.45C8.46601 2.45 5.45 5.46949 5.45 9.19316L6.55 9.19316ZM6.96277 20.3691C10.2855 22.0686 14.0895 22.0686 17.4122 20.3691L16.9113 19.3897C13.9031 20.9284 10.4719 20.9284 7.4637 19.3897L6.96277 20.3691Z"
    fill="currentColor" />
</svg>
