<svg width="24" height="24" viewBox="0 0 24 24" fill="none" xmlns="http://www.w3.org/2000/svg">
  <path
    d="M2 5.45833C2 4.65333 2.65333 4 3.45833 4H20.5417C21.3467 4 22 4.65333 22 5.45833V19.2083C22 19.5951 21.8464 19.966 21.5729 20.2395C21.2994 20.513 20.9284 20.6667 20.5417 20.6667H3.45833C3.07156 20.6667 2.70063 20.513 2.42714 20.2395C2.15365 19.966 2 19.5951 2 19.2083V5.45833ZM3.45833 5.25C3.40308 5.25 3.35009 5.27195 3.31102 5.31102C3.27195 5.35009 3.25 5.40308 3.25 5.45833V6.91667H6.58333V5.25H3.45833ZM7.83333 5.25V6.91667H11.1667V5.25H7.83333ZM12.4167 5.25V6.91667H20.75V5.45833C20.75 5.40308 20.7281 5.35009 20.689 5.31102C20.6499 5.27195 20.5969 5.25 20.5417 5.25H12.4167ZM20.75 8.16667H3.25V19.2083C3.25 19.3233 3.34333 19.4167 3.45833 19.4167H20.5417C20.5969 19.4167 20.6499 19.3947 20.689 19.3556C20.7281 19.3166 20.75 19.2636 20.75 19.2083V8.16667Z"
    fill="currentColor" />
</svg>
