<svg width="24" height="24" viewBox="0 0 24 24" fill="none" xmlns="http://www.w3.org/2000/svg">
<path d="M10.0312 15.0312H5.26562L4.19531 18H2.64844L6.99219 6.625H8.30469L12.6562 18H11.1172L10.0312 15.0312ZM5.71875 13.7969H9.58594L7.64844 8.47656L5.71875 13.7969ZM19.1797 18C19.0964 17.8333 19.0286 17.5365 18.9766 17.1094C18.3047 17.8073 17.5026 18.1562 16.5703 18.1562C15.737 18.1562 15.0521 17.9219 14.5156 17.4531C13.9844 16.9792 13.7188 16.3802 13.7188 15.6562C13.7188 14.776 14.0521 14.0938 14.7188 13.6094C15.3906 13.1198 16.3333 12.875 17.5469 12.875H18.9531V12.2109C18.9531 11.7057 18.8021 11.3047 18.5 11.0078C18.1979 10.7057 17.7526 10.5547 17.1641 10.5547C16.6484 10.5547 16.2161 10.6849 15.8672 10.9453C15.5182 11.2057 15.3438 11.5208 15.3438 11.8906H13.8906C13.8906 11.4688 14.0391 11.0625 14.3359 10.6719C14.638 10.276 15.0443 9.96354 15.5547 9.73438C16.0703 9.50521 16.6354 9.39062 17.25 9.39062C18.224 9.39062 18.987 9.63542 19.5391 10.125C20.0911 10.6094 20.3776 11.2786 20.3984 12.1328V16.0234C20.3984 16.7995 20.4974 17.4167 20.6953 17.875V18H19.1797ZM16.7812 16.8984C17.2344 16.8984 17.6641 16.7812 18.0703 16.5469C18.4766 16.3125 18.7708 16.0078 18.9531 15.6328V13.8984H17.8203C16.0495 13.8984 15.1641 14.4167 15.1641 15.4531C15.1641 15.9062 15.3151 16.2604 15.6172 16.5156C15.9193 16.7708 16.3073 16.8984 16.7812 16.8984Z" fill="currentColor"/>
</svg>
