<svg width="24" height="24" viewBox="0 0 24 24" fill="none" xmlns="http://www.w3.org/2000/svg">
<path fill-rule="evenodd" clip-rule="evenodd" d="M12 3.75C7.56396 3.75 4.00788 7.11286 3.74869 11.5438C3.65376 13.1667 4.00485 15.1291 5.05639 16.7855C6.09326 18.4189 7.83446 19.7954 10.6233 20.2602C11.613 20.4251 12.1853 20.3919 12.5395 20.2461C12.8313 20.1259 13.0815 19.8836 13.2885 19.2628C13.3518 19.0729 13.3454 18.8899 13.2776 18.6469C13.2418 18.5189 13.1915 18.3831 13.1273 18.2215C13.1121 18.1833 13.0956 18.1424 13.0784 18.0997L13.0782 18.0992C13.0276 17.9738 12.9705 17.8322 12.9201 17.6938C12.7801 17.3088 12.6463 16.8315 12.6898 16.2773C12.734 15.713 12.9553 15.1428 13.4 14.55C13.9737 13.785 14.8793 13.5707 15.6543 13.4957C16.0557 13.4568 16.4751 13.4512 16.8721 13.4502C16.9557 13.45 17.038 13.45 17.1193 13.45C17.4356 13.45 17.7365 13.4499 18.0325 13.4381C18.7979 13.4075 19.3361 13.2988 19.6829 13.0526C19.9669 12.8509 20.25 12.4616 20.25 11.5C20.25 7.4504 16.4574 3.75 12 3.75ZM2.25125 11.4562C2.55668 6.23472 6.76706 2.25 12 2.25C17.2116 2.25 21.75 6.5496 21.75 11.5C21.75 12.7884 21.3455 13.7116 20.5514 14.2756C19.8201 14.7949 18.8895 14.905 18.0924 14.9369C17.7634 14.9501 17.4242 14.95 17.1049 14.95H17.1048C17.0272 14.95 16.9507 14.95 16.8758 14.9502C16.4819 14.9512 16.124 14.9572 15.7988 14.9887C15.1206 15.0543 14.7762 15.215 14.6 15.45C14.2946 15.8572 14.2034 16.162 14.1852 16.3946C14.1661 16.6373 14.2198 16.8787 14.3298 17.1812C14.3706 17.2933 14.413 17.3985 14.4603 17.5157C14.4797 17.5638 14.4999 17.6138 14.5211 17.6672C14.5897 17.8396 14.6644 18.0358 14.7224 18.2437C14.8421 18.6726 14.8982 19.1771 14.7115 19.7372C14.4184 20.6164 13.9354 21.2935 13.1106 21.6331C12.3482 21.947 11.4205 21.9138 10.3767 21.7398C7.16549 21.2046 5.05433 19.5811 3.79001 17.5895C2.54036 15.6209 2.14145 13.3333 2.25125 11.4562ZM7.04996 13.3C7.74031 13.3 8.29996 12.7404 8.29996 12.05C8.29996 11.3596 7.74031 10.8 7.04996 10.8C6.3596 10.8 5.79996 11.3596 5.79996 12.05C5.79996 12.7404 6.3596 13.3 7.04996 13.3ZM9.49997 8.25C9.49997 8.94036 8.94033 9.5 8.24997 9.5C7.55961 9.5 6.99997 8.94036 6.99997 8.25C6.99997 7.55964 7.55961 7 8.24997 7C8.94033 7 9.49997 7.55964 9.49997 8.25ZM12.05 8.29999C12.7403 8.29999 13.3 7.74035 13.3 7.04999C13.3 6.35963 12.7403 5.79999 12.05 5.79999C11.3596 5.79999 10.8 6.35963 10.8 7.04999C10.8 7.74035 11.3596 8.29999 12.05 8.29999ZM17 8.25C17 8.94036 16.4404 9.5 15.75 9.5C15.0596 9.5 14.5 8.94036 14.5 8.25C14.5 7.55964 15.0596 7 15.75 7C16.4404 7 17 7.55964 17 8.25Z" fill="currentColor"/>
</svg>
