<svg width="24" height="24" viewBox="0 0 24 24" fill="none" xmlns="http://www.w3.org/2000/svg">
<path d="M3 11.5C3.28231 6.67379 7.16554 3 12 3C16.8345 3 21 7 21 11.5C21 16 15.5 13 14 15C12.5 17 14.5 18 14 19.5C13.5 21 12.5335 21.3389 10.5 21C4.5 20 2.79527 15 3 11.5Z" stroke="currentColor" stroke-width="1.5" fill="transparent"/>
<path d="M7.04999 13.3C7.74034 13.3 8.29999 12.7403 8.29999 12.05C8.29999 11.3596 7.74034 10.8 7.04999 10.8C6.35963 10.8 5.79999 11.3596 5.79999 12.05C5.79999 12.7403 6.35963 13.3 7.04999 13.3Z" fill="currentColor"/>
<path d="M8.25 9.5C8.94036 9.5 9.5 8.94036 9.5 8.25C9.5 7.55964 8.94036 7 8.25 7C7.55964 7 7 7.55964 7 8.25C7 8.94036 7.55964 9.5 8.25 9.5Z" fill="currentColor"/>
<path d="M12.05 8.29999C12.7403 8.29999 13.3 7.74034 13.3 7.04999C13.3 6.35963 12.7403 5.79999 12.05 5.79999C11.3596 5.79999 10.8 6.35963 10.8 7.04999C10.8 7.74034 11.3596 8.29999 12.05 8.29999Z" fill="currentColor"/>
<path d="M15.75 9.5C16.4404 9.5 17 8.94036 17 8.25C17 7.55964 16.4404 7 15.75 7C15.0596 7 14.5 7.55964 14.5 8.25C14.5 8.94036 15.0596 9.5 15.75 9.5Z" fill="currentColor"/>
</svg>
