<svg width="24" height="24" viewBox="0 0 24 24" fill="none" xmlns="http://www.w3.org/2000/svg">
  <path fill-rule="evenodd" clip-rule="evenodd"
    d="M9.48278 6.18278C9.59983 6.29997 9.66557 6.45882 9.66557 6.62445C9.66557 6.79008 9.59983 6.94893 9.48278 7.06612L4.50778 12.0411L9.48278 17.0161C9.54419 17.0733 9.59344 17.1423 9.6276 17.219C9.66176 17.2957 9.68013 17.3784 9.68161 17.4623C9.68309 17.5463 9.66765 17.6296 9.63622 17.7074C9.60478 17.7853 9.558 17.856 9.49865 17.9153C9.4393 17.9747 9.3686 18.0215 9.29078 18.0529C9.21296 18.0843 9.1296 18.0998 9.04568 18.0983C8.96176 18.0968 8.879 18.0784 8.80233 18.0443C8.72567 18.0101 8.65667 17.9609 8.59945 17.8995L3.18278 12.4828C3.06574 12.3656 3 12.2067 3 12.0411C3 11.8755 3.06574 11.7166 3.18278 11.5995L8.59945 6.18278C8.71664 6.06574 8.87549 6 9.04112 6C9.20674 6 9.3656 6.06574 9.48278 6.18278V6.18278ZM14.8494 6.18278C14.7324 6.29997 14.6667 6.45882 14.6667 6.62445C14.6667 6.79008 14.7324 6.94893 14.8494 7.06612L19.8245 12.0411L14.8494 17.0161C14.788 17.0733 14.7388 17.1423 14.7046 17.219C14.6705 17.2957 14.6521 17.3784 14.6506 17.4623C14.6491 17.5463 14.6646 17.6296 14.696 17.7074C14.7274 17.7853 14.7742 17.856 14.8336 17.9153C14.8929 17.9747 14.9636 18.0215 15.0415 18.0529C15.1193 18.0843 15.2026 18.0998 15.2866 18.0983C15.3705 18.0968 15.4532 18.0784 15.5299 18.0443C15.6066 18.0101 15.6756 17.9609 15.7328 17.8995L21.1495 12.4828C21.2665 12.3656 21.3322 12.2067 21.3322 12.0411C21.3322 11.8755 21.2665 11.7166 21.1495 11.5995L15.7328 6.18278C15.6156 6.06574 15.4567 6 15.2911 6C15.1255 6 14.9666 6.06574 14.8494 6.18278V6.18278Z"
    fill="currentColor" />
</svg>
