<svg width="24" height="24" viewBox="0 0 24 24" fill="none" xmlns="http://www.w3.org/2000/svg">
<path d="M18.375 9.19316L19.375 9.19316L18.375 9.19316ZM6 9.19316L7 9.19316L6 9.19316ZM7.66862 18.9891C7.17693 18.7376 6.57444 18.9323 6.32294 19.424C6.07144 19.9157 6.26615 20.5182 6.75785 20.7697L7.66862 18.9891ZM17.6172 20.7697C18.1088 20.5182 18.3036 19.9157 18.0521 19.424C17.8006 18.9323 17.1981 18.7376 16.7064 18.9891L17.6172 20.7697ZM12.1875 4C15.0516 4 17.375 6.32419 17.375 9.19316L19.375 9.19316C19.375 5.22135 16.1579 2 12.1875 2L12.1875 4ZM17.375 9.19316C17.375 12.0621 15.0516 14.3863 12.1875 14.3863L12.1875 16.3863C16.1579 16.3863 19.375 13.165 19.375 9.19316L17.375 9.19316ZM12.1875 14.3863C9.32339 14.3863 7 12.0621 7 9.19316L5 9.19316C5 13.165 8.21709 16.3863 12.1875 16.3863L12.1875 14.3863ZM7 9.19316C7 6.3242 9.32338 4 12.1875 4L12.1875 2C8.21709 2 5 5.22135 5 9.19316L7 9.19316ZM6.75785 20.7697C10.2093 22.5351 14.1657 22.5351 17.6172 20.7697L16.7064 18.9891C13.8269 20.462 10.5481 20.462 7.66862 18.9891L6.75785 20.7697Z" fill="currentColor"/>
</svg>
