<svg width="24" height="24" viewBox="0 0 24 24" fill="none" xmlns="http://www.w3.org/2000/svg">
<path d="M6.94737 12.8421C6.48421 12.8421 6.10526 13.2211 6.10526 13.6842C6.10526 14.1474 6.48421 14.5263 6.94737 14.5263C7.41053 14.5263 7.78947 14.1474 7.78947 13.6842C7.78947 13.2211 7.41053 12.8421 6.94737 12.8421ZM6.94737 16.2105C6.48421 16.2105 6.10526 16.5895 6.10526 17.0526C6.10526 17.5158 6.48421 17.8947 6.94737 17.8947C7.41053 17.8947 7.78947 17.5158 7.78947 17.0526C7.78947 16.5895 7.41053 16.2105 6.94737 16.2105ZM6.94737 9.47368C6.48421 9.47368 6.10526 9.85263 6.10526 10.3158C6.10526 10.7789 6.48421 11.1579 6.94737 11.1579C7.41053 11.1579 7.78947 10.7789 7.78947 10.3158C7.78947 9.85263 7.41053 9.47368 6.94737 9.47368ZM4.42105 9.89474C4.18526 9.89474 4 10.08 4 10.3158C4 10.5516 4.18526 10.7368 4.42105 10.7368C4.65684 10.7368 4.84211 10.5516 4.84211 10.3158C4.84211 10.08 4.65684 9.89474 4.42105 9.89474ZM6.94737 6.10526C6.48421 6.10526 6.10526 6.48421 6.10526 6.94737C6.10526 7.41053 6.48421 7.78947 6.94737 7.78947C7.41053 7.78947 7.78947 7.41053 7.78947 6.94737C7.78947 6.48421 7.41053 6.10526 6.94737 6.10526ZM19.5789 10.7368C19.8147 10.7368 20 10.5516 20 10.3158C20 10.08 19.8147 9.89474 19.5789 9.89474C19.3432 9.89474 19.1579 10.08 19.1579 10.3158C19.1579 10.5516 19.3432 10.7368 19.5789 10.7368ZM13.6842 7.78947C14.1474 7.78947 14.5263 7.41053 14.5263 6.94737C14.5263 6.48421 14.1474 6.10526 13.6842 6.10526C13.2211 6.10526 12.8421 6.48421 12.8421 6.94737C12.8421 7.41053 13.2211 7.78947 13.6842 7.78947ZM13.6842 4.84211C13.92 4.84211 14.1053 4.65684 14.1053 4.42105C14.1053 4.18526 13.92 4 13.6842 4C13.4484 4 13.2632 4.18526 13.2632 4.42105C13.2632 4.65684 13.4484 4.84211 13.6842 4.84211ZM4.42105 13.2632C4.18526 13.2632 4 13.4484 4 13.6842C4 13.92 4.18526 14.1053 4.42105 14.1053C4.65684 14.1053 4.84211 13.92 4.84211 13.6842C4.84211 13.4484 4.65684 13.2632 4.42105 13.2632ZM10.3158 19.1579C10.08 19.1579 9.89474 19.3432 9.89474 19.5789C9.89474 19.8147 10.08 20 10.3158 20C10.5516 20 10.7368 19.8147 10.7368 19.5789C10.7368 19.3432 10.5516 19.1579 10.3158 19.1579ZM10.3158 4.84211C10.5516 4.84211 10.7368 4.65684 10.7368 4.42105C10.7368 4.18526 10.5516 4 10.3158 4C10.08 4 9.89474 4.18526 9.89474 4.42105C9.89474 4.65684 10.08 4.84211 10.3158 4.84211ZM10.3158 7.78947C10.7789 7.78947 11.1579 7.41053 11.1579 6.94737C11.1579 6.48421 10.7789 6.10526 10.3158 6.10526C9.85263 6.10526 9.47368 6.48421 9.47368 6.94737C9.47368 7.41053 9.85263 7.78947 10.3158 7.78947ZM10.3158 12.4211C9.61684 12.4211 9.05263 12.9853 9.05263 13.6842C9.05263 14.3832 9.61684 14.9474 10.3158 14.9474C11.0147 14.9474 11.5789 14.3832 11.5789 13.6842C11.5789 12.9853 11.0147 12.4211 10.3158 12.4211ZM17.0526 12.8421C16.5895 12.8421 16.2105 13.2211 16.2105 13.6842C16.2105 14.1474 16.5895 14.5263 17.0526 14.5263C17.5158 14.5263 17.8947 14.1474 17.8947 13.6842C17.8947 13.2211 17.5158 12.8421 17.0526 12.8421ZM17.0526 16.2105C16.5895 16.2105 16.2105 16.5895 16.2105 17.0526C16.2105 17.5158 16.5895 17.8947 17.0526 17.8947C17.5158 17.8947 17.8947 17.5158 17.8947 17.0526C17.8947 16.5895 17.5158 16.2105 17.0526 16.2105ZM17.0526 9.47368C16.5895 9.47368 16.2105 9.85263 16.2105 10.3158C16.2105 10.7789 16.5895 11.1579 17.0526 11.1579C17.5158 11.1579 17.8947 10.7789 17.8947 10.3158C17.8947 9.85263 17.5158 9.47368 17.0526 9.47368ZM17.0526 6.10526C16.5895 6.10526 16.2105 6.48421 16.2105 6.94737C16.2105 7.41053 16.5895 7.78947 17.0526 7.78947C17.5158 7.78947 17.8947 7.41053 17.8947 6.94737C17.8947 6.48421 17.5158 6.10526 17.0526 6.10526ZM19.5789 13.2632C19.3432 13.2632 19.1579 13.4484 19.1579 13.6842C19.1579 13.92 19.3432 14.1053 19.5789 14.1053C19.8147 14.1053 20 13.92 20 13.6842C20 13.4484 19.8147 13.2632 19.5789 13.2632ZM13.6842 16.2105C13.2211 16.2105 12.8421 16.5895 12.8421 17.0526C12.8421 17.5158 13.2211 17.8947 13.6842 17.8947C14.1474 17.8947 14.5263 17.5158 14.5263 17.0526C14.5263 16.5895 14.1474 16.2105 13.6842 16.2105ZM13.6842 19.1579C13.4484 19.1579 13.2632 19.3432 13.2632 19.5789C13.2632 19.8147 13.4484 20 13.6842 20C13.92 20 14.1053 19.8147 14.1053 19.5789C14.1053 19.3432 13.92 19.1579 13.6842 19.1579ZM10.3158 9.05263C9.61684 9.05263 9.05263 9.61684 9.05263 10.3158C9.05263 11.0147 9.61684 11.5789 10.3158 11.5789C11.0147 11.5789 11.5789 11.0147 11.5789 10.3158C11.5789 9.61684 11.0147 9.05263 10.3158 9.05263ZM10.3158 16.2105C9.85263 16.2105 9.47368 16.5895 9.47368 17.0526C9.47368 17.5158 9.85263 17.8947 10.3158 17.8947C10.7789 17.8947 11.1579 17.5158 11.1579 17.0526C11.1579 16.5895 10.7789 16.2105 10.3158 16.2105ZM13.6842 12.4211C12.9853 12.4211 12.4211 12.9853 12.4211 13.6842C12.4211 14.3832 12.9853 14.9474 13.6842 14.9474C14.3832 14.9474 14.9474 14.3832 14.9474 13.6842C14.9474 12.9853 14.3832 12.4211 13.6842 12.4211ZM13.6842 9.05263C12.9853 9.05263 12.4211 9.61684 12.4211 10.3158C12.4211 11.0147 12.9853 11.5789 13.6842 11.5789C14.3832 11.5789 14.9474 11.0147 14.9474 10.3158C14.9474 9.61684 14.3832 9.05263 13.6842 9.05263Z" fill="currentColor"/>
</svg>
