<svg width="24" height="24" viewBox="0 0 24 24" fill="none" xmlns="http://www.w3.org/2000/svg">
  <path
    d="M6.91667 12.75C6.45833 12.75 6.08333 13.125 6.08333 13.5833C6.08333 14.0417 6.45833 14.4167 6.91667 14.4167C7.375 14.4167 7.75 14.0417 7.75 13.5833C7.75 13.125 7.375 12.75 6.91667 12.75ZM6.91667 16.0833C6.45833 16.0833 6.08333 16.4583 6.08333 16.9167C6.08333 17.375 6.45833 17.75 6.91667 17.75C7.375 17.75 7.75 17.375 7.75 16.9167C7.75 16.4583 7.375 16.0833 6.91667 16.0833ZM6.91667 9.41667C6.45833 9.41667 6.08333 9.79167 6.08333 10.25C6.08333 10.7083 6.45833 11.0833 6.91667 11.0833C7.375 11.0833 7.75 10.7083 7.75 10.25C7.75 9.79167 7.375 9.41667 6.91667 9.41667ZM4.41667 9.83333C4.18333 9.83333 4 10.0167 4 10.25C4 10.4833 4.18333 10.6667 4.41667 10.6667C4.65 10.6667 4.83333 10.4833 4.83333 10.25C4.83333 10.0167 4.65 9.83333 4.41667 9.83333ZM6.91667 6.08333C6.45833 6.08333 6.08333 6.45833 6.08333 6.91667C6.08333 7.375 6.45833 7.75 6.91667 7.75C7.375 7.75 7.75 7.375 7.75 6.91667C7.75 6.45833 7.375 6.08333 6.91667 6.08333ZM19.4167 10.6667C19.65 10.6667 19.8333 10.4833 19.8333 10.25C19.8333 10.0167 19.65 9.83333 19.4167 9.83333C19.1833 9.83333 19 10.0167 19 10.25C19 10.4833 19.1833 10.6667 19.4167 10.6667ZM13.5833 7.75C14.0417 7.75 14.4167 7.375 14.4167 6.91667C14.4167 6.45833 14.0417 6.08333 13.5833 6.08333C13.125 6.08333 12.75 6.45833 12.75 6.91667C12.75 7.375 13.125 7.75 13.5833 7.75ZM13.5833 4.83333C13.8167 4.83333 14 4.65 14 4.41667C14 4.18333 13.8167 4 13.5833 4C13.35 4 13.1667 4.18333 13.1667 4.41667C13.1667 4.65 13.35 4.83333 13.5833 4.83333ZM4.41667 13.1667C4.18333 13.1667 4 13.35 4 13.5833C4 13.8167 4.18333 14 4.41667 14C4.65 14 4.83333 13.8167 4.83333 13.5833C4.83333 13.35 4.65 13.1667 4.41667 13.1667ZM10.25 19C10.0167 19 9.83333 19.1833 9.83333 19.4167C9.83333 19.65 10.0167 19.8333 10.25 19.8333C10.4833 19.8333 10.6667 19.65 10.6667 19.4167C10.6667 19.1833 10.4833 19 10.25 19ZM10.25 4.83333C10.4833 4.83333 10.6667 4.65 10.6667 4.41667C10.6667 4.18333 10.4833 4 10.25 4C10.0167 4 9.83333 4.18333 9.83333 4.41667C9.83333 4.65 10.0167 4.83333 10.25 4.83333ZM10.25 7.75C10.7083 7.75 11.0833 7.375 11.0833 6.91667C11.0833 6.45833 10.7083 6.08333 10.25 6.08333C9.79167 6.08333 9.41667 6.45833 9.41667 6.91667C9.41667 7.375 9.79167 7.75 10.25 7.75ZM10.25 12.3333C9.55833 12.3333 9 12.8917 9 13.5833C9 14.275 9.55833 14.8333 10.25 14.8333C10.9417 14.8333 11.5 14.275 11.5 13.5833C11.5 12.8917 10.9417 12.3333 10.25 12.3333ZM16.9167 12.75C16.4583 12.75 16.0833 13.125 16.0833 13.5833C16.0833 14.0417 16.4583 14.4167 16.9167 14.4167C17.375 14.4167 17.75 14.0417 17.75 13.5833C17.75 13.125 17.375 12.75 16.9167 12.75ZM16.9167 16.0833C16.4583 16.0833 16.0833 16.4583 16.0833 16.9167C16.0833 17.375 16.4583 17.75 16.9167 17.75C17.375 17.75 17.75 17.375 17.75 16.9167C17.75 16.4583 17.375 16.0833 16.9167 16.0833ZM16.9167 9.41667C16.4583 9.41667 16.0833 9.79167 16.0833 10.25C16.0833 10.7083 16.4583 11.0833 16.9167 11.0833C17.375 11.0833 17.75 10.7083 17.75 10.25C17.75 9.79167 17.375 9.41667 16.9167 9.41667ZM16.9167 6.08333C16.4583 6.08333 16.0833 6.45833 16.0833 6.91667C16.0833 7.375 16.4583 7.75 16.9167 7.75C17.375 7.75 17.75 7.375 17.75 6.91667C17.75 6.45833 17.375 6.08333 16.9167 6.08333ZM19.4167 13.1667C19.1833 13.1667 19 13.35 19 13.5833C19 13.8167 19.1833 14 19.4167 14C19.65 14 19.8333 13.8167 19.8333 13.5833C19.8333 13.35 19.65 13.1667 19.4167 13.1667ZM13.5833 16.0833C13.125 16.0833 12.75 16.4583 12.75 16.9167C12.75 17.375 13.125 17.75 13.5833 17.75C14.0417 17.75 14.4167 17.375 14.4167 16.9167C14.4167 16.4583 14.0417 16.0833 13.5833 16.0833ZM13.5833 19C13.35 19 13.1667 19.1833 13.1667 19.4167C13.1667 19.65 13.35 19.8333 13.5833 19.8333C13.8167 19.8333 14 19.65 14 19.4167C14 19.1833 13.8167 19 13.5833 19ZM10.25 9C9.55833 9 9 9.55833 9 10.25C9 10.9417 9.55833 11.5 10.25 11.5C10.9417 11.5 11.5 10.9417 11.5 10.25C11.5 9.55833 10.9417 9 10.25 9ZM10.25 16.0833C9.79167 16.0833 9.41667 16.4583 9.41667 16.9167C9.41667 17.375 9.79167 17.75 10.25 17.75C10.7083 17.75 11.0833 17.375 11.0833 16.9167C11.0833 16.4583 10.7083 16.0833 10.25 16.0833ZM13.5833 12.3333C12.8917 12.3333 12.3333 12.8917 12.3333 13.5833C12.3333 14.275 12.8917 14.8333 13.5833 14.8333C14.275 14.8333 14.8333 14.275 14.8333 13.5833C14.8333 12.8917 14.275 12.3333 13.5833 12.3333ZM13.5833 9C12.8917 9 12.3333 9.55833 12.3333 10.25C12.3333 10.9417 12.8917 11.5 13.5833 11.5C14.275 11.5 14.8333 10.9417 14.8333 10.25C14.8333 9.55833 14.275 9 13.5833 9Z"
    fill="currentColor" />
</svg>
