<svg width="24" height="24" viewBox="0 0 24 24" fill="none" xmlns="http://www.w3.org/2000/svg">
<path fill-rule="evenodd" clip-rule="evenodd" d="M17.75 5.75L6.25 5.75C5.97386 5.75 5.75 5.97386 5.75 6.25L5.75 17.75C5.75 18.0261 5.97386 18.25 6.25 18.25L17.75 18.25C18.0261 18.25 18.25 18.0261 18.25 17.75L18.25 6.25C18.25 5.97386 18.0261 5.75 17.75 5.75ZM6.25 4.25L17.75 4.25C18.8546 4.25 19.75 5.14543 19.75 6.25L19.75 17.75C19.75 18.8546 18.8546 19.75 17.75 19.75L6.25 19.75C5.14543 19.75 4.25 18.8546 4.25 17.75L4.25 6.25C4.25 5.14543 5.14543 4.25 6.25 4.25ZM11.5 9.75C10.5335 9.75 9.75 10.5335 9.75 11.5C9.75 12.4665 10.5335 13.25 11.5 13.25C11.8762 13.25 12.2247 13.1313 12.5101 12.9293L12.9293 12.5101C13.1313 12.2247 13.25 11.8762 13.25 11.5C13.25 10.5335 12.4665 9.75 11.5 9.75ZM14.0614 13.5007C14.4928 12.9491 14.75 12.2546 14.75 11.5C14.75 9.70508 13.2949 8.25 11.5 8.25C9.70508 8.25 8.25 9.70508 8.25 11.5C8.25 13.2949 9.70508 14.75 11.5 14.75C11.9941 14.75 12.4625 14.6397 12.8818 14.4425L14.5 16.0607L15.5607 15L14.0614 13.5007Z" fill="currentColor"/>
</svg>
