<svg width="24" height="24" viewBox="0 0 24 24" fill="none" xmlns="http://www.w3.org/2000/svg">
<path d="M17.75 4.75H6.25C5.42157 4.75 4.75 5.42157 4.75 6.25V17.75C4.75 18.5784 5.42157 19.25 6.25 19.25H17.75C18.5784 19.25 19.25 18.5784 19.25 17.75V6.25C19.25 5.42157 18.5784 4.75 17.75 4.75Z" fill="transparent" stroke="currentColor" stroke-width="1.5" stroke-linecap="round" stroke-linejoin="round"/>
<path d="M8.25 11.5C8.25 13.2949 9.70507 14.75 11.5 14.75C13.2949 14.75 14.75 13.2949 14.75 11.5C14.75 9.70507 13.2949 8.25 11.5 8.25C9.70507 8.25 8.25 9.70507 8.25 11.5Z" fill="transparent" stroke="currentColor" stroke-width="1.5" stroke-linecap="round"/>
<path d="M14 14L15.75 15.75" fill="transparent" stroke="currentColor" stroke-width="1.5" stroke-linecap="square"/>
</svg>
