<svg width="24" height="24" viewBox="0 0 24 24" fill="none" xmlns="http://www.w3.org/2000/svg">
<path fill-rule="evenodd" clip-rule="evenodd" d="M6.25 4C5.00736 4 4 5.00736 4 6.25V17.25C4 18.4926 5.00736 19.5 6.25 19.5H17.25C18.4926 19.5 19.5 18.4926 19.5 17.25V6.25C19.5 5.00736 18.4926 4 17.25 4H6.25ZM5.5 6.25C5.5 5.83579 5.83579 5.5 6.25 5.5H17.25C17.6642 5.5 18 5.83579 18 6.25V17.25C18 17.6642 17.6642 18 17.25 18H6.25C5.83579 18 5.5 17.6642 5.5 17.25V6.25ZM11.5198 9.77908L12.0489 9.2475L10.9857 8.18934L10.4566 8.72092L7.96842 11.2209L7.44184 11.75L7.96842 12.2791L10.4567 14.7791L10.9857 15.3107L12.0489 14.2525L11.5198 13.7209L10.3046 12.5L15.25 12.5H16V11H15.25L10.3046 11L11.5198 9.77908Z" fill="currentColor"/>
</svg>
