<svg width="24" height="24" viewBox="0 0 24 24" fill="none" xmlns="http://www.w3.org/2000/svg">
<path fill-rule="evenodd" clip-rule="evenodd" d="M17.75 5.75L6.25 5.75C5.97386 5.75 5.75 5.97386 5.75 6.25L5.75 17.75C5.75 18.0261 5.97386 18.25 6.25 18.25L17.75 18.25C18.0261 18.25 18.25 18.0261 18.25 17.75L18.25 6.25C18.25 5.97386 18.0261 5.75 17.75 5.75ZM6.25 4.25L17.75 4.25C18.8546 4.25 19.75 5.14543 19.75 6.25L19.75 17.75C19.75 18.8546 18.8546 19.75 17.75 19.75L6.25 19.75C5.14543 19.75 4.25 18.8546 4.25 17.75L4.25 6.25C4.25 5.14543 5.14543 4.25 6.25 4.25ZM12.5 8.43934L15.5303 11.4697C15.671 11.6103 15.75 11.8011 15.75 12C15.75 12.1989 15.671 12.3897 15.5303 12.5303L12.5 15.5607L11.4393 14.5L13.1893 12.75L8.25 12.75V11.25L13.1893 11.25L11.4393 9.5L12.5 8.43934Z" fill="currentColor"/>
</svg>
