<svg width="24" height="24" viewBox="0 0 24 24" fill="none" xmlns="http://www.w3.org/2000/svg">
<path fill-rule="evenodd" clip-rule="evenodd" d="M17.75 5.75L6.25 5.75C5.97386 5.75 5.75 5.97386 5.75 6.25L5.75 17.75C5.75 18.0261 5.97386 18.25 6.25 18.25L17.75 18.25C18.0261 18.25 18.25 18.0261 18.25 17.75L18.25 6.25C18.25 5.97386 18.0261 5.75 17.75 5.75ZM6.25 4.25L17.75 4.25C18.8546 4.25 19.75 5.14543 19.75 6.25L19.75 17.75C19.75 18.8546 18.8546 19.75 17.75 19.75L6.25 19.75C5.14543 19.75 4.25 18.8546 4.25 17.75L4.25 6.25C4.25 5.14543 5.14543 4.25 6.25 4.25ZM12.5607 9.5L10.8107 11.25L15.75 11.25V12.75L10.8107 12.75L12.5607 14.5L11.5 15.5607L8.46967 12.5303C8.32902 12.3897 8.25 12.1989 8.25 12C8.25 11.8011 8.32902 11.6103 8.46967 11.4697L11.5 8.43934L12.5607 9.5Z" fill="currentColor"/>
</svg>
