<svg width="18" height="18" viewBox="0 0 18 18" fill="none" xmlns="http://www.w3.org/2000/svg">
<path fill-rule="evenodd" clip-rule="evenodd" d="M2.25 5.5C2.25 4.5335 3.0335 3.75 4 3.75H14C14.9665 3.75 15.75 4.5335 15.75 5.5V11.75C15.75 12.7165 14.9665 13.5 14 13.5H9.75L9.75 14.25H12V15.75H6V14.25H8.25L8.25 13.5H4C3.0335 13.5 2.25 12.7165 2.25 11.75V5.5ZM9.75 12L8.25 12L4 12C3.86193 12 3.75 11.8881 3.75 11.75V5.5C3.75 5.36193 3.86193 5.25 4 5.25H14C14.1381 5.25 14.25 5.36193 14.25 5.5V11.75C14.25 11.8881 14.1381 12 14 12H9.75Z" fill="currentColor"/>
</svg>
