<svg width="24" height="24" viewBox="0 0 24 24" fill="none" xmlns="http://www.w3.org/2000/svg">
<path d="M18.95 4H4.55C3.55589 4 2.75 4.76751 2.75 5.71429V14.2857C2.75 15.2325 3.55589 16 4.55 16H18.95C19.9441 16 20.75 15.2325 20.75 14.2857V5.71429C20.75 4.76751 19.9441 4 18.95 4Z" stroke="currentColor" stroke-width="2" stroke-linecap="round" stroke-linejoin="round" fill="transparent"/>
<path fill-rule="evenodd" clip-rule="evenodd" d="M1.75 18C1.19772 18 0.75 18.4477 0.75 19C0.75 19.5523 1.19772 20 1.75 20H21.75C22.3023 20 22.75 19.5523 22.75 19C22.75 18.4477 22.3023 18 21.75 18H1.75ZM9 18.8C8.86193 18.8 8.75 18.9119 8.75 19.05C8.75 19.1881 8.86193 19.3 9 19.3H14.5C14.6381 19.3 14.75 19.1881 14.75 19.05C14.75 18.9119 14.6381 18.8 14.5 18.8H9Z" fill="currentColor"/>
</svg>
