<svg width="18" height="18" viewBox="0 0 18 18" fill="none" xmlns="http://www.w3.org/2000/svg">
<path fill-rule="evenodd" clip-rule="evenodd" d="M2.25 5.5C2.25 4.5335 3.0335 3.75 4 3.75H14C14.9665 3.75 15.75 4.5335 15.75 5.5V12.5C15.75 13.4665 14.9665 14.25 14 14.25H4C3.0335 14.25 2.25 13.4665 2.25 12.5V5.5ZM4 5.25C3.86193 5.25 3.75 5.36193 3.75 5.5V12.5C3.75 12.6381 3.86193 12.75 4 12.75H14C14.1381 12.75 14.25 12.6381 14.25 12.5V5.5C14.25 5.36193 14.1381 5.25 14 5.25H4ZM13.5 6.75L13.5 11.25L12 11.25L12 6.75L13.5 6.75Z" fill="currentColor"/>
</svg>
