<svg width="18" height="18" viewBox="0 0 18 18" fill="none" xmlns="http://www.w3.org/2000/svg">
<path fill-rule="evenodd" clip-rule="evenodd" d="M4.125 4C4.125 3.0335 4.9085 2.25 5.875 2.25H12.125C13.0915 2.25 13.875 3.0335 13.875 4V14C13.875 14.9665 13.0915 15.75 12.125 15.75H5.875C4.9085 15.75 4.125 14.9665 4.125 14V4ZM5.875 3.75C5.73693 3.75 5.625 3.86193 5.625 4V14C5.625 14.1381 5.73693 14.25 5.875 14.25H12.125C12.2631 14.25 12.375 14.1381 12.375 14V4C12.375 3.86193 12.2631 3.75 12.125 3.75H5.875ZM6.75 12H11.25V13.5H6.75V12Z" fill="currentColor"/>
</svg>
