<svg width="18" height="18" viewBox="0 0 18 18" fill="none" xmlns="http://www.w3.org/2000/svg">
<path fill-rule="evenodd" clip-rule="evenodd" d="M2.25 5.5C2.25 4.5335 3.0335 3.75 4 3.75H14C14.9665 3.75 15.75 4.5335 15.75 5.5V11C15.75 11.9665 14.9665 12.75 14 12.75H4C3.0335 12.75 2.25 11.9665 2.25 11V5.5ZM4 5.25C3.86193 5.25 3.75 5.36193 3.75 5.5V11C3.75 11.1381 3.86193 11.25 4 11.25H14C14.1381 11.25 14.25 11.1381 14.25 11V5.5C14.25 5.36193 14.1381 5.25 14 5.25H4ZM2.25 13.5H15.75V15H2.25V13.5Z" fill="currentColor"/>
</svg>
