<svg width="18" height="18" viewBox="0 0 18 18" fill="none" xmlns="http://www.w3.org/2000/svg">
<path fill-rule="evenodd" clip-rule="evenodd" d="M1.5 5.5C1.5 4.5335 2.2835 3.75 3.25 3.75H14.75C15.7165 3.75 16.5 4.5335 16.5 5.5V11.75C16.5 12.7165 15.7165 13.5 14.75 13.5H3.25C2.2835 13.5 1.5 12.7165 1.5 11.75V5.5ZM3.25 5.25C3.11193 5.25 3 5.36193 3 5.5V11.75C3 11.8881 3.11193 12 3.25 12H14.75C14.8881 12 15 11.8881 15 11.75V5.5C15 5.36193 14.8881 5.25 14.75 5.25H3.25ZM5.25 14.25H12.75V15.75H5.25V14.25Z" fill="currentColor"/>
</svg>
