<svg width="20" height="20" viewBox="0 0 20 20" fill="none" xmlns="http://www.w3.org/2000/svg">
<g id="accordion">
<path id="Vector" d="M2 0.5H18C18.8284 0.5 19.5 1.17157 19.5 2C19.5 2.82843 18.8284 3.5 18 3.5H2C1.17157 3.5 0.5 2.82843 0.5 2C0.5 1.17157 1.17157 0.5 2 0.5Z" transform="translate(0 3)" stroke="#191E23"/>
<path id="Vector_2" d="M2 0.5H18C18.8284 0.5 19.5 1.17157 19.5 2C19.5 2.82843 18.8284 3.5 18 3.5H2C1.17157 3.5 0.5 2.82843 0.5 2C0.5 1.17157 1.17157 0.5 2 0.5Z" transform="translate(0 8)" stroke="#191E23"/>
<path id="+" d="M2.21484 2.28955H1.65088V2.85352H1.35498V2.28955H0.788086V1.99219H1.35498V1.42529H1.65088V1.99219H2.21484V2.28955Z" transform="translate(16 2.89999)" fill="#191E23"/>
<path id="+_2" d="M2.21484 2.28955H1.65088V2.85352H1.35498V2.28955H0.788086V1.99219H1.35498V1.42529H1.65088V1.99219H2.21484V2.28955Z" transform="translate(16 7.89999)" fill="#191E23"/>
<g id="Logo" clip-path="url(#clip0)">
<path id="Vector_3" d="M0 8.00002V3.20002C0 1.63724 2.0391 0.00607497 4 2.44141e-05C5.99031 -0.0061169 8 1.67631 8 3.20002V8.00002L6.66667 6.67165L5.33333 8.00002L4 6.67165L2.66667 8.00002L1.33333 6.67165L0 8.00002Z" transform="translate(12 11.9999)" fill="#016C91"/>
<path id="Ellipse" d="M1.2 0.6C1.2 0.931371 0.931371 1.2 0.6 1.2C0.268629 1.2 0 0.931371 0 0.6C0 0.268629 0.268629 0 0.6 0C0.931371 0 1.2 0.268629 1.2 0.6Z" transform="translate(15.4 15.2)" fill="white"/>
<path id="Ellipse_2" d="M1.6 0.8C1.6 1.24183 1.24183 1.6 0.8 1.6C0.358172 1.6 0 1.24183 0 0.8C0 0.358172 0.358172 0 0.8 0C1.24183 0 1.6 0.358172 1.6 0.8Z" transform="translate(17.2 14.8)" fill="white"/>
</g>
</g>
<defs>
<clipPath id="clip0">
<rect width="8" height="8" fill="white" transform="translate(12 12)"/>
</clipPath>
</defs>
</svg>
