<svg width="20" height="20" viewBox="0 0 20 20" version="1.1" xmlns="http://www.w3.org/2000/svg" xmlns:xlink="http://www.w3.org/1999/xlink">
<title>alert</title>
<desc>Created using Figma</desc>
<g id="Canvas" transform="translate(373 432)">
<clipPath id="clip-0" clip-rule="evenodd">
<path d="M -373 -432L -353 -432L -353 -412L -373 -412L -373 -432Z" fill="#FFFFFF"/>
</clipPath>
<g id="alert" clip-path="url(#clip-0)">
<g id="Group">
<g id="Vector">
<use xlink:href="#path0_fill" transform="translate(-369 -430)" fill="#191E23"/>
</g>
</g>
<clipPath id="clip-1" clip-rule="evenodd">
<path d="M -363 -422L -353 -422L -353 -412L -363 -412L -363 -422Z" fill="#FFFFFF"/>
</clipPath>
<g id="Logo" clip-path="url(#clip-1)">
<g id="Vector">
<use xlink:href="#path1_fill" transform="translate(-363 -422)" fill="#008DBE"/>
</g>
<g id="Ellipse">
<use xlink:href="#path2_fill" transform="translate(-358.75 -418)" fill="#FFFFFF"/>
</g>
<g id="Ellipse">
<use xlink:href="#path3_fill" transform="translate(-356.5 -418.5)" fill="#FFFFFF"/>
</g>
</g>
</g>
</g>
<defs>
<path id="path0_fill" d="M 11.8649 8.594C 12.2495 9.21889 11.7668 10 10.9988 10L 1.00113 10C 0.23161 10 -0.248848 9.21768 0.134943 8.594L 5.13382 0.468457C 5.51855 -0.156719 6.48215 -0.155586 6.86619 0.468457L 11.8649 8.594L 11.8649 8.594ZM 6 6.91406C 5.47073 6.91406 5.04167 7.31631 5.04167 7.8125C 5.04167 8.30869 5.47073 8.71094 6 8.71094C 6.52927 8.71094 6.95834 8.30869 6.95834 7.8125C 6.95834 7.31631 6.52927 6.91406 6 6.91406ZM 5.09015 3.68465L 5.24469 6.3409C 5.25192 6.4652 5.36155 6.5625 5.49432 6.5625L 6.50569 6.5625C 6.63846 6.5625 6.74809 6.4652 6.75532 6.3409L 6.90986 3.68465C 6.91767 3.55039 6.80365 3.4375 6.66023 3.4375L 5.33975 3.4375C 5.19634 3.4375 5.08234 3.55039 5.09015 3.68465L 5.09015 3.68465Z"/>
<path id="path1_fill" d="M 0 10L 0 4.00003C 0 2.04655 2.54888 0.00759371 5 3.05176e-05C 7.48789 -0.00764612 10 2.09538 10 4.00003L 10 10L 8.33333 8.33957L 6.66667 10L 5 8.33957L 3.33333 10L 1.66667 8.33957L 0 10Z"/>
<path id="path2_fill" d="M 1.5 0.75C 1.5 1.16421 1.16421 1.5 0.75 1.5C 0.335786 1.5 0 1.16421 0 0.75C 0 0.335786 0.335786 0 0.75 0C 1.16421 0 1.5 0.335786 1.5 0.75Z"/>
<path id="path3_fill" d="M 2 1C 2 1.55228 1.55228 2 1 2C 0.447715 2 0 1.55228 0 1C 0 0.447715 0.447715 0 1 0C 1.55228 0 2 0.447715 2 1Z"/>
</defs>
</svg>
