<svg width="20" height="20" viewBox="0 0 20 20" fill="none" xmlns="http://www.w3.org/2000/svg">
<g id="alert">
<g id="Group">
<path id="Vector" d="M11.8649 8.594C12.2495 9.21889 11.7668 10 10.9988 10H1.00113C0.23161 10 -0.248848 9.21768 0.134943 8.594L5.13382 0.468457C5.51855 -0.156719 6.48215 -0.155586 6.86619 0.468457L11.8649 8.594ZM6 6.91406C5.47073 6.91406 5.04167 7.31631 5.04167 7.8125C5.04167 8.30869 5.47073 8.71094 6 8.71094C6.52927 8.71094 6.95834 8.30869 6.95834 7.8125C6.95834 7.31631 6.52927 6.91406 6 6.91406ZM5.09015 3.68465L5.24469 6.3409C5.25192 6.4652 5.36155 6.5625 5.49432 6.5625H6.50569C6.63846 6.5625 6.74809 6.4652 6.75532 6.3409L6.90986 3.68465C6.91767 3.55039 6.80365 3.4375 6.66023 3.4375H5.33975C5.19634 3.4375 5.08234 3.55039 5.09015 3.68465Z" transform="translate(4 2)" fill="#191E23"/>
</g>
<g id="Logo" clip-path="url(#clip0)">
<path id="Vector_2" d="M0 8.00002V3.20002C0 1.63724 2.0391 0.00607497 4 2.44141e-05C5.99031 -0.0061169 8 1.67631 8 3.20002V8.00002L6.66667 6.67165L5.33333 8.00002L4 6.67165L2.66667 8.00002L1.33333 6.67165L0 8.00002Z" transform="translate(12 11.9999)" fill="#016C91"/>
<path id="Ellipse" d="M1.2 0.6C1.2 0.931371 0.931371 1.2 0.6 1.2C0.268629 1.2 0 0.931371 0 0.6C0 0.268629 0.268629 0 0.6 0C0.931371 0 1.2 0.268629 1.2 0.6Z" transform="translate(15.4 15.2)" fill="white"/>
<path id="Ellipse_2" d="M1.6 0.8C1.6 1.24183 1.24183 1.6 0.8 1.6C0.358172 1.6 0 1.24183 0 0.8C0 0.358172 0.358172 0 0.8 0C1.24183 0 1.6 0.358172 1.6 0.8Z" transform="translate(17.2 14.8)" fill="white"/>
</g>
</g>
<defs>
<clipPath id="clip0">
<rect width="8" height="8" fill="white" transform="translate(12 12)"/>
</clipPath>
</defs>
</svg>
