<svg width="24" height="24" viewBox="0 0 24 24" fill="none" xmlns="http://www.w3.org/2000/svg">
<path d="M10.4 8.8L10.816 8.17596C10.5859 8.02253 10.29 8.00823 10.0461 8.13874C9.80224 8.26926 9.65 8.5234 9.65 8.8H10.4ZM15.2 12L15.616 12.624C15.8247 12.4849 15.95 12.2508 15.95 12C15.95 11.7492 15.8247 11.5151 15.616 11.376L15.2 12ZM10.4 15.2H9.65C9.65 15.4766 9.80224 15.7307 10.0461 15.8613C10.29 15.9918 10.5859 15.9775 10.816 15.824L10.4 15.2ZM19.25 12C19.25 16.0041 16.0041 19.25 12 19.25V20.75C16.8325 20.75 20.75 16.8325 20.75 12H19.25ZM12 19.25C7.99594 19.25 4.75 16.0041 4.75 12H3.25C3.25 16.8325 7.16751 20.75 12 20.75V19.25ZM4.75 12C4.75 7.99594 7.99594 4.75 12 4.75V3.25C7.16751 3.25 3.25 7.16751 3.25 12H4.75ZM12 4.75C16.0041 4.75 19.25 7.99594 19.25 12H20.75C20.75 7.16751 16.8325 3.25 12 3.25V4.75ZM9.98397 9.42404L14.784 12.624L15.616 11.376L10.816 8.17596L9.98397 9.42404ZM14.784 11.376L9.98397 14.576L10.816 15.824L15.616 12.624L14.784 11.376ZM11.15 15.2V8.8H9.65V15.2H11.15Z" fill="currentColor"/>
</svg>
