<svg width="24" height="24" viewBox="0 0 24 24" fill="none" xmlns="http://www.w3.org/2000/svg">
<path d="M12 20.3333C7.40832 20.3333 3.66666 16.5917 3.66666 12C3.66666 7.40832 7.40832 3.66666 12 3.66666C16.5917 3.66666 20.3333 7.03332 20.3333 11.1667C20.3333 13.925 18.0917 16.1667 15.3333 16.1667H13.8583C13.625 16.1667 13.4417 16.35 13.4417 16.5833C13.4417 16.6833 13.4833 16.775 13.55 16.8583C13.8917 17.25 14.0833 17.7417 14.0833 18.25C14.0833 19.4 13.15 20.3333 12 20.3333ZM12 5.33332C8.32499 5.33332 5.33332 8.32499 5.33332 12C5.33332 15.675 8.32499 18.6667 12 18.6667C12.2333 18.6667 12.4167 18.4833 12.4167 18.25C12.4167 18.1167 12.35 18.0167 12.3 17.9583C11.9583 17.575 11.775 17.0833 11.775 16.5833C11.775 15.4333 12.7083 14.5 13.8583 14.5H15.3333C17.175 14.5 18.6667 13.0083 18.6667 11.1667C18.6667 7.94999 15.675 5.33332 12 5.33332Z" fill="#191E23"/>
<path d="M7.41663 12.8333C8.10698 12.8333 8.66663 12.2737 8.66663 11.5833C8.66663 10.893 8.10698 10.3333 7.41663 10.3333C6.72627 10.3333 6.16663 10.893 6.16663 11.5833C6.16663 12.2737 6.72627 12.8333 7.41663 12.8333Z" fill="#191E23"/>
<path d="M9.91663 9.5C10.607 9.5 11.1666 8.94036 11.1666 8.25C11.1666 7.55964 10.607 7 9.91663 7C9.22627 7 8.66663 7.55964 8.66663 8.25C8.66663 8.94036 9.22627 9.5 9.91663 9.5Z" fill="#191E23"/>
<path d="M14.0833 9.5C14.7737 9.5 15.3333 8.94036 15.3333 8.25C15.3333 7.55964 14.7737 7 14.0833 7C13.393 7 12.8333 7.55964 12.8333 8.25C12.8333 8.94036 13.393 9.5 14.0833 9.5Z" fill="#191E23"/>
<path d="M16.5833 12.8333C17.2737 12.8333 17.8333 12.2737 17.8333 11.5833C17.8333 10.893 17.2737 10.3333 16.5833 10.3333C15.893 10.3333 15.3333 10.893 15.3333 11.5833C15.3333 12.2737 15.893 12.8333 16.5833 12.8333Z" fill="#191E23"/>
<path d="M15.281 20.8981L14.0613 20.7965L14.8632 21.7236C15.1063 22.0047 15.4631 22.1519 15.7985 22.233C16.1448 22.3167 16.537 22.3463 16.9258 22.3421C17.7013 22.3339 18.5447 22.1903 19.1409 21.9916C19.7414 21.7914 20.5335 21.3841 21.1842 20.7608C21.8396 20.1329 22.3793 19.2562 22.3793 18.1379C22.3793 15.9788 20.7118 14.5 18.9828 14.5C17.3327 14.5 15.7901 15.5557 15.5893 17.3585C15.4935 18.2184 15.6713 18.7872 15.8608 19.2628C15.888 19.3311 15.9142 19.3952 15.9392 19.4562C16.0868 19.8173 16.1897 20.0687 16.1897 20.431C16.1897 20.5791 16.1453 20.6495 16.1027 20.6939C16.0485 20.7503 15.9575 20.8026 15.8255 20.8411C15.6962 20.8788 15.5584 20.8942 15.4469 20.8989C15.3926 20.9011 15.3481 20.9007 15.3185 20.8998C15.3038 20.8994 15.293 20.8989 15.2868 20.8985L15.2812 20.8981L15.2811 20.8981C15.2807 20.8981 15.2807 20.8981 15.281 20.8981Z" fill="#9EA5A7" stroke="white"/>
<path d="M19.1638 17.6853C19.1638 17.9353 18.9611 18.1379 18.7112 18.1379C18.4612 18.1379 18.2586 17.9353 18.2586 17.6853C18.2586 17.4354 18.4612 17.2328 18.7112 17.2328C18.9611 17.2328 19.1638 17.4354 19.1638 17.6853Z" fill="white"/>
<path d="M20.8233 17.5345C20.8233 17.8678 20.5531 18.1379 20.2198 18.1379C19.8866 18.1379 19.6164 17.8678 19.6164 17.5345C19.6164 17.2012 19.8866 16.931 20.2198 16.931C20.5531 16.931 20.8233 17.2012 20.8233 17.5345Z" fill="white"/>
</svg>
