<svg width="24" height="24" viewBox="0 0 24 24" fill="none" xmlns="http://www.w3.org/2000/svg">
<path d="M12.0018 7.8978C9.73162 7.8978 7.9005 9.72933 7.9005 12C7.9005 14.2707 9.73162 16.1022 12.0018 16.1022C14.2719 16.1022 16.1031 14.2707 16.1031 12C16.1031 9.72933 14.2719 7.8978 12.0018 7.8978ZM12.0018 14.667C10.5347 14.667 9.33542 13.4709 9.33542 12C9.33542 10.5291 10.5312 9.33304 12.0018 9.33304C13.4724 9.33304 14.6682 10.5291 14.6682 12C14.6682 13.4709 13.4688 14.667 12.0018 14.667ZM17.2274 7.73C17.2274 8.26197 16.7991 8.68682 16.2708 8.68682C15.739 8.68682 15.3142 8.2584 15.3142 7.73C15.3142 7.20161 15.7426 6.77318 16.2708 6.77318C16.7991 6.77318 17.2274 7.20161 17.2274 7.73ZM19.9438 8.7011C19.8831 7.41939 19.5904 6.28406 18.6516 5.34866C17.7165 4.41325 16.5814 4.1205 15.2999 4.05623C13.9793 3.98126 10.0207 3.98126 8.70006 4.05623C7.4222 4.11693 6.28712 4.40968 5.34835 5.34509C4.40959 6.28049 4.12047 7.41582 4.05622 8.69753C3.98126 10.0185 3.98126 13.9779 4.05622 15.2989C4.1169 16.5806 4.40959 17.7159 5.34835 18.6513C6.28712 19.5867 7.41863 19.8795 8.70006 19.9438C10.0207 20.0187 13.9793 20.0187 15.2999 19.9438C16.5814 19.8831 17.7165 19.5903 18.6516 18.6513C19.5868 17.7159 19.8795 16.5806 19.9438 15.2989C20.0187 13.9779 20.0187 10.0221 19.9438 8.7011ZM18.2376 16.7163C17.9592 17.416 17.4202 17.9551 16.717 18.2372C15.664 18.6549 13.1654 18.5585 12.0018 18.5585C10.8381 18.5585 8.33597 18.6513 7.28656 18.2372C6.58695 17.9587 6.04796 17.4196 5.76598 16.7163C5.34835 15.6631 5.44473 13.1639 5.44473 12C5.44473 10.8361 5.35192 8.33337 5.76598 7.28372C6.04439 6.58396 6.58338 6.04485 7.28656 5.7628C8.33954 5.34509 10.8381 5.44148 12.0018 5.44148C13.1654 5.44148 15.6676 5.34866 16.717 5.7628C17.4166 6.04128 17.9556 6.58039 18.2376 7.28372C18.6552 8.33694 18.5588 10.8361 18.5588 12C18.5588 13.1639 18.6552 15.6666 18.2376 16.7163Z" fill="#191E23"/>
<path d="M15.281 20.8981L14.0613 20.7965L14.8632 21.7236C15.1063 22.0047 15.4631 22.1519 15.7985 22.233C16.1448 22.3167 16.537 22.3463 16.9258 22.3421C17.7013 22.3339 18.5447 22.1903 19.1409 21.9916C19.7414 21.7914 20.5335 21.3841 21.1842 20.7608C21.8396 20.1329 22.3793 19.2562 22.3793 18.1379C22.3793 15.9788 20.7118 14.5 18.9828 14.5C17.3327 14.5 15.7901 15.5557 15.5893 17.3585C15.4935 18.2184 15.6713 18.7872 15.8608 19.2628C15.888 19.3311 15.9142 19.3952 15.9392 19.4562C16.0868 19.8173 16.1897 20.0687 16.1897 20.431C16.1897 20.5791 16.1453 20.6495 16.1027 20.6939C16.0485 20.7503 15.9575 20.8026 15.8255 20.8411C15.6962 20.8788 15.5584 20.8942 15.4469 20.8989C15.3926 20.9011 15.3481 20.9007 15.3185 20.8998C15.3038 20.8994 15.293 20.8989 15.2868 20.8985L15.2812 20.8981L15.2811 20.8981C15.2807 20.8981 15.2807 20.8981 15.281 20.8981Z" fill="#9EA5A7" stroke="white"/>
<path d="M19.1638 17.6853C19.1638 17.9353 18.9611 18.1379 18.7112 18.1379C18.4612 18.1379 18.2586 17.9353 18.2586 17.6853C18.2586 17.4354 18.4612 17.2328 18.7112 17.2328C18.9611 17.2328 19.1638 17.4354 19.1638 17.6853Z" fill="white"/>
<path d="M20.8233 17.5345C20.8233 17.8678 20.5531 18.1379 20.2198 18.1379C19.8866 18.1379 19.6164 17.8678 19.6164 17.5345C19.6164 17.2012 19.8866 16.931 20.2198 16.931C20.5531 16.931 20.8233 17.2012 20.8233 17.5345Z" fill="white"/>
</svg>
