<svg width="24" height="24" viewBox="0 0 24 24" fill="none" xmlns="http://www.w3.org/2000/svg">
<path d="M21 6.65709C20.3376 6.93787 19.6257 7.12821 18.8787 7.21347C19.641 6.77595 20.2269 6.08348 20.5023 5.25838C19.7886 5.66318 18.9993 5.95774 18.1569 6.11621C17.4855 5.42891 16.5252 5 15.4632 5C13.4238 5 11.7705 6.58216 11.7705 8.53381C11.7705 8.81114 11.8029 9.08071 11.8659 9.3391C8.7969 9.19268 6.0762 7.78536 4.2546 5.64682C3.9369 6.16961 3.7542 6.77681 3.7542 7.42449C3.7542 8.65094 4.4058 9.7327 5.3967 10.3657C4.791 10.3468 4.2222 10.1875 3.7227 9.92304V9.96783C3.7227 11.68 4.9962 13.1089 6.6864 13.4327C6.3768 13.5146 6.0501 13.5576 5.7144 13.5576C5.4759 13.5576 5.2446 13.5352 5.0187 13.4939C5.4885 14.8978 6.8529 15.9201 8.4684 15.9485C7.2048 16.8959 5.6118 17.4618 3.882 17.4618C3.5832 17.4618 3.288 17.4445 3 17.4127C4.6344 18.4152 6.5757 19 8.661 19C15.4533 19 19.1685 13.6153 19.1685 8.94463C19.1685 8.79133 19.1649 8.63888 19.1577 8.48816C19.8795 7.99034 20.505 7.3685 21 6.65881V6.65709Z" fill="#191E23"/>
<path d="M15.281 20.8981L14.0613 20.7965L14.8632 21.7236C15.1063 22.0047 15.4631 22.1519 15.7985 22.233C16.1448 22.3167 16.537 22.3463 16.9258 22.3421C17.7013 22.3339 18.5447 22.1903 19.1409 21.9916C19.7414 21.7914 20.5335 21.3841 21.1842 20.7608C21.8396 20.1329 22.3793 19.2562 22.3793 18.1379C22.3793 15.9788 20.7118 14.5 18.9828 14.5C17.3327 14.5 15.7901 15.5557 15.5893 17.3585C15.4935 18.2184 15.6713 18.7872 15.8608 19.2628C15.888 19.3311 15.9142 19.3952 15.9392 19.4562C16.0868 19.8173 16.1897 20.0687 16.1897 20.431C16.1897 20.5791 16.1453 20.6495 16.1027 20.6939C16.0485 20.7503 15.9575 20.8026 15.8255 20.8411C15.6962 20.8788 15.5584 20.8942 15.4469 20.8989C15.3926 20.9011 15.3481 20.9007 15.3185 20.8998C15.3038 20.8994 15.293 20.8989 15.2868 20.8985L15.2812 20.8981L15.2811 20.8981C15.2807 20.8981 15.2807 20.8981 15.281 20.8981Z" fill="#9EA5A7" stroke="white"/>
<path d="M19.1638 17.6853C19.1638 17.9353 18.9611 18.1379 18.7112 18.1379C18.4612 18.1379 18.2586 17.9353 18.2586 17.6853C18.2586 17.4354 18.4612 17.2328 18.7112 17.2328C18.9611 17.2328 19.1638 17.4354 19.1638 17.6853Z" fill="white"/>
<path d="M20.8233 17.5345C20.8233 17.8678 20.5531 18.1379 20.2198 18.1379C19.8866 18.1379 19.6164 17.8678 19.6164 17.5345C19.6164 17.2012 19.8866 16.931 20.2198 16.931C20.5531 16.931 20.8233 17.2012 20.8233 17.5345Z" fill="white"/>
</svg>
