<svg width="24" height="24" viewBox="0 0 24 24" fill="none" xmlns="http://www.w3.org/2000/svg">
<path d="M12.75 8.8C12.75 8.38579 12.4142 8.05 12 8.05C11.5858 8.05 11.25 8.38579 11.25 8.8H12.75ZM11.25 12C11.25 12.4142 11.5858 12.75 12 12.75C12.4142 12.75 12.75 12.4142 12.75 12H11.25ZM12.75 15.2C12.75 14.7858 12.4142 14.45 12 14.45C11.5858 14.45 11.25 14.7858 11.25 15.2H12.75ZM11.25 15.208C11.25 15.6222 11.5858 15.958 12 15.958C12.4142 15.958 12.75 15.6222 12.75 15.208H11.25ZM19.25 12C19.25 16.0041 16.0041 19.25 12 19.25V20.75C16.8325 20.75 20.75 16.8325 20.75 12H19.25ZM12 19.25C7.99594 19.25 4.75 16.0041 4.75 12H3.25C3.25 16.8325 7.16751 20.75 12 20.75V19.25ZM4.75 12C4.75 7.99594 7.99594 4.75 12 4.75V3.25C7.16751 3.25 3.25 7.16751 3.25 12H4.75ZM12 4.75C16.0041 4.75 19.25 7.99594 19.25 12H20.75C20.75 7.16751 16.8325 3.25 12 3.25V4.75ZM11.25 8.8V12H12.75V8.8H11.25ZM11.25 15.2V15.208H12.75V15.2H11.25Z" fill="currentColor"/>
</svg>
