<svg width="24" height="24" viewBox="0 0 24 24" fill="none" xmlns="http://www.w3.org/2000/svg">
<path d="M12 3.66666C7.39999 3.66666 3.66666 7.39999 3.66666 12C3.66666 16.6 7.39999 20.3333 12 20.3333C16.6 20.3333 20.3333 16.6 20.3333 12C20.3333 7.39999 16.6 3.66666 12 3.66666ZM12 18.6667C8.32499 18.6667 5.33332 15.675 5.33332 12C5.33332 8.32499 8.32499 5.33332 12 5.33332C15.675 5.33332 18.6667 8.32499 18.6667 12C18.6667 15.675 15.675 18.6667 12 18.6667Z" fill="#191E23"/>
<path d="M12.2583 11.2833C10.7833 10.9083 10.3083 10.5 10.3083 9.89166C10.3083 9.19166 10.9667 8.69999 12.0583 8.69999C13.2083 8.69999 13.6417 9.24999 13.675 10.0667H15.1C15.0583 8.94999 14.375 7.92499 13.025 7.59166V6.16666H11.0833V7.57499C9.82501 7.84166 8.81668 8.65832 8.81668 9.91666C8.81668 11.4083 10.0583 12.1583 11.8667 12.5917C13.4917 12.975 13.8167 13.55 13.8167 14.15C13.8167 14.5917 13.4917 15.3083 12.0667 15.3083C10.7333 15.3083 10.2083 14.7083 10.1333 13.9417H8.70001C8.78335 15.3583 9.83335 16.1583 11.0833 16.4167V17.8333H13.0333V16.4417C14.3 16.2 15.3 15.475 15.3083 14.1333C15.3 12.3 13.725 11.6667 12.2583 11.2833Z" fill="#191E23"/>
<path d="M15.281 20.8981L14.0613 20.7965L14.8632 21.7236C15.1063 22.0047 15.4631 22.1519 15.7985 22.233C16.1448 22.3167 16.537 22.3463 16.9258 22.3421C17.7013 22.3339 18.5447 22.1903 19.1409 21.9916C19.7414 21.7914 20.5335 21.3841 21.1842 20.7608C21.8396 20.1329 22.3793 19.2562 22.3793 18.1379C22.3793 15.9788 20.7118 14.5 18.9828 14.5C17.3327 14.5 15.7901 15.5557 15.5893 17.3585C15.4935 18.2184 15.6713 18.7872 15.8608 19.2628C15.888 19.3311 15.9142 19.3952 15.9392 19.4562C16.0868 19.8173 16.1897 20.0687 16.1897 20.431C16.1897 20.5791 16.1453 20.6495 16.1027 20.6939C16.0485 20.7503 15.9575 20.8026 15.8255 20.8411C15.6962 20.8788 15.5584 20.8942 15.4469 20.8989C15.3926 20.9011 15.3481 20.9007 15.3185 20.8998C15.3038 20.8994 15.293 20.8989 15.2868 20.8985L15.2812 20.8981L15.2811 20.8981C15.2807 20.8981 15.2807 20.8981 15.281 20.8981Z" fill="#9EA5A7" stroke="white"/>
<path d="M19.1638 17.6853C19.1638 17.9353 18.9611 18.1379 18.7112 18.1379C18.4612 18.1379 18.2586 17.9353 18.2586 17.6853C18.2586 17.4354 18.4612 17.2328 18.7112 17.2328C18.9611 17.2328 19.1638 17.4354 19.1638 17.6853Z" fill="white"/>
<path d="M20.8233 17.5345C20.8233 17.8678 20.5531 18.1379 20.2198 18.1379C19.8866 18.1379 19.6164 17.8678 19.6164 17.5345C19.6164 17.2012 19.8866 16.931 20.2198 16.931C20.5531 16.931 20.8233 17.2012 20.8233 17.5345Z" fill="white"/>
</svg>
