<svg width="24" height="24" viewBox="0 0 24 24" fill="none" xmlns="http://www.w3.org/2000/svg">
<path d="M10 16.6667C6.66668 17.6667 6.66668 15 5.33334 14.6667M14.6667 18.6667V16.0867C14.6917 15.7688 14.6487 15.4492 14.5407 15.1492C14.4326 14.8492 14.262 14.5756 14.04 14.3467C16.1333 14.1133 18.3333 13.32 18.3333 9.68C18.3332 8.74922 17.9751 7.85413 17.3333 7.18C17.6372 6.36567 17.6158 5.46557 17.2733 4.66667C17.2733 4.66667 16.4867 4.43333 14.6667 5.65333C13.1387 5.23921 11.528 5.23921 10 5.65333C8.18001 4.43333 7.39334 4.66667 7.39334 4.66667C7.05093 5.46557 7.02944 6.36567 7.33334 7.18C6.68676 7.85913 6.32836 8.76231 6.33334 9.7C6.33334 13.3133 8.53334 14.1067 10.6267 14.3667C10.4073 14.5933 10.2382 14.8636 10.1302 15.1599C10.0222 15.4563 9.97788 15.772 10 16.0867V18.6667" stroke="currentColor" fill="transparent" stroke-width="1.5" stroke-linecap="round" stroke-linejoin="round"/>
</svg>
