<svg width="20" height="20" viewBox="0 0 20 20" version="1.1" xmlns="http://www.w3.org/2000/svg" xmlns:xlink="http://www.w3.org/1999/xlink">
<title>button</title>
<desc>Created using Figma</desc>
<g id="Canvas" transform="translate(478 432)">
<clipPath id="clip-0" clip-rule="evenodd">
<path d="M -478 -432L -458 -432L -458 -412L -478 -412L -478 -432Z" fill="#FFFFFF"/>
</clipPath>
<g id="button" clip-path="url(#clip-0)">
<g id="Vector">
<use xlink:href="#path0_fill" transform="translate(-477 -429)" fill="#191E23"/>
</g>
<clipPath id="clip-1" clip-rule="evenodd">
<path d="M -468 -422L -458 -422L -458 -412L -468 -412L -468 -422Z" fill="#FFFFFF"/>
</clipPath>
<g id="Logo" clip-path="url(#clip-1)">
<g id="Vector">
<use xlink:href="#path1_fill" transform="translate(-468 -422)" fill="#008DBE"/>
</g>
<g id="Ellipse">
<use xlink:href="#path2_fill" transform="translate(-463.75 -418)" fill="#FFFFFF"/>
</g>
<g id="Ellipse">
<use xlink:href="#path3_fill" transform="translate(-461.5 -418.5)" fill="#FFFFFF"/>
</g>
</g>
</g>
</g>
<defs>
<path id="path0_fill" d="M 16 0L 2 0C 0.9 0 0 0.81 0 1.8L 0 7.2C 0 8.19 0.9 9 2 9L 16 9C 17.1 9 18 8.19 18 7.2L 18 1.8C 18 0.81 17.1 0 16 0ZM 17 6.3C 17 6.84 16.6 7.2 16 7.2L 2 7.2C 1.4 7.2 1 6.84 1 6.3L 1 1.8C 1 1.26 1.4 0.9 2 0.9L 16 0.9C 16.6 0.9 17 1.26 17 1.8L 17 6.3Z"/>
<path id="path1_fill" d="M 0 10L 0 4.00003C 0 2.04655 2.54888 0.00759371 5 3.05176e-05C 7.48789 -0.00764612 10 2.09538 10 4.00003L 10 10L 8.33333 8.33957L 6.66667 10L 5 8.33957L 3.33333 10L 1.66667 8.33957L 0 10Z"/>
<path id="path2_fill" d="M 1.5 0.75C 1.5 1.16421 1.16421 1.5 0.75 1.5C 0.335786 1.5 0 1.16421 0 0.75C 0 0.335786 0.335786 0 0.75 0C 1.16421 0 1.5 0.335786 1.5 0.75Z"/>
<path id="path3_fill" d="M 2 1C 2 1.55228 1.55228 2 1 2C 0.447715 2 0 1.55228 0 1C 0 0.447715 0.447715 0 1 0C 1.55228 0 2 0.447715 2 1Z"/>
</defs>
</svg>
