<svg width="24" height="25" viewBox="0 0 24 25" fill="none" xmlns="http://www.w3.org/2000/svg">
<path d="M13.7778 14.6H7.55556V16.4H13.7778V14.6Z" fill="black"/>
<path d="M16.4444 11H7.55556V12.8H16.4444V11Z" fill="black"/>
<path d="M16.4444 7.39999H7.55556V9.19999H16.4444V7.39999Z" fill="black"/>
<path d="M18.2222 3.79999H14.5067C13.6497 3.80001 13.1556 3.83601 12 3.836C10.8444 3.836 10.5 3.79997 9.49333 3.79999H5.77778C5.65333 3.79999 5.53778 3.80899 5.42222 3.83599C5.07556 3.90799 4.76444 4.08799 4.52444 4.33099C4.36444 4.49299 4.23111 4.69099 4.14222 4.90699C4.05333 5.11399 4 5.34799 4 5.59999V18.2C4 18.443 4.05333 18.686 4.14222 18.902C4.23111 19.118 4.36444 19.307 4.52444 19.478C4.76444 19.721 5.07556 19.901 5.42222 19.973C5.53778 19.991 5.65333 20 5.77778 20H18.2222C19.2 20 20 19.19 20 18.2V5.59999C20 4.60999 19.2 3.79999 18.2222 3.79999ZM18.2222 18.2H5.77778V5.59999H18.2222V18.2Z" fill="black"/>
<circle cx="7.5" cy="7.5" r="5.5" fill="white"/>
<path d="M7.86111 3.88889H6.77778V8.22222L10.2083 10.2806L10.75 9.39222L7.86111 7.68056V3.88889Z" fill="black"/>
<path d="M7.5 1C3.91056 1 1 3.91056 1 7.5C1 11.0894 3.91056 14 7.5 14C11.0894 14 14 11.0894 14 7.5C14 3.91056 11.0894 1 7.5 1ZM7.5 12.5556C4.71222 12.5556 2.44444 10.2878 2.44444 7.5C2.44444 4.71222 4.71222 2.44444 7.5 2.44444C10.2878 2.44444 12.5556 4.71222 12.5556 7.5C12.5556 10.2878 10.2878 12.5556 7.5 12.5556Z" fill="black"/>
<path d="M14.5 22V23.2039L15.3529 22.3542L16.1667 21.5435L16.9804 22.3542L17.3333 22.7058L17.6862 22.3542L18.5 21.5435L19.3138 22.3542L19.6667 22.7058L20.0196 22.3542L20.8333 21.5435L21.6471 22.3542L22.5 23.2039V22V17.8C22.5 16.9234 21.9369 16.0937 21.2183 15.51C20.4879 14.9165 19.504 14.4969 18.4985 14.5C17.5101 14.5031 16.5283 14.9115 15.7942 15.4988C15.071 16.0774 14.5 16.9049 14.5 17.8V22Z" fill="#9EA5A7" stroke="white"/>
<path d="M19.1562 18.2812C19.1562 18.6437 18.8624 18.9375 18.5 18.9375C18.1376 18.9375 17.8438 18.6437 17.8438 18.2812C17.8438 17.9188 18.1376 17.625 18.5 17.625C18.8624 17.625 19.1562 17.9188 19.1562 18.2812Z" fill="white"/>
<path d="M21.5625 18.0625C21.5625 18.5457 21.1707 18.9375 20.6875 18.9375C20.2043 18.9375 19.8125 18.5457 19.8125 18.0625C19.8125 17.5793 20.2043 17.1875 20.6875 17.1875C21.1707 17.1875 21.5625 17.5793 21.5625 18.0625Z" fill="white"/>
</svg>
