<svg width="24" height="25" viewBox="0 0 24 25" fill="none" xmlns="http://www.w3.org/2000/svg">
<path d="M13.2857 4C9.02571 4 5.57143 7.35833 5.57143 11.5H3L6.33429 14.7417L6.39429 14.8583L9.85714 11.5H7.28571C7.28571 8.275 9.96857 5.66667 13.2857 5.66667C16.6029 5.66667 19.2857 8.275 19.2857 11.5C19.2857 14.725 16.6029 17.3333 13.2857 17.3333C11.6314 17.3333 10.1314 16.675 9.05143 15.6167L7.83429 16.8C9.23143 18.1583 11.1514 19 13.2857 19C17.5457 19 21 15.6417 21 11.5C21 7.35833 17.5457 4 13.2857 4Z" fill="#191E23"/>
<path d="M12.4286 8.16666V12.3333L16.0714 14.4333L16.7314 13.3667L13.7143 11.625V8.16666H12.4286Z" fill="#191E23"/>
<path d="M14.5 22V23.2039L15.3529 22.3542L16.1667 21.5435L16.9804 22.3542L17.3333 22.7058L17.6862 22.3542L18.5 21.5435L19.3138 22.3542L19.6667 22.7058L20.0196 22.3542L20.8333 21.5435L21.6471 22.3542L22.5 23.2039V22V17.8C22.5 16.9234 21.9369 16.0937 21.2183 15.51C20.4879 14.9165 19.504 14.4969 18.4985 14.5C17.5101 14.5031 16.5283 14.9115 15.7942 15.4988C15.071 16.0774 14.5 16.9049 14.5 17.8V22Z" fill="#9EA5A7" stroke="white"/>
<path d="M19.1562 18.2812C19.1562 18.6437 18.8624 18.9375 18.5 18.9375C18.1376 18.9375 17.8438 18.6437 17.8438 18.2812C17.8438 17.9188 18.1376 17.625 18.5 17.625C18.8624 17.625 19.1562 17.9188 19.1562 18.2812Z" fill="white"/>
<path d="M21.5625 18.0625C21.5625 18.5457 21.1707 18.9375 20.6875 18.9375C20.2043 18.9375 19.8125 18.5457 19.8125 18.0625C19.8125 17.5793 20.2043 17.1875 20.6875 17.1875C21.1707 17.1875 21.5625 17.5793 21.5625 18.0625Z" fill="white"/>
</svg>
