<svg width="24" height="24" viewBox="0 0 24 24" fill="none" xmlns="http://www.w3.org/2000/svg">
<g id="counter-box">
<g id="outline-replay_10-24px">
<g id="Outline">
<g id="Group">
<path id="Vector" d="M11.9916 6.16668V2.83334L7.82498 7.00001L11.9916 11.1667V7.83334C14.75 7.83334 16.9916 10.075 16.9916 12.8333C16.9916 15.5917 14.75 17.8333 11.9916 17.8333C9.23331 17.8333 6.99165 15.5917 6.99165 12.8333H5.32498C5.32498 16.5167 8.30831 19.5 11.9916 19.5C15.675 19.5 18.6583 16.5167 18.6583 12.8333C18.6583 9.15001 15.675 6.16668 11.9916 6.16668Z" fill="#191E23"/>
<g id="Group_2">
<path id="Vector_2" d="M11.075 15.3333H10.3667V12.6166L9.52499 12.875V12.3L11 11.775H11.075V15.3333Z" fill="#191E23"/>
<path id="Vector_3" d="M14.6417 13.8666C14.6417 14.1333 14.6167 14.3666 14.5583 14.55C14.5 14.7333 14.4167 14.9 14.3167 15.025C14.2167 15.15 14.0833 15.2416 13.9417 15.3C13.8 15.3583 13.6333 15.3833 13.45 15.3833C13.2667 15.3833 13.1083 15.3583 12.9583 15.3C12.8083 15.2416 12.6833 15.15 12.575 15.025C12.4667 14.9 12.3833 14.7416 12.325 14.55C12.2667 14.3583 12.2333 14.1333 12.2333 13.8666V13.25C12.2333 12.9833 12.2583 12.75 12.3167 12.5666C12.375 12.3833 12.4583 12.2166 12.5583 12.0916C12.6583 11.9666 12.7917 11.875 12.9333 11.8166C13.075 11.7583 13.2417 11.7333 13.425 11.7333C13.6083 11.7333 13.7667 11.7583 13.9167 11.8166C14.0667 11.875 14.1917 11.9666 14.3 12.0916C14.4083 12.2166 14.4917 12.375 14.55 12.5666C14.6083 12.7583 14.6417 12.9833 14.6417 13.25V13.8666ZM13.9333 13.15C13.9333 12.9916 13.925 12.8583 13.9 12.75C13.875 12.6416 13.8417 12.5583 13.8 12.4916C13.7583 12.425 13.7083 12.375 13.6417 12.35C13.575 12.325 13.5083 12.3083 13.4333 12.3083C13.3583 12.3083 13.2833 12.325 13.225 12.35C13.1667 12.375 13.1083 12.425 13.0667 12.4916C13.025 12.5583 12.9917 12.6416 12.9667 12.75C12.9417 12.8583 12.9333 12.9916 12.9333 13.15V13.9583C12.9333 14.1166 12.9417 14.25 12.9667 14.3583C12.9917 14.4666 13.025 14.5583 13.0667 14.625C13.1083 14.6916 13.1583 14.7416 13.225 14.7666C13.2917 14.7916 13.3583 14.8083 13.4333 14.8083C13.5083 14.8083 13.5833 14.7916 13.6417 14.7666C13.7 14.7416 13.7583 14.6916 13.8 14.625C13.8417 14.5583 13.875 14.4666 13.8917 14.3583C13.9083 14.25 13.925 14.1166 13.925 13.9583V13.15H13.9333Z" fill="#191E23"/>
</g>
</g>
</g>
</g>
<g id="Logo" clip-path="url(#clip0)">
<path id="Vector_4" d="M15.1 22V23.2039L15.9529 22.3542L16.6667 21.6431L17.3804 22.3542L17.7333 22.7058L18.0862 22.3542L18.8 21.6431L19.5138 22.3542L19.8667 22.7058L20.2196 22.3542L20.9333 21.6431L21.6471 22.3542L22.5 23.2039V22V18.16C22.5 17.3405 21.9746 16.571 21.3124 16.033C20.6382 15.4853 19.7294 15.0972 18.7985 15.1C17.8836 15.1029 16.9769 15.4806 16.2994 16.0226C15.6328 16.5559 15.1 17.3235 15.1 18.16V22Z" fill="#9EA5A7" stroke="white"/>
<path id="Ellipse" d="M19.4 18.6C19.4 18.9314 19.1314 19.2 18.8 19.2C18.4686 19.2 18.2 18.9314 18.2 18.6C18.2 18.2686 18.4686 18 18.8 18C19.1314 18 19.4 18.2686 19.4 18.6Z" fill="white"/>
<path id="Ellipse_2" d="M21.6 18.4C21.6 18.8418 21.2418 19.2 20.8 19.2C20.3582 19.2 20 18.8418 20 18.4C20 17.9582 20.3582 17.6 20.8 17.6C21.2418 17.6 21.6 17.9582 21.6 18.4Z" fill="white"/>
</g>
</g>
<defs>
<clipPath id="clip0">
<rect width="8" height="8" fill="white" transform="translate(14 14)"/>
</clipPath>
</defs>
</svg>
