<svg width="20" height="20" viewBox="0 0 20 20" fill="none" xmlns="http://www.w3.org/2000/svg">
<g id="countdown">
<path id="Vector" d="M6 0C2.68548 0 0 2.68548 0 6C0 9.31452 2.68548 12 6 12C9.31452 12 12 9.31452 12 6C12 2.68548 9.31452 0 6 0ZM6 10.8387C3.32661 10.8387 1.16129 8.67339 1.16129 6C1.16129 3.32661 3.32661 1.16129 6 1.16129C8.67339 1.16129 10.8387 3.32661 10.8387 6C10.8387 8.67339 8.67339 10.8387 6 10.8387ZM7.49516 8.3129L5.44113 6.82016C5.36613 6.76452 5.32258 6.67742 5.32258 6.58548V2.6129C5.32258 2.45323 5.45323 2.32258 5.6129 2.32258H6.3871C6.54677 2.32258 6.67742 2.45323 6.67742 2.6129V6.04113L8.29355 7.21694C8.42419 7.31129 8.45081 7.49274 8.35645 7.62339L7.90161 8.25C7.80726 8.37823 7.62581 8.40726 7.49516 8.3129Z" transform="translate(4 1)" fill="#191E23"/>
<g id="Logo" clip-path="url(#clip0)">
<path id="Vector_2" d="M0 8.00002V3.20002C0 1.63724 2.0391 0.00607497 4 2.44141e-05C5.99031 -0.0061169 8 1.67631 8 3.20002V8.00002L6.66667 6.67165L5.33333 8.00002L4 6.67165L2.66667 8.00002L1.33333 6.67165L0 8.00002Z" transform="translate(12 11.9999)" fill="#016C91"/>
<path id="Ellipse" d="M1.2 0.6C1.2 0.931371 0.931371 1.2 0.6 1.2C0.268629 1.2 0 0.931371 0 0.6C0 0.268629 0.268629 0 0.6 0C0.931371 0 1.2 0.268629 1.2 0.6Z" transform="translate(15.4 15.2)" fill="white"/>
<path id="Ellipse_2" d="M1.6 0.8C1.6 1.24183 1.24183 1.6 0.8 1.6C0.358172 1.6 0 1.24183 0 0.8C0 0.358172 0.358172 0 0.8 0C1.24183 0 1.6 0.358172 1.6 0.8Z" transform="translate(17.2 14.8)" fill="white"/>
</g>
</g>
<defs>
<clipPath id="clip0">
<rect width="8" height="8" fill="white" transform="translate(12 12)"/>
</clipPath>
</defs>
</svg>
