<svg width="24" height="24" viewBox="0 0 24 24" fill="none" xmlns="http://www.w3.org/2000/svg">
<path d="M11.9916 6.16668V2.83334L7.82498 7.00001L11.9916 11.1667V7.83334C14.75 7.83334 16.9916 10.075 16.9916 12.8333C16.9916 15.5917 14.75 17.8333 11.9916 17.8333C9.23331 17.8333 6.99165 15.5917 6.99165 12.8333H5.32498C5.32498 16.5167 8.30831 19.5 11.9916 19.5C15.675 19.5 18.6583 16.5167 18.6583 12.8333C18.6583 9.15001 15.675 6.16668 11.9916 6.16668Z" fill="#191E23"/>
<path d="M11.075 15.3333H10.3667V12.6166L9.52499 12.875V12.3L11 11.775H11.075V15.3333Z" fill="#191E23"/>
<path d="M14.6417 13.8666C14.6417 14.1333 14.6167 14.3666 14.5583 14.55C14.5 14.7333 14.4167 14.9 14.3167 15.025C14.2167 15.15 14.0833 15.2416 13.9417 15.3C13.8 15.3583 13.6333 15.3833 13.45 15.3833C13.2667 15.3833 13.1083 15.3583 12.9583 15.3C12.8083 15.2416 12.6833 15.15 12.575 15.025C12.4667 14.9 12.3833 14.7416 12.325 14.55C12.2667 14.3583 12.2333 14.1333 12.2333 13.8666V13.25C12.2333 12.9833 12.2583 12.75 12.3167 12.5666C12.375 12.3833 12.4583 12.2166 12.5583 12.0916C12.6583 11.9666 12.7917 11.875 12.9333 11.8166C13.075 11.7583 13.2417 11.7333 13.425 11.7333C13.6083 11.7333 13.7667 11.7583 13.9167 11.8166C14.0667 11.875 14.1917 11.9666 14.3 12.0916C14.4083 12.2166 14.4917 12.375 14.55 12.5666C14.6083 12.7583 14.6417 12.9833 14.6417 13.25V13.8666ZM13.9333 13.15C13.9333 12.9916 13.925 12.8583 13.9 12.75C13.875 12.6416 13.8417 12.5583 13.8 12.4916C13.7583 12.425 13.7083 12.375 13.6417 12.35C13.575 12.325 13.5083 12.3083 13.4333 12.3083C13.3583 12.3083 13.2833 12.325 13.225 12.35C13.1667 12.375 13.1083 12.425 13.0667 12.4916C13.025 12.5583 12.9917 12.6416 12.9667 12.75C12.9417 12.8583 12.9333 12.9916 12.9333 13.15V13.9583C12.9333 14.1166 12.9417 14.25 12.9667 14.3583C12.9917 14.4666 13.025 14.5583 13.0667 14.625C13.1083 14.6916 13.1583 14.7416 13.225 14.7666C13.2917 14.7916 13.3583 14.8083 13.4333 14.8083C13.5083 14.8083 13.5833 14.7916 13.6417 14.7666C13.7 14.7416 13.7583 14.6916 13.8 14.625C13.8417 14.5583 13.875 14.4666 13.8917 14.3583C13.9083 14.25 13.925 14.1166 13.925 13.9583V13.15H13.9333Z" fill="#191E23"/>
<path d="M15.281 20.8981L14.0613 20.7965L14.8632 21.7236C15.1063 22.0047 15.4631 22.1519 15.7985 22.233C16.1448 22.3167 16.537 22.3463 16.9258 22.3421C17.7013 22.3339 18.5447 22.1903 19.1409 21.9916C19.7414 21.7914 20.5335 21.3841 21.1842 20.7608C21.8396 20.1329 22.3793 19.2562 22.3793 18.1379C22.3793 15.9788 20.7118 14.5 18.9828 14.5C17.3327 14.5 15.7901 15.5557 15.5893 17.3585C15.4935 18.2184 15.6713 18.7872 15.8608 19.2628C15.888 19.3311 15.9142 19.3952 15.9392 19.4562C16.0868 19.8173 16.1897 20.0687 16.1897 20.431C16.1897 20.5791 16.1453 20.6495 16.1027 20.6939C16.0485 20.7503 15.9575 20.8026 15.8255 20.8411C15.6962 20.8788 15.5584 20.8942 15.4469 20.8989C15.3926 20.9011 15.3481 20.9007 15.3185 20.8998C15.3038 20.8994 15.293 20.8989 15.2868 20.8985L15.2812 20.8981L15.2811 20.8981C15.2807 20.8981 15.2807 20.8981 15.281 20.8981Z" fill="#9EA5A7" stroke="white"/>
<path d="M19.1638 17.6853C19.1638 17.9353 18.9611 18.1379 18.7112 18.1379C18.4612 18.1379 18.2586 17.9353 18.2586 17.6853C18.2586 17.4354 18.4612 17.2328 18.7112 17.2328C18.9611 17.2328 19.1638 17.4354 19.1638 17.6853Z" fill="white"/>
<path d="M20.8233 17.5345C20.8233 17.8678 20.5531 18.1379 20.2198 18.1379C19.8866 18.1379 19.6164 17.8678 19.6164 17.5345C19.6164 17.2012 19.8866 16.931 20.2198 16.931C20.5531 16.931 20.8233 17.2012 20.8233 17.5345Z" fill="white"/>
</svg>
