<svg width="20" height="20" viewBox="0 0 20 20" fill="none" xmlns="http://www.w3.org/2000/svg">
<g id="countdown">
<rect width="20" height="20" fill="black" fill-opacity="0"/>
<g id="Outline">
<rect width="18" height="15" fill="black" fill-opacity="0" transform="translate(1 2)"/>
<g id="Group">
<rect width="18" height="15" fill="black" fill-opacity="0" transform="translate(1 2)"/>
<path id="Vector" d="M11.2857 2C7.02571 2 3.57143 5.35833 3.57143 9.5H1L4.33429 12.7417L4.39429 12.8583L7.85714 9.5H5.28571C5.28571 6.275 7.96857 3.66667 11.2857 3.66667C14.6029 3.66667 17.2857 6.275 17.2857 9.5C17.2857 12.725 14.6029 15.3333 11.2857 15.3333C9.63143 15.3333 8.13143 14.675 7.05143 13.6167L5.83429 14.8C7.23143 16.1583 9.15143 17 11.2857 17C15.5457 17 19 13.6417 19 9.5C19 5.35833 15.5457 2 11.2857 2Z" fill="#191E23"/>
<path id="Vector_2" d="M10.4286 6.16666V10.3333L14.0714 12.4333L14.7314 11.3667L11.7143 9.62499V6.16666H10.4286Z" fill="#191E23"/>
</g>
</g>
<g id="Logo" clip-path="url(#clip0)">
<rect width="8" height="8" fill="black" fill-opacity="0" transform="translate(12 12)"/>
<path id="Vector_3" d="M13.1 20V21.2039L13.9529 20.3542L14.6667 19.6431L15.3804 20.3542L15.7333 20.7058L16.0862 20.3542L16.8 19.6431L17.5138 20.3542L17.8667 20.7058L18.2196 20.3542L18.9333 19.6431L19.6471 20.3542L20.5 21.2039V20V16.16C20.5 15.3405 19.9746 14.571 19.3124 14.033C18.6382 13.4853 17.7294 13.0972 16.7985 13.1C15.8836 13.1029 14.9769 13.4806 14.2994 14.0226C13.6328 14.5559 13.1 15.3235 13.1 16.16V20Z" fill="#9EA5A7" stroke="white"/>
<path id="Ellipse" d="M17.4 16.6C17.4 16.9314 17.1314 17.2 16.8 17.2C16.4686 17.2 16.2 16.9314 16.2 16.6C16.2 16.2686 16.4686 16 16.8 16C17.1314 16 17.4 16.2686 17.4 16.6Z" fill="white"/>
<path id="Ellipse_2" d="M19.6 16.4C19.6 16.8418 19.2418 17.2 18.8 17.2C18.3582 17.2 18 16.8418 18 16.4C18 15.9582 18.3582 15.6 18.8 15.6C19.2418 15.6 19.6 15.9582 19.6 16.4Z" fill="white"/>
</g>
</g>
<defs>
<clipPath id="clip0">
<rect width="8" height="8" fill="white" transform="translate(12 12)"/>
</clipPath>
</defs>
</svg>
