<svg width="24" height="24" viewBox="0 0 24 24" fill="none" xmlns="http://www.w3.org/2000/svg">
<g id="countdown">
<g id="Outline">
<g id="Group">
<path id="Vector" d="M13.2857 4C9.02571 4 5.57143 7.35833 5.57143 11.5H3L6.33429 14.7417L6.39429 14.8583L9.85714 11.5H7.28571C7.28571 8.275 9.96857 5.66667 13.2857 5.66667C16.6029 5.66667 19.2857 8.275 19.2857 11.5C19.2857 14.725 16.6029 17.3333 13.2857 17.3333C11.6314 17.3333 10.1314 16.675 9.05143 15.6167L7.83429 16.8C9.23143 18.1583 11.1514 19 13.2857 19C17.5457 19 21 15.6417 21 11.5C21 7.35833 17.5457 4 13.2857 4Z" fill="#191E23"/>
<path id="Vector_2" d="M12.4286 8.16666V12.3333L16.0714 14.4333L16.7314 13.3667L13.7143 11.625V8.16666H12.4286Z" fill="#191E23"/>
</g>
</g>
<g id="Logo" clip-path="url(#clip0)">
<path id="Vector_3" d="M15.1 22V23.2039L15.9529 22.3542L16.6667 21.6431L17.3804 22.3542L17.7333 22.7058L18.0862 22.3542L18.8 21.6431L19.5138 22.3542L19.8667 22.7058L20.2196 22.3542L20.9333 21.6431L21.6471 22.3542L22.5 23.2039V22V18.16C22.5 17.3405 21.9746 16.571 21.3124 16.033C20.6382 15.4853 19.7294 15.0972 18.7985 15.1C17.8836 15.1029 16.9769 15.4806 16.2994 16.0226C15.6328 16.5559 15.1 17.3235 15.1 18.16V22Z" fill="#9EA5A7" stroke="white"/>
<path id="Ellipse" d="M19.4 18.6C19.4 18.9314 19.1314 19.2 18.8 19.2C18.4686 19.2 18.2 18.9314 18.2 18.6C18.2 18.2686 18.4686 18 18.8 18C19.1314 18 19.4 18.2686 19.4 18.6Z" fill="white"/>
<path id="Ellipse_2" d="M21.6 18.4C21.6 18.8418 21.2418 19.2 20.8 19.2C20.3582 19.2 20 18.8418 20 18.4C20 17.9582 20.3582 17.6 20.8 17.6C21.2418 17.6 21.6 17.9582 21.6 18.4Z" fill="white"/>
</g>
</g>
<defs>
<clipPath id="clip0">
<rect width="8" height="8" fill="white" transform="translate(14 14)"/>
</clipPath>
</defs>
</svg>
