<svg width="20" height="20" viewBox="0 0 20 20" fill="none" xmlns="http://www.w3.org/2000/svg">
<g id="counter-box">
<rect width="20" height="20" fill="black" fill-opacity="0"/>
<g id="outline-replay_10-24px">
<rect width="20" height="20" fill="black" fill-opacity="0"/>
<g id="Outline">
<rect width="13.3333" height="16.6667" fill="black" fill-opacity="0" transform="translate(3.32498 0.833344)"/>
<g id="Group">
<rect width="13.3333" height="16.6667" fill="black" fill-opacity="0" transform="translate(3.32498 0.833344)"/>
<path id="Vector" d="M9.99165 4.16668V0.833344L5.82498 5.00001L9.99165 9.16668V5.83334C12.75 5.83334 14.9916 8.07501 14.9916 10.8333C14.9916 13.5917 12.75 15.8333 9.99165 15.8333C7.23331 15.8333 4.99165 13.5917 4.99165 10.8333H3.32498C3.32498 14.5167 6.30831 17.5 9.99165 17.5C13.675 17.5 16.6583 14.5167 16.6583 10.8333C16.6583 7.15001 13.675 4.16668 9.99165 4.16668Z" fill="#191E23"/>
<g id="Group_2">
<rect width="5.11667" height="3.65" fill="black" fill-opacity="0" transform="translate(7.52499 9.73334)"/>
<path id="Vector_2" d="M9.07499 13.3333H8.36666V10.6167L7.52499 10.875V10.3L8.99999 9.77499H9.07499V13.3333Z" fill="#191E23"/>
<path id="Vector_3" d="M12.6417 11.8667C12.6417 12.1333 12.6167 12.3667 12.5583 12.55C12.5 12.7333 12.4167 12.9 12.3167 13.025C12.2167 13.15 12.0833 13.2417 11.9417 13.3C11.8 13.3583 11.6333 13.3833 11.45 13.3833C11.2667 13.3833 11.1083 13.3583 10.9583 13.3C10.8083 13.2417 10.6833 13.15 10.575 13.025C10.4667 12.9 10.3833 12.7417 10.325 12.55C10.2667 12.3583 10.2333 12.1333 10.2333 11.8667V11.25C10.2333 10.9833 10.2583 10.75 10.3167 10.5667C10.375 10.3833 10.4583 10.2167 10.5583 10.0917C10.6583 9.96667 10.7917 9.875 10.9333 9.81667C11.075 9.75834 11.2417 9.73334 11.425 9.73334C11.6083 9.73334 11.7667 9.75834 11.9167 9.81667C12.0667 9.875 12.1917 9.96667 12.3 10.0917C12.4083 10.2167 12.4917 10.375 12.55 10.5667C12.6083 10.7583 12.6417 10.9833 12.6417 11.25V11.8667ZM11.9333 11.15C11.9333 10.9917 11.925 10.8583 11.9 10.75C11.875 10.6417 11.8417 10.5583 11.8 10.4917C11.7583 10.425 11.7083 10.375 11.6417 10.35C11.575 10.325 11.5083 10.3083 11.4333 10.3083C11.3583 10.3083 11.2833 10.325 11.225 10.35C11.1667 10.375 11.1083 10.425 11.0667 10.4917C11.025 10.5583 10.9917 10.6417 10.9667 10.75C10.9417 10.8583 10.9333 10.9917 10.9333 11.15V11.9583C10.9333 12.1167 10.9417 12.25 10.9667 12.3583C10.9917 12.4667 11.025 12.5583 11.0667 12.625C11.1083 12.6917 11.1583 12.7417 11.225 12.7667C11.2917 12.7917 11.3583 12.8083 11.4333 12.8083C11.5083 12.8083 11.5833 12.7917 11.6417 12.7667C11.7 12.7417 11.7583 12.6917 11.8 12.625C11.8417 12.5583 11.875 12.4667 11.8917 12.3583C11.9083 12.25 11.925 12.1167 11.925 11.9583V11.15H11.9333Z" fill="#191E23"/>
</g>
</g>
</g>
</g>
<g id="Logo" clip-path="url(#clip0)">
<rect width="8" height="8" fill="black" fill-opacity="0" transform="translate(12 12)"/>
<path id="Vector_4" d="M13.1 20V21.2039L13.9529 20.3542L14.6667 19.6431L15.3804 20.3542L15.7333 20.7058L16.0862 20.3542L16.8 19.6431L17.5138 20.3542L17.8667 20.7058L18.2196 20.3542L18.9333 19.6431L19.6471 20.3542L20.5 21.2039V20V16.16C20.5 15.3405 19.9746 14.571 19.3124 14.033C18.6382 13.4853 17.7294 13.0972 16.7985 13.1C15.8836 13.1029 14.9769 13.4806 14.2994 14.0226C13.6328 14.5559 13.1 15.3235 13.1 16.16V20Z" fill="#9EA5A7" stroke="white"/>
<path id="Ellipse" d="M17.4 16.6C17.4 16.9314 17.1314 17.2 16.8 17.2C16.4686 17.2 16.2 16.9314 16.2 16.6C16.2 16.2686 16.4686 16 16.8 16C17.1314 16 17.4 16.2686 17.4 16.6Z" fill="white"/>
<path id="Ellipse_2" d="M19.6 16.4C19.6 16.8418 19.2418 17.2 18.8 17.2C18.3582 17.2 18 16.8418 18 16.4C18 15.9582 18.3582 15.6 18.8 15.6C19.2418 15.6 19.6 15.9582 19.6 16.4Z" fill="white"/>
</g>
</g>
<defs>
<clipPath id="clip0">
<rect width="8" height="8" fill="white" transform="translate(12 12)"/>
</clipPath>
</defs>
</svg>
