<svg width="20" height="20" viewBox="0 0 20 20" version="1.1" xmlns="http://www.w3.org/2000/svg" xmlns:xlink="http://www.w3.org/1999/xlink">
<title>counter-box</title>
<desc>Created using Figma</desc>
<g id="Canvas" transform="translate(394 432)">
<clipPath id="clip-0" clip-rule="evenodd">
<path d="M -394 -432L -374 -432L -374 -412L -394 -412L -394 -432Z" fill="#FFFFFF"/>
</clipPath>
<g id="counter-box" clip-path="url(#clip-0)">
<g id="123">
<use xlink:href="#path0_fill" transform="translate(-392 -428)" fill="#191E23"/>
</g>
<clipPath id="clip-1" clip-rule="evenodd">
<path d="M -384 -422L -374 -422L -374 -412L -384 -412L -384 -422Z" fill="#FFFFFF"/>
</clipPath>
<g id="Logo" clip-path="url(#clip-1)">
<g id="Vector">
<use xlink:href="#path1_fill" transform="translate(-384 -422)" fill="#008DBE"/>
</g>
<g id="Ellipse">
<use xlink:href="#path2_fill" transform="translate(-379.75 -418)" fill="#FFFFFF"/>
</g>
<g id="Ellipse">
<use xlink:href="#path3_fill" transform="translate(-377.5 -418.5)" fill="#FFFFFF"/>
</g>
</g>
</g>
</g>
<defs>
<path id="path0_fill" d="M 4.8042 0.989258L 4.8042 6L 3.72754 6L 3.72754 2.20605C 3.66829 2.25846 3.59766 2.30859 3.51562 2.35645C 3.43587 2.40202 3.35042 2.44417 3.25928 2.48291C 3.16813 2.51937 3.07357 2.55127 2.97559 2.57861C 2.8776 2.60368 2.78076 2.62191 2.68506 2.6333L 2.68506 1.72412C 2.96533 1.64209 3.22965 1.53727 3.47803 1.40967C 3.7264 1.28206 3.95085 1.14193 4.15137 0.989258L 4.8042 0.989258ZM 7.45312 5.10449L 9.53125 5.10449L 9.53125 6L 6.27051 6L 6.27051 5.63086C 6.27051 5.38021 6.31266 5.15576 6.39697 4.95752C 6.48128 4.757 6.58724 4.57812 6.71484 4.4209C 6.84245 4.26139 6.98145 4.12126 7.13184 4.00049C 7.28451 3.87744 7.4292 3.76693 7.56592 3.66895C 7.70947 3.56641 7.8348 3.46842 7.94189 3.375C 8.05127 3.28158 8.14242 3.18929 8.21533 3.09814C 8.29053 3.00472 8.34635 2.9113 8.38281 2.81787C 8.41927 2.72217 8.4375 2.62077 8.4375 2.51367C 8.4375 2.30404 8.37826 2.14567 8.25977 2.03857C 8.14128 1.93148 7.96012 1.87793 7.71631 1.87793C 7.29476 1.87793 6.89144 2.04541 6.50635 2.38037L 6.50635 1.43018C 6.93245 1.15446 7.41325 1.0166 7.94873 1.0166C 8.1971 1.0166 8.41927 1.04964 8.61523 1.11572C 8.81348 1.17952 8.98096 1.27181 9.11768 1.39258C 9.25439 1.51335 9.35807 1.66032 9.42871 1.8335C 9.50163 2.00439 9.53809 2.1958 9.53809 2.40771C 9.53809 2.6333 9.50277 2.83382 9.43213 3.00928C 9.36377 3.18473 9.27148 3.34424 9.15527 3.48779C 9.04134 3.63135 8.90918 3.76351 8.75879 3.88428C 8.6084 4.00277 8.45231 4.11784 8.29053 4.22949C 8.18115 4.30697 8.0752 4.38444 7.97266 4.46191C 7.8724 4.53711 7.78353 4.6123 7.70605 4.6875C 7.62858 4.76042 7.56706 4.83219 7.52148 4.90283C 7.47591 4.97347 7.45312 5.04069 7.45312 5.10449ZM 10.4131 5.83936L 10.4131 4.89941C 10.7412 5.13867 11.124 5.2583 11.5615 5.2583C 11.8372 5.2583 12.0514 5.19906 12.2041 5.08057C 12.359 4.96208 12.4365 4.79688 12.4365 4.58496C 12.4365 4.36621 12.3408 4.19759 12.1494 4.0791C 11.9603 3.96061 11.6994 3.90137 11.3667 3.90137L 10.9121 3.90137L 10.9121 3.07422L 11.3325 3.07422C 11.9705 3.07422 12.2896 2.8623 12.2896 2.43848C 12.2896 2.03971 12.0446 1.84033 11.5547 1.84033C 11.2266 1.84033 10.9076 1.94629 10.5977 2.1582L 10.5977 1.27637C 10.9417 1.10319 11.3428 1.0166 11.8008 1.0166C 12.3021 1.0166 12.6917 1.12939 12.9697 1.35498C 13.25 1.58057 13.3901 1.87337 13.3901 2.2334C 13.3901 2.8737 13.0654 3.27474 12.416 3.43652L 12.416 3.45361C 12.7624 3.49691 13.0358 3.62337 13.2363 3.83301C 13.4368 4.04036 13.5371 4.29557 13.5371 4.59863C 13.5371 5.05664 13.3696 5.41895 13.0347 5.68555C 12.6997 5.95215 12.2371 6.08545 11.647 6.08545C 11.1411 6.08545 10.7298 6.00342 10.4131 5.83936Z"/>
<path id="path1_fill" d="M 0 10L 0 4.00003C 0 2.04655 2.54888 0.00759371 5 3.05176e-05C 7.48789 -0.00764612 10 2.09538 10 4.00003L 10 10L 8.33333 8.33957L 6.66667 10L 5 8.33957L 3.33333 10L 1.66667 8.33957L 0 10Z"/>
<path id="path2_fill" d="M 1.5 0.75C 1.5 1.16421 1.16421 1.5 0.75 1.5C 0.335786 1.5 0 1.16421 0 0.75C 0 0.335786 0.335786 0 0.75 0C 1.16421 0 1.5 0.335786 1.5 0.75Z"/>
<path id="path3_fill" d="M 2 1C 2 1.55228 1.55228 2 1 2C 0.447715 2 0 1.55228 0 1C 0 0.447715 0.447715 0 1 0C 1.55228 0 2 0.447715 2 1Z"/>
</defs>
</svg>
