<svg width="20" height="20" viewBox="0 0 20 20" fill="none" xmlns="http://www.w3.org/2000/svg">
<g id="counter-box">
<path id="123" d="M4.8042 0.989258V6H3.72754V2.20605C3.66829 2.25846 3.59766 2.30859 3.51562 2.35645C3.43587 2.40202 3.35042 2.44417 3.25928 2.48291C3.16813 2.51937 3.07357 2.55127 2.97559 2.57861C2.8776 2.60368 2.78076 2.62191 2.68506 2.6333V1.72412C2.96533 1.64209 3.22965 1.53727 3.47803 1.40967C3.7264 1.28206 3.95085 1.14193 4.15137 0.989258H4.8042ZM7.45312 5.10449H9.53125V6H6.27051V5.63086C6.27051 5.38021 6.31266 5.15576 6.39697 4.95752C6.48128 4.757 6.58724 4.57812 6.71484 4.4209C6.84245 4.26139 6.98145 4.12126 7.13184 4.00049C7.28451 3.87744 7.4292 3.76693 7.56592 3.66895C7.70947 3.56641 7.8348 3.46842 7.94189 3.375C8.05127 3.28158 8.14242 3.18929 8.21533 3.09814C8.29053 3.00472 8.34635 2.9113 8.38281 2.81787C8.41927 2.72217 8.4375 2.62077 8.4375 2.51367C8.4375 2.30404 8.37826 2.14567 8.25977 2.03857C8.14128 1.93148 7.96012 1.87793 7.71631 1.87793C7.29476 1.87793 6.89144 2.04541 6.50635 2.38037V1.43018C6.93245 1.15446 7.41325 1.0166 7.94873 1.0166C8.1971 1.0166 8.41927 1.04964 8.61523 1.11572C8.81348 1.17952 8.98096 1.27181 9.11768 1.39258C9.25439 1.51335 9.35807 1.66032 9.42871 1.8335C9.50163 2.00439 9.53809 2.1958 9.53809 2.40771C9.53809 2.6333 9.50277 2.83382 9.43213 3.00928C9.36377 3.18473 9.27148 3.34424 9.15527 3.48779C9.04134 3.63135 8.90918 3.76351 8.75879 3.88428C8.6084 4.00277 8.45231 4.11784 8.29053 4.22949C8.18115 4.30697 8.0752 4.38444 7.97266 4.46191C7.8724 4.53711 7.78353 4.6123 7.70605 4.6875C7.62858 4.76042 7.56706 4.83219 7.52148 4.90283C7.47591 4.97347 7.45312 5.04069 7.45312 5.10449ZM10.4131 5.83936V4.89941C10.7412 5.13867 11.124 5.2583 11.5615 5.2583C11.8372 5.2583 12.0514 5.19906 12.2041 5.08057C12.359 4.96208 12.4365 4.79688 12.4365 4.58496C12.4365 4.36621 12.3408 4.19759 12.1494 4.0791C11.9603 3.96061 11.6994 3.90137 11.3667 3.90137H10.9121V3.07422H11.3325C11.9705 3.07422 12.2896 2.8623 12.2896 2.43848C12.2896 2.03971 12.0446 1.84033 11.5547 1.84033C11.2266 1.84033 10.9076 1.94629 10.5977 2.1582V1.27637C10.9417 1.10319 11.3428 1.0166 11.8008 1.0166C12.3021 1.0166 12.6917 1.12939 12.9697 1.35498C13.25 1.58057 13.3901 1.87337 13.3901 2.2334C13.3901 2.8737 13.0654 3.27474 12.416 3.43652V3.45361C12.7624 3.49691 13.0358 3.62337 13.2363 3.83301C13.4368 4.04036 13.5371 4.29557 13.5371 4.59863C13.5371 5.05664 13.3696 5.41895 13.0347 5.68555C12.6997 5.95215 12.2371 6.08545 11.647 6.08545C11.1411 6.08545 10.7298 6.00342 10.4131 5.83936Z" transform="translate(2 4)" fill="#191E23"/>
<g id="Logo" clip-path="url(#clip0)">
<path id="Vector" d="M0 8.00002V3.20002C0 1.63724 2.0391 0.00607497 4 2.44141e-05C5.99031 -0.0061169 8 1.67631 8 3.20002V8.00002L6.66667 6.67165L5.33333 8.00002L4 6.67165L2.66667 8.00002L1.33333 6.67165L0 8.00002Z" transform="translate(12 11.9999)" fill="#016C91"/>
<path id="Ellipse" d="M1.2 0.6C1.2 0.931371 0.931371 1.2 0.6 1.2C0.268629 1.2 0 0.931371 0 0.6C0 0.268629 0.268629 0 0.6 0C0.931371 0 1.2 0.268629 1.2 0.6Z" transform="translate(15.4 15.2)" fill="white"/>
<path id="Ellipse_2" d="M1.6 0.8C1.6 1.24183 1.24183 1.6 0.8 1.6C0.358172 1.6 0 1.24183 0 0.8C0 0.358172 0.358172 0 0.8 0C1.24183 0 1.6 0.358172 1.6 0.8Z" transform="translate(17.2 14.8)" fill="white"/>
</g>
</g>
<defs>
<clipPath id="clip0">
<rect width="8" height="8" fill="white" transform="translate(12 12)"/>
</clipPath>
</defs>
</svg>
