<svg width="24" height="25" viewBox="0 0 24 25" fill="none" xmlns="http://www.w3.org/2000/svg">
<g id="counter-box">
<g id="outline-replay_10-24px">
<g id="Outline">
<g id="Group">
<path id="Vector" d="M11.9916 6.16668V2.83334L7.82498 7.00001L11.9916 11.1667V7.83334C14.75 7.83334 16.9916 10.075 16.9916 12.8333C16.9916 15.5917 14.75 17.8333 11.9916 17.8333C9.23331 17.8333 6.99165 15.5917 6.99165 12.8333H5.32498C5.32498 16.5167 8.30831 19.5 11.9916 19.5C15.675 19.5 18.6583 16.5167 18.6583 12.8333C18.6583 9.15001 15.675 6.16668 11.9916 6.16668Z" fill="#191E23"/>
<g id="Group_2">
<path id="Vector_2" d="M11.075 15.3333H10.3667V12.6166L9.52499 12.875V12.3L11 11.775H11.075V15.3333Z" fill="#191E23"/>
<path id="Vector_3" d="M14.6417 13.8666C14.6417 14.1333 14.6167 14.3666 14.5583 14.55C14.5 14.7333 14.4167 14.9 14.3167 15.025C14.2167 15.15 14.0833 15.2416 13.9417 15.3C13.8 15.3583 13.6333 15.3833 13.45 15.3833C13.2667 15.3833 13.1083 15.3583 12.9583 15.3C12.8083 15.2416 12.6833 15.15 12.575 15.025C12.4667 14.9 12.3833 14.7416 12.325 14.55C12.2667 14.3583 12.2333 14.1333 12.2333 13.8666V13.25C12.2333 12.9833 12.2583 12.75 12.3167 12.5666C12.375 12.3833 12.4583 12.2166 12.5583 12.0916C12.6583 11.9666 12.7917 11.875 12.9333 11.8166C13.075 11.7583 13.2417 11.7333 13.425 11.7333C13.6083 11.7333 13.7667 11.7583 13.9167 11.8166C14.0667 11.875 14.1917 11.9666 14.3 12.0916C14.4083 12.2166 14.4917 12.375 14.55 12.5666C14.6083 12.7583 14.6417 12.9833 14.6417 13.25V13.8666ZM13.9333 13.15C13.9333 12.9916 13.925 12.8583 13.9 12.75C13.875 12.6416 13.8417 12.5583 13.8 12.4916C13.7583 12.425 13.7083 12.375 13.6417 12.35C13.575 12.325 13.5083 12.3083 13.4333 12.3083C13.3583 12.3083 13.2833 12.325 13.225 12.35C13.1667 12.375 13.1083 12.425 13.0667 12.4916C13.025 12.5583 12.9917 12.6416 12.9667 12.75C12.9417 12.8583 12.9333 12.9916 12.9333 13.15V13.9583C12.9333 14.1166 12.9417 14.25 12.9667 14.3583C12.9917 14.4666 13.025 14.5583 13.0667 14.625C13.1083 14.6916 13.1583 14.7416 13.225 14.7666C13.2917 14.7916 13.3583 14.8083 13.4333 14.8083C13.5083 14.8083 13.5833 14.7916 13.6417 14.7666C13.7 14.7416 13.7583 14.6916 13.8 14.625C13.8417 14.5583 13.875 14.4666 13.8917 14.3583C13.9083 14.25 13.925 14.1166 13.925 13.9583V13.15H13.9333Z" fill="#191E23"/>
</g>
</g>
</g>
</g>
<g id="ghostkit">
<path id="Vector_4" d="M14.5 22V23.2039L15.3529 22.3542L16.1667 21.5435L16.9804 22.3542L17.3333 22.7058L17.6862 22.3542L18.5 21.5435L19.3138 22.3542L19.6667 22.7058L20.0196 22.3542L20.8333 21.5435L21.6471 22.3542L22.5 23.2039V22V17.8C22.5 16.9234 21.9369 16.0937 21.2183 15.51C20.4879 14.9165 19.504 14.4969 18.4985 14.5C17.5101 14.5031 16.5283 14.9115 15.7942 15.4988C15.071 16.0774 14.5 16.9049 14.5 17.8V22Z" fill="#9EA5A7" stroke="white"/>
<path id="Ellipse" d="M19.1562 18.2812C19.1562 18.6437 18.8624 18.9375 18.5 18.9375C18.1376 18.9375 17.8438 18.6437 17.8438 18.2812C17.8438 17.9188 18.1376 17.625 18.5 17.625C18.8624 17.625 19.1562 17.9188 19.1562 18.2812Z" fill="white"/>
<path id="Ellipse_2" d="M21.5625 18.0625C21.5625 18.5457 21.1707 18.9375 20.6875 18.9375C20.2043 18.9375 19.8125 18.5457 19.8125 18.0625C19.8125 17.5793 20.2043 17.1875 20.6875 17.1875C21.1707 17.1875 21.5625 17.5793 21.5625 18.0625Z" fill="white"/>
</g>
</g>
</svg>
