<svg width="20" height="20" viewBox="0 0 20 20" fill="none" xmlns="http://www.w3.org/2000/svg">
<g id="custom-css">
<rect width="20" height="20" fill="black" fill-opacity="0"/>
<g id="outline-color_lens-24px">
<rect width="20" height="20" fill="black" fill-opacity="0"/>
<g id="Outline 1">
<rect width="16.6667" height="16.6667" fill="black" fill-opacity="0" transform="translate(1.66666 1.66666)"/>
<g id="Group">
<rect width="16.6667" height="16.6667" fill="black" fill-opacity="0" transform="translate(1.66666 1.66666)"/>
<path id="Vector" d="M9.99999 18.3333C5.40832 18.3333 1.66666 14.5917 1.66666 9.99999C1.66666 5.40832 5.40832 1.66666 9.99999 1.66666C14.5917 1.66666 18.3333 5.03332 18.3333 9.16666C18.3333 11.925 16.0917 14.1667 13.3333 14.1667H11.8583C11.625 14.1667 11.4417 14.35 11.4417 14.5833C11.4417 14.6833 11.4833 14.775 11.55 14.8583C11.8917 15.25 12.0833 15.7417 12.0833 16.25C12.0833 17.4 11.15 18.3333 9.99999 18.3333ZM9.99999 3.33332C6.32499 3.33332 3.33332 6.32499 3.33332 9.99999C3.33332 13.675 6.32499 16.6667 9.99999 16.6667C10.2333 16.6667 10.4167 16.4833 10.4167 16.25C10.4167 16.1167 10.35 16.0167 10.3 15.9583C9.95832 15.575 9.77499 15.0833 9.77499 14.5833C9.77499 13.4333 10.7083 12.5 11.8583 12.5H13.3333C15.175 12.5 16.6667 11.0083 16.6667 9.16666C16.6667 5.94999 13.675 3.33332 9.99999 3.33332Z" fill="#191E23"/>
<path id="Vector_2" d="M5.41663 10.8333C6.10698 10.8333 6.66663 10.2737 6.66663 9.58334C6.66663 8.89299 6.10698 8.33334 5.41663 8.33334C4.72627 8.33334 4.16663 8.89299 4.16663 9.58334C4.16663 10.2737 4.72627 10.8333 5.41663 10.8333Z" fill="#191E23"/>
<path id="Vector_3" d="M7.91663 7.5C8.60698 7.5 9.16663 6.94036 9.16663 6.25C9.16663 5.55964 8.60698 5 7.91663 5C7.22627 5 6.66663 5.55964 6.66663 6.25C6.66663 6.94036 7.22627 7.5 7.91663 7.5Z" fill="#191E23"/>
<path id="Vector_4" d="M12.0833 7.5C12.7737 7.5 13.3333 6.94036 13.3333 6.25C13.3333 5.55964 12.7737 5 12.0833 5C11.393 5 10.8333 5.55964 10.8333 6.25C10.8333 6.94036 11.393 7.5 12.0833 7.5Z" fill="#191E23"/>
<path id="Vector_5" d="M14.5833 10.8333C15.2737 10.8333 15.8333 10.2737 15.8333 9.58334C15.8333 8.89299 15.2737 8.33334 14.5833 8.33334C13.893 8.33334 13.3333 8.89299 13.3333 9.58334C13.3333 10.2737 13.893 10.8333 14.5833 10.8333Z" fill="#191E23"/>
</g>
</g>
</g>
<g id="Logo" clip-path="url(#clip0)">
<rect width="8" height="8" fill="black" fill-opacity="0" transform="translate(12 12)"/>
<path id="Vector_6" d="M13.1 20V21.2039L13.9529 20.3542L14.6667 19.6431L15.3804 20.3542L15.7333 20.7058L16.0862 20.3542L16.8 19.6431L17.5138 20.3542L17.8667 20.7058L18.2196 20.3542L18.9333 19.6431L19.6471 20.3542L20.5 21.2039V20V16.16C20.5 15.3405 19.9746 14.571 19.3124 14.033C18.6382 13.4853 17.7294 13.0972 16.7985 13.1C15.8836 13.1029 14.9769 13.4806 14.2994 14.0226C13.6328 14.5559 13.1 15.3235 13.1 16.16V20Z" fill="#9EA5A7" stroke="white"/>
<path id="Ellipse" d="M17.4 16.6C17.4 16.9314 17.1314 17.2 16.8 17.2C16.4686 17.2 16.2 16.9314 16.2 16.6C16.2 16.2686 16.4686 16 16.8 16C17.1314 16 17.4 16.2686 17.4 16.6Z" fill="white"/>
<path id="Ellipse_2" d="M19.6 16.4C19.6 16.8418 19.2418 17.2 18.8 17.2C18.3582 17.2 18 16.8418 18 16.4C18 15.9582 18.3582 15.6 18.8 15.6C19.2418 15.6 19.6 15.9582 19.6 16.4Z" fill="white"/>
</g>
</g>
<defs>
<clipPath id="clip0">
<rect width="8" height="8" fill="white" transform="translate(12 12)"/>
</clipPath>
</defs>
</svg>
