<svg width="20" height="20" viewBox="0 0 20 20" fill="none" xmlns="http://www.w3.org/2000/svg">
<g id="customizer">
<g id="Group">
<path id="Vector" d="M13.5625 9.42857H4.375V9C4.375 8.76429 4.17813 8.57143 3.9375 8.57143H3.0625C2.82187 8.57143 2.625 8.76429 2.625 9V9.42857H0.4375C0.196875 9.42857 0 9.62143 0 9.85714V10.7143C0 10.95 0.196875 11.1429 0.4375 11.1429H2.625V11.5714C2.625 11.8071 2.82187 12 3.0625 12H3.9375C4.17813 12 4.375 11.8071 4.375 11.5714V11.1429H13.5625C13.8031 11.1429 14 10.95 14 10.7143V9.85714C14 9.62143 13.8031 9.42857 13.5625 9.42857ZM13.5625 5.14286H11.375V4.71429C11.375 4.47857 11.1781 4.28571 10.9375 4.28571H10.0625C9.82187 4.28571 9.625 4.47857 9.625 4.71429V5.14286H0.4375C0.196875 5.14286 0 5.33571 0 5.57143V6.42857C0 6.66429 0.196875 6.85714 0.4375 6.85714H9.625V7.28571C9.625 7.52143 9.82187 7.71429 10.0625 7.71429H10.9375C11.1781 7.71429 11.375 7.52143 11.375 7.28571V6.85714H13.5625C13.8031 6.85714 14 6.66429 14 6.42857V5.57143C14 5.33571 13.8031 5.14286 13.5625 5.14286ZM13.5625 0.857143H7.875V0.428571C7.875 0.192857 7.67813 0 7.4375 0H6.5625C6.32187 0 6.125 0.192857 6.125 0.428571V0.857143H0.4375C0.196875 0.857143 0 1.05 0 1.28571V2.14286C0 2.37857 0.196875 2.57143 0.4375 2.57143H6.125V3C6.125 3.23571 6.32187 3.42857 6.5625 3.42857H7.4375C7.67813 3.42857 7.875 3.23571 7.875 3V2.57143H13.5625C13.8031 2.57143 14 2.37857 14 2.14286V1.28571C14 1.05 13.8031 0.857143 13.5625 0.857143Z" transform="translate(3 3)" fill="black"/>
</g>
<g id="Logo" clip-path="url(#clip0)">
<path id="Vector_2" d="M0 10V4.00003C0 2.04655 2.54888 0.00759371 5 3.05176e-05C7.48789 -0.00764612 10 2.09538 10 4.00003V10L8.33333 8.33957L6.66667 10L5 8.33957L3.33333 10L1.66667 8.33957L0 10Z" transform="translate(10 9.99994)" fill="#008DBE"/>
<path id="Ellipse" d="M1.5 0.75C1.5 1.16421 1.16421 1.5 0.75 1.5C0.335786 1.5 0 1.16421 0 0.75C0 0.335786 0.335786 0 0.75 0C1.16421 0 1.5 0.335786 1.5 0.75Z" transform="translate(14.25 14)" fill="white"/>
<path id="Ellipse_2" d="M2 1C2 1.55228 1.55228 2 1 2C0.447715 2 0 1.55228 0 1C0 0.447715 0.447715 0 1 0C1.55228 0 2 0.447715 2 1Z" transform="translate(16.5 13.5)" fill="white"/>
</g>
</g>
<defs>
<clipPath id="clip0">
<rect width="10" height="10" fill="white" transform="translate(10 10)"/>
</clipPath>
</defs>
</svg>
