<svg width="20" height="20" viewBox="0 0 20 20" fill="none" xmlns="http://www.w3.org/2000/svg">
<g id="customizer">
<g id="Group">
<path id="Vector" d="M13.5625 9.42857H4.375V9C4.375 8.76429 4.17812 8.57143 3.9375 8.57143H3.0625C2.82188 8.57143 2.625 8.76429 2.625 9V9.42857H0.4375C0.196875 9.42857 0 9.62143 0 9.85714V10.7143C0 10.95 0.196875 11.1429 0.4375 11.1429H2.625V11.5714C2.625 11.8071 2.82188 12 3.0625 12H3.9375C4.17812 12 4.375 11.8071 4.375 11.5714V11.1429H13.5625C13.8031 11.1429 14 10.95 14 10.7143V9.85714C14 9.62143 13.8031 9.42857 13.5625 9.42857ZM13.5625 5.14286H11.375V4.71429C11.375 4.47857 11.1781 4.28571 10.9375 4.28571H10.0625C9.82187 4.28571 9.625 4.47857 9.625 4.71429V5.14286H0.4375C0.196875 5.14286 0 5.33571 0 5.57143V6.42857C0 6.66429 0.196875 6.85714 0.4375 6.85714H9.625V7.28571C9.625 7.52143 9.82187 7.71429 10.0625 7.71429H10.9375C11.1781 7.71429 11.375 7.52143 11.375 7.28571V6.85714H13.5625C13.8031 6.85714 14 6.66429 14 6.42857V5.57143C14 5.33571 13.8031 5.14286 13.5625 5.14286ZM13.5625 0.857143H7.875V0.428571C7.875 0.192857 7.67812 0 7.4375 0H6.5625C6.32188 0 6.125 0.192857 6.125 0.428571V0.857143H0.4375C0.196875 0.857143 0 1.05 0 1.28571V2.14286C0 2.37857 0.196875 2.57143 0.4375 2.57143H6.125V3C6.125 3.23571 6.32188 3.42857 6.5625 3.42857H7.4375C7.67812 3.42857 7.875 3.23571 7.875 3V2.57143H13.5625C13.8031 2.57143 14 2.37857 14 2.14286V1.28571C14 1.05 13.8031 0.857143 13.5625 0.857143Z" transform="translate(3 3)" fill="black"/>
</g>
<g id="Logo" clip-path="url(#clip0)">
<path id="Vector_2" d="M0 8.00002V3.20002C0 1.63724 2.0391 0.00607497 4 2.44141e-05C5.99031 -0.0061169 8 1.67631 8 3.20002V8.00002L6.66667 6.67165L5.33333 8.00002L4 6.67165L2.66667 8.00002L1.33333 6.67165L0 8.00002Z" transform="translate(12 11.9999)" fill="#016C91"/>
<path id="Ellipse" d="M1.2 0.6C1.2 0.931371 0.931371 1.2 0.6 1.2C0.268629 1.2 0 0.931371 0 0.6C0 0.268629 0.268629 0 0.6 0C0.931371 0 1.2 0.268629 1.2 0.6Z" transform="translate(15.4 15.2)" fill="white"/>
<path id="Ellipse_2" d="M1.6 0.8C1.6 1.24183 1.24183 1.6 0.8 1.6C0.358172 1.6 0 1.24183 0 0.8C0 0.358172 0.358172 0 0.8 0C1.24183 0 1.6 0.358172 1.6 0.8Z" transform="translate(17.2 14.8)" fill="white"/>
</g>
</g>
<defs>
<clipPath id="clip0">
<rect width="8" height="8" fill="white" transform="translate(12 12)"/>
</clipPath>
</defs>
</svg>
