<svg width="24" height="24" viewBox="0 0 24 24" fill="none" xmlns="http://www.w3.org/2000/svg">
<g id="customizer">
<g id="outline-tune-24px">
<g id="Outline">
<path id="Vector" d="M4.5 16.1667V17.8333H9.5V16.1667H4.5ZM4.5 6.16667V7.83333H12.8333V6.16667H4.5ZM12.8333 19.5V17.8333H19.5V16.1667H12.8333V14.5H11.1667V19.5H12.8333ZM7.83333 9.5V11.1667H4.5V12.8333H7.83333V14.5H9.5V9.5H7.83333ZM19.5 12.8333V11.1667H11.1667V12.8333H19.5ZM14.5 9.5H16.1667V7.83333H19.5V6.16667H16.1667V4.5H14.5V9.5Z" fill="#191E23"/>
</g>
</g>
<g id="Logo" clip-path="url(#clip0)">
<path id="Vector_2" d="M15.1 22V23.2039L15.9529 22.3542L16.6667 21.6431L17.3804 22.3542L17.7333 22.7058L18.0862 22.3542L18.8 21.6431L19.5138 22.3542L19.8667 22.7058L20.2196 22.3542L20.9333 21.6431L21.6471 22.3542L22.5 23.2039V22V18.16C22.5 17.3405 21.9746 16.571 21.3124 16.033C20.6382 15.4853 19.7294 15.0972 18.7985 15.1C17.8836 15.1029 16.9769 15.4806 16.2994 16.0226C15.6328 16.5559 15.1 17.3235 15.1 18.16V22Z" fill="#9EA5A7" stroke="white"/>
<path id="Ellipse" d="M19.4 18.6C19.4 18.9314 19.1314 19.2 18.8 19.2C18.4686 19.2 18.2 18.9314 18.2 18.6C18.2 18.2686 18.4686 18 18.8 18C19.1314 18 19.4 18.2686 19.4 18.6Z" fill="white"/>
<path id="Ellipse_2" d="M21.6 18.4C21.6 18.8418 21.2418 19.2 20.8 19.2C20.3582 19.2 20 18.8418 20 18.4C20 17.9582 20.3582 17.6 20.8 17.6C21.2418 17.6 21.6 17.9582 21.6 18.4Z" fill="white"/>
</g>
</g>
<defs>
<clipPath id="clip0">
<rect width="8" height="8" fill="white" transform="translate(14 14)"/>
</clipPath>
</defs>
</svg>
