<svg width="24" height="25" viewBox="0 0 24 25" fill="none" xmlns="http://www.w3.org/2000/svg">
<g id="custom-css">
<g id="outline-color_lens-24px">
<g id="Outline 1">
<g id="Group">
<path id="Vector" d="M12 20.3333C7.40832 20.3333 3.66666 16.5917 3.66666 12C3.66666 7.40832 7.40832 3.66666 12 3.66666C16.5917 3.66666 20.3333 7.03332 20.3333 11.1667C20.3333 13.925 18.0917 16.1667 15.3333 16.1667H13.8583C13.625 16.1667 13.4417 16.35 13.4417 16.5833C13.4417 16.6833 13.4833 16.775 13.55 16.8583C13.8917 17.25 14.0833 17.7417 14.0833 18.25C14.0833 19.4 13.15 20.3333 12 20.3333ZM12 5.33332C8.32499 5.33332 5.33332 8.32499 5.33332 12C5.33332 15.675 8.32499 18.6667 12 18.6667C12.2333 18.6667 12.4167 18.4833 12.4167 18.25C12.4167 18.1167 12.35 18.0167 12.3 17.9583C11.9583 17.575 11.775 17.0833 11.775 16.5833C11.775 15.4333 12.7083 14.5 13.8583 14.5H15.3333C17.175 14.5 18.6667 13.0083 18.6667 11.1667C18.6667 7.94999 15.675 5.33332 12 5.33332Z" fill="#191E23"/>
<path id="Vector_2" d="M7.41663 12.8333C8.10698 12.8333 8.66663 12.2737 8.66663 11.5833C8.66663 10.893 8.10698 10.3333 7.41663 10.3333C6.72627 10.3333 6.16663 10.893 6.16663 11.5833C6.16663 12.2737 6.72627 12.8333 7.41663 12.8333Z" fill="#191E23"/>
<path id="Vector_3" d="M9.91663 9.5C10.607 9.5 11.1666 8.94036 11.1666 8.25C11.1666 7.55964 10.607 7 9.91663 7C9.22627 7 8.66663 7.55964 8.66663 8.25C8.66663 8.94036 9.22627 9.5 9.91663 9.5Z" fill="#191E23"/>
<path id="Vector_4" d="M14.0833 9.5C14.7737 9.5 15.3333 8.94036 15.3333 8.25C15.3333 7.55964 14.7737 7 14.0833 7C13.393 7 12.8333 7.55964 12.8333 8.25C12.8333 8.94036 13.393 9.5 14.0833 9.5Z" fill="#191E23"/>
<path id="Vector_5" d="M16.5833 12.8333C17.2737 12.8333 17.8333 12.2737 17.8333 11.5833C17.8333 10.893 17.2737 10.3333 16.5833 10.3333C15.893 10.3333 15.3333 10.893 15.3333 11.5833C15.3333 12.2737 15.893 12.8333 16.5833 12.8333Z" fill="#191E23"/>
</g>
</g>
</g>
<g id="ghostkit">
<path id="Vector_6" d="M14.5 22V23.2039L15.3529 22.3542L16.1667 21.5435L16.9804 22.3542L17.3333 22.7058L17.6862 22.3542L18.5 21.5435L19.3138 22.3542L19.6667 22.7058L20.0196 22.3542L20.8333 21.5435L21.6471 22.3542L22.5 23.2039V22V17.8C22.5 16.9234 21.9369 16.0937 21.2183 15.51C20.4879 14.9165 19.504 14.4969 18.4985 14.5C17.5101 14.5031 16.5283 14.9115 15.7942 15.4988C15.071 16.0774 14.5 16.9049 14.5 17.8V22Z" fill="#9EA5A7" stroke="white"/>
<path id="Ellipse" d="M19.1562 18.2812C19.1562 18.6437 18.8624 18.9375 18.5 18.9375C18.1376 18.9375 17.8438 18.6437 17.8438 18.2812C17.8438 17.9188 18.1376 17.625 18.5 17.625C18.8624 17.625 19.1562 17.9188 19.1562 18.2812Z" fill="white"/>
<path id="Ellipse_2" d="M21.5625 18.0625C21.5625 18.5457 21.1707 18.9375 20.6875 18.9375C20.2043 18.9375 19.8125 18.5457 19.8125 18.0625C19.8125 17.5793 20.2043 17.1875 20.6875 17.1875C21.1707 17.1875 21.5625 17.5793 21.5625 18.0625Z" fill="white"/>
</g>
</g>
</svg>
