<svg width="20" height="20" viewBox="0 0 20 20" fill="none" xmlns="http://www.w3.org/2000/svg">
<g id="divider">
<g id="Logo" clip-path="url(#clip0)">
<path id="Vector" d="M0 8.00002V3.20002C0 1.63724 2.0391 0.00607497 4 2.44141e-05C5.99031 -0.0061169 8 1.67631 8 3.20002V8.00002L6.66667 6.67165L5.33333 8.00002L4 6.67165L2.66667 8.00002L1.33333 6.67165L0 8.00002Z" transform="translate(12 11.9999)" fill="#016C91"/>
<path id="Ellipse" d="M1.2 0.6C1.2 0.931371 0.931371 1.2 0.6 1.2C0.268629 1.2 0 0.931371 0 0.6C0 0.268629 0.268629 0 0.6 0C0.931371 0 1.2 0.268629 1.2 0.6Z" transform="translate(15.4 15.2)" fill="white"/>
<path id="Ellipse_2" d="M1.6 0.8C1.6 1.24183 1.24183 1.6 0.8 1.6C0.358172 1.6 0 1.24183 0 0.8C0 0.358172 0.358172 0 0.8 0C1.24183 0 1.6 0.358172 1.6 0.8Z" transform="translate(17.2 14.8)" fill="white"/>
</g>
<g id="Group">
<path id="Vector_2" d="M6 8.57143C5.05313 8.57143 4.28571 9.33884 4.28571 10.2857C4.28571 11.2326 5.05313 12 6 12C6.94688 12 7.71429 11.2326 7.71429 10.2857C7.71429 9.33884 6.94688 8.57143 6 8.57143ZM6 3.42857C6.94688 3.42857 7.71429 2.66116 7.71429 1.71429C7.71429 0.767411 6.94688 0 6 0C5.05313 0 4.28571 0.767411 4.28571 1.71429C4.28571 2.66116 5.05313 3.42857 6 3.42857ZM11.1429 4.71429H0.857143C0.383839 4.71429 0 5.09813 0 5.57143V6.42857C0 6.90188 0.383839 7.28571 0.857143 7.28571H11.1429C11.6162 7.28571 12 6.90188 12 6.42857V5.57143C12 5.09813 11.6162 4.71429 11.1429 4.71429Z" transform="translate(4 4)" fill="black"/>
</g>
</g>
<defs>
<clipPath id="clip0">
<rect width="8" height="8" fill="white" transform="translate(12 12)"/>
</clipPath>
</defs>
</svg>
