<svg width="24" height="24" viewBox="0 0 24 24" fill="none" xmlns="http://www.w3.org/2000/svg">
<path d="M13.4029 20.1687L12.4739 21.0839C12.0805 21.4715 11.4445 21.4715 11.0553 21.0839L2.92044 13.0734C2.52709 12.6858 2.52709 12.0592 2.92044 11.6758L11.0511 3.66523C11.4445 3.27769 12.0805 3.27769 12.4697 3.66523L13.3987 4.58048C13.7962 4.97214 13.7879 5.61117 13.382 5.99459L8.34369 10.7234L20.3703 10.7234C20.9268 10.7234 21.3746 11.1645 21.3746 11.7129L21.3746 13.0322C21.3746 13.5805 20.9268 14.0216 20.3703 14.0216L8.34369 14.0216L13.3861 18.7546C13.7962 19.138 13.8046 19.777 13.4029 20.1687Z" fill="currentColor"/>
</svg>
