<svg width="24" height="24" viewBox="0 0 24 24" fill="none" xmlns="http://www.w3.org/2000/svg">
<path d="M19.7941 10.9717L20.7093 11.9007C21.0969 12.294 21.0969 12.9301 20.7093 13.3193L12.6988 21.4541C12.3113 21.8475 11.6846 21.8475 11.3012 21.4541L3.29065 13.3234C2.90311 12.9301 2.90311 12.294 3.29066 11.9049L4.20591 10.9759C4.59757 10.5783 5.2366 10.5867 5.62002 10.9926L10.3488 16.0309L10.3488 4.00431C10.3488 3.44776 10.79 3.00001 11.3383 3.00001L12.6576 3.00001C13.2059 3.00001 13.647 3.44776 13.647 4.00431L13.647 16.0309L18.38 10.9884C18.7634 10.5783 19.4024 10.57 19.7941 10.9717V10.9717Z" fill="currentColor"/>
</svg>
