<svg width="24" height="24" viewBox="0 0 24 24" fill="none" xmlns="http://www.w3.org/2000/svg">
<path d="M10.5971 4.58048L11.5261 3.66523C11.9195 3.27769 12.5555 3.27769 12.9447 3.66523L21.0796 11.6758C21.4729 12.0633 21.4729 12.69 21.0796 13.0734L12.9489 21.0839C12.5555 21.4715 11.9194 21.4715 11.5303 21.0839L10.6013 20.1687C10.2038 19.777 10.2121 19.138 10.618 18.7546L15.6563 14.0257L3.62974 14.0257C3.07319 14.0257 2.62544 13.5846 2.62544 13.0363L2.62544 11.717C2.62544 11.1687 3.07319 10.7275 3.62974 10.7275L15.6563 10.7275L10.6139 5.99459C10.2038 5.61117 10.1954 4.97214 10.5971 4.58048V4.58048Z" fill="currentColor"/>
</svg>
