<svg width="24" height="24" viewBox="0 0 24 24" fill="none" xmlns="http://www.w3.org/2000/svg">
<path d="M4.20591 13.7775L3.29066 12.8485C2.90311 12.4551 2.90311 11.8191 3.29066 11.4299L11.3012 3.29501C11.6887 2.90166 12.3154 2.90166 12.6988 3.29501L20.7093 11.4257C21.0969 11.8191 21.0969 12.4551 20.7093 12.8443L19.7941 13.7733C19.4024 14.1708 18.7634 14.1624 18.38 13.7565L13.6512 8.71827L13.6512 20.7448C13.6512 21.3014 13.21 21.7491 12.6617 21.7491H11.3424C10.7941 21.7491 10.353 21.3014 10.353 20.7448L10.353 8.71827L5.62002 13.7607C5.2366 14.1708 4.59757 14.1792 4.20591 13.7775V13.7775Z" fill="currentColor"/>
</svg>
