<svg width="24" height="24" viewBox="0 0 24 24" fill="none" xmlns="http://www.w3.org/2000/svg">
<path d="M11 20C11 20.5523 11.4477 21 12 21C12.5523 21 13 20.5523 13 20H11ZM12 4L12.7071 3.29289C12.3166 2.90237 11.6834 2.90237 11.2929 3.29289L12 4ZM3.29289 11.2929C2.90237 11.6834 2.90237 12.3166 3.29289 12.7071C3.68342 13.0976 4.31658 13.0976 4.70711 12.7071L3.29289 11.2929ZM19.2929 12.7071C19.6834 13.0976 20.3166 13.0976 20.7071 12.7071C21.0976 12.3166 21.0976 11.6834 20.7071 11.2929L19.2929 12.7071ZM13 20V4H11V20H13ZM4.70711 12.7071L12.7071 4.70711L11.2929 3.29289L3.29289 11.2929L4.70711 12.7071ZM11.2929 4.70711L19.2929 12.7071L20.7071 11.2929L12.7071 3.29289L11.2929 4.70711Z" fill="currentColor"/>
</svg>
