<svg width="22" height="24" viewBox="0 0 22 24" fill="none" xmlns="http://www.w3.org/2000/svg">
<g id="ghostkit">
<path id="Vector" d="M0.5 21V22.2039L1.35289 21.3542L4.33333 18.3849L7.31377 21.3542L7.66667 21.7058L8.01956 21.3542L11 18.3849L13.9804 21.3542L14.3333 21.7058L14.6862 21.3542L17.6667 18.3849L20.6471 21.3542L21.5 22.2039V21V9.00004C21.5 6.88538 20.1204 4.75322 18.1812 3.17774C16.23 1.59253 13.6211 0.491971 10.9985 0.500063C8.41688 0.508029 5.81011 1.58159 3.84932 3.15018C1.89938 4.71009 0.5 6.8352 0.5 9.00004V21Z" fill="#9EA5A7" stroke="white"/>
<path id="Ellipse" d="M12.875 10.375C12.875 11.4105 12.0355 12.25 11 12.25C9.96447 12.25 9.125 11.4105 9.125 10.375C9.125 9.33947 9.96447 8.5 11 8.5C12.0355 8.5 12.875 9.33947 12.875 10.375Z" fill="white"/>
<path id="Ellipse_2" d="M19.75 9.75C19.75 11.1307 18.6307 12.25 17.25 12.25C15.8693 12.25 14.75 11.1307 14.75 9.75C14.75 8.36929 15.8693 7.25 17.25 7.25C18.6307 7.25 19.75 8.36929 19.75 9.75Z" fill="white"/>
</g>
</svg>
