<svg width="29" height="29" viewBox="0 0 29 29" fill="none" xmlns="http://www.w3.org/2000/svg">
<path d="M28.5 13C28.5001 20.8203 20.9998 25.5 16.4999 27C12 28.5 3.38378 29.2561 1 26.5C1 26.5 7 27 7 22.5C7 18 3.80786 16.2153 4.5 10C5.19214 3.78467 10.5 0 16.4999 0C22.4998 0 28.4999 5.1797 28.5 13Z" fill="url(#paint0_linear)"/>
<path d="M17.25 11.125C17.25 12.1605 16.4105 13 15.375 13C14.3395 13 13.5 12.1605 13.5 11.125C13.5 10.0895 14.3395 9.25 15.375 9.25C16.4105 9.25 17.25 10.0895 17.25 11.125Z" fill="white"/>
<path d="M24.125 10.5C24.125 11.8807 23.0057 13 21.625 13C20.2443 13 19.125 11.8807 19.125 10.5C19.125 9.11929 20.2443 8 21.625 8C23.0057 8 24.125 9.11929 24.125 10.5Z" fill="white"/>
<defs>
<linearGradient id="paint0_linear" x1="6.87759" y1="-8.05069" x2="35.4804" y2="1.47516" gradientUnits="userSpaceOnUse">
<stop stop-color="#C9586C"/>
<stop offset="1" stop-color="#1A354E"/>
</linearGradient>
</defs>
</svg>
