<svg width="32" height="31" viewBox="0 0 32 31" fill="none" xmlns="http://www.w3.org/2000/svg">
<path d="M3.04152 27.0017L3.04123 27.0017L3.04115 27.0017L3.04107 27.0017L1.81993 26.8999L2.62182 27.8271C3.31704 28.6309 4.42141 29.1343 5.67725 29.4378C6.94398 29.744 8.42941 29.8623 9.96172 29.846C13.0241 29.8135 16.355 29.242 18.658 28.4743C20.9654 27.7052 24.0334 26.1259 26.5333 23.7312C29.0379 21.332 31 18.0846 31 14C30.9999 5.90825 24.7806 0.5 18.4999 0.5C12.2982 0.5 6.7289 4.42682 6.00307 10.9447C5.64477 14.1622 6.29669 16.2482 7.02596 18.0783C7.12852 18.3357 7.23143 18.5859 7.33256 18.8317C7.94943 20.3312 8.5 21.6696 8.5 23.5C8.5 24.5015 8.17114 25.1883 7.70181 25.6772C7.22092 26.1781 6.56094 26.5031 5.86 26.7075C5.16169 26.9112 4.4549 26.9858 3.91668 27.0082C3.64908 27.0194 3.42675 27.0175 3.27269 27.0129C3.19573 27.0106 3.13604 27.0077 3.0965 27.0054C3.07674 27.0042 3.06203 27.0032 3.05274 27.0026L3.04292 27.0018L3.04152 27.0017Z" fill="currentColor" stroke="white"/>
<path d="M19.25 12.125C19.25 13.1605 18.4105 14 17.375 14C16.3395 14 15.5 13.1605 15.5 12.125C15.5 11.0895 16.3395 10.25 17.375 10.25C18.4105 10.25 19.25 11.0895 19.25 12.125Z" fill="white"/>
<path d="M26.125 11.5C26.125 12.8807 25.0057 14 23.625 14C22.2443 14 21.125 12.8807 21.125 11.5C21.125 10.1193 22.2443 9 23.625 9C25.0057 9 26.125 10.1193 26.125 11.5Z" fill="white"/>
</svg>
