<svg width="20" height="20" viewBox="0 0 20 20" fill="none" xmlns="http://www.w3.org/2000/svg">
<g id="gif">
<path id="GIF" d="M7.1626 5.67188C6.68408 5.94759 6.08936 6.08545 5.37842 6.08545C4.59001 6.08545 3.96794 5.86784 3.51221 5.43262C3.05876 4.99512 2.83203 4.39355 2.83203 3.62793C2.83203 2.85775 3.0804 2.22998 3.57715 1.74463C4.07389 1.25928 4.7347 1.0166 5.55957 1.0166C6.0791 1.0166 6.53711 1.08838 6.93359 1.23193V2.26758C6.55534 2.04883 6.09277 1.93945 5.5459 1.93945C5.08789 1.93945 4.71419 2.0887 4.4248 2.38721C4.1377 2.68343 3.99414 3.07992 3.99414 3.57666C3.99414 4.08024 4.12288 4.46989 4.38037 4.74561C4.64014 5.02132 4.98991 5.15918 5.42969 5.15918C5.69401 5.15918 5.90365 5.12158 6.05859 5.04639V4.08936H5.07764V3.20752H7.1626V5.67188ZM9.22021 6H8.11621V1.09863H9.22021V6ZM13.1714 1.99756H11.4419V3.20068H13.0312V4.09619H11.4419V6H10.3379V1.09863H13.1714V1.99756Z" transform="translate(2 4)" fill="#191E23"/>
<g id="Logo" clip-path="url(#clip0)">
<path id="Vector" d="M0 8.00002V3.20002C0 1.63724 2.0391 0.00607497 4 2.44141e-05C5.99031 -0.0061169 8 1.67631 8 3.20002V8.00002L6.66667 6.67165L5.33333 8.00002L4 6.67165L2.66667 8.00002L1.33333 6.67165L0 8.00002Z" transform="translate(12 11.9999)" fill="#016C91"/>
<path id="Ellipse" d="M1.2 0.6C1.2 0.931371 0.931371 1.2 0.6 1.2C0.268629 1.2 0 0.931371 0 0.6C0 0.268629 0.268629 0 0.6 0C0.931371 0 1.2 0.268629 1.2 0.6Z" transform="translate(15.4 15.2)" fill="white"/>
<path id="Ellipse_2" d="M1.6 0.8C1.6 1.24183 1.24183 1.6 0.8 1.6C0.358172 1.6 0 1.24183 0 0.8C0 0.358172 0.358172 0 0.8 0C1.24183 0 1.6 0.358172 1.6 0.8Z" transform="translate(17.2 14.8)" fill="white"/>
</g>
</g>
<defs>
<clipPath id="clip0">
<rect width="8" height="8" fill="white" transform="translate(12 12)"/>
</clipPath>
</defs>
</svg>
