<svg width="20" height="20" viewBox="0 0 20 20" version="1.1" xmlns="http://www.w3.org/2000/svg" xmlns:xlink="http://www.w3.org/1999/xlink">
<title>gif</title>
<desc>Created using Figma</desc>
<g id="Canvas" transform="translate(415 388)">
<clipPath id="clip-0" clip-rule="evenodd">
<path d="M -415 -388L -395 -388L -395 -368L -415 -368L -415 -388Z" fill="#FFFFFF"/>
</clipPath>
<g id="gif" clip-path="url(#clip-0)">
<g id="GIF">
<use xlink:href="#path0_fill" transform="translate(-413 -384)" fill="#191E23"/>
</g>
<clipPath id="clip-1" clip-rule="evenodd">
<path d="M -405 -378L -395 -378L -395 -368L -405 -368L -405 -378Z" fill="#FFFFFF"/>
</clipPath>
<g id="Logo" clip-path="url(#clip-1)">
<g id="Vector">
<use xlink:href="#path1_fill" transform="translate(-405 -378)" fill="#008DBE"/>
</g>
<g id="Ellipse">
<use xlink:href="#path2_fill" transform="translate(-400.75 -374)" fill="#FFFFFF"/>
</g>
<g id="Ellipse">
<use xlink:href="#path3_fill" transform="translate(-398.5 -374.5)" fill="#FFFFFF"/>
</g>
</g>
</g>
</g>
<defs>
<path id="path0_fill" d="M 7.1626 5.67188C 6.68408 5.94759 6.08936 6.08545 5.37842 6.08545C 4.59001 6.08545 3.96794 5.86784 3.51221 5.43262C 3.05876 4.99512 2.83203 4.39355 2.83203 3.62793C 2.83203 2.85775 3.0804 2.22998 3.57715 1.74463C 4.07389 1.25928 4.7347 1.0166 5.55957 1.0166C 6.0791 1.0166 6.53711 1.08838 6.93359 1.23193L 6.93359 2.26758C 6.55534 2.04883 6.09277 1.93945 5.5459 1.93945C 5.08789 1.93945 4.71419 2.0887 4.4248 2.38721C 4.1377 2.68343 3.99414 3.07992 3.99414 3.57666C 3.99414 4.08024 4.12288 4.46989 4.38037 4.74561C 4.64014 5.02132 4.98991 5.15918 5.42969 5.15918C 5.69401 5.15918 5.90365 5.12158 6.05859 5.04639L 6.05859 4.08936L 5.07764 4.08936L 5.07764 3.20752L 7.1626 3.20752L 7.1626 5.67188ZM 9.22021 6L 8.11621 6L 8.11621 1.09863L 9.22021 1.09863L 9.22021 6ZM 13.1714 1.99756L 11.4419 1.99756L 11.4419 3.20068L 13.0312 3.20068L 13.0312 4.09619L 11.4419 4.09619L 11.4419 6L 10.3379 6L 10.3379 1.09863L 13.1714 1.09863L 13.1714 1.99756Z"/>
<path id="path1_fill" d="M 0 10L 0 4.00003C 0 2.04655 2.54888 0.00759371 5 3.05176e-05C 7.48789 -0.00764612 10 2.09538 10 4.00003L 10 10L 8.33333 8.33957L 6.66667 10L 5 8.33957L 3.33333 10L 1.66667 8.33957L 0 10Z"/>
<path id="path2_fill" d="M 1.5 0.75C 1.5 1.16421 1.16421 1.5 0.75 1.5C 0.335786 1.5 0 1.16421 0 0.75C 0 0.335786 0.335786 0 0.75 0C 1.16421 0 1.5 0.335786 1.5 0.75Z"/>
<path id="path3_fill" d="M 2 1C 2 1.55228 1.55228 2 1 2C 0.447715 2 0 1.55228 0 1C 0 0.447715 0.447715 0 1 0C 1.55228 0 2 0.447715 2 1Z"/>
</defs>
</svg>
