<svg width="20" height="20" viewBox="0 0 20 20" fill="none" xmlns="http://www.w3.org/2000/svg">
<g id="gist">
<g id="Group">
<path id="Vector" d="M4.01371 9.66238C4.01371 9.71201 3.95806 9.75171 3.8879 9.75171C3.80806 9.75916 3.75242 9.71945 3.75242 9.66238C3.75242 9.61276 3.80806 9.57305 3.87823 9.57305C3.95081 9.56561 4.01371 9.60531 4.01371 9.66238ZM3.26129 9.55072C3.24435 9.60035 3.29274 9.65742 3.36532 9.67231C3.42823 9.69712 3.50081 9.67231 3.51532 9.62268C3.52984 9.57305 3.48387 9.51598 3.41129 9.49365C3.34839 9.47628 3.27823 9.50109 3.26129 9.55072ZM4.33065 9.50854C4.26048 9.52591 4.2121 9.57305 4.21935 9.63013C4.22661 9.67975 4.28952 9.71201 4.3621 9.69464C4.43226 9.67727 4.48064 9.63013 4.47339 9.5805C4.46613 9.53335 4.40081 9.50109 4.33065 9.50854ZM5.92258 0C2.56694 0 0 2.61286 0 6.0545C0 8.80632 1.68871 11.1611 4.10081 11.9899C4.41048 12.047 4.51935 11.8509 4.51935 11.6896C4.51935 11.5358 4.5121 10.6872 4.5121 10.1661C4.5121 10.1661 2.81855 10.5383 2.4629 9.42665C2.4629 9.42665 2.1871 8.70458 1.79032 8.51848C1.79032 8.51848 1.23629 8.12891 1.82903 8.13635C1.82903 8.13635 2.43145 8.18598 2.7629 8.77654C3.29274 9.73434 4.18065 9.45891 4.52661 9.29514C4.58226 8.89813 4.73952 8.6227 4.91371 8.45893C3.56129 8.30508 2.19677 8.10409 2.19677 5.71703C2.19677 5.03466 2.38065 4.69224 2.76774 4.25552C2.70484 4.09423 2.49919 3.42923 2.83065 2.57068C3.33629 2.40939 4.5 3.24065 4.5 3.24065C4.98387 3.10169 5.50403 3.02973 6.01935 3.02973C6.53468 3.02973 7.05484 3.10169 7.53871 3.24065C7.53871 3.24065 8.70242 2.40691 9.20806 2.57068C9.53952 3.43171 9.33387 4.09423 9.27097 4.25552C9.65806 4.69472 9.89516 5.03714 9.89516 5.71703C9.89516 8.11154 8.47016 8.3026 7.11774 8.45893C7.34032 8.65495 7.52903 9.02716 7.52903 9.61027C7.52903 10.4465 7.52177 11.4812 7.52177 11.6847C7.52177 11.846 7.63306 12.042 7.94032 11.9849C10.3597 11.1611 12 8.80632 12 6.0545C12 2.61286 9.27823 0 5.92258 0ZM2.35161 8.55818C2.32016 8.58299 2.32742 8.64007 2.36855 8.68721C2.40726 8.72691 2.4629 8.74428 2.49435 8.71202C2.52581 8.68721 2.51855 8.63014 2.47742 8.58299C2.43871 8.54329 2.38306 8.52592 2.35161 8.55818ZM2.09032 8.35719C2.07339 8.38945 2.09758 8.42915 2.14597 8.45396C2.18468 8.47878 2.23306 8.47133 2.25 8.43659C2.26694 8.40434 2.24274 8.36464 2.19435 8.33982C2.14597 8.32493 2.10726 8.33238 2.09032 8.35719ZM2.87419 9.24055C2.83548 9.27281 2.85 9.34725 2.90565 9.3944C2.96129 9.45147 3.03145 9.45891 3.0629 9.41921C3.09435 9.38695 3.07984 9.31251 3.03145 9.26537C2.97823 9.20829 2.90565 9.20085 2.87419 9.24055ZM2.59839 8.87579C2.55968 8.90061 2.55968 8.96512 2.59839 9.02219C2.6371 9.07926 2.70242 9.10408 2.73387 9.07926C2.77258 9.04701 2.77258 8.98249 2.73387 8.92542C2.7 8.86835 2.6371 8.84354 2.59839 8.87579Z" transform="translate(4 3)" fill="black"/>
</g>
<g id="Logo" clip-path="url(#clip0)">
<path id="Vector_2" d="M0 8.00002V3.20002C0 1.63724 2.0391 0.00607497 4 2.44141e-05C5.99031 -0.0061169 8 1.67631 8 3.20002V8.00002L6.66667 6.67165L5.33333 8.00002L4 6.67165L2.66667 8.00002L1.33333 6.67165L0 8.00002Z" transform="translate(12 11.9999)" fill="#016C91"/>
<path id="Ellipse" d="M1.2 0.6C1.2 0.931371 0.931371 1.2 0.6 1.2C0.268629 1.2 0 0.931371 0 0.6C0 0.268629 0.268629 0 0.6 0C0.931371 0 1.2 0.268629 1.2 0.6Z" transform="translate(15.4 15.2)" fill="white"/>
<path id="Ellipse_2" d="M1.6 0.8C1.6 1.24183 1.24183 1.6 0.8 1.6C0.358172 1.6 0 1.24183 0 0.8C0 0.358172 0.358172 0 0.8 0C1.24183 0 1.6 0.358172 1.6 0.8Z" transform="translate(17.2 14.8)" fill="white"/>
</g>
</g>
<defs>
<clipPath id="clip0">
<rect width="8" height="8" fill="white" transform="translate(12 12)"/>
</clipPath>
</defs>
</svg>
