<svg width="24" height="25" viewBox="0 0 24 25" fill="none" xmlns="http://www.w3.org/2000/svg">
<path d="M9.68266 15.2728C9.68266 15.3307 9.61774 15.377 9.53589 15.377C9.44274 15.3857 9.37782 15.3394 9.37782 15.2728C9.37782 15.2149 9.44274 15.1686 9.5246 15.1686C9.60927 15.1599 9.68266 15.2062 9.68266 15.2728ZM8.80484 15.1425C8.78508 15.2004 8.84153 15.267 8.92621 15.2844C8.9996 15.3133 9.08427 15.2844 9.10121 15.2265C9.11814 15.1686 9.06452 15.102 8.97984 15.0759C8.90645 15.0557 8.8246 15.0846 8.80484 15.1425ZM10.0524 15.0933C9.97056 15.1136 9.91411 15.1686 9.92258 15.2351C9.93105 15.293 10.0044 15.3307 10.0891 15.3104C10.171 15.2901 10.2274 15.2351 10.219 15.1772C10.2105 15.1222 10.1343 15.0846 10.0524 15.0933ZM11.9097 4C7.99476 4 5 7.04834 5 11.0636C5 14.274 6.97016 17.0213 9.78427 17.9882C10.1456 18.0548 10.2726 17.8261 10.2726 17.6379C10.2726 17.4584 10.2641 16.4684 10.2641 15.8604C10.2641 15.8604 8.28831 16.2947 7.87339 14.9978C7.87339 14.9978 7.55161 14.1553 7.08871 13.9382C7.08871 13.9382 6.44234 13.4837 7.13387 13.4924C7.13387 13.4924 7.83669 13.5503 8.22339 14.2393C8.84153 15.3567 9.87742 15.0354 10.281 14.8443C10.346 14.3811 10.5294 14.0598 10.7327 13.8687C9.15484 13.6893 7.5629 13.4548 7.5629 10.6699C7.5629 9.87377 7.77742 9.47427 8.22903 8.96477C8.15565 8.7766 7.91573 8.00077 8.30242 6.99913C8.89234 6.81096 10.25 7.78075 10.25 7.78075C10.8145 7.61864 11.4214 7.53469 12.0226 7.53469C12.6238 7.53469 13.2306 7.61864 13.7952 7.78075C13.7952 7.78075 15.1528 6.80806 15.7427 6.99913C16.1294 8.00366 15.8895 8.7766 15.8161 8.96477C16.2677 9.47717 16.5444 9.87667 16.5444 10.6699C16.5444 13.4635 14.8819 13.6864 13.304 13.8687C13.5637 14.0974 13.7839 14.5317 13.7839 15.212C13.7839 16.1876 13.7754 17.3947 13.7754 17.6321C13.7754 17.8203 13.9052 18.049 14.2637 17.9824C17.0863 17.0213 19 14.274 19 11.0636C19 7.04834 15.8246 4 11.9097 4ZM7.74355 13.9845C7.70685 14.0135 7.71532 14.0801 7.76331 14.1351C7.80847 14.1814 7.87339 14.2017 7.91008 14.164C7.94677 14.1351 7.93831 14.0685 7.89032 14.0135C7.84516 13.9672 7.78024 13.9469 7.74355 13.9845ZM7.43871 13.7501C7.41895 13.7877 7.44718 13.834 7.50363 13.863C7.54879 13.8919 7.60524 13.8832 7.625 13.8427C7.64476 13.8051 7.61653 13.7587 7.56008 13.7298C7.50363 13.7124 7.45847 13.7211 7.43871 13.7501ZM8.35323 14.7806C8.30806 14.8183 8.325 14.9051 8.38992 14.9601C8.45484 15.0267 8.53669 15.0354 8.57339 14.9891C8.61008 14.9514 8.59315 14.8646 8.53669 14.8096C8.4746 14.743 8.38992 14.7343 8.35323 14.7806ZM8.03145 14.3551C7.98629 14.384 7.98629 14.4593 8.03145 14.5259C8.07661 14.5925 8.15282 14.6214 8.18952 14.5925C8.23468 14.5548 8.23468 14.4796 8.18952 14.413C8.15 14.3464 8.07661 14.3175 8.03145 14.3551Z" fill="#191E23"/>
<path d="M14.5 22V23.2039L15.3529 22.3542L16.1667 21.5435L16.9804 22.3542L17.3333 22.7058L17.6862 22.3542L18.5 21.5435L19.3138 22.3542L19.6667 22.7058L20.0196 22.3542L20.8333 21.5435L21.6471 22.3542L22.5 23.2039V22V17.8C22.5 16.9234 21.9369 16.0937 21.2183 15.51C20.4879 14.9165 19.504 14.4969 18.4985 14.5C17.5101 14.5031 16.5283 14.9115 15.7942 15.4988C15.071 16.0774 14.5 16.9049 14.5 17.8V22Z" fill="#9EA5A7" stroke="white"/>
<path d="M19.1562 18.2812C19.1562 18.6437 18.8624 18.9375 18.5 18.9375C18.1376 18.9375 17.8438 18.6437 17.8438 18.2812C17.8438 17.9188 18.1376 17.625 18.5 17.625C18.8624 17.625 19.1562 17.9188 19.1562 18.2812Z" fill="white"/>
<path d="M21.5625 18.0625C21.5625 18.5457 21.1707 18.9375 20.6875 18.9375C20.2043 18.9375 19.8125 18.5457 19.8125 18.0625C19.8125 17.5793 20.2043 17.1875 20.6875 17.1875C21.1707 17.1875 21.5625 17.5793 21.5625 18.0625Z" fill="white"/>
</svg>
