<svg width="20" height="20" viewBox="0 0 20 20" fill="none" xmlns="http://www.w3.org/2000/svg">
<g id="gist">
<rect width="20" height="20" fill="black" fill-opacity="0"/>
<g id="Group">
<rect width="12" height="12" fill="black" fill-opacity="0" transform="translate(4 3)"/>
<path id="Vector" d="M8.01371 12.6624C8.01371 12.712 7.95806 12.7517 7.8879 12.7517C7.80806 12.7592 7.75242 12.7195 7.75242 12.6624C7.75242 12.6128 7.80806 12.5731 7.87823 12.5731C7.95081 12.5656 8.01371 12.6053 8.01371 12.6624ZM7.26129 12.5507C7.24435 12.6003 7.29274 12.6574 7.36532 12.6723C7.42823 12.6971 7.50081 12.6723 7.51532 12.6227C7.52984 12.5731 7.48387 12.516 7.41129 12.4937C7.34839 12.4763 7.27823 12.5011 7.26129 12.5507ZM8.33065 12.5085C8.26048 12.5259 8.2121 12.5731 8.21935 12.6301C8.22661 12.6798 8.28952 12.712 8.3621 12.6946C8.43226 12.6773 8.48064 12.6301 8.47339 12.5805C8.46613 12.5334 8.40081 12.5011 8.33065 12.5085ZM9.92258 3C6.56694 3 4 5.61286 4 9.0545C4 11.8063 5.68871 14.1611 8.10081 14.9899C8.41048 15.047 8.51935 14.8509 8.51935 14.6896C8.51935 14.5358 8.5121 13.6872 8.5121 13.1661C8.5121 13.1661 6.81855 13.5383 6.4629 12.4267C6.4629 12.4267 6.1871 11.7046 5.79032 11.5185C5.79032 11.5185 5.23629 11.1289 5.82903 11.1364C5.82903 11.1364 6.43145 11.186 6.7629 11.7765C7.29274 12.7343 8.18064 12.4589 8.52661 12.2951C8.58226 11.8981 8.73952 11.6227 8.91371 11.4589C7.56129 11.3051 6.19677 11.1041 6.19677 8.71703C6.19677 8.03466 6.38065 7.69224 6.76774 7.25552C6.70484 7.09423 6.49919 6.42923 6.83065 5.57068C7.33629 5.40939 8.5 6.24065 8.5 6.24065C8.98387 6.10169 9.50403 6.02973 10.0194 6.02973C10.5347 6.02973 11.0548 6.10169 11.5387 6.24065C11.5387 6.24065 12.7024 5.40691 13.2081 5.57068C13.5395 6.43171 13.3339 7.09423 13.271 7.25552C13.6581 7.69472 13.8952 8.03714 13.8952 8.71703C13.8952 11.1115 12.4702 11.3026 11.1177 11.4589C11.3403 11.655 11.529 12.0272 11.529 12.6103C11.529 13.4465 11.5218 14.4812 11.5218 14.6847C11.5218 14.846 11.6331 15.042 11.9403 14.9849C14.3597 14.1611 16 11.8063 16 9.0545C16 5.61286 13.2782 3 9.92258 3ZM6.35161 11.5582C6.32016 11.583 6.32742 11.6401 6.36855 11.6872C6.40726 11.7269 6.4629 11.7443 6.49435 11.712C6.52581 11.6872 6.51855 11.6301 6.47742 11.583C6.43871 11.5433 6.38306 11.5259 6.35161 11.5582ZM6.09032 11.3572C6.07339 11.3894 6.09758 11.4292 6.14597 11.454C6.18468 11.4788 6.23306 11.4713 6.25 11.4366C6.26694 11.4043 6.24274 11.3646 6.19435 11.3398C6.14597 11.3249 6.10726 11.3324 6.09032 11.3572ZM6.87419 12.2406C6.83548 12.2728 6.85 12.3473 6.90565 12.3944C6.96129 12.4515 7.03145 12.4589 7.0629 12.4192C7.09435 12.387 7.07984 12.3125 7.03145 12.2654C6.97823 12.2083 6.90565 12.2009 6.87419 12.2406ZM6.59839 11.8758C6.55968 11.9006 6.55968 11.9651 6.59839 12.0222C6.6371 12.0793 6.70242 12.1041 6.73387 12.0793C6.77258 12.047 6.77258 11.9825 6.73387 11.9254C6.7 11.8684 6.6371 11.8435 6.59839 11.8758Z" fill="#191E23"/>
</g>
<g id="Logo" clip-path="url(#clip0)">
<rect width="8" height="8" fill="black" fill-opacity="0" transform="translate(12 12)"/>
<path id="Vector_2" d="M13.1 20V21.2039L13.9529 20.3542L14.6667 19.6431L15.3804 20.3542L15.7333 20.7058L16.0862 20.3542L16.8 19.6431L17.5138 20.3542L17.8667 20.7058L18.2196 20.3542L18.9333 19.6431L19.6471 20.3542L20.5 21.2039V20V16.16C20.5 15.3405 19.9746 14.571 19.3124 14.033C18.6382 13.4853 17.7294 13.0972 16.7985 13.1C15.8836 13.1029 14.9769 13.4806 14.2994 14.0226C13.6328 14.5559 13.1 15.3235 13.1 16.16V20Z" fill="#9EA5A7" stroke="white"/>
<path id="Ellipse" d="M17.4 16.6C17.4 16.9314 17.1314 17.2 16.8 17.2C16.4686 17.2 16.2 16.9314 16.2 16.6C16.2 16.2686 16.4686 16 16.8 16C17.1314 16 17.4 16.2686 17.4 16.6Z" fill="white"/>
<path id="Ellipse_2" d="M19.6 16.4C19.6 16.8418 19.2418 17.2 18.8 17.2C18.3582 17.2 18 16.8418 18 16.4C18 15.9582 18.3582 15.6 18.8 15.6C19.2418 15.6 19.6 15.9582 19.6 16.4Z" fill="white"/>
</g>
</g>
<defs>
<clipPath id="clip0">
<rect width="8" height="8" fill="white" transform="translate(12 12)"/>
</clipPath>
</defs>
</svg>
