<svg width="24" height="25" viewBox="0 0 24 25" fill="none" xmlns="http://www.w3.org/2000/svg">
<path d="M4.20667 18.2109L6.93193 14.1132C6.97368 14.0504 7.04754 14.0151 7.12156 14.0294C7.43602 14.0904 7.48326 14.2205 7.49677 14.4427C7.49945 14.4868 7.4861 14.5304 7.46047 14.5664L5.22502 17.7057C5.13074 17.8381 5.22667 18.0217 5.38921 18.0217H18.6108C18.7733 18.0217 18.8693 17.8381 18.775 17.7057L16.5309 14.5542C16.5106 14.5258 16.4979 14.4924 16.4954 14.4576C16.4687 14.0982 16.5614 13.9808 16.9072 14.0025C16.966 14.0062 17.0188 14.0392 17.0515 14.0883L19.7933 18.2109C19.8817 18.3439 19.7864 18.5217 19.6268 18.5217H4.37321C4.21357 18.5217 4.11827 18.3439 4.20667 18.2109Z" fill="#191E23" stroke="#191E23" stroke-linecap="round" stroke-linejoin="round"/>
<path d="M7 8.5C7.92936 12.2174 11.4498 15.0711 11.9426 15.4558C11.9776 15.4831 12.0224 15.4831 12.0574 15.4558C12.5502 15.0712 16.0706 12.2174 17 8.5C17.7376 5.54943 15 2.5 12 2.5C9.00001 2.5 6.5 5.5 7 8.5Z" fill="white" stroke="#191E23" stroke-width="1.5"/>
<circle cx="12" cy="8" r="2" fill="#191E23"/>
<path d="M14.5 22V23.2039L15.3529 22.3542L16.1667 21.5435L16.9804 22.3542L17.3333 22.7058L17.6862 22.3542L18.5 21.5435L19.3138 22.3542L19.6667 22.7058L20.0196 22.3542L20.8333 21.5435L21.6471 22.3542L22.5 23.2039V22V17.8C22.5 16.9234 21.9369 16.0937 21.2183 15.51C20.4879 14.9165 19.504 14.4969 18.4985 14.5C17.5101 14.5031 16.5283 14.9115 15.7942 15.4988C15.071 16.0774 14.5 16.9049 14.5 17.8V22Z" fill="#9EA5A7" stroke="white"/>
<path d="M19.1562 18.2812C19.1562 18.6437 18.8624 18.9375 18.5 18.9375C18.1376 18.9375 17.8438 18.6437 17.8438 18.2812C17.8438 17.9188 18.1376 17.625 18.5 17.625C18.8624 17.625 19.1562 17.9188 19.1562 18.2812Z" fill="white"/>
<path d="M21.5625 18.0625C21.5625 18.5457 21.1707 18.9375 20.6875 18.9375C20.2043 18.9375 19.8125 18.5457 19.8125 18.0625C19.8125 17.5793 20.2043 17.1875 20.6875 17.1875C21.1707 17.1875 21.5625 17.5793 21.5625 18.0625Z" fill="white"/>
</svg>
