<svg width="24" height="25" viewBox="0 0 24 25" fill="none" xmlns="http://www.w3.org/2000/svg">
<path d="M2.75 5C2.75 4.86193 2.86193 4.75 3 4.75H7C7.13807 4.75 7.25 4.86193 7.25 5V16C7.25 16.1381 7.13807 16.25 7 16.25H3C2.86193 16.25 2.75 16.1381 2.75 16V5ZM9.75 5C9.75 4.86193 9.86193 4.75 10 4.75H14C14.1381 4.75 14.25 4.86193 14.25 5V16C14.25 16.1381 14.1381 16.25 14 16.25H10C9.86193 16.25 9.75 16.1381 9.75 16V5ZM16.75 5C16.75 4.86193 16.8619 4.75 17 4.75H21C21.1381 4.75 21.25 4.86193 21.25 5V16C21.25 16.1381 21.1381 16.25 21 16.25H17C16.8619 16.25 16.75 16.1381 16.75 16V5Z" fill="white" stroke="#191E23" stroke-width="1.5"/>
<path d="M14.5 22V23.2039L15.3529 22.3542L16.1667 21.5435L16.9804 22.3542L17.3333 22.7058L17.6862 22.3542L18.5 21.5435L19.3138 22.3542L19.6667 22.7058L20.0196 22.3542L20.8333 21.5435L21.6471 22.3542L22.5 23.2039V22V17.8C22.5 16.9234 21.9369 16.0937 21.2183 15.51C20.4879 14.9165 19.504 14.4969 18.4985 14.5C17.5101 14.5031 16.5283 14.9115 15.7942 15.4988C15.071 16.0774 14.5 16.9049 14.5 17.8V22Z" fill="#9EA5A7" stroke="white"/>
<path d="M19.1562 18.2812C19.1562 18.6437 18.8624 18.9375 18.5 18.9375C18.1376 18.9375 17.8438 18.6437 17.8438 18.2812C17.8438 17.9188 18.1376 17.625 18.5 17.625C18.8624 17.625 19.1562 17.9188 19.1562 18.2812Z" fill="white"/>
<path d="M21.5625 18.0625C21.5625 18.5457 21.1707 18.9375 20.6875 18.9375C20.2043 18.9375 19.8125 18.5457 19.8125 18.0625C19.8125 17.5793 20.2043 17.1875 20.6875 17.1875C21.1707 17.1875 21.5625 17.5793 21.5625 18.0625Z" fill="white"/>
</svg>
