<svg width="24" height="24" viewBox="0 0 24 24" fill="none" xmlns="http://www.w3.org/2000/svg">
<path d="M12 4C7.59032 4 4 7.5871 4 12C4 16.4097 7.59032 20 12 20C16.4097 20 20 16.4097 20 12C20 7.5871 16.4097 4 12 4ZM4.80645 12C4.80645 10.9581 5.02903 9.96774 5.42903 9.07419L8.86129 18.4742C6.46129 17.3065 4.80645 14.8452 4.80645 12ZM12 19.1935C11.2935 19.1935 10.6129 19.0903 9.96774 18.9L12.1258 12.629L14.3355 18.6871C14.3516 18.7226 14.3677 18.7548 14.3871 18.7871C13.6419 19.0484 12.8387 19.1935 12 19.1935ZM12.9903 8.62903C13.4226 8.60645 13.8129 8.56129 13.8129 8.56129C14.2 8.51613 14.1548 7.94516 13.7677 7.96774C13.7677 7.96774 12.6032 8.05806 11.8516 8.05806C11.1452 8.05806 9.95806 7.96774 9.95806 7.96774C9.57097 7.94516 9.52581 8.53871 9.9129 8.56129C9.9129 8.56129 10.2806 8.60645 10.6677 8.62903L11.7871 11.7L10.2129 16.4194L7.59355 8.62903C8.02581 8.60645 8.41613 8.56129 8.41613 8.56129C8.80323 8.51613 8.75806 7.94516 8.37097 7.96774C8.37097 7.96774 7.20645 8.05806 6.45484 8.05806C6.31935 8.05806 6.16129 8.05484 5.99032 8.04839C7.27742 6.09677 9.4871 4.80645 12 4.80645C13.871 4.80645 15.5774 5.52258 16.8581 6.69355C16.8258 6.69032 16.7968 6.6871 16.7645 6.6871C16.0581 6.6871 15.5581 7.30323 15.5581 7.96452C15.5581 8.55806 15.9 9.05806 16.2645 9.65161C16.5387 10.129 16.8581 10.7452 16.8581 11.6355C16.8581 12.2516 16.6226 12.9645 16.3097 13.9613L15.5935 16.3581L12.9903 8.62903ZM15.6161 18.2161L17.8129 11.8645C18.2226 10.8387 18.3613 10.0194 18.3613 9.2871C18.3613 9.02258 18.3452 8.77742 18.3129 8.54839C18.8742 9.57419 19.1935 10.7484 19.1935 12C19.1935 14.6548 17.7548 16.971 15.6161 18.2161Z" fill="#191E23"/>
<path d="M15.281 20.8981L14.0613 20.7965L14.8632 21.7236C15.1063 22.0047 15.4631 22.1519 15.7985 22.233C16.1448 22.3167 16.537 22.3463 16.9258 22.3421C17.7013 22.3339 18.5447 22.1903 19.1409 21.9916C19.7414 21.7914 20.5335 21.3841 21.1842 20.7608C21.8396 20.1329 22.3793 19.2562 22.3793 18.1379C22.3793 15.9788 20.7118 14.5 18.9828 14.5C17.3327 14.5 15.7901 15.5557 15.5893 17.3585C15.4935 18.2184 15.6713 18.7872 15.8608 19.2628C15.888 19.3311 15.9142 19.3952 15.9392 19.4562C16.0868 19.8173 16.1897 20.0687 16.1897 20.431C16.1897 20.5791 16.1453 20.6495 16.1027 20.6939C16.0485 20.7503 15.9575 20.8026 15.8255 20.8411C15.6962 20.8788 15.5584 20.8942 15.4469 20.8989C15.3926 20.9011 15.3481 20.9007 15.3185 20.8998C15.3038 20.8994 15.293 20.8989 15.2868 20.8985L15.2812 20.8981L15.2811 20.8981C15.2807 20.8981 15.2807 20.8981 15.281 20.8981Z" fill="#9EA5A7" stroke="white"/>
<path d="M19.1638 17.6853C19.1638 17.9353 18.9611 18.1379 18.7112 18.1379C18.4612 18.1379 18.2586 17.9353 18.2586 17.6853C18.2586 17.4354 18.4612 17.2328 18.7112 17.2328C18.9611 17.2328 19.1638 17.4354 19.1638 17.6853Z" fill="white"/>
<path d="M20.8233 17.5345C20.8233 17.8678 20.5531 18.1379 20.2198 18.1379C19.8866 18.1379 19.6164 17.8678 19.6164 17.5345C19.6164 17.2012 19.8866 16.931 20.2198 16.931C20.5531 16.931 20.8233 17.2012 20.8233 17.5345Z" fill="white"/>
</svg>
