<svg width="24" height="24" viewBox="0 0 24 24" fill="none" xmlns="http://www.w3.org/2000/svg">
<path fill-rule="evenodd" clip-rule="evenodd" d="M2.21799 5.09202C2 5.51984 2 6.0799 2 7.2V16.8C2 17.9201 2 18.4802 2.21799 18.908C2.40973 19.2843 2.71569 19.5903 3.09202 19.782C3.51984 20 4.0799 20 5.2 20H18.8C19.9201 20 20.4802 20 20.908 19.782C21.2843 19.5903 21.5903 19.2843 21.782 18.908C22 18.4802 22 17.9201 22 16.8V7.2C22 6.0799 22 5.51984 21.782 5.09202C21.5903 4.71569 21.2843 4.40973 20.908 4.21799C20.4802 4 19.9201 4 18.8 4H5.2C4.0799 4 3.51984 4 3.09202 4.21799C2.71569 4.40973 2.40973 4.71569 2.21799 5.09202ZM6.07812 15H7.28516V9.28906H6.29297L4.45312 10.7539L5.03906 11.4805L5.69531 10.9531C5.73438 10.9219 5.77474 10.8867 5.81641 10.8477L5.9375 10.7344L6.04297 10.6289C6.07422 10.5977 6.09635 10.5742 6.10938 10.5586C6.10677 10.6445 6.10286 10.7396 6.09766 10.8438C6.09505 10.9479 6.09115 11.0521 6.08594 11.1562L6.07812 11.4531V11.6953V15ZM8.83984 11.7578C8.8112 12.0286 8.79688 12.3008 8.79688 12.5742C8.79688 13.0039 8.84766 13.3763 8.94922 13.6914C9.05339 14.0039 9.19531 14.263 9.375 14.4688C9.55729 14.6745 9.77083 14.8281 10.0156 14.9297C10.2604 15.0286 10.5234 15.0781 10.8047 15.0781C11.0911 15.0781 11.349 15.0339 11.5781 14.9453C11.8073 14.8542 12.0026 14.724 12.1641 14.5547C12.3255 14.3828 12.4492 14.1745 12.5352 13.9297C12.6237 13.6849 12.668 13.4076 12.668 13.0977C12.668 12.8086 12.6315 12.5521 12.5586 12.3281C12.4857 12.1042 12.3802 11.9154 12.2422 11.7617C12.1068 11.6081 11.9401 11.4909 11.7422 11.4102C11.5443 11.3294 11.3216 11.2891 11.0742 11.2891C10.9206 11.2891 10.7812 11.306 10.6562 11.3398C10.5339 11.3737 10.4232 11.4206 10.3242 11.4805C10.2253 11.5378 10.138 11.6081 10.0625 11.6914C9.98958 11.7721 9.92708 11.8594 9.875 11.9531H9.82812C9.84115 11.6875 9.875 11.4453 9.92969 11.2266C9.98698 11.0078 10.082 10.8203 10.2148 10.6641C10.3477 10.5078 10.5273 10.3867 10.7539 10.3008C10.9805 10.2122 11.2695 10.168 11.6211 10.168C11.7331 10.168 11.8438 10.1758 11.9531 10.1914C12.0651 10.2044 12.1706 10.2227 12.2695 10.2461V9.28125C12.2201 9.27083 12.1641 9.26172 12.1016 9.25391C12.0391 9.24609 11.974 9.24089 11.9062 9.23828C11.8411 9.23307 11.776 9.22917 11.7109 9.22656C11.6458 9.22396 11.5859 9.22266 11.5312 9.22266C11.1536 9.22266 10.8229 9.26823 10.5391 9.35938C10.2578 9.44792 10.0156 9.57161 9.8125 9.73047C9.61198 9.88672 9.44531 10.0716 9.3125 10.2852C9.18229 10.4987 9.07812 10.7305 9 10.9805C8.92448 11.2279 8.87109 11.487 8.83984 11.7578ZM11.0703 14.0547C10.9844 14.0938 10.888 14.1133 10.7812 14.1133C10.651 14.1133 10.5365 14.0807 10.4375 14.0156C10.3411 13.9505 10.2591 13.8659 10.1914 13.7617C10.1263 13.6549 10.0768 13.5365 10.043 13.4062C10.0117 13.2734 9.99609 13.1406 9.99609 13.0078C9.99609 12.9115 10.0143 12.8164 10.0508 12.7227C10.0898 12.6289 10.1445 12.5443 10.2148 12.4688C10.2852 12.3932 10.3698 12.332 10.4688 12.2852C10.5677 12.2383 10.6771 12.2148 10.7969 12.2148C11.0339 12.2148 11.2096 12.2956 11.3242 12.457C11.4414 12.6159 11.5 12.8346 11.5 13.1133C11.5 13.2852 11.4818 13.4336 11.4453 13.5586C11.4115 13.6836 11.362 13.7878 11.2969 13.8711C11.2344 13.9518 11.1589 14.013 11.0703 14.0547ZM13.5664 14.1328C13.5326 14.2161 13.5156 14.319 13.5156 14.4414C13.5156 14.5586 13.5326 14.6589 13.5664 14.7422C13.6029 14.8255 13.6523 14.8945 13.7148 14.9492C13.7773 15.0039 13.8503 15.043 13.9336 15.0664C14.0169 15.0924 14.1068 15.1055 14.2031 15.1055C14.2943 15.1055 14.3802 15.0924 14.4609 15.0664C14.5443 15.043 14.6172 15.0039 14.6797 14.9492C14.7422 14.8945 14.7917 14.8255 14.8281 14.7422C14.8646 14.6589 14.8828 14.5586 14.8828 14.4414C14.8828 14.319 14.8646 14.2161 14.8281 14.1328C14.7917 14.0469 14.7422 13.9779 14.6797 13.9258C14.6172 13.8737 14.5443 13.8359 14.4609 13.8125C14.3802 13.7891 14.2943 13.7773 14.2031 13.7773C14.1068 13.7773 14.0169 13.7891 13.9336 13.8125C13.8503 13.8359 13.7773 13.8737 13.7148 13.9258C13.6523 13.9779 13.6029 14.0469 13.5664 14.1328ZM13.5664 10.9062C13.5326 10.9896 13.5156 11.0924 13.5156 11.2148C13.5156 11.332 13.5326 11.4336 13.5664 11.5195C13.6029 11.6029 13.6523 11.6719 13.7148 11.7266C13.7773 11.7786 13.8503 11.8177 13.9336 11.8438C14.0169 11.8672 14.1068 11.8789 14.2031 11.8789C14.2943 11.8789 14.3802 11.8672 14.4609 11.8438C14.5443 11.8177 14.6172 11.7786 14.6797 11.7266C14.7422 11.6719 14.7917 11.6029 14.8281 11.5195C14.8646 11.4336 14.8828 11.332 14.8828 11.2148C14.8828 11.0924 14.8646 10.9896 14.8281 10.9062C14.7917 10.8203 14.7422 10.7513 14.6797 10.6992C14.6172 10.6471 14.5443 10.6094 14.4609 10.5859C14.3802 10.5625 14.2943 10.5508 14.2031 10.5508C14.1068 10.5508 14.0169 10.5625 13.9336 10.5859C13.8503 10.6094 13.7773 10.6471 13.7148 10.6992C13.6523 10.7513 13.6029 10.8203 13.5664 10.9062ZM19.5742 12.5469C19.6055 12.2734 19.6211 12 19.6211 11.7266C19.6211 11.2995 19.569 10.9284 19.4648 10.6133C19.3607 10.2982 19.2188 10.0378 19.0391 9.83203C18.8594 9.6263 18.6471 9.47396 18.4023 9.375C18.1576 9.27344 17.8945 9.22266 17.6133 9.22266C17.3268 9.22266 17.0677 9.26823 16.8359 9.35938C16.6068 9.45052 16.4115 9.58203 16.25 9.75391C16.0885 9.92318 15.9635 10.1302 15.875 10.375C15.7891 10.6198 15.7461 10.8971 15.7461 11.207C15.7461 11.4961 15.7826 11.7526 15.8555 11.9766C15.9284 12.2005 16.0326 12.3893 16.168 12.543C16.306 12.6966 16.474 12.8138 16.6719 12.8945C16.8698 12.9753 17.0924 13.0156 17.3398 13.0156C17.4935 13.0156 17.6328 12.9987 17.7578 12.9648C17.8828 12.931 17.9948 12.8841 18.0938 12.8242C18.1927 12.7643 18.2786 12.694 18.3516 12.6133C18.4245 12.5326 18.487 12.4453 18.5391 12.3516H18.5898C18.5768 12.6146 18.5417 12.8555 18.4844 13.0742C18.4297 13.293 18.3359 13.4818 18.2031 13.6406C18.0703 13.7969 17.8906 13.9193 17.6641 14.0078C17.4375 14.0938 17.1484 14.1367 16.7969 14.1367C16.6823 14.1367 16.569 14.1302 16.457 14.1172C16.3477 14.1016 16.2448 14.0807 16.1484 14.0547V15.0234C16.1953 15.0339 16.25 15.0417 16.3125 15.0469C16.375 15.0547 16.4388 15.0599 16.5039 15.0625C16.5716 15.0677 16.638 15.0716 16.7031 15.0742C16.7682 15.0768 16.8281 15.0781 16.8828 15.0781C17.263 15.0781 17.5938 15.0339 17.875 14.9453C18.1589 14.8542 18.401 14.7305 18.6016 14.5742C18.8047 14.418 18.9714 14.2331 19.1016 14.0195C19.2344 13.8034 19.3385 13.5716 19.4141 13.3242C19.4922 13.0768 19.5456 12.8177 19.5742 12.5469ZM17.3438 10.25C17.4323 10.2109 17.5299 10.1914 17.6367 10.1914C17.7669 10.1914 17.8802 10.224 17.9766 10.2891C18.0755 10.3542 18.1576 10.4401 18.2227 10.5469C18.2904 10.651 18.3398 10.7695 18.3711 10.9023C18.4049 11.0326 18.4219 11.1641 18.4219 11.2969C18.4219 11.3932 18.4023 11.4883 18.3633 11.582C18.3268 11.6758 18.2734 11.7604 18.2031 11.8359C18.1328 11.9115 18.0482 11.9727 17.9492 12.0195C17.8503 12.0664 17.7409 12.0898 17.6211 12.0898C17.3841 12.0898 17.207 12.0091 17.0898 11.8477C16.9727 11.6862 16.9141 11.4674 16.9141 11.1914C16.9141 11.0195 16.931 10.8711 16.9648 10.7461C17.0013 10.6185 17.0508 10.5143 17.1133 10.4336C17.1784 10.3503 17.2552 10.2891 17.3438 10.25Z" fill="currentColor"/>
</svg>
