<svg width="24" height="24" viewBox="0 0 24 24" fill="none" xmlns="http://www.w3.org/2000/svg">
<path d="M20 13C20.5523 13 21 12.5523 21 12C21 11.4477 20.5523 11 20 11L20 13ZM4 12L3.29289 11.2929C2.90237 11.6834 2.90237 12.3166 3.29289 12.7071L4 12ZM11.2929 20.7071C11.6834 21.0976 12.3166 21.0976 12.7071 20.7071C13.0976 20.3166 13.0976 19.6834 12.7071 19.2929L11.2929 20.7071ZM12.7071 4.70711C13.0976 4.31658 13.0976 3.68342 12.7071 3.29289C12.3166 2.90237 11.6834 2.90237 11.2929 3.29289L12.7071 4.70711ZM20 11L4 11L4 13L20 13L20 11ZM12.7071 19.2929L4.70711 11.2929L3.29289 12.7071L11.2929 20.7071L12.7071 19.2929ZM4.70711 12.7071L12.7071 4.70711L11.2929 3.29289L3.29289 11.2929L4.70711 12.7071Z" fill="currentColor"/>
</svg>
