<svg width="20" height="20" viewBox="0 0 20 20" version="1.1" xmlns="http://www.w3.org/2000/svg" xmlns:xlink="http://www.w3.org/1999/xlink">
<title>icon-box</title>
<desc>Created using Figma</desc>
<g id="Canvas" transform="translate(415 432)">
<clipPath id="clip-0" clip-rule="evenodd">
<path d="M -415 -432L -395 -432L -395 -412L -415 -412L -415 -432Z" fill="#FFFFFF"/>
</clipPath>
<g id="icon-box" clip-path="url(#clip-0)">
<g id="Group">
<g id="Vector">
<use xlink:href="#path0_fill" transform="translate(-411.5 -431)" fill="#191E23"/>
</g>
</g>
<clipPath id="clip-1" clip-rule="evenodd">
<path d="M -405 -422L -395 -422L -395 -412L -405 -412L -405 -422Z" fill="#FFFFFF"/>
</clipPath>
<g id="Logo" clip-path="url(#clip-1)">
<g id="Vector">
<use xlink:href="#path1_fill" transform="translate(-405 -422)" fill="#008DBE"/>
</g>
<g id="Ellipse">
<use xlink:href="#path2_fill" transform="translate(-400.75 -418)" fill="#FFFFFF"/>
</g>
<g id="Ellipse">
<use xlink:href="#path3_fill" transform="translate(-398.5 -418.5)" fill="#FFFFFF"/>
</g>
</g>
</g>
</g>
<defs>
<path id="path0_fill" d="M 6.5 0C 2.91714 0 0 2.91452 0 6.5C 0 10.0829 2.91714 13 6.5 13C 10.0829 13 13 10.0829 13 6.5C 13 2.91452 10.0829 0 6.5 0ZM 0.655242 6.5C 0.655242 5.65343 0.836089 4.84879 1.16109 4.12278L 3.9498 11.7603C 1.9998 10.8115 0.655242 8.81169 0.655242 6.5ZM 6.5 12.3448C 5.92601 12.3448 5.37298 12.2609 4.84879 12.1062L 6.60222 7.01109L 8.39758 11.9333C 8.41069 11.9621 8.42379 11.9883 8.43952 12.0145C 7.83407 12.2268 7.18145 12.3448 6.5 12.3448L 6.5 12.3448ZM 7.30464 3.76109C 7.65585 3.74274 7.97298 3.70605 7.97298 3.70605C 8.2875 3.66935 8.25081 3.20544 7.93629 3.22379C 7.93629 3.22379 6.99012 3.29718 6.37944 3.29718C 5.80544 3.29718 4.84093 3.22379 4.84093 3.22379C 4.52641 3.20544 4.48972 3.6877 4.80423 3.70605C 4.80423 3.70605 5.10302 3.74274 5.41754 3.76109L 6.32702 6.25625L 5.04798 10.0907L 2.91976 3.76109C 3.27097 3.74274 3.5881 3.70605 3.5881 3.70605C 3.90262 3.66935 3.86593 3.20544 3.55141 3.22379C 3.55141 3.22379 2.60524 3.29718 1.99456 3.29718C 1.88448 3.29718 1.75605 3.29456 1.61714 3.28931C 2.6629 1.70363 4.45827 0.655242 6.5 0.655242C 8.02016 0.655242 9.40665 1.2371 10.4472 2.18851C 10.421 2.18589 10.3974 2.18327 10.3712 2.18327C 9.79718 2.18327 9.39093 2.68387 9.39093 3.22117C 9.39093 3.70343 9.66875 4.10968 9.96492 4.59194C 10.1877 4.97984 10.4472 5.48044 10.4472 6.20383C 10.4472 6.70444 10.2558 7.28367 10.0016 8.09355L 9.41976 10.0409L 7.30464 3.76109L 7.30464 3.76109ZM 9.4381 11.5506L 11.223 6.38992C 11.5558 5.55645 11.6685 4.89073 11.6685 4.29577C 11.6685 4.08085 11.6554 3.88165 11.6292 3.69556C 12.0853 4.52903 12.3448 5.48306 12.3448 6.5C 12.3448 8.65706 11.1758 10.5389 9.4381 11.5506L 9.4381 11.5506Z"/>
<path id="path1_fill" d="M 0 10L 0 4.00003C 0 2.04655 2.54888 0.00759371 5 3.05176e-05C 7.48789 -0.00764612 10 2.09538 10 4.00003L 10 10L 8.33333 8.33957L 6.66667 10L 5 8.33957L 3.33333 10L 1.66667 8.33957L 0 10Z"/>
<path id="path2_fill" d="M 1.5 0.75C 1.5 1.16421 1.16421 1.5 0.75 1.5C 0.335786 1.5 0 1.16421 0 0.75C 0 0.335786 0.335786 0 0.75 0C 1.16421 0 1.5 0.335786 1.5 0.75Z"/>
<path id="path3_fill" d="M 2 1C 2 1.55228 1.55228 2 1 2C 0.447715 2 0 1.55228 0 1C 0 0.447715 0.447715 0 1 0C 1.55228 0 2 0.447715 2 1Z"/>
</defs>
</svg>
