<svg width="24" height="24" viewBox="0 0 24 24" fill="none" xmlns="http://www.w3.org/2000/svg">
<path d="M19 9.95455L19.75 9.95455V9.95455L19 9.95455ZM12 20L11.5859 20.6253C11.8369 20.7916 12.1631 20.7916 12.4141 20.6253L12 20ZM5 9.95455L4.25 9.95455V9.95455H5ZM12 3V3.75V3ZM18.25 9.95455C18.25 12.3558 16.6778 14.6838 14.9572 16.4881C14.1126 17.3739 13.2654 18.099 12.6284 18.6029C12.3106 18.8543 12.0466 19.0495 11.8635 19.1809C11.7721 19.2465 11.7009 19.2961 11.6535 19.3288C11.6298 19.3451 11.612 19.3571 11.6006 19.3648C11.5949 19.3687 11.5907 19.3714 11.5883 19.3731C11.587 19.3739 11.5862 19.3745 11.5858 19.3747C11.5856 19.3749 11.5855 19.3749 11.5855 19.3749C11.5855 19.3749 11.5856 19.3749 11.5856 19.3749C11.5857 19.3748 11.5859 19.3747 12 20C12.4141 20.6253 12.4143 20.6252 12.4146 20.625C12.4147 20.6249 12.4149 20.6248 12.4151 20.6246C12.4156 20.6243 12.4161 20.624 12.4167 20.6236C12.418 20.6227 12.4197 20.6216 12.4219 20.6201C12.4261 20.6173 12.4321 20.6133 12.4396 20.6082C12.4547 20.5981 12.4762 20.5834 12.5038 20.5645C12.5589 20.5266 12.6381 20.4713 12.738 20.3996C12.9378 20.2562 13.2207 20.0469 13.5591 19.7792C14.2346 19.2448 15.1374 18.4727 16.0428 17.5233C17.8222 15.6572 19.75 12.9624 19.75 9.95455H18.25ZM12 20C12.4141 19.3747 12.4143 19.3748 12.4144 19.3749C12.4144 19.3749 12.4145 19.3749 12.4145 19.3749C12.4145 19.3749 12.4144 19.3749 12.4142 19.3747C12.4138 19.3745 12.413 19.3739 12.4117 19.3731C12.4093 19.3714 12.4051 19.3687 12.3994 19.3648C12.388 19.3571 12.3702 19.3451 12.3465 19.3288C12.2991 19.2961 12.2279 19.2465 12.1365 19.1809C11.9534 19.0495 11.6894 18.8543 11.3716 18.6029C10.7346 18.099 9.88742 17.3739 9.04278 16.4881C7.32223 14.6838 5.75 12.3558 5.75 9.95455H4.25C4.25 12.9624 6.17777 15.6572 7.95722 17.5233C8.86258 18.4727 9.76535 19.2448 10.4409 19.7792C10.7793 20.0469 11.0622 20.2562 11.262 20.3996C11.3619 20.4713 11.4411 20.5266 11.4962 20.5645C11.5238 20.5834 11.5453 20.5981 11.5604 20.6082C11.5679 20.6133 11.5739 20.6173 11.5781 20.6201C11.5803 20.6216 11.582 20.6227 11.5833 20.6236C11.5839 20.624 11.5844 20.6243 11.5849 20.6246C11.5851 20.6248 11.5853 20.6249 11.5854 20.625C11.5857 20.6252 11.5859 20.6253 12 20ZM5.75 9.95455C5.75 8.31058 6.40729 6.73295 7.57885 5.56899L6.52165 4.50488C5.06771 5.94939 4.25 7.90959 4.25 9.95455L5.75 9.95455ZM7.57885 5.56899C8.75058 4.40487 10.3408 3.75 12 3.75V2.25C9.94614 2.25 7.97543 3.06055 6.52165 4.50488L7.57885 5.56899ZM12 3.75C13.6592 3.75 15.2494 4.40487 16.4211 5.56899L17.4783 4.50488C16.0246 3.06055 14.0539 2.25 12 2.25V3.75ZM16.4211 5.56899C17.5927 6.73295 18.25 8.31058 18.25 9.95455L19.75 9.95455C19.75 7.90959 18.9323 5.94939 17.4783 4.50488L16.4211 5.56899ZM13.5833 9.95455C13.5833 10.816 12.8791 11.5227 12 11.5227V13.0227C13.6983 13.0227 15.0833 11.6537 15.0833 9.95455H13.5833ZM12 11.5227C11.1209 11.5227 10.4167 10.816 10.4167 9.95455H8.91667C8.91667 11.6537 10.3017 13.0227 12 13.0227V11.5227ZM10.4167 9.95455C10.4167 9.09306 11.1209 8.38636 12 8.38636V6.88636C10.3017 6.88636 8.91667 8.25544 8.91667 9.95455H10.4167ZM12 8.38636C12.8791 8.38636 13.5833 9.09306 13.5833 9.95455H15.0833C15.0833 8.25544 13.6983 6.88636 12 6.88636V8.38636Z" fill="currentColor"/>
</svg>
