<svg width="20" height="20" viewBox="0 0 20 20" fill="none" xmlns="http://www.w3.org/2000/svg">
<g id="icon-box">
<g id="Group">
<path id="Vector" d="M6.5 0C2.91714 0 0 2.91452 0 6.5C0 10.0829 2.91714 13 6.5 13C10.0829 13 13 10.0829 13 6.5C13 2.91452 10.0829 0 6.5 0ZM0.655242 6.5C0.655242 5.65343 0.836089 4.84879 1.16109 4.12278L3.9498 11.7603C1.9998 10.8115 0.655242 8.81169 0.655242 6.5ZM6.5 12.3448C5.92601 12.3448 5.37298 12.2609 4.84879 12.1062L6.60222 7.01109L8.39758 11.9333C8.41069 11.9621 8.42379 11.9883 8.43952 12.0145C7.83407 12.2268 7.18145 12.3448 6.5 12.3448ZM7.30464 3.76109C7.65585 3.74274 7.97298 3.70605 7.97298 3.70605C8.2875 3.66935 8.25081 3.20544 7.93629 3.22379C7.93629 3.22379 6.99012 3.29718 6.37944 3.29718C5.80544 3.29718 4.84093 3.22379 4.84093 3.22379C4.52641 3.20544 4.48972 3.6877 4.80423 3.70605C4.80423 3.70605 5.10302 3.74274 5.41754 3.76109L6.32702 6.25625L5.04798 10.0907L2.91976 3.76109C3.27097 3.74274 3.5881 3.70605 3.5881 3.70605C3.90262 3.66935 3.86593 3.20544 3.55141 3.22379C3.55141 3.22379 2.60524 3.29718 1.99456 3.29718C1.88448 3.29718 1.75605 3.29456 1.61714 3.28931C2.6629 1.70363 4.45827 0.655242 6.5 0.655242C8.02016 0.655242 9.40665 1.2371 10.4472 2.18851C10.421 2.18589 10.3974 2.18327 10.3712 2.18327C9.79718 2.18327 9.39093 2.68387 9.39093 3.22117C9.39093 3.70343 9.66875 4.10968 9.96492 4.59194C10.1877 4.97984 10.4472 5.48044 10.4472 6.20383C10.4472 6.70444 10.2558 7.28367 10.0016 8.09355L9.41976 10.0409L7.30464 3.76109ZM9.4381 11.5506L11.223 6.38992C11.5558 5.55645 11.6685 4.89073 11.6685 4.29577C11.6685 4.08085 11.6554 3.88165 11.6292 3.69556C12.0853 4.52903 12.3448 5.48306 12.3448 6.5C12.3448 8.65706 11.1758 10.5389 9.4381 11.5506Z" transform="translate(3.5 1)" fill="#191E23"/>
</g>
<g id="Logo" clip-path="url(#clip0)">
<path id="Vector_2" d="M0 8.00002V3.20002C0 1.63724 2.0391 0.00607497 4 2.44141e-05C5.99031 -0.0061169 8 1.67631 8 3.20002V8.00002L6.66667 6.67165L5.33333 8.00002L4 6.67165L2.66667 8.00002L1.33333 6.67165L0 8.00002Z" transform="translate(12 11.9999)" fill="#016C91"/>
<path id="Ellipse" d="M1.2 0.6C1.2 0.931371 0.931371 1.2 0.6 1.2C0.268629 1.2 0 0.931371 0 0.6C0 0.268629 0.268629 0 0.6 0C0.931371 0 1.2 0.268629 1.2 0.6Z" transform="translate(15.4 15.2)" fill="white"/>
<path id="Ellipse_2" d="M1.6 0.8C1.6 1.24183 1.24183 1.6 0.8 1.6C0.358172 1.6 0 1.24183 0 0.8C0 0.358172 0.358172 0 0.8 0C1.24183 0 1.6 0.358172 1.6 0.8Z" transform="translate(17.2 14.8)" fill="white"/>
</g>
</g>
<defs>
<clipPath id="clip0">
<rect width="8" height="8" fill="white" transform="translate(12 12)"/>
</clipPath>
</defs>
</svg>
