<svg width="24" height="25" viewBox="0 0 24 25" fill="none" xmlns="http://www.w3.org/2000/svg">
<g id="icon-box">
<g id="Group">
<path id="Vector" d="M12 4C7.59032 4 4 7.5871 4 12C4 16.4097 7.59032 20 12 20C16.4097 20 20 16.4097 20 12C20 7.5871 16.4097 4 12 4ZM4.80645 12C4.80645 10.9581 5.02903 9.96774 5.42903 9.07419L8.86129 18.4742C6.46129 17.3065 4.80645 14.8452 4.80645 12ZM12 19.1935C11.2935 19.1935 10.6129 19.0903 9.96774 18.9L12.1258 12.629L14.3355 18.6871C14.3516 18.7226 14.3677 18.7548 14.3871 18.7871C13.6419 19.0484 12.8387 19.1935 12 19.1935ZM12.9903 8.62903C13.4226 8.60645 13.8129 8.56129 13.8129 8.56129C14.2 8.51613 14.1548 7.94516 13.7677 7.96774C13.7677 7.96774 12.6032 8.05806 11.8516 8.05806C11.1452 8.05806 9.95806 7.96774 9.95806 7.96774C9.57097 7.94516 9.52581 8.53871 9.9129 8.56129C9.9129 8.56129 10.2806 8.60645 10.6677 8.62903L11.7871 11.7L10.2129 16.4194L7.59355 8.62903C8.02581 8.60645 8.41613 8.56129 8.41613 8.56129C8.80323 8.51613 8.75806 7.94516 8.37097 7.96774C8.37097 7.96774 7.20645 8.05806 6.45484 8.05806C6.31935 8.05806 6.16129 8.05484 5.99032 8.04839C7.27742 6.09677 9.4871 4.80645 12 4.80645C13.871 4.80645 15.5774 5.52258 16.8581 6.69355C16.8258 6.69032 16.7968 6.6871 16.7645 6.6871C16.0581 6.6871 15.5581 7.30323 15.5581 7.96452C15.5581 8.55806 15.9 9.05806 16.2645 9.65161C16.5387 10.129 16.8581 10.7452 16.8581 11.6355C16.8581 12.2516 16.6226 12.9645 16.3097 13.9613L15.5935 16.3581L12.9903 8.62903ZM15.6161 18.2161L17.8129 11.8645C18.2226 10.8387 18.3613 10.0194 18.3613 9.2871C18.3613 9.02258 18.3452 8.77742 18.3129 8.54839C18.8742 9.57419 19.1935 10.7484 19.1935 12C19.1935 14.6548 17.7548 16.971 15.6161 18.2161Z" fill="#191E23"/>
</g>
<g id="ghostkit">
<path id="Vector_2" d="M14.5 22V23.2039L15.3529 22.3542L16.1667 21.5435L16.9804 22.3542L17.3333 22.7058L17.6862 22.3542L18.5 21.5435L19.3138 22.3542L19.6667 22.7058L20.0196 22.3542L20.8333 21.5435L21.6471 22.3542L22.5 23.2039V22V17.8C22.5 16.9234 21.9369 16.0937 21.2183 15.51C20.4879 14.9165 19.504 14.4969 18.4985 14.5C17.5101 14.5031 16.5283 14.9115 15.7942 15.4988C15.071 16.0774 14.5 16.9049 14.5 17.8V22Z" fill="#9EA5A7" stroke="white"/>
<path id="Ellipse" d="M19.1562 18.2812C19.1562 18.6437 18.8624 18.9375 18.5 18.9375C18.1376 18.9375 17.8438 18.6437 17.8438 18.2812C17.8438 17.9188 18.1376 17.625 18.5 17.625C18.8624 17.625 19.1562 17.9188 19.1562 18.2812Z" fill="white"/>
<path id="Ellipse_2" d="M21.5625 18.0625C21.5625 18.5457 21.1707 18.9375 20.6875 18.9375C20.2043 18.9375 19.8125 18.5457 19.8125 18.0625C19.8125 17.5793 20.2043 17.1875 20.6875 17.1875C21.1707 17.1875 21.5625 17.5793 21.5625 18.0625Z" fill="white"/>
</g>
</g>
</svg>
