<svg width="20" height="20" viewBox="0 0 20 20" fill="none" xmlns="http://www.w3.org/2000/svg">
<g id="icon-box">
<rect width="20" height="20" fill="black" fill-opacity="0"/>
<g id="Group">
<rect width="16" height="16" fill="black" fill-opacity="0" transform="translate(2 2)"/>
<path id="Vector" d="M10 2C5.59032 2 2 5.5871 2 10C2 14.4097 5.59032 18 10 18C14.4097 18 18 14.4097 18 10C18 5.5871 14.4097 2 10 2ZM2.80645 10C2.80645 8.95806 3.02903 7.96774 3.42903 7.07419L6.86129 16.4742C4.46129 15.3065 2.80645 12.8452 2.80645 10ZM10 17.1935C9.29355 17.1935 8.6129 17.0903 7.96774 16.9L10.1258 10.629L12.3355 16.6871C12.3516 16.7226 12.3677 16.7548 12.3871 16.7871C11.6419 17.0484 10.8387 17.1935 10 17.1935V17.1935ZM10.9903 6.62903C11.4226 6.60645 11.8129 6.56129 11.8129 6.56129C12.2 6.51613 12.1548 5.94516 11.7677 5.96774C11.7677 5.96774 10.6032 6.05806 9.85161 6.05806C9.14516 6.05806 7.95806 5.96774 7.95806 5.96774C7.57097 5.94516 7.52581 6.53871 7.9129 6.56129C7.9129 6.56129 8.28064 6.60645 8.66774 6.62903L9.7871 9.7L8.2129 14.4194L5.59355 6.62903C6.02581 6.60645 6.41613 6.56129 6.41613 6.56129C6.80323 6.51613 6.75806 5.94516 6.37097 5.96774C6.37097 5.96774 5.20645 6.05806 4.45484 6.05806C4.31935 6.05806 4.16129 6.05484 3.99032 6.04839C5.27742 4.09677 7.4871 2.80645 10 2.80645C11.871 2.80645 13.5774 3.52258 14.8581 4.69355C14.8258 4.69032 14.7968 4.6871 14.7645 4.6871C14.0581 4.6871 13.5581 5.30323 13.5581 5.96452C13.5581 6.55806 13.9 7.05806 14.2645 7.65161C14.5387 8.12903 14.8581 8.74516 14.8581 9.63548C14.8581 10.2516 14.6226 10.9645 14.3097 11.9613L13.5935 14.3581L10.9903 6.62903V6.62903ZM13.6161 16.2161L15.8129 9.86452C16.2226 8.83871 16.3613 8.01935 16.3613 7.2871C16.3613 7.02258 16.3452 6.77742 16.3129 6.54839C16.8742 7.57419 17.1935 8.74839 17.1935 10C17.1935 12.6548 15.7548 14.971 13.6161 16.2161V16.2161Z" fill="#191E23"/>
</g>
<g id="Logo" clip-path="url(#clip0)">
<rect width="8" height="8" fill="black" fill-opacity="0" transform="translate(12 12)"/>
<path id="Vector_2" d="M13.1 20V21.2039L13.9529 20.3542L14.6667 19.6431L15.3804 20.3542L15.7333 20.7058L16.0862 20.3542L16.8 19.6431L17.5138 20.3542L17.8667 20.7058L18.2196 20.3542L18.9333 19.6431L19.6471 20.3542L20.5 21.2039V20V16.16C20.5 15.3405 19.9746 14.571 19.3124 14.033C18.6382 13.4853 17.7294 13.0972 16.7985 13.1C15.8836 13.1029 14.9769 13.4806 14.2994 14.0226C13.6328 14.5559 13.1 15.3235 13.1 16.16V20Z" fill="#9EA5A7" stroke="white"/>
<path id="Ellipse" d="M17.4 16.6C17.4 16.9314 17.1314 17.2 16.8 17.2C16.4686 17.2 16.2 16.9314 16.2 16.6C16.2 16.2686 16.4686 16 16.8 16C17.1314 16 17.4 16.2686 17.4 16.6Z" fill="white"/>
<path id="Ellipse_2" d="M19.6 16.4C19.6 16.8418 19.2418 17.2 18.8 17.2C18.3582 17.2 18 16.8418 18 16.4C18 15.9582 18.3582 15.6 18.8 15.6C19.2418 15.6 19.6 15.9582 19.6 16.4Z" fill="white"/>
</g>
</g>
<defs>
<clipPath id="clip0">
<rect width="8" height="8" fill="white" transform="translate(12 12)"/>
</clipPath>
</defs>
</svg>
