<svg width="24" height="24" viewBox="0 0 24 24" fill="none" xmlns="http://www.w3.org/2000/svg">
<g id="icon-box">
<g id="Group">
<path id="Vector" d="M12 4C7.59032 4 4 7.5871 4 12C4 16.4097 7.59032 20 12 20C16.4097 20 20 16.4097 20 12C20 7.5871 16.4097 4 12 4ZM4.80645 12C4.80645 10.9581 5.02903 9.96774 5.42903 9.07419L8.86129 18.4742C6.46129 17.3065 4.80645 14.8452 4.80645 12ZM12 19.1935C11.2935 19.1935 10.6129 19.0903 9.96774 18.9L12.1258 12.629L14.3355 18.6871C14.3516 18.7226 14.3677 18.7548 14.3871 18.7871C13.6419 19.0484 12.8387 19.1935 12 19.1935ZM12.9903 8.62903C13.4226 8.60645 13.8129 8.56129 13.8129 8.56129C14.2 8.51613 14.1548 7.94516 13.7677 7.96774C13.7677 7.96774 12.6032 8.05806 11.8516 8.05806C11.1452 8.05806 9.95806 7.96774 9.95806 7.96774C9.57097 7.94516 9.52581 8.53871 9.9129 8.56129C9.9129 8.56129 10.2806 8.60645 10.6677 8.62903L11.7871 11.7L10.2129 16.4194L7.59355 8.62903C8.02581 8.60645 8.41613 8.56129 8.41613 8.56129C8.80323 8.51613 8.75806 7.94516 8.37097 7.96774C8.37097 7.96774 7.20645 8.05806 6.45484 8.05806C6.31935 8.05806 6.16129 8.05484 5.99032 8.04839C7.27742 6.09677 9.4871 4.80645 12 4.80645C13.871 4.80645 15.5774 5.52258 16.8581 6.69355C16.8258 6.69032 16.7968 6.6871 16.7645 6.6871C16.0581 6.6871 15.5581 7.30323 15.5581 7.96452C15.5581 8.55806 15.9 9.05806 16.2645 9.65161C16.5387 10.129 16.8581 10.7452 16.8581 11.6355C16.8581 12.2516 16.6226 12.9645 16.3097 13.9613L15.5935 16.3581L12.9903 8.62903ZM15.6161 18.2161L17.8129 11.8645C18.2226 10.8387 18.3613 10.0194 18.3613 9.2871C18.3613 9.02258 18.3452 8.77742 18.3129 8.54839C18.8742 9.57419 19.1935 10.7484 19.1935 12C19.1935 14.6548 17.7548 16.971 15.6161 18.2161Z" fill="#191E23"/>
</g>
<g id="Logo" clip-path="url(#clip0)">
<path id="Vector_2" d="M15.1 22V23.2039L15.9529 22.3542L16.6667 21.6431L17.3804 22.3542L17.7333 22.7058L18.0862 22.3542L18.8 21.6431L19.5138 22.3542L19.8667 22.7058L20.2196 22.3542L20.9333 21.6431L21.6471 22.3542L22.5 23.2039V22V18.16C22.5 17.3405 21.9746 16.571 21.3124 16.033C20.6382 15.4853 19.7294 15.0972 18.7985 15.1C17.8836 15.1029 16.9769 15.4806 16.2994 16.0226C15.6328 16.5559 15.1 17.3235 15.1 18.16V22Z" fill="#9EA5A7" stroke="white"/>
<path id="Ellipse" d="M19.4 18.6C19.4 18.9314 19.1314 19.2 18.8 19.2C18.4686 19.2 18.2 18.9314 18.2 18.6C18.2 18.2686 18.4686 18 18.8 18C19.1314 18 19.4 18.2686 19.4 18.6Z" fill="white"/>
<path id="Ellipse_2" d="M21.6 18.4C21.6 18.8418 21.2418 19.2 20.8 19.2C20.3582 19.2 20 18.8418 20 18.4C20 17.9582 20.3582 17.6 20.8 17.6C21.2418 17.6 21.6 17.9582 21.6 18.4Z" fill="white"/>
</g>
</g>
<defs>
<clipPath id="clip0">
<rect width="8" height="8" fill="white" transform="translate(14 14)"/>
</clipPath>
</defs>
</svg>
