<svg width="20" height="20" viewBox="0 0 20 20" version="1.1" xmlns="http://www.w3.org/2000/svg" xmlns:xlink="http://www.w3.org/1999/xlink">
<title>instagram</title>
<desc>Created using Figma</desc>
<g id="Canvas" transform="translate(457 388)">
<clipPath id="clip-0" clip-rule="evenodd">
<path d="M -457 -388L -437 -388L -437 -368L -457 -368L -457 -388Z" fill="#FFFFFF"/>
</clipPath>
<g id="instagram" clip-path="url(#clip-0)">
<g id="Vector">
<use xlink:href="#path0_fill" transform="translate(-452 -385)" fill="#191E23"/>
</g>
<clipPath id="clip-1" clip-rule="evenodd">
<path d="M -447 -378L -437 -378L -437 -368L -447 -368L -447 -378Z" fill="#FFFFFF"/>
</clipPath>
<g id="Logo" clip-path="url(#clip-1)">
<g id="Vector">
<use xlink:href="#path1_fill" transform="translate(-447 -378)" fill="#008DBE"/>
</g>
<g id="Ellipse">
<use xlink:href="#path2_fill" transform="translate(-442.75 -374)" fill="#FFFFFF"/>
</g>
<g id="Ellipse">
<use xlink:href="#path3_fill" transform="translate(-440.5 -374.5)" fill="#FFFFFF"/>
</g>
</g>
</g>
</g>
<defs>
<path id="path0_fill" d="M 5.00112 2.43613C 3.58226 2.43613 2.43781 3.58083 2.43781 5C 2.43781 6.41917 3.58226 7.56387 5.00112 7.56387C 6.41997 7.56387 7.56442 6.41917 7.56442 5C 7.56442 3.58083 6.41997 2.43613 5.00112 2.43613ZM 5.00112 6.66685C 4.08422 6.66685 3.33463 5.91934 3.33463 5C 3.33463 4.08066 4.08199 3.33315 5.00112 3.33315C 5.92025 3.33315 6.6676 4.08066 6.6676 5C 6.6676 5.91934 5.91801 6.66685 5.00112 6.66685L 5.00112 6.66685ZM 8.26715 2.33125C 8.26715 2.66373 7.99944 2.92927 7.66927 2.92927C 7.33687 2.92927 7.07139 2.6615 7.07139 2.33125C 7.07139 2.001 7.3391 1.73324 7.66927 1.73324C 7.99944 1.73324 8.26715 2.001 8.26715 2.33125ZM 9.96486 2.93819C 9.92694 2.13712 9.744 1.42754 9.15728 0.84291C 8.57278 0.258284 7.86336 0.0753096 7.06247 0.0351445C 6.23703 -0.0117148 3.76297 -0.0117148 2.93753 0.0351445C 2.13887 0.0730782 1.42945 0.256053 0.842722 0.840678C 0.255996 1.4253 0.0752928 2.13489 0.0351366 2.93596C -0.0117122 3.76158 -0.0117122 6.23619 0.0351366 7.06181C 0.0730619 7.86288 0.255996 8.57246 0.842722 9.15709C 1.42945 9.74172 2.13664 9.92469 2.93753 9.96486C 3.76297 10.0117 6.23703 10.0117 7.06247 9.96486C 7.86336 9.92692 8.57278 9.74395 9.15728 9.15709C 9.74177 8.57246 9.92471 7.86288 9.96486 7.06181C 10.0117 6.23619 10.0117 3.76381 9.96486 2.93819L 9.96486 2.93819ZM 8.89849 7.94767C 8.72448 8.38503 8.38762 8.72197 7.94813 8.89825C 7.29002 9.15932 5.72839 9.09907 5.00112 9.09907C 4.27384 9.09907 2.70998 9.15709 2.0541 8.89825C 1.61684 8.7242 1.27998 8.38726 1.10374 7.94767C 0.842722 7.28941 0.902956 5.72744 0.902956 5C 0.902956 4.27257 0.844953 2.70836 1.10374 2.05233C 1.27775 1.61497 1.61461 1.27803 2.0541 1.10175C 2.71221 0.840678 4.27384 0.900926 5.00112 0.900926C 5.72839 0.900926 7.29225 0.84291 7.94813 1.10175C 8.38539 1.2758 8.72225 1.61274 8.89849 2.05233C 9.15951 2.71059 9.09927 4.27257 9.09927 5C 9.09927 5.72744 9.15951 7.29164 8.89849 7.94767Z"/>
<path id="path1_fill" d="M 0 10L 0 4.00003C 0 2.04655 2.54888 0.00759371 5 3.05176e-05C 7.48789 -0.00764612 10 2.09538 10 4.00003L 10 10L 8.33333 8.33957L 6.66667 10L 5 8.33957L 3.33333 10L 1.66667 8.33957L 0 10Z"/>
<path id="path2_fill" d="M 1.5 0.75C 1.5 1.16421 1.16421 1.5 0.75 1.5C 0.335786 1.5 0 1.16421 0 0.75C 0 0.335786 0.335786 0 0.75 0C 1.16421 0 1.5 0.335786 1.5 0.75Z"/>
<path id="path3_fill" d="M 2 1C 2 1.55228 1.55228 2 1 2C 0.447715 2 0 1.55228 0 1C 0 0.447715 0.447715 0 1 0C 1.55228 0 2 0.447715 2 1Z"/>
</defs>
</svg>
