<svg width="24" height="24" viewBox="0 0 24 24" fill="none" xmlns="http://www.w3.org/2000/svg">
<g id="instagram">
<path id="Vector" d="M12.0018 7.8978C9.73162 7.8978 7.9005 9.72933 7.9005 12C7.9005 14.2707 9.73162 16.1022 12.0018 16.1022C14.2719 16.1022 16.1031 14.2707 16.1031 12C16.1031 9.72933 14.2719 7.8978 12.0018 7.8978ZM12.0018 14.667C10.5347 14.667 9.33542 13.4709 9.33542 12C9.33542 10.5291 10.5312 9.33304 12.0018 9.33304C13.4724 9.33304 14.6682 10.5291 14.6682 12C14.6682 13.4709 13.4688 14.667 12.0018 14.667ZM17.2274 7.73C17.2274 8.26197 16.7991 8.68682 16.2708 8.68682C15.739 8.68682 15.3142 8.2584 15.3142 7.73C15.3142 7.20161 15.7426 6.77318 16.2708 6.77318C16.7991 6.77318 17.2274 7.20161 17.2274 7.73ZM19.9438 8.7011C19.8831 7.41939 19.5904 6.28406 18.6516 5.34866C17.7165 4.41325 16.5814 4.1205 15.2999 4.05623C13.9793 3.98126 10.0207 3.98126 8.70006 4.05623C7.4222 4.11693 6.28712 4.40968 5.34835 5.34509C4.40959 6.28049 4.12047 7.41582 4.05622 8.69753C3.98126 10.0185 3.98126 13.9779 4.05622 15.2989C4.1169 16.5806 4.40959 17.7159 5.34835 18.6513C6.28712 19.5867 7.41863 19.8795 8.70006 19.9438C10.0207 20.0187 13.9793 20.0187 15.2999 19.9438C16.5814 19.8831 17.7165 19.5903 18.6516 18.6513C19.5868 17.7159 19.8795 16.5806 19.9438 15.2989C20.0187 13.9779 20.0187 10.0221 19.9438 8.7011ZM18.2376 16.7163C17.9592 17.416 17.4202 17.9551 16.717 18.2372C15.664 18.6549 13.1654 18.5585 12.0018 18.5585C10.8381 18.5585 8.33597 18.6513 7.28656 18.2372C6.58695 17.9587 6.04796 17.4196 5.76598 16.7163C5.34835 15.6631 5.44473 13.1639 5.44473 12C5.44473 10.8361 5.35192 8.33337 5.76598 7.28372C6.04439 6.58396 6.58338 6.04485 7.28656 5.7628C8.33954 5.34509 10.8381 5.44148 12.0018 5.44148C13.1654 5.44148 15.6676 5.34866 16.717 5.7628C17.4166 6.04128 17.9556 6.58039 18.2376 7.28372C18.6552 8.33694 18.5588 10.8361 18.5588 12C18.5588 13.1639 18.6552 15.6666 18.2376 16.7163Z" fill="#191E23"/>
<g id="Logo" clip-path="url(#clip0)">
<path id="Vector_2" d="M15.1 22V23.2039L15.9529 22.3542L16.6667 21.6431L17.3804 22.3542L17.7333 22.7058L18.0862 22.3542L18.8 21.6431L19.5138 22.3542L19.8667 22.7058L20.2196 22.3542L20.9333 21.6431L21.6471 22.3542L22.5 23.2039V22V18.16C22.5 17.3405 21.9746 16.571 21.3124 16.033C20.6382 15.4853 19.7294 15.0972 18.7985 15.1C17.8836 15.1029 16.9769 15.4806 16.2994 16.0226C15.6328 16.5559 15.1 17.3235 15.1 18.16V22Z" fill="#9EA5A7" stroke="white"/>
<path id="Ellipse" d="M19.4 18.6C19.4 18.9314 19.1314 19.2 18.8 19.2C18.4686 19.2 18.2 18.9314 18.2 18.6C18.2 18.2686 18.4686 18 18.8 18C19.1314 18 19.4 18.2686 19.4 18.6Z" fill="white"/>
<path id="Ellipse_2" d="M21.6 18.4C21.6 18.8418 21.2418 19.2 20.8 19.2C20.3582 19.2 20 18.8418 20 18.4C20 17.9582 20.3582 17.6 20.8 17.6C21.2418 17.6 21.6 17.9582 21.6 18.4Z" fill="white"/>
</g>
</g>
<defs>
<clipPath id="clip0">
<rect width="8" height="8" fill="white" transform="translate(14 14)"/>
</clipPath>
</defs>
</svg>
