<svg width="20" height="20" viewBox="0 0 20 20" fill="none" xmlns="http://www.w3.org/2000/svg">
<g id="instagram">
<path id="Vector" d="M5.00112 2.43613C3.58226 2.43613 2.43781 3.58083 2.43781 5C2.43781 6.41917 3.58226 7.56387 5.00112 7.56387C6.41997 7.56387 7.56442 6.41917 7.56442 5C7.56442 3.58083 6.41997 2.43613 5.00112 2.43613ZM5.00112 6.66685C4.08422 6.66685 3.33463 5.91934 3.33463 5C3.33463 4.08067 4.08199 3.33315 5.00112 3.33315C5.92025 3.33315 6.6676 4.08067 6.6676 5C6.6676 5.91934 5.91801 6.66685 5.00112 6.66685ZM8.26715 2.33125C8.26715 2.66373 7.99944 2.92927 7.66927 2.92927C7.33687 2.92927 7.07139 2.6615 7.07139 2.33125C7.07139 2.001 7.3391 1.73324 7.66927 1.73324C7.99944 1.73324 8.26715 2.001 8.26715 2.33125ZM9.96486 2.93819C9.92694 2.13712 9.744 1.42754 9.15728 0.84291C8.57278 0.258284 7.86336 0.0753096 7.06247 0.0351445C6.23703 -0.0117148 3.76297 -0.0117148 2.93753 0.0351445C2.13887 0.0730782 1.42945 0.256053 0.842722 0.840678C0.255996 1.4253 0.0752928 2.13489 0.0351366 2.93596C-0.0117122 3.76158 -0.0117122 6.23619 0.0351366 7.06181C0.0730619 7.86288 0.255996 8.57246 0.842722 9.15709C1.42945 9.74172 2.13664 9.92469 2.93753 9.96486C3.76297 10.0117 6.23703 10.0117 7.06247 9.96486C7.86336 9.92692 8.57278 9.74395 9.15728 9.15709C9.74177 8.57246 9.92471 7.86288 9.96486 7.06181C10.0117 6.23619 10.0117 3.76381 9.96486 2.93819ZM8.89849 7.94767C8.72448 8.38503 8.38762 8.72197 7.94813 8.89825C7.29002 9.15932 5.72839 9.09907 5.00112 9.09907C4.27384 9.09907 2.70998 9.15709 2.0541 8.89825C1.61684 8.7242 1.27998 8.38726 1.10374 7.94767C0.842722 7.28941 0.902956 5.72744 0.902956 5C0.902956 4.27256 0.844953 2.70836 1.10374 2.05233C1.27775 1.61497 1.61461 1.27803 2.0541 1.10175C2.71221 0.840678 4.27384 0.900926 5.00112 0.900926C5.72839 0.900926 7.29225 0.84291 7.94813 1.10175C8.38539 1.2758 8.72225 1.61274 8.89849 2.05233C9.15951 2.71059 9.09927 4.27256 9.09927 5C9.09927 5.72744 9.15951 7.29164 8.89849 7.94767Z" transform="translate(5 3)" fill="#191E23"/>
<g id="Logo" clip-path="url(#clip0)">
<path id="Vector_2" d="M0 8.00002V3.20002C0 1.63724 2.0391 0.00607497 4 2.44141e-05C5.99031 -0.0061169 8 1.67631 8 3.20002V8.00002L6.66667 6.67165L5.33333 8.00002L4 6.67165L2.66667 8.00002L1.33333 6.67165L0 8.00002Z" transform="translate(12 11.9999)" fill="#016C91"/>
<path id="Ellipse" d="M1.2 0.6C1.2 0.931371 0.931371 1.2 0.6 1.2C0.268629 1.2 0 0.931371 0 0.6C0 0.268629 0.268629 0 0.6 0C0.931371 0 1.2 0.268629 1.2 0.6Z" transform="translate(15.4 15.2)" fill="white"/>
<path id="Ellipse_2" d="M1.6 0.8C1.6 1.24183 1.24183 1.6 0.8 1.6C0.358172 1.6 0 1.24183 0 0.8C0 0.358172 0.358172 0 0.8 0C1.24183 0 1.6 0.358172 1.6 0.8Z" transform="translate(17.2 14.8)" fill="white"/>
</g>
</g>
<defs>
<clipPath id="clip0">
<rect width="8" height="8" fill="white" transform="translate(12 12)"/>
</clipPath>
</defs>
</svg>
