<svg width="24" height="25" viewBox="0 0 24 25" fill="none" xmlns="http://www.w3.org/2000/svg">
<g id="instagram">
<path id="Vector" d="M12.0018 7.8978C9.73162 7.8978 7.9005 9.72933 7.9005 12C7.9005 14.2707 9.73162 16.1022 12.0018 16.1022C14.2719 16.1022 16.1031 14.2707 16.1031 12C16.1031 9.72933 14.2719 7.8978 12.0018 7.8978ZM12.0018 14.667C10.5347 14.667 9.33542 13.4709 9.33542 12C9.33542 10.5291 10.5312 9.33304 12.0018 9.33304C13.4724 9.33304 14.6682 10.5291 14.6682 12C14.6682 13.4709 13.4688 14.667 12.0018 14.667ZM17.2274 7.73C17.2274 8.26197 16.7991 8.68682 16.2708 8.68682C15.739 8.68682 15.3142 8.2584 15.3142 7.73C15.3142 7.20161 15.7426 6.77318 16.2708 6.77318C16.7991 6.77318 17.2274 7.20161 17.2274 7.73ZM19.9438 8.7011C19.8831 7.41939 19.5904 6.28406 18.6516 5.34866C17.7165 4.41325 16.5814 4.1205 15.2999 4.05623C13.9793 3.98126 10.0207 3.98126 8.70006 4.05623C7.4222 4.11693 6.28712 4.40968 5.34835 5.34509C4.40959 6.28049 4.12047 7.41582 4.05622 8.69753C3.98126 10.0185 3.98126 13.9779 4.05622 15.2989C4.1169 16.5806 4.40959 17.7159 5.34835 18.6513C6.28712 19.5867 7.41863 19.8795 8.70006 19.9438C10.0207 20.0187 13.9793 20.0187 15.2999 19.9438C16.5814 19.8831 17.7165 19.5903 18.6516 18.6513C19.5868 17.7159 19.8795 16.5806 19.9438 15.2989C20.0187 13.9779 20.0187 10.0221 19.9438 8.7011ZM18.2376 16.7163C17.9592 17.416 17.4202 17.9551 16.717 18.2372C15.664 18.6549 13.1654 18.5585 12.0018 18.5585C10.8381 18.5585 8.33597 18.6513 7.28656 18.2372C6.58695 17.9587 6.04796 17.4196 5.76598 16.7163C5.34835 15.6631 5.44473 13.1639 5.44473 12C5.44473 10.8361 5.35192 8.33337 5.76598 7.28372C6.04439 6.58396 6.58338 6.04485 7.28656 5.7628C8.33954 5.34509 10.8381 5.44148 12.0018 5.44148C13.1654 5.44148 15.6676 5.34866 16.717 5.7628C17.4166 6.04128 17.9556 6.58039 18.2376 7.28372C18.6552 8.33694 18.5588 10.8361 18.5588 12C18.5588 13.1639 18.6552 15.6666 18.2376 16.7163Z" fill="#191E23"/>
<g id="ghostkit">
<path id="Vector_2" d="M14.5 22V23.2039L15.3529 22.3542L16.1667 21.5435L16.9804 22.3542L17.3333 22.7058L17.6862 22.3542L18.5 21.5435L19.3138 22.3542L19.6667 22.7058L20.0196 22.3542L20.8333 21.5435L21.6471 22.3542L22.5 23.2039V22V17.8C22.5 16.9234 21.9369 16.0937 21.2183 15.51C20.4879 14.9165 19.504 14.4969 18.4985 14.5C17.5101 14.5031 16.5283 14.9115 15.7942 15.4988C15.071 16.0774 14.5 16.9049 14.5 17.8V22Z" fill="#9EA5A7" stroke="white"/>
<path id="Ellipse" d="M19.1562 18.2812C19.1562 18.6437 18.8624 18.9375 18.5 18.9375C18.1376 18.9375 17.8438 18.6437 17.8438 18.2812C17.8438 17.9188 18.1376 17.625 18.5 17.625C18.8624 17.625 19.1562 17.9188 19.1562 18.2812Z" fill="white"/>
<path id="Ellipse_2" d="M21.5625 18.0625C21.5625 18.5457 21.1707 18.9375 20.6875 18.9375C20.2043 18.9375 19.8125 18.5457 19.8125 18.0625C19.8125 17.5793 20.2043 17.1875 20.6875 17.1875C21.1707 17.1875 21.5625 17.5793 21.5625 18.0625Z" fill="white"/>
</g>
</g>
</svg>
