<svg width="20" height="20" viewBox="0 0 20 20" fill="none" xmlns="http://www.w3.org/2000/svg">
<g id="instagram">
<rect width="20" height="20" fill="black" fill-opacity="0"/>
<path id="Vector" d="M10.0016 6.41058C8.01517 6.41058 6.41294 8.01317 6.41294 10C6.41294 11.9868 8.01517 13.5894 10.0016 13.5894C11.988 13.5894 13.5902 11.9868 13.5902 10C13.5902 8.01317 11.988 6.41058 10.0016 6.41058ZM10.0016 12.3336C8.7179 12.3336 7.66849 11.2871 7.66849 10C7.66849 8.71293 8.71478 7.66641 10.0016 7.66641C11.2883 7.66641 12.3346 8.71293 12.3346 10C12.3346 11.2871 11.2852 12.3336 10.0016 12.3336V12.3336ZM14.574 6.26375C14.574 6.72922 14.1992 7.10097 13.737 7.10097C13.2716 7.10097 12.8999 6.7261 12.8999 6.26375C12.8999 5.80141 13.2747 5.42653 13.737 5.42653C14.1992 5.42653 14.574 5.80141 14.574 6.26375ZM16.9508 7.11347C16.8977 5.99197 16.6416 4.99855 15.8202 4.18007C15.0019 3.3616 14.0087 3.10543 12.8875 3.0492C11.7318 2.9836 8.26815 2.9836 7.11255 3.0492C5.99442 3.10231 5.00123 3.35847 4.17981 4.17695C3.35839 4.99543 3.10541 5.98884 3.04919 7.11034C2.9836 8.26621 2.9836 11.7307 3.04919 12.8865C3.10229 14.008 3.35839 15.0015 4.17981 15.8199C5.00123 16.6384 5.9913 16.8946 7.11255 16.9508C8.26815 17.0164 11.7318 17.0164 12.8875 16.9508C14.0087 16.8977 15.0019 16.6415 15.8202 15.8199C16.6385 15.0015 16.8946 14.008 16.9508 12.8865C17.0164 11.7307 17.0164 8.26933 16.9508 7.11347V7.11347ZM15.4579 14.1267C15.2143 14.739 14.7427 15.2108 14.1274 15.4575C13.206 15.8231 11.0197 15.7387 10.0016 15.7387C8.98338 15.7387 6.79398 15.8199 5.87574 15.4575C5.26358 15.2139 4.79197 14.7422 4.54523 14.1267C4.17981 13.2052 4.26414 11.0184 4.26414 10C4.26414 8.98159 4.18293 6.7917 4.54523 5.87326C4.78885 5.26096 5.26046 4.78924 5.87574 4.54245C6.7971 4.17695 8.98338 4.2613 10.0016 4.2613C11.0197 4.2613 13.2091 4.18007 14.1274 4.54245C14.7395 4.78612 15.2112 5.25784 15.4579 5.87326C15.8233 6.79482 15.739 8.98159 15.739 10C15.739 11.0184 15.8233 13.2083 15.4579 14.1267Z" fill="#191E23"/>
<g id="Logo" clip-path="url(#clip0)">
<rect width="8" height="8" fill="black" fill-opacity="0" transform="translate(12 12)"/>
<path id="Vector_2" d="M13.1 20V21.2039L13.9529 20.3542L14.6667 19.6431L15.3804 20.3542L15.7333 20.7058L16.0862 20.3542L16.8 19.6431L17.5138 20.3542L17.8667 20.7058L18.2196 20.3542L18.9333 19.6431L19.6471 20.3542L20.5 21.2039V20V16.16C20.5 15.3405 19.9746 14.571 19.3124 14.033C18.6382 13.4853 17.7294 13.0972 16.7985 13.1C15.8836 13.1029 14.9769 13.4806 14.2994 14.0226C13.6328 14.5559 13.1 15.3235 13.1 16.16V20Z" fill="#9EA5A7" stroke="white"/>
<path id="Ellipse" d="M17.4 16.6C17.4 16.9314 17.1314 17.2 16.8 17.2C16.4686 17.2 16.2 16.9314 16.2 16.6C16.2 16.2686 16.4686 16 16.8 16C17.1314 16 17.4 16.2686 17.4 16.6Z" fill="white"/>
<path id="Ellipse_2" d="M19.6 16.4C19.6 16.8418 19.2418 17.2 18.8 17.2C18.3582 17.2 18 16.8418 18 16.4C18 15.9582 18.3582 15.6 18.8 15.6C19.2418 15.6 19.6 15.9582 19.6 16.4Z" fill="white"/>
</g>
</g>
<defs>
<clipPath id="clip0">
<rect width="8" height="8" fill="white" transform="translate(12 12)"/>
</clipPath>
</defs>
</svg>
