<svg width="20" height="20" viewBox="0 0 20 20" version="1.1" xmlns="http://www.w3.org/2000/svg" xmlns:xlink="http://www.w3.org/1999/xlink">
<title>news</title>
<desc>Created using Figma</desc>
<g id="Canvas" transform="translate(394 388)">
<clipPath id="clip-0" clip-rule="evenodd">
<path d="M -394 -388L -374 -388L -374 -368L -394 -368L -394 -388Z" fill="#FFFFFF"/>
</clipPath>
<g id="news" clip-path="url(#clip-0)">
<g id="Vector">
<use xlink:href="#path0_fill" transform="translate(-391 -385)" fill="#191E23"/>
</g>
<clipPath id="clip-1" clip-rule="evenodd">
<path d="M -384 -378L -374 -378L -374 -368L -384 -368L -384 -378Z" fill="#FFFFFF"/>
</clipPath>
<g id="Logo" clip-path="url(#clip-1)">
<g id="Vector">
<use xlink:href="#path1_fill" transform="translate(-384 -378)" fill="#008DBE"/>
</g>
<g id="Ellipse">
<use xlink:href="#path2_fill" transform="translate(-379.75 -374)" fill="#FFFFFF"/>
</g>
<g id="Ellipse">
<use xlink:href="#path3_fill" transform="translate(-377.5 -374.5)" fill="#FFFFFF"/>
</g>
</g>
</g>
</g>
<defs>
<path id="path0_fill" d="M 13.4167 0L 2.72222 0C 2.21526 0 1.78298 0.313523 1.62244 0.75L 0.583333 0.75C 0.261163 0.75 0 1.00184 0 1.3125L 0 7.6875C 0 8.41237 0.609389 9 1.36111 9L 13.4167 9C 13.7388 9 14 8.74816 14 8.4375L 14 0.5625C 14 0.251836 13.7388 0 13.4167 0ZM 1.16667 7.6875L 1.16667 1.875L 1.55556 1.875L 1.55556 7.6875C 1.55556 7.79088 1.46832 7.875 1.36111 7.875C 1.2539 7.875 1.16667 7.79088 1.16667 7.6875ZM 12.8333 7.875L 2.70817 7.875C 2.71726 7.81373 2.72222 7.75118 2.72222 7.6875L 2.72222 1.125L 12.8333 1.125L 12.8333 7.875ZM 4.18056 5.0625L 7.48611 5.0625C 7.64718 5.0625 7.77778 4.93657 7.77778 4.78125L 7.77778 2.53125C 7.77778 2.37593 7.64718 2.25 7.48611 2.25L 4.18056 2.25C 4.01948 2.25 3.88889 2.37593 3.88889 2.53125L 3.88889 4.78125C 3.88889 4.93657 4.01948 5.0625 4.18056 5.0625ZM 4.86111 3.1875L 6.80556 3.1875L 6.80556 4.125L 4.86111 4.125L 4.86111 3.1875ZM 3.88889 6.46875L 3.88889 5.90625C 3.88889 5.75093 4.01948 5.625 4.18056 5.625L 7.48611 5.625C 7.64718 5.625 7.77778 5.75093 7.77778 5.90625L 7.77778 6.46875C 7.77778 6.62407 7.64718 6.75 7.48611 6.75L 4.18056 6.75C 4.01948 6.75 3.88889 6.62407 3.88889 6.46875ZM 8.55556 6.46875L 8.55556 5.90625C 8.55556 5.75093 8.68615 5.625 8.84722 5.625L 11.375 5.625C 11.5361 5.625 11.6667 5.75093 11.6667 5.90625L 11.6667 6.46875C 11.6667 6.62407 11.5361 6.75 11.375 6.75L 8.84722 6.75C 8.68615 6.75 8.55556 6.62407 8.55556 6.46875ZM 8.55556 3.09375L 8.55556 2.53125C 8.55556 2.37593 8.68615 2.25 8.84722 2.25L 11.375 2.25C 11.5361 2.25 11.6667 2.37593 11.6667 2.53125L 11.6667 3.09375C 11.6667 3.24907 11.5361 3.375 11.375 3.375L 8.84722 3.375C 8.68615 3.375 8.55556 3.24907 8.55556 3.09375ZM 8.55556 4.78125L 8.55556 4.21875C 8.55556 4.06343 8.68615 3.9375 8.84722 3.9375L 11.375 3.9375C 11.5361 3.9375 11.6667 4.06343 11.6667 4.21875L 11.6667 4.78125C 11.6667 4.93657 11.5361 5.0625 11.375 5.0625L 8.84722 5.0625C 8.68615 5.0625 8.55556 4.93657 8.55556 4.78125Z"/>
<path id="path1_fill" d="M 0 10L 0 4.00003C 0 2.04655 2.54888 0.00759371 5 3.05176e-05C 7.48789 -0.00764612 10 2.09538 10 4.00003L 10 10L 8.33333 8.33957L 6.66667 10L 5 8.33957L 3.33333 10L 1.66667 8.33957L 0 10Z"/>
<path id="path2_fill" d="M 1.5 0.75C 1.5 1.16421 1.16421 1.5 0.75 1.5C 0.335786 1.5 0 1.16421 0 0.75C 0 0.335786 0.335786 0 0.75 0C 1.16421 0 1.5 0.335786 1.5 0.75Z"/>
<path id="path3_fill" d="M 2 1C 2 1.55228 1.55228 2 1 2C 0.447715 2 0 1.55228 0 1C 0 0.447715 0.447715 0 1 0C 1.55228 0 2 0.447715 2 1Z"/>
</defs>
</svg>
