<svg width="20" height="20" viewBox="0 0 20 20" fill="none" xmlns="http://www.w3.org/2000/svg">
<g id="news">
<path id="Vector" d="M13.4167 0H2.72222C2.21526 0 1.78298 0.313523 1.62244 0.75H0.583333C0.261163 0.75 0 1.00184 0 1.3125V7.6875C0 8.41237 0.609389 9 1.36111 9H13.4167C13.7388 9 14 8.74816 14 8.4375V0.5625C14 0.251836 13.7388 0 13.4167 0ZM1.16667 7.6875V1.875H1.55556V7.6875C1.55556 7.79088 1.46832 7.875 1.36111 7.875C1.2539 7.875 1.16667 7.79088 1.16667 7.6875ZM12.8333 7.875H2.70817C2.71726 7.81373 2.72222 7.75118 2.72222 7.6875V1.125H12.8333V7.875ZM4.18056 5.0625H7.48611C7.64718 5.0625 7.77778 4.93657 7.77778 4.78125V2.53125C7.77778 2.37593 7.64718 2.25 7.48611 2.25H4.18056C4.01948 2.25 3.88889 2.37593 3.88889 2.53125V4.78125C3.88889 4.93657 4.01948 5.0625 4.18056 5.0625ZM4.86111 3.1875H6.80556V4.125H4.86111V3.1875ZM3.88889 6.46875V5.90625C3.88889 5.75093 4.01948 5.625 4.18056 5.625H7.48611C7.64718 5.625 7.77778 5.75093 7.77778 5.90625V6.46875C7.77778 6.62407 7.64718 6.75 7.48611 6.75H4.18056C4.01948 6.75 3.88889 6.62407 3.88889 6.46875ZM8.55556 6.46875V5.90625C8.55556 5.75093 8.68615 5.625 8.84722 5.625H11.375C11.5361 5.625 11.6667 5.75093 11.6667 5.90625V6.46875C11.6667 6.62407 11.5361 6.75 11.375 6.75H8.84722C8.68615 6.75 8.55556 6.62407 8.55556 6.46875ZM8.55556 3.09375V2.53125C8.55556 2.37593 8.68615 2.25 8.84722 2.25H11.375C11.5361 2.25 11.6667 2.37593 11.6667 2.53125V3.09375C11.6667 3.24907 11.5361 3.375 11.375 3.375H8.84722C8.68615 3.375 8.55556 3.24907 8.55556 3.09375ZM8.55556 4.78125V4.21875C8.55556 4.06343 8.68615 3.9375 8.84722 3.9375H11.375C11.5361 3.9375 11.6667 4.06343 11.6667 4.21875V4.78125C11.6667 4.93657 11.5361 5.0625 11.375 5.0625H8.84722C8.68615 5.0625 8.55556 4.93657 8.55556 4.78125Z" transform="translate(3 3)" fill="#191E23"/>
<g id="Logo" clip-path="url(#clip0)">
<path id="Vector_2" d="M0 8.00002V3.20002C0 1.63724 2.0391 0.00607497 4 2.44141e-05C5.99031 -0.0061169 8 1.67631 8 3.20002V8.00002L6.66667 6.67165L5.33333 8.00002L4 6.67165L2.66667 8.00002L1.33333 6.67165L0 8.00002Z" transform="translate(12 11.9999)" fill="#016C91"/>
<path id="Ellipse" d="M1.2 0.6C1.2 0.931371 0.931371 1.2 0.6 1.2C0.268629 1.2 0 0.931371 0 0.6C0 0.268629 0.268629 0 0.6 0C0.931371 0 1.2 0.268629 1.2 0.6Z" transform="translate(15.4 15.2)" fill="white"/>
<path id="Ellipse_2" d="M1.6 0.8C1.6 1.24183 1.24183 1.6 0.8 1.6C0.358172 1.6 0 1.24183 0 0.8C0 0.358172 0.358172 0 0.8 0C1.24183 0 1.6 0.358172 1.6 0.8Z" transform="translate(17.2 14.8)" fill="white"/>
</g>
</g>
<defs>
<clipPath id="clip0">
<rect width="8" height="8" fill="white" transform="translate(12 12)"/>
</clipPath>
</defs>
</svg>
