<svg width="24" height="24" viewBox="0 0 24 24" fill="none" xmlns="http://www.w3.org/2000/svg">
<path d="M11.9956 4L12.5275 3.47118C12.3866 3.32952 12.1951 3.24991 11.9953 3.25C11.7955 3.25009 11.6041 3.32987 11.4633 3.47165L11.9956 4ZM16.9481 8.98066L16.4163 9.50949L16.4165 9.50966L16.9481 8.98066ZM12 21L12 20.25L12 21ZM7.05188 8.98066L7.58354 9.50966L7.58418 9.50902L7.05188 8.98066ZM11.4638 4.52882L16.4163 9.50949L17.48 8.45184L12.5275 3.47118L11.4638 4.52882ZM16.4165 9.50966C17.2913 10.3889 17.8876 11.5098 18.1294 12.7308L19.6009 12.4394C19.3017 10.929 18.5638 9.54116 17.4798 8.45167L16.4165 9.50966ZM18.1294 12.7308C18.3713 13.9518 18.2475 15.2176 17.7741 16.3676L19.1611 16.9387C19.747 15.5155 19.9 13.9498 19.6009 12.4394L18.1294 12.7308ZM17.7741 16.3676C17.3006 17.5177 16.4989 18.5 15.4711 19.1908L16.3078 20.4357C17.5825 19.579 18.5752 18.3619 19.1611 16.9387L17.7741 16.3676ZM15.4711 19.1908C14.4433 19.8816 13.2354 20.25 12 20.25L12 21.75C13.534 21.75 15.0331 21.2925 16.3078 20.4357L15.4711 19.1908ZM12 20.25C10.7646 20.25 9.55668 19.8816 8.5289 19.1908L7.69217 20.4357C8.96687 21.2925 10.466 21.75 12 21.75L12 20.25ZM8.5289 19.1908C7.50106 18.5 6.69938 17.5177 6.22594 16.3676L4.83888 16.9387C5.42479 18.3619 6.41752 19.579 7.69217 20.4357L8.5289 19.1908ZM6.22594 16.3676C5.75247 15.2176 5.62873 13.9518 5.87055 12.7308L4.39913 12.4394C4.10001 13.9498 4.25299 15.5155 4.83888 16.9387L6.22594 16.3676ZM5.87055 12.7308C6.11237 11.5098 6.70873 10.3889 7.58354 9.50966L6.52022 8.45167C5.43618 9.54116 4.69825 10.929 4.39913 12.4394L5.87055 12.7308ZM7.58418 9.50902L12.5279 4.52835L11.4633 3.47165L6.51958 8.45231L7.58418 9.50902Z" fill="currentColor"/>
</svg>
