<svg width="24" height="24" viewBox="0 0 24 24" fill="none" xmlns="http://www.w3.org/2000/svg">
<path d="M12 20.3333C7.40832 20.3333 3.66666 16.5917 3.66666 12C3.66666 7.40832 7.40832 3.66666 12 3.66666C16.5917 3.66666 20.3333 7.03332 20.3333 11.1667C20.3333 13.925 18.0917 16.1667 15.3333 16.1667H13.8583C13.625 16.1667 13.4417 16.35 13.4417 16.5833C13.4417 16.6833 13.4833 16.775 13.55 16.8583C13.8917 17.25 14.0833 17.7417 14.0833 18.25C14.0833 19.4 13.15 20.3333 12 20.3333ZM12 5.33332C8.32499 5.33332 5.33332 8.32499 5.33332 12C5.33332 15.675 8.32499 18.6667 12 18.6667C12.2333 18.6667 12.4167 18.4833 12.4167 18.25C12.4167 18.1167 12.35 18.0167 12.3 17.9583C11.9583 17.575 11.775 17.0833 11.775 16.5833C11.775 15.4333 12.7083 14.5 13.8583 14.5H15.3333C17.175 14.5 18.6667 13.0083 18.6667 11.1667C18.6667 7.94999 15.675 5.33332 12 5.33332Z" fill="#191E23"/>
<path d="M7.41663 12.8333C8.10698 12.8333 8.66663 12.2737 8.66663 11.5833C8.66663 10.893 8.10698 10.3333 7.41663 10.3333C6.72627 10.3333 6.16663 10.893 6.16663 11.5833C6.16663 12.2737 6.72627 12.8333 7.41663 12.8333Z" fill="#191E23"/>
<path d="M9.91663 9.5C10.607 9.5 11.1666 8.94036 11.1666 8.25C11.1666 7.55964 10.607 7 9.91663 7C9.22627 7 8.66663 7.55964 8.66663 8.25C8.66663 8.94036 9.22627 9.5 9.91663 9.5Z" fill="#191E23"/>
<path d="M14.0833 9.5C14.7737 9.5 15.3333 8.94036 15.3333 8.25C15.3333 7.55964 14.7737 7 14.0833 7C13.393 7 12.8333 7.55964 12.8333 8.25C12.8333 8.94036 13.393 9.5 14.0833 9.5Z" fill="#191E23"/>
<path d="M16.5833 12.8333C17.2737 12.8333 17.8333 12.2737 17.8333 11.5833C17.8333 10.893 17.2737 10.3333 16.5833 10.3333C15.893 10.3333 15.3333 10.893 15.3333 11.5833C15.3333 12.2737 15.893 12.8333 16.5833 12.8333Z" fill="#191E23"/>
</svg>
