<svg width="24" height="24" viewBox="0 0 24 24" fill="none" xmlns="http://www.w3.org/2000/svg">
<path d="M5.43182 19C5.43182 19.4142 5.7676 19.75 6.18182 19.75C6.59603 19.75 6.93182 19.4142 6.93182 19H5.43182ZM6.93182 13.9444C6.93182 13.5302 6.59603 13.1944 6.18182 13.1944C5.7676 13.1944 5.43182 13.5302 5.43182 13.9444H6.93182ZM5.43182 11.0556C5.43182 11.4698 5.7676 11.8056 6.18182 11.8056C6.59603 11.8056 6.93182 11.4698 6.93182 11.0556H5.43182ZM6.93182 6C6.93182 5.58579 6.59603 5.25 6.18182 5.25C5.7676 5.25 5.43182 5.58579 5.43182 6H6.93182ZM11.25 19C11.25 19.4142 11.5858 19.75 12 19.75C12.4142 19.75 12.75 19.4142 12.75 19H11.25ZM12.75 12.5C12.75 12.0858 12.4142 11.75 12 11.75C11.5858 11.75 11.25 12.0858 11.25 12.5H12.75ZM11.25 9.61111C11.25 10.0253 11.5858 10.3611 12 10.3611C12.4142 10.3611 12.75 10.0253 12.75 9.61111H11.25ZM12.75 6C12.75 5.58579 12.4142 5.25 12 5.25C11.5858 5.25 11.25 5.58579 11.25 6H12.75ZM17.0682 19C17.0682 19.4142 17.404 19.75 17.8182 19.75C18.2324 19.75 18.5682 19.4142 18.5682 19H17.0682ZM18.5682 15.3889C18.5682 14.9747 18.2324 14.6389 17.8182 14.6389C17.404 14.6389 17.0682 14.9747 17.0682 15.3889H18.5682ZM17.0682 12.5C17.0682 12.9142 17.404 13.25 17.8182 13.25C18.2324 13.25 18.5682 12.9142 18.5682 12.5H17.0682ZM18.5682 6C18.5682 5.58579 18.2324 5.25 17.8182 5.25C17.404 5.25 17.0682 5.58579 17.0682 6H18.5682ZM4 13.1944C3.58579 13.1944 3.25 13.5302 3.25 13.9444C3.25 14.3587 3.58579 14.6944 4 14.6944V13.1944ZM8.36364 14.6944C8.77785 14.6944 9.11364 14.3587 9.11364 13.9444C9.11364 13.5302 8.77785 13.1944 8.36364 13.1944V14.6944ZM9.81818 8.86111C9.40397 8.86111 9.06818 9.1969 9.06818 9.61111C9.06818 10.0253 9.40397 10.3611 9.81818 10.3611V8.86111ZM14.1818 10.3611C14.596 10.3611 14.9318 10.0253 14.9318 9.61111C14.9318 9.1969 14.596 8.86111 14.1818 8.86111V10.3611ZM15.6364 14.6389C15.2222 14.6389 14.8864 14.9747 14.8864 15.3889C14.8864 15.8031 15.2222 16.1389 15.6364 16.1389V14.6389ZM20 16.1389C20.4142 16.1389 20.75 15.8031 20.75 15.3889C20.75 14.9747 20.4142 14.6389 20 14.6389V16.1389ZM6.93182 19V13.9444H5.43182V19H6.93182ZM6.93182 11.0556V6H5.43182V11.0556H6.93182ZM12.75 19V12.5H11.25V19H12.75ZM12.75 9.61111V6H11.25V9.61111H12.75ZM18.5682 19V15.3889H17.0682V19H18.5682ZM18.5682 12.5V6H17.0682V12.5H18.5682ZM4 14.6944H8.36364V13.1944H4V14.6944ZM9.81818 10.3611H14.1818V8.86111H9.81818V10.3611ZM15.6364 16.1389H20V14.6389H15.6364V16.1389Z" fill="currentColor"/>
</svg>
