<svg width="20" height="20" viewBox="0 0 20 20" version="1.1" xmlns="http://www.w3.org/2000/svg" xmlns:xlink="http://www.w3.org/1999/xlink">
<title>pricing</title>
<desc>Created using Figma</desc>
<g id="Canvas" transform="translate(373 410)">
<clipPath id="clip-0" clip-rule="evenodd">
<path d="M -373 -410L -353 -410L -353 -390L -373 -390L -373 -410Z" fill="#FFFFFF"/>
</clipPath>
<g id="pricing" clip-path="url(#clip-0)">
<g id="Vector">
<use xlink:href="#path0_fill" transform="translate(-366 -409)" fill="#191E23"/>
</g>
<clipPath id="clip-1" clip-rule="evenodd">
<path d="M -363 -400L -353 -400L -353 -390L -363 -390L -363 -400Z" fill="#FFFFFF"/>
</clipPath>
<g id="Logo" clip-path="url(#clip-1)">
<g id="Vector">
<use xlink:href="#path1_fill" transform="translate(-363 -400)" fill="#008DBE"/>
</g>
<g id="Ellipse">
<use xlink:href="#path2_fill" transform="translate(-358.75 -396)" fill="#FFFFFF"/>
</g>
<g id="Ellipse">
<use xlink:href="#path3_fill" transform="translate(-356.5 -396.5)" fill="#FFFFFF"/>
</g>
</g>
</g>
</g>
<defs>
<path id="path0_fill" d="M 4.35851 5.47031L 2.10803 4.72969C 1.84755 4.64531 1.66627 4.37109 1.66627 4.06641C 1.66627 3.68438 1.94132 3.375 2.28098 3.375L 3.66253 3.375C 3.91675 3.375 4.1668 3.46172 4.37518 3.62109C 4.50229 3.71719 4.67316 3.69375 4.78152 3.57422L 5.50667 2.77734C 5.65462 2.61562 5.63378 2.34609 5.46917 2.20312C 4.95864 1.75312 4.321 1.50234 3.6667 1.5L 3.6667 0.375C 3.6667 0.16875 3.51666 0 3.33329 0L 2.66648 0C 2.48311 0 2.33308 0.16875 2.33308 0.375L 2.33308 1.5L 2.28098 1.5C 0.953613 1.5 -0.113283 2.78203 0.00965975 4.30313C 0.0971785 5.38359 0.83067 6.2625 1.75587 6.56719L 3.89174 7.27031C 4.15222 7.35703 4.33351 7.62891 4.33351 7.93359C 4.33351 8.31562 4.05845 8.625 3.71879 8.625L 2.33724 8.625C 2.08302 8.625 1.83297 8.53828 1.62459 8.37891C 1.49748 8.28281 1.32661 8.30625 1.21825 8.42578L 0.493097 9.22266C 0.345148 9.38438 0.365986 9.65391 0.530605 9.79688C 1.04113 10.2469 1.67877 10.4977 2.33308 10.5L 2.33308 11.625C 2.33308 11.8313 2.48311 12 2.66648 12L 3.33329 12C 3.51666 12 3.6667 11.8313 3.6667 11.625L 3.6667 10.4953C 4.63774 10.4742 5.54835 9.825 5.86925 8.79141C 6.31726 7.34766 5.56502 5.86641 4.35851 5.47031L 4.35851 5.47031Z"/>
<path id="path1_fill" d="M 0 10L 0 4.00003C 0 2.04655 2.54888 0.00759371 5 3.05176e-05C 7.48789 -0.00764612 10 2.09538 10 4.00003L 10 10L 8.33333 8.33957L 6.66667 10L 5 8.33957L 3.33333 10L 1.66667 8.33957L 0 10Z"/>
<path id="path2_fill" d="M 1.5 0.75C 1.5 1.16421 1.16421 1.5 0.75 1.5C 0.335786 1.5 0 1.16421 0 0.75C 0 0.335786 0.335786 0 0.75 0C 1.16421 0 1.5 0.335786 1.5 0.75Z"/>
<path id="path3_fill" d="M 2 1C 2 1.55228 1.55228 2 1 2C 0.447715 2 0 1.55228 0 1C 0 0.447715 0.447715 0 1 0C 1.55228 0 2 0.447715 2 1Z"/>
</defs>
</svg>
