<svg width="20" height="20" viewBox="0 0 20 20" fill="none" xmlns="http://www.w3.org/2000/svg">
<g id="pricing">
<path id="Vector" d="M4.35851 5.47031L2.10803 4.72969C1.84755 4.64531 1.66627 4.37109 1.66627 4.06641C1.66627 3.68438 1.94132 3.375 2.28098 3.375H3.66253C3.91675 3.375 4.1668 3.46172 4.37518 3.62109C4.50229 3.71719 4.67316 3.69375 4.78152 3.57422L5.50667 2.77734C5.65462 2.61562 5.63378 2.34609 5.46917 2.20312C4.95864 1.75312 4.321 1.50234 3.6667 1.5V0.375C3.6667 0.16875 3.51666 0 3.33329 0H2.66648C2.48311 0 2.33308 0.16875 2.33308 0.375V1.5H2.28098C0.953613 1.5 -0.113283 2.78203 0.00965975 4.30313C0.0971785 5.38359 0.83067 6.2625 1.75587 6.56719L3.89174 7.27031C4.15222 7.35703 4.33351 7.62891 4.33351 7.93359C4.33351 8.31563 4.05845 8.625 3.71879 8.625H2.33724C2.08302 8.625 1.83297 8.53828 1.62459 8.37891C1.49748 8.28281 1.32661 8.30625 1.21825 8.42578L0.493097 9.22266C0.345149 9.38437 0.365986 9.65391 0.530605 9.79688C1.04113 10.2469 1.67877 10.4977 2.33308 10.5V11.625C2.33308 11.8313 2.48311 12 2.66648 12H3.33329C3.51666 12 3.6667 11.8313 3.6667 11.625V10.4953C4.63774 10.4742 5.54835 9.825 5.86925 8.79141C6.31727 7.34766 5.56502 5.86641 4.35851 5.47031Z" transform="translate(7 1)" fill="#191E23"/>
<g id="Logo" clip-path="url(#clip0)">
<path id="Vector_2" d="M0 8.00002V3.20002C0 1.63724 2.0391 0.00607497 4 2.44141e-05C5.99031 -0.0061169 8 1.67631 8 3.20002V8.00002L6.66667 6.67165L5.33333 8.00002L4 6.67165L2.66667 8.00002L1.33333 6.67165L0 8.00002Z" transform="translate(12 11.9999)" fill="#016C91"/>
<path id="Ellipse" d="M1.2 0.6C1.2 0.931371 0.931371 1.2 0.6 1.2C0.268629 1.2 0 0.931371 0 0.6C0 0.268629 0.268629 0 0.6 0C0.931371 0 1.2 0.268629 1.2 0.6Z" transform="translate(15.4 15.2)" fill="white"/>
<path id="Ellipse_2" d="M1.6 0.8C1.6 1.24183 1.24183 1.6 0.8 1.6C0.358172 1.6 0 1.24183 0 0.8C0 0.358172 0.358172 0 0.8 0C1.24183 0 1.6 0.358172 1.6 0.8Z" transform="translate(17.2 14.8)" fill="white"/>
</g>
</g>
<defs>
<clipPath id="clip0">
<rect width="8" height="8" fill="white" transform="translate(12 12)"/>
</clipPath>
</defs>
</svg>
