<svg width="24" height="25" viewBox="0 0 24 25" fill="none" xmlns="http://www.w3.org/2000/svg">
<path d="M12 3.66666C7.39999 3.66666 3.66666 7.39999 3.66666 12C3.66666 16.6 7.39999 20.3333 12 20.3333C16.6 20.3333 20.3333 16.6 20.3333 12C20.3333 7.39999 16.6 3.66666 12 3.66666ZM12 18.6667C8.32499 18.6667 5.33332 15.675 5.33332 12C5.33332 8.32499 8.32499 5.33332 12 5.33332C15.675 5.33332 18.6667 8.32499 18.6667 12C18.6667 15.675 15.675 18.6667 12 18.6667Z" fill="#191E23"/>
<path d="M12.2583 11.2833C10.7833 10.9083 10.3083 10.5 10.3083 9.89166C10.3083 9.19166 10.9667 8.69999 12.0583 8.69999C13.2083 8.69999 13.6417 9.24999 13.675 10.0667H15.1C15.0583 8.94999 14.375 7.92499 13.025 7.59166V6.16666H11.0833V7.57499C9.82501 7.84166 8.81668 8.65832 8.81668 9.91666C8.81668 11.4083 10.0583 12.1583 11.8667 12.5917C13.4917 12.975 13.8167 13.55 13.8167 14.15C13.8167 14.5917 13.4917 15.3083 12.0667 15.3083C10.7333 15.3083 10.2083 14.7083 10.1333 13.9417H8.70001C8.78335 15.3583 9.83335 16.1583 11.0833 16.4167V17.8333H13.0333V16.4417C14.3 16.2 15.3 15.475 15.3083 14.1333C15.3 12.3 13.725 11.6667 12.2583 11.2833Z" fill="#191E23"/>
<path d="M14.5 22V23.2039L15.3529 22.3542L16.1667 21.5435L16.9804 22.3542L17.3333 22.7058L17.6862 22.3542L18.5 21.5435L19.3138 22.3542L19.6667 22.7058L20.0196 22.3542L20.8333 21.5435L21.6471 22.3542L22.5 23.2039V22V17.8C22.5 16.9234 21.9369 16.0937 21.2183 15.51C20.4879 14.9165 19.504 14.4969 18.4985 14.5C17.5101 14.5031 16.5283 14.9115 15.7942 15.4988C15.071 16.0774 14.5 16.9049 14.5 17.8V22Z" fill="#9EA5A7" stroke="white"/>
<path d="M19.1562 18.2812C19.1562 18.6437 18.8624 18.9375 18.5 18.9375C18.1376 18.9375 17.8438 18.6437 17.8438 18.2812C17.8438 17.9188 18.1376 17.625 18.5 17.625C18.8624 17.625 19.1562 17.9188 19.1562 18.2812Z" fill="white"/>
<path d="M21.5625 18.0625C21.5625 18.5457 21.1707 18.9375 20.6875 18.9375C20.2043 18.9375 19.8125 18.5457 19.8125 18.0625C19.8125 17.5793 20.2043 17.1875 20.6875 17.1875C21.1707 17.1875 21.5625 17.5793 21.5625 18.0625Z" fill="white"/>
</svg>
