<svg width="24" height="24" viewBox="0 0 24 24" fill="none" xmlns="http://www.w3.org/2000/svg">
<g id="pricing">
<g id="outline-monetization_on-24px">
<g id="Outline">
<g id="Group">
<path id="Vector" d="M12 3.66666C7.39999 3.66666 3.66666 7.39999 3.66666 12C3.66666 16.6 7.39999 20.3333 12 20.3333C16.6 20.3333 20.3333 16.6 20.3333 12C20.3333 7.39999 16.6 3.66666 12 3.66666ZM12 18.6667C8.32499 18.6667 5.33332 15.675 5.33332 12C5.33332 8.32499 8.32499 5.33332 12 5.33332C15.675 5.33332 18.6667 8.32499 18.6667 12C18.6667 15.675 15.675 18.6667 12 18.6667Z" fill="#191E23"/>
<path id="Vector_2" d="M12.2583 11.2833C10.7833 10.9083 10.3083 10.5 10.3083 9.89166C10.3083 9.19166 10.9667 8.69999 12.0583 8.69999C13.2083 8.69999 13.6417 9.24999 13.675 10.0667H15.1C15.0583 8.94999 14.375 7.92499 13.025 7.59166V6.16666H11.0833V7.57499C9.82501 7.84166 8.81668 8.65832 8.81668 9.91666C8.81668 11.4083 10.0583 12.1583 11.8667 12.5917C13.4917 12.975 13.8167 13.55 13.8167 14.15C13.8167 14.5917 13.4917 15.3083 12.0667 15.3083C10.7333 15.3083 10.2083 14.7083 10.1333 13.9417H8.70001C8.78335 15.3583 9.83335 16.1583 11.0833 16.4167V17.8333H13.0333V16.4417C14.3 16.2 15.3 15.475 15.3083 14.1333C15.3 12.3 13.725 11.6667 12.2583 11.2833Z" fill="#191E23"/>
</g>
</g>
</g>
<g id="Logo" clip-path="url(#clip0)">
<path id="Vector_3" d="M15.1 22V23.2039L15.9529 22.3542L16.6667 21.6431L17.3804 22.3542L17.7333 22.7058L18.0862 22.3542L18.8 21.6431L19.5138 22.3542L19.8667 22.7058L20.2196 22.3542L20.9333 21.6431L21.6471 22.3542L22.5 23.2039V22V18.16C22.5 17.3405 21.9746 16.571 21.3124 16.033C20.6382 15.4853 19.7294 15.0972 18.7985 15.1C17.8836 15.1029 16.9769 15.4806 16.2994 16.0226C15.6328 16.5559 15.1 17.3235 15.1 18.16V22Z" fill="#9EA5A7" stroke="white"/>
<path id="Ellipse" d="M19.4 18.6C19.4 18.9314 19.1314 19.2 18.8 19.2C18.4686 19.2 18.2 18.9314 18.2 18.6C18.2 18.2686 18.4686 18 18.8 18C19.1314 18 19.4 18.2686 19.4 18.6Z" fill="white"/>
<path id="Ellipse_2" d="M21.6 18.4C21.6 18.8418 21.2418 19.2 20.8 19.2C20.3582 19.2 20 18.8418 20 18.4C20 17.9582 20.3582 17.6 20.8 17.6C21.2418 17.6 21.6 17.9582 21.6 18.4Z" fill="white"/>
</g>
</g>
<defs>
<clipPath id="clip0">
<rect width="8" height="8" fill="white" transform="translate(14 14)"/>
</clipPath>
</defs>
</svg>
