<svg width="20" height="20" viewBox="0 0 20 20" fill="none" xmlns="http://www.w3.org/2000/svg">
<g id="pricing">
<rect width="20" height="20" fill="black" fill-opacity="0"/>
<g id="outline-monetization_on-24px">
<rect width="20" height="20" fill="black" fill-opacity="0"/>
<g id="Outline">
<rect width="16.6667" height="16.6667" fill="black" fill-opacity="0" transform="translate(1.66666 1.66666)"/>
<g id="Group">
<rect width="16.6667" height="16.6667" fill="black" fill-opacity="0" transform="translate(1.66666 1.66666)"/>
<path id="Vector" d="M9.99999 1.66666C5.39999 1.66666 1.66666 5.39999 1.66666 9.99999C1.66666 14.6 5.39999 18.3333 9.99999 18.3333C14.6 18.3333 18.3333 14.6 18.3333 9.99999C18.3333 5.39999 14.6 1.66666 9.99999 1.66666ZM9.99999 16.6667C6.32499 16.6667 3.33332 13.675 3.33332 9.99999C3.33332 6.32499 6.32499 3.33332 9.99999 3.33332C13.675 3.33332 16.6667 6.32499 16.6667 9.99999C16.6667 13.675 13.675 16.6667 9.99999 16.6667Z" fill="#191E23"/>
<path id="Vector_2" d="M10.2583 9.28332C8.78335 8.90832 8.30835 8.49999 8.30835 7.89166C8.30835 7.19166 8.96668 6.69999 10.0583 6.69999C11.2083 6.69999 11.6417 7.24999 11.675 8.06666H13.1C13.0583 6.94999 12.375 5.92499 11.025 5.59166V4.16666H9.08335V5.57499C7.82501 5.84166 6.81668 6.65832 6.81668 7.91666C6.81668 9.40832 8.05835 10.1583 9.86668 10.5917C11.4917 10.975 11.8167 11.55 11.8167 12.15C11.8167 12.5917 11.4917 13.3083 10.0667 13.3083C8.73335 13.3083 8.20835 12.7083 8.13335 11.9417H6.70001C6.78335 13.3583 7.83335 14.1583 9.08335 14.4167V15.8333H11.0333V14.4417C12.3 14.2 13.3 13.475 13.3083 12.1333C13.3 10.3 11.725 9.66666 10.2583 9.28332Z" fill="#191E23"/>
</g>
</g>
</g>
<g id="Logo" clip-path="url(#clip0)">
<rect width="8" height="8" fill="black" fill-opacity="0" transform="translate(12 12)"/>
<path id="Vector_3" d="M13.1 20V21.2039L13.9529 20.3542L14.6667 19.6431L15.3804 20.3542L15.7333 20.7058L16.0862 20.3542L16.8 19.6431L17.5138 20.3542L17.8667 20.7058L18.2196 20.3542L18.9333 19.6431L19.6471 20.3542L20.5 21.2039V20V16.16C20.5 15.3405 19.9746 14.571 19.3124 14.033C18.6382 13.4853 17.7294 13.0972 16.7985 13.1C15.8836 13.1029 14.9769 13.4806 14.2994 14.0226C13.6328 14.5559 13.1 15.3235 13.1 16.16V20Z" fill="#9EA5A7" stroke="white"/>
<path id="Ellipse" d="M17.4 16.6C17.4 16.9314 17.1314 17.2 16.8 17.2C16.4686 17.2 16.2 16.9314 16.2 16.6C16.2 16.2686 16.4686 16 16.8 16C17.1314 16 17.4 16.2686 17.4 16.6Z" fill="white"/>
<path id="Ellipse_2" d="M19.6 16.4C19.6 16.8418 19.2418 17.2 18.8 17.2C18.3582 17.2 18 16.8418 18 16.4C18 15.9582 18.3582 15.6 18.8 15.6C19.2418 15.6 19.6 15.9582 19.6 16.4Z" fill="white"/>
</g>
</g>
<defs>
<clipPath id="clip0">
<rect width="8" height="8" fill="white" transform="translate(12 12)"/>
</clipPath>
</defs>
</svg>
