<svg width="20" height="20" viewBox="0 0 20 20" version="1.1" xmlns="http://www.w3.org/2000/svg" xmlns:xlink="http://www.w3.org/1999/xlink">
<title>social-links</title>
<desc>Created using Figma</desc>
<g id="Canvas" transform="translate(373 388)">
<clipPath id="clip-0" clip-rule="evenodd">
<path d="M -373 -388L -353 -388L -353 -368L -373 -368L -373 -388Z" fill="#FFFFFF"/>
</clipPath>
<g id="social-links" clip-path="url(#clip-0)">
<g id="Vector">
<use xlink:href="#path0_fill" transform="translate(-360 -380)" fill="#191E23"/>
</g>
<g id="Vector">
<use xlink:href="#path1_fill" transform="translate(-366 -380)" fill="#191E23"/>
</g>
<g id="Vector">
<use xlink:href="#path2_fill" transform="translate(-372 -380)" fill="#191E23"/>
</g>
<g id="Vector">
<use xlink:href="#path3_fill" transform="translate(-360 -386)" fill="#191E23"/>
</g>
<g id="Vector">
<use xlink:href="#path4_fill" transform="translate(-366 -386)" fill="#191E23"/>
</g>
<g id="Vector">
<use xlink:href="#path5_fill" transform="translate(-372 -386)" fill="#191E23"/>
</g>
<clipPath id="clip-1" clip-rule="evenodd">
<path d="M -363 -378L -353 -378L -353 -368L -363 -368L -363 -378Z" fill="#FFFFFF"/>
</clipPath>
<g id="Logo" clip-path="url(#clip-1)">
<g id="Vector">
<use xlink:href="#path6_fill" transform="translate(-363 -378)" fill="#008DBE"/>
</g>
<g id="Ellipse">
<use xlink:href="#path7_fill" transform="translate(-358.75 -374)" fill="#FFFFFF"/>
</g>
<g id="Ellipse">
<use xlink:href="#path8_fill" transform="translate(-356.5 -374.5)" fill="#FFFFFF"/>
</g>
</g>
</g>
</g>
<defs>
<path id="path0_fill" d="M 4.99767 0.923959C 4.97535 1.37416 4.63607 1.99061 3.9776 2.7733C 3.29793 3.5911 2.72316 4 2.25219 4C 1.9609 4 1.71425 3.75115 1.51225 3.25345C 1.1194 1.91936 0.951991 1.1377 0.62722 1.1377C 0.589274 1.1377 0.458696 1.21101 0.23437 1.35558L 0 1.07472C 0.575882 0.606959 1.12609 0.0865409 1.47095 0.0576288C 1.86046 0.0225212 2.09929 0.269307 2.18969 0.79592C 2.51 2.67004 2.65173 2.95297 3.23431 2.10419C 3.44301 1.79855 3.55573 1.56622 3.57136 1.40617C 3.62493 0.93222 3.17181 0.96423 2.8649 1.08607C 3.11043 0.341587 3.58029 -0.0198143 4.27335 0.000837171C 4.78451 0.0132281 5.02669 0.321968 4.99767 0.923959L 4.99767 0.923959Z"/>
<path id="path1_fill" d="M 0.281308 0L 0 0.686607L 0 3.49286L 1 3.49286L 1 4L 1.56262 4L 2.09346 3.49286L 2.90654 3.49286L 4 2.44821L 4 0L 0.281308 0ZM 3.62523 2.26875L 3 2.86607L 2 2.86607L 1.46916 3.37321L 1.46916 2.86607L 0.625234 2.86607L 0.625234 0.358036L 3.62523 0.358036L 3.62523 2.26875L 3.62523 2.26875ZM 3 1.04464L 3 2.08839L 2.62523 2.08839L 2.62523 1.04464L 3 1.04464ZM 2 1.04464L 2 2.08839L 1.62523 2.08839L 1.62523 1.04464L 2 1.04464Z"/>
<path id="path2_fill" d="M 3.91642 0.469398C 3.87041 0.284633 3.73487 0.139117 3.56277 0.0897344C 3.25084 0 2 0 2 0C 2 0 0.749171 0 0.437226 0.0897344C 0.265129 0.139125 0.129587 0.284633 0.0835839 0.469398C 0 0.804297 -2.84984e-09 1.50303 -2.84984e-09 1.50303C -2.84984e-09 1.50303 0 2.20177 0.0835839 2.53666C 0.129587 2.72143 0.265129 2.86088 0.437226 2.91027C 0.749171 3 2 3 2 3C 2 3 3.25083 3 3.56277 2.91027C 3.73487 2.86088 3.87041 2.72143 3.91642 2.53666C 4 2.20177 4 1.50303 4 1.50303C 4 1.50303 4 0.804297 3.91642 0.469398L 3.91642 0.469398ZM 1.59091 2.13743L 1.59091 0.868633L 2.63636 1.50305L 1.59091 2.13743L 1.59091 2.13743Z"/>
<path id="path3_fill" d="M 4.48605 0.996871C 4.48923 1.04062 4.48923 1.08438 4.48923 1.12812C 4.48923 2.46249 3.45814 4 1.57361 4C 0.993021 4 0.453683 3.83437 0 3.54688C 0.0824906 3.55625 0.161798 3.55938 0.247462 3.55938C 0.726517 3.55938 1.16751 3.40001 1.51967 3.12813C 1.06916 3.11875 0.691624 2.82813 0.561545 2.42812C 0.625002 2.43749 0.68845 2.44375 0.755081 2.44375C 0.847083 2.44375 0.939095 2.43124 1.02475 2.40938C 0.555207 2.31562 0.203038 1.90937 0.203038 1.41875L 0.203038 1.40625C 0.339454 1.48125 0.498098 1.52813 0.666233 1.53437C 0.390216 1.35312 0.209386 1.04375 0.209386 0.693743C 0.209386 0.506246 0.260138 0.334371 0.348976 0.18437C 0.853421 0.79687 1.61168 1.19686 2.46192 1.24062C 2.44606 1.16562 2.43654 1.0875 2.43654 1.00938C 2.43654 0.45312 2.8934 7.04528e-09 3.46129 7.04528e-09C 3.75634 7.04528e-09 4.02284 0.121875 4.21003 0.31875C 4.44162 0.275002 4.6637 0.190623 4.86041 0.0750006C 4.78426 0.309381 4.62246 0.506256 4.4099 0.631247C 4.61612 0.609383 4.816 0.553121 5 0.475003C 4.86043 0.674995 4.68593 0.853113 4.48605 0.996871L 4.48605 0.996871Z"/>
<path id="path4_fill" d="M 4 0.428571L 4 3.57143C 4 3.80804 3.80804 4 3.57143 4L 2.80982 4L 2.80982 2.41786L 3.35089 2.41786L 3.42857 1.81429L 2.80982 1.81429L 2.80982 1.42857C 2.80982 1.25357 2.85804 1.13482 3.10893 1.13482L 3.42857 1.13482L 3.42857 0.595536C 3.37321 0.588393 3.18393 0.571429 2.9625 0.571429C 2.50179 0.571429 2.18571 0.852679 2.18571 1.36964L 2.18571 1.81518L 1.64286 1.81518L 1.64286 2.41875L 2.18661 2.41875L 2.18661 4L 0.428571 4C 0.191964 4 0 3.80804 0 3.57143L 0 0.428571C 0 0.191964 0.191964 0 0.428571 0L 3.57143 0C 3.80804 0 4 0.191964 4 0.428571Z"/>
<path id="path5_fill" d="M 2.00045 0.974451C 1.43291 0.974451 0.975125 1.43233 0.975125 2C 0.975125 2.56767 1.43291 3.02555 2.00045 3.02555C 2.56799 3.02555 3.02577 2.56767 3.02577 2C 3.02577 1.43233 2.56799 0.974451 2.00045 0.974451ZM 2.00045 2.66674C 1.63369 2.66674 1.33385 2.36773 1.33385 2C 1.33385 1.63227 1.63279 1.33326 2.00045 1.33326C 2.3681 1.33326 2.66704 1.63227 2.66704 2C 2.66704 2.36773 2.36721 2.66674 2.00045 2.66674L 2.00045 2.66674ZM 3.30686 0.9325C 3.30686 1.06549 3.19978 1.17171 3.06771 1.17171C 2.93475 1.17171 2.82856 1.0646 2.82856 0.9325C 2.82856 0.800402 2.93564 0.693295 3.06771 0.693295C 3.19978 0.693295 3.30686 0.800402 3.30686 0.9325ZM 3.98595 1.17528C 3.97078 0.854848 3.8976 0.571014 3.66291 0.337164C 3.42911 0.103314 3.14534 0.0301239 2.82499 0.0140578C 2.49481 -0.00468592 1.50519 -0.00468592 1.17501 0.0140578C 0.855549 0.0292313 0.571779 0.102421 0.337089 0.336271C 0.102398 0.570122 0.0301171 0.853955 0.0140547 1.17438C -0.00468488 1.50463 -0.00468488 2.49448 0.0140547 2.82472C 0.0292248 3.14515 0.102398 3.42899 0.337089 3.66284C 0.571779 3.89669 0.854657 3.96988 1.17501 3.98594C 1.50519 4.00469 2.49481 4.00469 2.82499 3.98594C 3.14534 3.97077 3.42911 3.89758 3.66291 3.66284C 3.89671 3.42899 3.96988 3.14515 3.98595 2.82472C 4.00469 2.49448 4.00469 1.50552 3.98595 1.17528L 3.98595 1.17528ZM 3.5594 3.17907C 3.48979 3.35401 3.35505 3.48879 3.17925 3.5593C 2.91601 3.66373 2.29136 3.63963 2.00045 3.63963C 1.70954 3.63963 1.08399 3.66284 0.82164 3.5593C 0.646737 3.48968 0.511991 3.3549 0.441495 3.17907C 0.337089 2.91576 0.361182 2.29097 0.361182 2C 0.361182 1.70903 0.337981 1.08334 0.441495 0.820931C 0.511099 0.645989 0.645845 0.511213 0.82164 0.440701C 1.08489 0.336271 1.70954 0.36037 2.00045 0.36037C 2.29136 0.36037 2.9169 0.337164 3.17925 0.440701C 3.35416 0.51032 3.4889 0.645097 3.5594 0.820931C 3.6638 1.08424 3.63971 1.70903 3.63971 2C 3.63971 2.29097 3.6638 2.91666 3.5594 3.17907Z"/>
<path id="path6_fill" d="M 0 10L 0 4.00003C 0 2.04655 2.54888 0.00759371 5 3.05176e-05C 7.48789 -0.00764612 10 2.09538 10 4.00003L 10 10L 8.33333 8.33957L 6.66667 10L 5 8.33957L 3.33333 10L 1.66667 8.33957L 0 10Z"/>
<path id="path7_fill" d="M 1.5 0.75C 1.5 1.16421 1.16421 1.5 0.75 1.5C 0.335786 1.5 0 1.16421 0 0.75C 0 0.335786 0.335786 0 0.75 0C 1.16421 0 1.5 0.335786 1.5 0.75Z"/>
<path id="path8_fill" d="M 2 1C 2 1.55228 1.55228 2 1 2C 0.447715 2 0 1.55228 0 1C 0 0.447715 0.447715 0 1 0C 1.55228 0 2 0.447715 2 1Z"/>
</defs>
</svg>
