<svg width="20" height="20" viewBox="0 0 20 20" fill="none" xmlns="http://www.w3.org/2000/svg">
<g id="social-links">
<path id="Vector" d="M4.99767 0.923959C4.97535 1.37416 4.63607 1.99061 3.9776 2.7733C3.29793 3.5911 2.72316 4 2.25219 4C1.9609 4 1.71425 3.75115 1.51225 3.25345C1.1194 1.91936 0.951991 1.1377 0.62722 1.1377C0.589274 1.1377 0.458696 1.21101 0.23437 1.35558L0 1.07472C0.575882 0.606959 1.12609 0.0865409 1.47095 0.0576288C1.86046 0.0225212 2.09929 0.269307 2.18969 0.79592C2.51 2.67004 2.65173 2.95297 3.23431 2.10419C3.44301 1.79855 3.55573 1.56622 3.57136 1.40617C3.62493 0.93222 3.17181 0.96423 2.8649 1.08607C3.11043 0.341587 3.58029 -0.0198143 4.27336 0.000837171C4.78451 0.0132281 5.02669 0.321968 4.99767 0.923959Z" transform="translate(13 8)" fill="#191E23"/>
<path id="Vector_2" d="M0.281308 0L0 0.686607V3.49286H1V4H1.56262L2.09346 3.49286H2.90654L4 2.44821V0H0.281308ZM3.62523 2.26875L3 2.86607H2L1.46916 3.37321V2.86607H0.625234V0.358036H3.62523V2.26875ZM3 1.04464V2.08839H2.62523V1.04464H3ZM2 1.04464V2.08839H1.62523V1.04464H2Z" transform="translate(7 8)" fill="#191E23"/>
<path id="Vector_3" d="M3.91642 0.469398C3.87041 0.284633 3.73487 0.139117 3.56277 0.0897344C3.25084 0 2 0 2 0C2 0 0.749171 0 0.437226 0.0897344C0.265129 0.139125 0.129587 0.284633 0.0835839 0.469398C0 0.804297 -2.84984e-09 1.50303 -2.84984e-09 1.50303C-2.84984e-09 1.50303 0 2.20177 0.0835839 2.53666C0.129587 2.72143 0.265129 2.86088 0.437226 2.91027C0.749171 3 2 3 2 3C2 3 3.25083 3 3.56277 2.91027C3.73487 2.86088 3.87041 2.72143 3.91642 2.53666C4 2.20177 4 1.50303 4 1.50303C4 1.50303 4 0.804297 3.91642 0.469398ZM1.59091 2.13743V0.868633L2.63636 1.50305L1.59091 2.13743Z" transform="translate(1 8)" fill="#191E23"/>
<path id="Vector_4" d="M4.48605 0.996871C4.48923 1.04062 4.48923 1.08438 4.48923 1.12812C4.48923 2.46249 3.45814 4 1.57361 4C0.993021 4 0.453683 3.83437 0 3.54688C0.0824906 3.55625 0.161798 3.55938 0.247462 3.55938C0.726517 3.55938 1.16751 3.40001 1.51967 3.12813C1.06916 3.11875 0.691624 2.82813 0.561545 2.42812C0.625002 2.43749 0.68845 2.44375 0.755081 2.44375C0.847083 2.44375 0.939095 2.43124 1.02475 2.40938C0.555207 2.31562 0.203038 1.90937 0.203038 1.41875V1.40625C0.339454 1.48125 0.498098 1.52813 0.666233 1.53437C0.390216 1.35312 0.209386 1.04375 0.209386 0.693743C0.209386 0.506246 0.260138 0.334371 0.348976 0.18437C0.853421 0.79687 1.61168 1.19686 2.46192 1.24062C2.44606 1.16562 2.43654 1.0875 2.43654 1.00938C2.43654 0.45312 2.8934 7.04528e-09 3.46129 7.04528e-09C3.75634 7.04528e-09 4.02284 0.121875 4.21003 0.31875C4.44162 0.275002 4.6637 0.190623 4.86041 0.0750006C4.78426 0.309381 4.62246 0.506256 4.4099 0.631247C4.61612 0.609383 4.816 0.55312 5 0.475003C4.86043 0.674995 4.68593 0.853113 4.48605 0.996871Z" transform="translate(13 2)" fill="#191E23"/>
<path id="Vector_5" d="M4 0.428571V3.57143C4 3.80804 3.80804 4 3.57143 4H2.80982V2.41786H3.35089L3.42857 1.81429H2.80982V1.42857C2.80982 1.25357 2.85804 1.13482 3.10893 1.13482H3.42857V0.595536C3.37321 0.588393 3.18393 0.571429 2.9625 0.571429C2.50179 0.571429 2.18571 0.852679 2.18571 1.36964V1.81518H1.64286V2.41875H2.18661V4H0.428571C0.191964 4 0 3.80804 0 3.57143V0.428571C0 0.191964 0.191964 0 0.428571 0H3.57143C3.80804 0 4 0.191964 4 0.428571Z" transform="translate(7 2)" fill="#191E23"/>
<path id="Vector_6" d="M2.00045 0.974451C1.43291 0.974451 0.975125 1.43233 0.975125 2C0.975125 2.56767 1.43291 3.02555 2.00045 3.02555C2.56799 3.02555 3.02577 2.56767 3.02577 2C3.02577 1.43233 2.56799 0.974451 2.00045 0.974451ZM2.00045 2.66674C1.63369 2.66674 1.33385 2.36773 1.33385 2C1.33385 1.63227 1.63279 1.33326 2.00045 1.33326C2.3681 1.33326 2.66704 1.63227 2.66704 2C2.66704 2.36773 2.36721 2.66674 2.00045 2.66674ZM3.30686 0.9325C3.30686 1.06549 3.19978 1.17171 3.06771 1.17171C2.93475 1.17171 2.82856 1.0646 2.82856 0.9325C2.82856 0.800402 2.93564 0.693295 3.06771 0.693295C3.19978 0.693295 3.30686 0.800402 3.30686 0.9325ZM3.98595 1.17528C3.97078 0.854848 3.8976 0.571014 3.66291 0.337164C3.42911 0.103314 3.14534 0.0301239 2.82499 0.0140578C2.49481 -0.00468592 1.50519 -0.00468592 1.17501 0.0140578C0.855549 0.0292313 0.571779 0.102421 0.337089 0.336271C0.102398 0.570122 0.0301171 0.853955 0.0140547 1.17438C-0.00468488 1.50463 -0.00468488 2.49448 0.0140547 2.82472C0.0292248 3.14515 0.102398 3.42899 0.337089 3.66284C0.571779 3.89669 0.854657 3.96988 1.17501 3.98594C1.50519 4.00469 2.49481 4.00469 2.82499 3.98594C3.14534 3.97077 3.42911 3.89758 3.66291 3.66284C3.89671 3.42899 3.96988 3.14515 3.98595 2.82472C4.00469 2.49448 4.00469 1.50552 3.98595 1.17528ZM3.5594 3.17907C3.48979 3.35401 3.35505 3.48879 3.17925 3.5593C2.91601 3.66373 2.29136 3.63963 2.00045 3.63963C1.70954 3.63963 1.08399 3.66284 0.82164 3.5593C0.646737 3.48968 0.511991 3.3549 0.441495 3.17907C0.337089 2.91576 0.361182 2.29097 0.361182 2C0.361182 1.70903 0.337981 1.08334 0.441495 0.820931C0.511099 0.645989 0.645845 0.511213 0.82164 0.440701C1.08489 0.336271 1.70954 0.36037 2.00045 0.36037C2.29136 0.36037 2.9169 0.337164 3.17925 0.440701C3.35416 0.51032 3.4889 0.645097 3.5594 0.820931C3.6638 1.08424 3.63971 1.70903 3.63971 2C3.63971 2.29097 3.6638 2.91666 3.5594 3.17907Z" transform="translate(1 2)" fill="#191E23"/>
<g id="Logo" clip-path="url(#clip0)">
<path id="Vector_7" d="M0 8.00002V3.20002C0 1.63724 2.0391 0.00607497 4 2.44141e-05C5.99031 -0.0061169 8 1.67631 8 3.20002V8.00002L6.66667 6.67165L5.33333 8.00002L4 6.67165L2.66667 8.00002L1.33333 6.67165L0 8.00002Z" transform="translate(12 11.9999)" fill="#016C91"/>
<path id="Ellipse" d="M1.2 0.6C1.2 0.931371 0.931371 1.2 0.6 1.2C0.268629 1.2 0 0.931371 0 0.6C0 0.268629 0.268629 0 0.6 0C0.931371 0 1.2 0.268629 1.2 0.6Z" transform="translate(15.4 15.2)" fill="white"/>
<path id="Ellipse_2" d="M1.6 0.8C1.6 1.24183 1.24183 1.6 0.8 1.6C0.358172 1.6 0 1.24183 0 0.8C0 0.358172 0.358172 0 0.8 0C1.24183 0 1.6 0.358172 1.6 0.8Z" transform="translate(17.2 14.8)" fill="white"/>
</g>
</g>
<defs>
<clipPath id="clip0">
<rect width="8" height="8" fill="white" transform="translate(12 12)"/>
</clipPath>
</defs>
</svg>
