<svg width="24" height="24" viewBox="0 0 24 24" fill="none" xmlns="http://www.w3.org/2000/svg">
<g id="social-links">
<g id="Group">
<path id="Vector" d="M20.9975 11.6164C20.9739 12.1116 20.6147 12.7897 19.9174 13.6506C19.1978 14.5502 18.5892 15 18.0905 15C17.7821 15 17.521 14.7263 17.3071 14.1788C16.8911 12.7113 16.7139 11.8515 16.37 11.8515C16.3298 11.8515 16.1916 11.9321 15.954 12.0911L15.7059 11.7822C16.3156 11.2677 16.8982 10.6952 17.2634 10.6634C17.6758 10.6248 17.9286 10.8962 18.0244 11.4755C18.3635 13.5371 18.5136 13.8483 19.1304 12.9146C19.3514 12.5784 19.4708 12.3228 19.4873 12.1468C19.544 11.6254 19.0643 11.6607 18.7393 11.7947C18.9993 10.9758 19.4968 10.5782 20.2306 10.6009C20.7718 10.6146 21.0282 10.9542 20.9975 11.6164Z" fill="#191E23"/>
<path id="Vector_2" d="M9.65079 10.6L9.35294 11.3553V14.4421H10.4118V15H11.0075L11.5695 14.4421H12.4305L13.5882 13.293V10.6H9.65079ZM13.1914 13.0956L12.5294 13.7527H11.4706L10.9085 14.3105V13.7527H10.0149V10.9938H13.1914V13.0956ZM12.5294 11.7491V12.8972H12.1326V11.7491H12.5294ZM11.4706 11.7491V12.8972H11.0738V11.7491H11.4706Z" fill="#191E23"/>
<path id="Vector_3" d="M7.14679 11.1163C7.09808 10.9131 6.95457 10.753 6.77235 10.6987C6.44206 10.6 5.11765 10.6 5.11765 10.6C5.11765 10.6 3.79324 10.6 3.46295 10.6987C3.28072 10.753 3.13721 10.9131 3.0885 11.1163C3 11.4847 3 12.2533 3 12.2533C3 12.2533 3 13.0219 3.0885 13.3903C3.13721 13.5936 3.28072 13.747 3.46295 13.8013C3.79324 13.9 5.11765 13.9 5.11765 13.9C5.11765 13.9 6.44205 13.9 6.77235 13.8013C6.95457 13.747 7.09808 13.5936 7.14679 13.3903C7.23529 13.0219 7.23529 12.2533 7.23529 12.2533C7.23529 12.2533 7.23529 11.4847 7.14679 11.1163ZM4.68449 12.9512V11.5555L5.79144 12.2534L4.68449 12.9512Z" fill="#191E23"/>
<path id="Vector_4" d="M20.4558 5.09656C20.4592 5.14468 20.4592 5.19281 20.4592 5.24094C20.4592 6.70874 19.3674 8.4 17.372 8.4C16.7573 8.4 16.1862 8.2178 15.7059 7.90157C15.7932 7.91187 15.8772 7.91531 15.9679 7.91531C16.4751 7.91531 16.9421 7.74001 17.3149 7.44094C16.8379 7.43063 16.4382 7.11094 16.3004 6.67094C16.3676 6.68124 16.4348 6.68812 16.5054 6.68812C16.6028 6.68812 16.7002 6.67437 16.7909 6.65031C16.2937 6.54718 15.9209 6.10031 15.9209 5.56062V5.54688C16.0653 5.62938 16.2333 5.68094 16.4113 5.68781C16.119 5.48843 15.9276 5.14812 15.9276 4.76312C15.9276 4.55687 15.9813 4.36781 16.0754 4.20281C16.6095 4.87656 17.4124 5.31655 18.3126 5.36468C18.2958 5.28218 18.2857 5.19625 18.2857 5.11031C18.2857 4.49843 18.7695 4 19.3708 4C19.6832 4 19.9653 4.13406 20.1635 4.35062C20.4088 4.3025 20.6439 4.20969 20.8522 4.0825C20.7716 4.34032 20.6002 4.55688 20.3752 4.69437C20.5935 4.67032 20.8052 4.60843 21 4.5225C20.8522 4.74249 20.6674 4.93842 20.4558 5.09656Z" fill="#191E23"/>
<path id="Vector_5" d="M13.5882 4.47143V7.92857C13.5882 8.18884 13.385 8.4 13.1344 8.4H12.328V6.65964H12.9009L12.9832 5.99571H12.328V5.57143C12.328 5.37893 12.3791 5.2483 12.6447 5.2483H12.9832V4.65509C12.9246 4.64723 12.7242 4.62857 12.4897 4.62857C12.0019 4.62857 11.6672 4.93795 11.6672 5.50661V5.9967H11.0924V6.66062H11.6682V8.4H9.80672C9.55619 8.4 9.35294 8.18884 9.35294 7.92857V4.47143C9.35294 4.21116 9.55619 4 9.80672 4H13.1344C13.385 4 13.5882 4.21116 13.5882 4.47143Z" fill="#191E23"/>
<path id="Vector_6" d="M5.11812 5.0719C4.51719 5.0719 4.03249 5.57557 4.03249 6.2C4.03249 6.82443 4.51719 7.3281 5.11812 7.3281C5.71904 7.3281 6.20375 6.82443 6.20375 6.2C6.20375 5.57557 5.71904 5.0719 5.11812 5.0719ZM5.11812 6.93342C4.72979 6.93342 4.41232 6.60451 4.41232 6.2C4.41232 5.79549 4.72884 5.46658 5.11812 5.46658C5.5074 5.46658 5.82392 5.79549 5.82392 6.2C5.82392 6.60451 5.50645 6.93342 5.11812 6.93342ZM6.50138 5.02575C6.50138 5.17204 6.388 5.28888 6.24816 5.28888C6.10738 5.28888 5.99494 5.17106 5.99494 5.02575C5.99494 4.88044 6.10832 4.76262 6.24816 4.76262C6.388 4.76262 6.50138 4.88044 6.50138 5.02575ZM7.22041 5.2928C7.20435 4.94033 7.12687 4.62812 6.87838 4.37088C6.63083 4.11364 6.33036 4.03314 5.99116 4.01546C5.64157 3.99485 4.59373 3.99485 4.24413 4.01546C3.90588 4.03215 3.60541 4.11266 3.35692 4.3699C3.10842 4.62713 3.03189 4.93935 3.01488 5.29182C2.99504 5.65509 2.99504 6.74392 3.01488 7.1072C3.03094 7.45967 3.10842 7.77188 3.35692 8.02912C3.60541 8.28636 3.90493 8.36686 4.24413 8.38454C4.59373 8.40515 5.64157 8.40515 5.99116 8.38454C6.33036 8.36785 6.63083 8.28734 6.87838 8.02912C7.12593 7.77188 7.20341 7.45967 7.22041 7.1072C7.24025 6.74392 7.24025 5.65608 7.22041 5.2928ZM6.76877 7.49698C6.69508 7.68941 6.5524 7.83767 6.36627 7.91523C6.08754 8.0301 5.42614 8.00359 5.11812 8.00359C4.8101 8.00359 4.14776 8.02912 3.86997 7.91523C3.68478 7.83865 3.54211 7.69039 3.46747 7.49698C3.35692 7.20734 3.38243 6.52007 3.38243 6.2C3.38243 5.87993 3.35786 5.19168 3.46747 4.90302C3.54116 4.71059 3.68384 4.56233 3.86997 4.48477C4.1487 4.3699 4.8101 4.39641 5.11812 4.39641C5.42614 4.39641 6.08848 4.37088 6.36627 4.48477C6.55146 4.56135 6.69413 4.70961 6.76877 4.90302C6.87932 5.19266 6.85381 5.87993 6.85381 6.2C6.85381 6.52007 6.87932 7.20832 6.76877 7.49698Z" fill="#191E23"/>
</g>
<g id="Logo" clip-path="url(#clip0)">
<path id="Vector_7" d="M15.1 22V23.2039L15.9529 22.3542L16.6667 21.6431L17.3804 22.3542L17.7333 22.7058L18.0862 22.3542L18.8 21.6431L19.5138 22.3542L19.8667 22.7058L20.2196 22.3542L20.9333 21.6431L21.6471 22.3542L22.5 23.2039V22V18.16C22.5 17.3405 21.9746 16.571 21.3124 16.033C20.6382 15.4853 19.7294 15.0972 18.7985 15.1C17.8836 15.1029 16.9769 15.4806 16.2994 16.0226C15.6328 16.5559 15.1 17.3235 15.1 18.16V22Z" fill="#9EA5A7" stroke="white"/>
<path id="Ellipse" d="M19.4 18.6C19.4 18.9314 19.1314 19.2 18.8 19.2C18.4686 19.2 18.2 18.9314 18.2 18.6C18.2 18.2686 18.4686 18 18.8 18C19.1314 18 19.4 18.2686 19.4 18.6Z" fill="white"/>
<path id="Ellipse_2" d="M21.6 18.4C21.6 18.8418 21.2418 19.2 20.8 19.2C20.3582 19.2 20 18.8418 20 18.4C20 17.9582 20.3582 17.6 20.8 17.6C21.2418 17.6 21.6 17.9582 21.6 18.4Z" fill="white"/>
</g>
</g>
<defs>
<clipPath id="clip0">
<rect width="8" height="8" fill="white" transform="translate(14 14)"/>
</clipPath>
</defs>
</svg>
