<svg width="20" height="20" viewBox="0 0 20 20" fill="none" xmlns="http://www.w3.org/2000/svg">
<g id="social-links">
<rect width="20" height="20" fill="black" fill-opacity="0"/>
<path id="Vector" d="M17.9977 8.92396C17.9753 9.37416 17.6361 9.99061 16.9776 10.7733C16.2979 11.5911 15.7232 12 15.2522 12C14.9609 12 14.7143 11.7511 14.5122 11.2534C14.1194 9.91936 13.952 9.1377 13.6272 9.1377C13.5893 9.1377 13.4587 9.21101 13.2344 9.35558L13 9.07472C13.5759 8.60696 14.1261 8.08654 14.471 8.05763C14.8605 8.02252 15.0993 8.26931 15.1897 8.79592C15.51 10.67 15.6517 10.953 16.2343 10.1042C16.443 9.79855 16.5557 9.56622 16.5714 9.40617C16.6249 8.93222 16.1718 8.96423 15.8649 9.08607C16.1104 8.34159 16.5803 7.98019 17.2734 8.00084C17.7845 8.01323 18.0267 8.32197 17.9977 8.92396Z" fill="#191E23"/>
<path id="Vector_2" d="M7.28131 8L7 8.68661V11.4929H8V12H8.56262L9.09346 11.4929H9.90654L11 10.4482V8H7.28131ZM10.6252 10.2688L10 10.8661H9L8.46916 11.3732V10.8661H7.62523V8.35804H10.6252V10.2688ZM10 9.04464V10.0884H9.62523V9.04464H10ZM9 9.04464V10.0884H8.62523V9.04464H9Z" fill="#191E23"/>
<path id="Vector_3" d="M4.91642 8.4694C4.87041 8.28463 4.73487 8.13912 4.56277 8.08973C4.25084 8 3 8 3 8C3 8 1.74917 8 1.43723 8.08973C1.26513 8.13913 1.12959 8.28463 1.08358 8.4694C1 8.8043 1 9.50303 1 9.50303C1 9.50303 1 10.2018 1.08358 10.5367C1.12959 10.7214 1.26513 10.8609 1.43723 10.9103C1.74917 11 3 11 3 11C3 11 4.25083 11 4.56277 10.9103C4.73487 10.8609 4.87041 10.7214 4.91642 10.5367C5 10.2018 5 9.50303 5 9.50303C5 9.50303 5 8.8043 4.91642 8.4694ZM2.59091 10.1374V8.86863L3.63636 9.50305L2.59091 10.1374Z" fill="#191E23"/>
<path id="Vector_4" d="M17.4861 2.99687C17.4892 3.04062 17.4892 3.08438 17.4892 3.12812C17.4892 4.46249 16.4581 6 14.5736 6C13.993 6 13.4537 5.83437 13 5.54688C13.0825 5.55625 13.1618 5.55938 13.2475 5.55938C13.7265 5.55938 14.1675 5.40001 14.5197 5.12813C14.0692 5.11875 13.6916 4.82813 13.5615 4.42812C13.625 4.43749 13.6884 4.44375 13.7551 4.44375C13.8471 4.44375 13.9391 4.43124 14.0248 4.40938C13.5552 4.31562 13.203 3.90937 13.203 3.41875V3.40625C13.3395 3.48125 13.4981 3.52813 13.6662 3.53437C13.3902 3.35312 13.2094 3.04375 13.2094 2.69374C13.2094 2.50625 13.2601 2.33437 13.349 2.18437C13.8534 2.79687 14.6117 3.19686 15.4619 3.24062C15.4461 3.16562 15.4365 3.0875 15.4365 3.00938C15.4365 2.45312 15.8934 2 16.4613 2C16.7563 2 17.0228 2.12187 17.21 2.31875C17.4416 2.275 17.6637 2.19062 17.8604 2.075C17.7843 2.30938 17.6225 2.50626 17.4099 2.63125C17.6161 2.60938 17.816 2.55312 18 2.475C17.8604 2.675 17.6859 2.85311 17.4861 2.99687Z" fill="#191E23"/>
<path id="Vector_5" d="M11 2.42857V5.57143C11 5.80804 10.808 6 10.5714 6H9.80982V4.41786H10.3509L10.4286 3.81429H9.80982V3.42857C9.80982 3.25357 9.85804 3.13482 10.1089 3.13482H10.4286V2.59554C10.3732 2.58839 10.1839 2.57143 9.9625 2.57143C9.50179 2.57143 9.18571 2.85268 9.18571 3.36964V3.81518H8.64286V4.41875H9.18661V6H7.42857C7.19196 6 7 5.80804 7 5.57143V2.42857C7 2.19196 7.19196 2 7.42857 2H10.5714C10.808 2 11 2.19196 11 2.42857Z" fill="#191E23"/>
<path id="Vector_6" d="M3.00045 2.97445C2.43291 2.97445 1.97513 3.43233 1.97513 4C1.97513 4.56767 2.43291 5.02555 3.00045 5.02555C3.56799 5.02555 4.02577 4.56767 4.02577 4C4.02577 3.43233 3.56799 2.97445 3.00045 2.97445ZM3.00045 4.66674C2.63369 4.66674 2.33385 4.36773 2.33385 4C2.33385 3.63227 2.63279 3.33326 3.00045 3.33326C3.3681 3.33326 3.66704 3.63227 3.66704 4C3.66704 4.36773 3.36721 4.66674 3.00045 4.66674ZM4.30686 2.9325C4.30686 3.06549 4.19978 3.17171 4.06771 3.17171C3.93475 3.17171 3.82856 3.0646 3.82856 2.9325C3.82856 2.8004 3.93564 2.69329 4.06771 2.69329C4.19978 2.69329 4.30686 2.8004 4.30686 2.9325ZM4.98595 3.17528C4.97078 2.85485 4.8976 2.57101 4.66291 2.33716C4.42911 2.10331 4.14534 2.03012 3.82499 2.01406C3.49481 1.99531 2.50519 1.99531 2.17501 2.01406C1.85555 2.02923 1.57178 2.10242 1.33709 2.33627C1.1024 2.57012 1.03012 2.85396 1.01405 3.17438C0.995315 3.50463 0.995315 4.49448 1.01405 4.82472C1.02922 5.14515 1.1024 5.42899 1.33709 5.66284C1.57178 5.89669 1.85466 5.96988 2.17501 5.98594C2.50519 6.00469 3.49481 6.00469 3.82499 5.98594C4.14534 5.97077 4.42911 5.89758 4.66291 5.66284C4.89671 5.42899 4.96988 5.14515 4.98595 4.82472C5.00469 4.49448 5.00469 3.50552 4.98595 3.17528ZM4.5594 5.17907C4.48979 5.35401 4.35505 5.48879 4.17925 5.5593C3.91601 5.66373 3.29136 5.63963 3.00045 5.63963C2.70954 5.63963 2.08399 5.66284 1.82164 5.5593C1.64674 5.48968 1.51199 5.3549 1.44149 5.17907C1.33709 4.91576 1.36118 4.29097 1.36118 4C1.36118 3.70903 1.33798 3.08334 1.44149 2.82093C1.5111 2.64599 1.64584 2.51121 1.82164 2.4407C2.08489 2.33627 2.70954 2.36037 3.00045 2.36037C3.29136 2.36037 3.9169 2.33716 4.17925 2.4407C4.35416 2.51032 4.4889 2.6451 4.5594 2.82093C4.6638 3.08424 4.63971 3.70903 4.63971 4C4.63971 4.29097 4.6638 4.91666 4.5594 5.17907Z" fill="#191E23"/>
<g id="Logo" clip-path="url(#clip0)">
<rect width="8" height="8" fill="black" fill-opacity="0" transform="translate(12 12)"/>
<path id="Vector_7" d="M13.1 20V21.2039L13.9529 20.3542L14.6667 19.6431L15.3804 20.3542L15.7333 20.7058L16.0862 20.3542L16.8 19.6431L17.5138 20.3542L17.8667 20.7058L18.2196 20.3542L18.9333 19.6431L19.6471 20.3542L20.5 21.2039V20V16.16C20.5 15.3405 19.9746 14.571 19.3124 14.033C18.6382 13.4853 17.7294 13.0972 16.7985 13.1C15.8836 13.1029 14.9769 13.4806 14.2994 14.0226C13.6328 14.5559 13.1 15.3235 13.1 16.16V20Z" fill="#9EA5A7" stroke="white"/>
<path id="Ellipse" d="M17.4 16.6C17.4 16.9314 17.1314 17.2 16.8 17.2C16.4686 17.2 16.2 16.9314 16.2 16.6C16.2 16.2686 16.4686 16 16.8 16C17.1314 16 17.4 16.2686 17.4 16.6Z" fill="white"/>
<path id="Ellipse_2" d="M19.6 16.4C19.6 16.8418 19.2418 17.2 18.8 17.2C18.3582 17.2 18 16.8418 18 16.4C18 15.9582 18.3582 15.6 18.8 15.6C19.2418 15.6 19.6 15.9582 19.6 16.4Z" fill="white"/>
</g>
</g>
<defs>
<clipPath id="clip0">
<rect width="8" height="8" fill="white" transform="translate(12 12)"/>
</clipPath>
</defs>
</svg>
