<svg width="24" height="24" viewBox="0 0 24 24" fill="none" xmlns="http://www.w3.org/2000/svg">
<path d="M18.2857 3H5.71429C4.76786 3 4 3.75586 4 4.6875V19.3125C4 20.2441 4.76786 21 5.71429 21H18.2857C19.2321 21 20 20.2441 20 19.3125V4.6875C20 3.75586 19.2321 3 18.2857 3ZM12 19.875C11.3679 19.875 10.8571 19.3723 10.8571 18.75C10.8571 18.1277 11.3679 17.625 12 17.625C12.6321 17.625 13.1429 18.1277 13.1429 18.75C13.1429 19.3723 12.6321 19.875 12 19.875ZM18.2857 16.0781C18.2857 16.3102 18.0929 16.5 17.8571 16.5H6.14286C5.90714 16.5 5.71429 16.3102 5.71429 16.0781V5.10938C5.71429 4.87734 5.90714 4.6875 6.14286 4.6875H17.8571C18.0929 4.6875 18.2857 4.87734 18.2857 5.10938V16.0781Z" fill="currentColor"/>
</svg>
