<svg width="24" height="24" viewBox="0 0 24 24" fill="none" xmlns="http://www.w3.org/2000/svg">
<path d="M21.35 3H2.65C1.73906 3 1 3.75586 1 4.6875V15.9375C1 16.8691 1.73906 17.625 2.65 17.625H11.0753V18.75H5.57531C4.96688 18.75 4.47531 19.2527 4.47531 19.875C4.47531 20.4973 4.96688 21 5.57531 21H18.7753C19.3837 21 19.8753 20.4973 19.8753 19.875C19.8753 19.2527 19.3837 18.75 18.7753 18.75H13.2753V17.625H21.35C22.2609 17.625 23 16.8691 23 15.9375V4.6875C23 3.75586 22.2609 3 21.35 3ZM20.8 15.375H3.2V5.25H20.8V15.375Z" fill="currentColor"/>
</svg>
