<svg width="24" height="24" viewBox="0 0 24 24" fill="none" xmlns="http://www.w3.org/2000/svg">
<path d="M22.45 17.625H14.1154C14.09 18.3214 13.6098 18.75 12.99 18.75H10.9C10.2575 18.75 9.76494 18.1358 9.77353 17.625H1.55C1.2475 17.625 1 17.8781 1 18.1875V18.75C1 19.9875 1.99 21 3.2 21H20.8C22.01 21 23 19.9875 23 18.75V18.1875C23 17.8781 22.7525 17.625 22.45 17.625ZM20.8 4.6875C20.8 3.75938 20.0575 3 19.15 3H4.85C3.9425 3 3.2 3.75938 3.2 4.6875V16.5H20.8V4.6875ZM18.6 14.25H5.4V5.25H18.6V14.25Z" fill="currentColor"/>
</svg>
