<svg width="20" height="20" viewBox="0 0 20 20" version="1.1" xmlns="http://www.w3.org/2000/svg" xmlns:xlink="http://www.w3.org/1999/xlink">
<title>tabs</title>
<desc>Created using Figma</desc>
<g id="Canvas" transform="translate(478 410)">
<clipPath id="clip-0" clip-rule="evenodd">
<path d="M -478 -410L -458 -410L -458 -390L -478 -390L -478 -410Z" fill="#FFFFFF"/>
</clipPath>
<g id="tabs" clip-path="url(#clip-0)">
<g id="Vector">
<mask id="mask0_outline_ins">
<use xlink:href="#path0_fill" fill="white" transform="translate(-478 -407)"/>
</mask>
<g mask="url(#mask0_outline_ins)">
<use xlink:href="#path1_stroke_2x" transform="translate(-478 -407)" fill="#191E23"/>
</g>
</g>
<clipPath id="clip-1" clip-rule="evenodd">
<path d="M -468 -400L -458 -400L -458 -390L -468 -390L -468 -400Z" fill="#FFFFFF"/>
</clipPath>
<g id="Logo" clip-path="url(#clip-1)">
<g id="Vector">
<use xlink:href="#path2_fill" transform="translate(-468 -400)" fill="#008DBE"/>
</g>
<g id="Ellipse">
<use xlink:href="#path3_fill" transform="translate(-463.75 -396)" fill="#FFFFFF"/>
</g>
<g id="Ellipse">
<use xlink:href="#path4_fill" transform="translate(-461.5 -396.5)" fill="#FFFFFF"/>
</g>
</g>
</g>
</g>
<defs>
<path id="path0_fill" d="M 0 0L 0 9L 20 9L 20 2L 13 2L 13 0L 7 0L 7 2L 6 2L 6 0L 0 0Z"/>
<path id="path1_stroke_2x" d="M 0 9L -1 9L -1 10L 0 10L 0 9ZM 0 0L 0 -1L -1 -1L -1 0L 0 0ZM 6 0L 7 0L 7 -1L 6 -1L 6 0ZM 6 2L 5 2L 5 3L 6 3L 6 2ZM 7 2L 7 3L 8 3L 8 2L 7 2ZM 7 0L 7 -1L 6 -1L 6 0L 7 0ZM 13 0L 14 0L 14 -1L 13 -1L 13 0ZM 13 2L 12 2L 12 3L 13 3L 13 2ZM 20 2L 21 2L 21 1L 20 1L 20 2ZM 20 9L 20 10L 21 10L 21 9L 20 9ZM 1 9L 1 0L -1 0L -1 9L 1 9ZM 0 1L 6 1L 6 -1L 0 -1L 0 1ZM 5 0L 5 2L 7 2L 7 0L 5 0ZM 6 3L 7 3L 7 1L 6 1L 6 3ZM 8 2L 8 0L 6 0L 6 2L 8 2ZM 7 1L 13 1L 13 -1L 7 -1L 7 1ZM 12 0L 12 2L 14 2L 14 0L 12 0ZM 13 3L 20 3L 20 1L 13 1L 13 3ZM 19 2L 19 9L 21 9L 21 2L 19 2ZM 20 8L 0 8L 0 10L 20 10L 20 8Z"/>
<path id="path2_fill" d="M 0 10L 0 4.00003C 0 2.04655 2.54888 0.00759371 5 3.05176e-05C 7.48789 -0.00764612 10 2.09538 10 4.00003L 10 10L 8.33333 8.33957L 6.66667 10L 5 8.33957L 3.33333 10L 1.66667 8.33957L 0 10Z"/>
<path id="path3_fill" d="M 1.5 0.75C 1.5 1.16421 1.16421 1.5 0.75 1.5C 0.335786 1.5 0 1.16421 0 0.75C 0 0.335786 0.335786 0 0.75 0C 1.16421 0 1.5 0.335786 1.5 0.75Z"/>
<path id="path4_fill" d="M 2 1C 2 1.55228 1.55228 2 1 2C 0.447715 2 0 1.55228 0 1C 0 0.447715 0.447715 0 1 0C 1.55228 0 2 0.447715 2 1Z"/>
</defs>
</svg>
