<svg width="24" height="24" viewBox="0 0 24 24" fill="none" xmlns="http://www.w3.org/2000/svg">
<path d="M15.68 3H8.12C7.22563 3 6.5 3.75586 6.5 4.6875V19.3125C6.5 20.2441 7.22563 21 8.12 21H15.68C16.5744 21 17.3 20.2441 17.3 19.3125V4.6875C17.3 3.75586 16.5744 3 15.68 3ZM11.9 19.875C11.3026 19.875 10.82 19.3723 10.82 18.75C10.82 18.1277 11.3026 17.625 11.9 17.625C12.4974 17.625 12.98 18.1277 12.98 18.75C12.98 19.3723 12.4974 19.875 11.9 19.875ZM15.68 16.0781C15.68 16.3102 15.4978 16.5 15.275 16.5H8.525C8.30225 16.5 8.12 16.3102 8.12 16.0781V5.10938C8.12 4.87734 8.30225 4.6875 8.525 4.6875H15.275C15.4978 4.6875 15.68 4.87734 15.68 5.10938V16.0781Z" fill="currentColor"/>
</svg>
