<svg width="24" height="25" viewBox="0 0 24 25" fill="none" xmlns="http://www.w3.org/2000/svg">
<g id="testimonial">
<g id="outline-chat_bubble_outline-24px">
<g id="Outline">
<path id="Vector" d="M18.6667 3.66666H5.33332C4.41666 3.66666 3.66666 4.41666 3.66666 5.33332V20.3333L6.99999 17H18.6667C19.5833 17 20.3333 16.25 20.3333 15.3333V5.33332C20.3333 4.41666 19.5833 3.66666 18.6667 3.66666ZM18.6667 15.3333H6.99999L5.33332 17V5.33332H18.6667V15.3333Z" fill="#191E23"/>
</g>
</g>
<g id="ghostkit">
<path id="Vector_2" d="M14.5 22V23.2039L15.3529 22.3542L16.1667 21.5435L16.9804 22.3542L17.3333 22.7058L17.6862 22.3542L18.5 21.5435L19.3138 22.3542L19.6667 22.7058L20.0196 22.3542L20.8333 21.5435L21.6471 22.3542L22.5 23.2039V22V17.8C22.5 16.9234 21.9369 16.0937 21.2183 15.51C20.4879 14.9165 19.504 14.4969 18.4985 14.5C17.5101 14.5031 16.5283 14.9115 15.7942 15.4988C15.071 16.0774 14.5 16.9049 14.5 17.8V22Z" fill="#9EA5A7" stroke="white"/>
<path id="Ellipse" d="M19.1562 18.2812C19.1562 18.6437 18.8624 18.9375 18.5 18.9375C18.1376 18.9375 17.8438 18.6437 17.8438 18.2812C17.8438 17.9188 18.1376 17.625 18.5 17.625C18.8624 17.625 19.1562 17.9188 19.1562 18.2812Z" fill="white"/>
<path id="Ellipse_2" d="M21.5625 18.0625C21.5625 18.5457 21.1707 18.9375 20.6875 18.9375C20.2043 18.9375 19.8125 18.5457 19.8125 18.0625C19.8125 17.5793 20.2043 17.1875 20.6875 17.1875C21.1707 17.1875 21.5625 17.5793 21.5625 18.0625Z" fill="white"/>
</g>
</g>
</svg>
