<svg width="20" height="20" viewBox="0 0 20 20" fill="none" xmlns="http://www.w3.org/2000/svg">
<g id="testimonial">
<path id="Vector" d="M9.0625 0H6.5625C6.04492 0 5.625 0.43192 5.625 0.964286V3.53571C5.625 4.06808 6.04492 4.5 6.5625 4.5H8.125V5.78571C8.125 6.49487 7.56445 7.07143 6.875 7.07143H6.71875C6.45898 7.07143 6.25 7.28638 6.25 7.55357V8.51786C6.25 8.78504 6.45898 9 6.71875 9H6.875C8.60156 9 10 7.56161 10 5.78571V0.964286C10 0.43192 9.58008 0 9.0625 0ZM3.4375 0H0.9375C0.419922 0 0 0.43192 0 0.964286V3.53571C0 4.06808 0.419922 4.5 0.9375 4.5H2.5V5.78571C2.5 6.49487 1.93945 7.07143 1.25 7.07143H1.09375C0.833984 7.07143 0.625 7.28638 0.625 7.55357V8.51786C0.625 8.78504 0.833984 9 1.09375 9H1.25C2.97656 9 4.375 7.56161 4.375 5.78571V0.964286C4.375 0.43192 3.95508 0 3.4375 0Z" transform="translate(5 3)" fill="#191E23"/>
<g id="Logo" clip-path="url(#clip0)">
<path id="Vector_2" d="M0 8.00002V3.20002C0 1.63724 2.0391 0.00607497 4 2.44141e-05C5.99031 -0.0061169 8 1.67631 8 3.20002V8.00002L6.66667 6.67165L5.33333 8.00002L4 6.67165L2.66667 8.00002L1.33333 6.67165L0 8.00002Z" transform="translate(12 11.9999)" fill="#016C91"/>
<path id="Ellipse" d="M1.2 0.6C1.2 0.931371 0.931371 1.2 0.6 1.2C0.268629 1.2 0 0.931371 0 0.6C0 0.268629 0.268629 0 0.6 0C0.931371 0 1.2 0.268629 1.2 0.6Z" transform="translate(15.4 15.2)" fill="white"/>
<path id="Ellipse_2" d="M1.6 0.8C1.6 1.24183 1.24183 1.6 0.8 1.6C0.358172 1.6 0 1.24183 0 0.8C0 0.358172 0.358172 0 0.8 0C1.24183 0 1.6 0.358172 1.6 0.8Z" transform="translate(17.2 14.8)" fill="white"/>
</g>
</g>
<defs>
<clipPath id="clip0">
<rect width="8" height="8" fill="white" transform="translate(12 12)"/>
</clipPath>
</defs>
</svg>
