<svg width="20" height="20" viewBox="0 0 20 20" fill="none" xmlns="http://www.w3.org/2000/svg">
<g id="twitter">
<path id="Vector" d="M8.97211 2.24296C8.97845 2.34139 8.97845 2.43985 8.97845 2.53828C8.97845 5.54061 6.91628 9 3.14722 9C1.98604 9 0.907367 8.62733 0 7.98048C0.164981 8.00156 0.323595 8.00859 0.494924 8.00859C1.45303 8.00859 2.33503 7.65001 3.03935 7.03829C2.13833 7.01719 1.38325 6.36329 1.12309 5.46328C1.25 5.48436 1.3769 5.49843 1.51016 5.49843C1.69417 5.49843 1.87819 5.47029 2.0495 5.4211C1.11041 5.21014 0.406076 4.29609 0.406076 3.19218V3.16407C0.678909 3.33282 0.996195 3.43829 1.33247 3.45233C0.780433 3.04451 0.418771 2.34843 0.418771 1.56092C0.418771 1.13905 0.520275 0.752336 0.697952 0.414833C1.70684 1.79296 3.22335 2.69294 4.92385 2.7914C4.89213 2.62265 4.87309 2.44688 4.87309 2.2711C4.87309 1.01952 5.7868 1.58519e-08 6.92259 1.58519e-08C7.51269 1.58519e-08 8.04568 0.274218 8.42005 0.717187C8.88324 0.618754 9.3274 0.428901 9.72082 0.168751C9.56851 0.696107 9.24492 1.13908 8.8198 1.42031C9.23224 1.37111 9.63199 1.24452 10 1.06876C9.72086 1.51874 9.37185 1.9195 8.97211 2.24296Z" transform="translate(5 3)" fill="#191E23"/>
<g id="Logo" clip-path="url(#clip0)">
<path id="Vector_2" d="M0 8.00002V3.20002C0 1.63724 2.0391 0.00607497 4 2.44141e-05C5.99031 -0.0061169 8 1.67631 8 3.20002V8.00002L6.66667 6.67165L5.33333 8.00002L4 6.67165L2.66667 8.00002L1.33333 6.67165L0 8.00002Z" transform="translate(12 11.9999)" fill="#016C91"/>
<path id="Ellipse" d="M1.2 0.6C1.2 0.931371 0.931371 1.2 0.6 1.2C0.268629 1.2 0 0.931371 0 0.6C0 0.268629 0.268629 0 0.6 0C0.931371 0 1.2 0.268629 1.2 0.6Z" transform="translate(15.4 15.2)" fill="white"/>
<path id="Ellipse_2" d="M1.6 0.8C1.6 1.24183 1.24183 1.6 0.8 1.6C0.358172 1.6 0 1.24183 0 0.8C0 0.358172 0.358172 0 0.8 0C1.24183 0 1.6 0.358172 1.6 0.8Z" transform="translate(17.2 14.8)" fill="white"/>
</g>
</g>
<defs>
<clipPath id="clip0">
<rect width="8" height="8" fill="white" transform="translate(12 12)"/>
</clipPath>
</defs>
</svg>
