<svg width="24" height="25" viewBox="0 0 24 25" fill="none" xmlns="http://www.w3.org/2000/svg">
<g id="twitter">
<path id="Vector" d="M18.3554 7.73827C18.3655 7.90232 18.3655 8.06641 18.3655 8.23047C18.3655 13.2344 15.066 19 9.03555 19C7.17767 19 5.45179 18.3789 4 17.3008C4.26397 17.3359 4.51775 17.3477 4.79188 17.3477C6.32485 17.3477 7.73605 16.75 8.86296 15.7305C7.42133 15.6953 6.2132 14.6055 5.79694 13.1055C6.00001 13.1406 6.20304 13.164 6.41626 13.164C6.71067 13.164 7.00511 13.1172 7.2792 13.0352C5.77666 12.6836 4.64972 11.1601 4.64972 9.32031V9.27345C5.08625 9.5547 5.59391 9.73048 6.13195 9.75389C5.24869 9.07419 4.67003 7.91405 4.67003 6.60154C4.67003 5.89842 4.83244 5.25389 5.11672 4.69139C6.73095 6.98826 9.15736 8.48824 11.8782 8.65233C11.8274 8.37108 11.7969 8.07814 11.7969 7.78516C11.7969 5.6992 13.2589 4 15.0761 4C16.0203 4 16.8731 4.45703 17.4721 5.19531C18.2132 5.03126 18.9238 4.71484 19.5533 4.28125C19.3096 5.16018 18.7919 5.89846 18.1117 6.36718C18.7716 6.28519 19.4112 6.0742 20 5.78126C19.5534 6.53123 18.995 7.19917 18.3554 7.73827Z" fill="#191E23"/>
<g id="ghostkit">
<path id="Vector_2" d="M14.5 22V23.2039L15.3529 22.3542L16.1667 21.5435L16.9804 22.3542L17.3333 22.7058L17.6862 22.3542L18.5 21.5435L19.3138 22.3542L19.6667 22.7058L20.0196 22.3542L20.8333 21.5435L21.6471 22.3542L22.5 23.2039V22V17.8C22.5 16.9234 21.9369 16.0937 21.2183 15.51C20.4879 14.9165 19.504 14.4969 18.4985 14.5C17.5101 14.5031 16.5283 14.9115 15.7942 15.4988C15.071 16.0774 14.5 16.9049 14.5 17.8V22Z" fill="#9EA5A7" stroke="white"/>
<path id="Ellipse" d="M19.1562 18.2812C19.1562 18.6437 18.8624 18.9375 18.5 18.9375C18.1376 18.9375 17.8438 18.6437 17.8438 18.2812C17.8438 17.9188 18.1376 17.625 18.5 17.625C18.8624 17.625 19.1562 17.9188 19.1562 18.2812Z" fill="white"/>
<path id="Ellipse_2" d="M21.5625 18.0625C21.5625 18.5457 21.1707 18.9375 20.6875 18.9375C20.2043 18.9375 19.8125 18.5457 19.8125 18.0625C19.8125 17.5793 20.2043 17.1875 20.6875 17.1875C21.1707 17.1875 21.5625 17.5793 21.5625 18.0625Z" fill="white"/>
</g>
</g>
</svg>
