<svg width="20" height="20" viewBox="0 0 20 20" fill="none" xmlns="http://www.w3.org/2000/svg">
<g id="twitter">
<rect width="20" height="20" fill="black" fill-opacity="0"/>
<path id="Vector" d="M15.5609 6.23983C15.5698 6.38201 15.5698 6.52422 15.5698 6.66641C15.5698 11.0031 12.6828 16 7.40611 16C5.78046 16 4.27031 15.4617 3 14.5274C3.23097 14.5578 3.45303 14.568 3.69289 14.568C5.03425 14.568 6.26904 14.05 7.25509 13.1664C5.99366 13.1359 4.93655 12.1914 4.57233 10.8914C4.75001 10.9219 4.92766 10.9422 5.11423 10.9422C5.37183 10.9422 5.62947 10.9015 5.8693 10.8305C4.55458 10.5258 3.56851 9.20546 3.56851 7.61093V7.57032C3.95047 7.81407 4.39467 7.96641 4.86545 7.9867C4.09261 7.39763 3.58628 6.39217 3.58628 5.25466C3.58628 4.6453 3.72839 4.08671 3.97713 3.5992C5.38958 5.58983 7.51269 6.88981 9.89339 7.03202C9.84898 6.78827 9.82232 6.53438 9.82232 6.28047C9.82232 4.47264 11.1015 3 12.6916 3C13.5178 3 14.2639 3.39609 14.7881 4.03594C15.4365 3.89376 16.0584 3.61952 16.6091 3.24375C16.3959 4.00549 15.9429 4.64533 15.3477 5.05155C15.9251 4.98049 16.4848 4.79764 17 4.54376C16.6092 5.19373 16.1206 5.77262 15.5609 6.23983V6.23983Z" fill="#191E23"/>
<g id="Logo" clip-path="url(#clip0)">
<rect width="8" height="8" fill="black" fill-opacity="0" transform="translate(12 12)"/>
<path id="Vector_2" d="M13.1 20V21.2039L13.9529 20.3542L14.6667 19.6431L15.3804 20.3542L15.7333 20.7058L16.0862 20.3542L16.8 19.6431L17.5138 20.3542L17.8667 20.7058L18.2196 20.3542L18.9333 19.6431L19.6471 20.3542L20.5 21.2039V20V16.16C20.5 15.3405 19.9746 14.571 19.3124 14.033C18.6382 13.4853 17.7294 13.0972 16.7985 13.1C15.8836 13.1029 14.9769 13.4806 14.2994 14.0226C13.6328 14.5559 13.1 15.3235 13.1 16.16V20Z" fill="#9EA5A7" stroke="white"/>
<path id="Ellipse" d="M17.4 16.6C17.4 16.9314 17.1314 17.2 16.8 17.2C16.4686 17.2 16.2 16.9314 16.2 16.6C16.2 16.2686 16.4686 16 16.8 16C17.1314 16 17.4 16.2686 17.4 16.6Z" fill="white"/>
<path id="Ellipse_2" d="M19.6 16.4C19.6 16.8418 19.2418 17.2 18.8 17.2C18.3582 17.2 18 16.8418 18 16.4C18 15.9582 18.3582 15.6 18.8 15.6C19.2418 15.6 19.6 15.9582 19.6 16.4Z" fill="white"/>
</g>
</g>
<defs>
<clipPath id="clip0">
<rect width="8" height="8" fill="white" transform="translate(12 12)"/>
</clipPath>
</defs>
</svg>
