<svg width="24" height="24" viewBox="0 0 24 24" fill="none" xmlns="http://www.w3.org/2000/svg">
<g id="twitter">
<path id="Vector" d="M18.3554 7.73827C18.3655 7.90232 18.3655 8.06641 18.3655 8.23047C18.3655 13.2344 15.066 19 9.03555 19C7.17767 19 5.45179 18.3789 4 17.3008C4.26397 17.3359 4.51775 17.3477 4.79188 17.3477C6.32485 17.3477 7.73605 16.75 8.86296 15.7305C7.42133 15.6953 6.2132 14.6055 5.79694 13.1055C6.00001 13.1406 6.20304 13.164 6.41626 13.164C6.71067 13.164 7.00511 13.1172 7.2792 13.0352C5.77666 12.6836 4.64972 11.1601 4.64972 9.32031V9.27345C5.08625 9.5547 5.59391 9.73048 6.13195 9.75389C5.24869 9.07419 4.67003 7.91405 4.67003 6.60154C4.67003 5.89842 4.83244 5.25389 5.11672 4.69139C6.73095 6.98826 9.15736 8.48824 11.8782 8.65233C11.8274 8.37108 11.7969 8.07814 11.7969 7.78516C11.7969 5.6992 13.2589 4 15.0761 4C16.0203 4 16.8731 4.45703 17.4721 5.19531C18.2132 5.03126 18.9238 4.71484 19.5533 4.28125C19.3096 5.16018 18.7919 5.89846 18.1117 6.36718C18.7716 6.28519 19.4112 6.0742 20 5.78126C19.5534 6.53123 18.995 7.19917 18.3554 7.73827Z" fill="#191E23"/>
<g id="Logo" clip-path="url(#clip0)">
<path id="Vector_2" d="M15.1 22V23.2039L15.9529 22.3542L16.6667 21.6431L17.3804 22.3542L17.7333 22.7058L18.0862 22.3542L18.8 21.6431L19.5138 22.3542L19.8667 22.7058L20.2196 22.3542L20.9333 21.6431L21.6471 22.3542L22.5 23.2039V22V18.16C22.5 17.3405 21.9746 16.571 21.3124 16.033C20.6382 15.4853 19.7294 15.0972 18.7985 15.1C17.8836 15.1029 16.9769 15.4806 16.2994 16.0226C15.6328 16.5559 15.1 17.3235 15.1 18.16V22Z" fill="#9EA5A7" stroke="white"/>
<path id="Ellipse" d="M19.4 18.6C19.4 18.9314 19.1314 19.2 18.8 19.2C18.4686 19.2 18.2 18.9314 18.2 18.6C18.2 18.2686 18.4686 18 18.8 18C19.1314 18 19.4 18.2686 19.4 18.6Z" fill="white"/>
<path id="Ellipse_2" d="M21.6 18.4C21.6 18.8418 21.2418 19.2 20.8 19.2C20.3582 19.2 20 18.8418 20 18.4C20 17.9582 20.3582 17.6 20.8 17.6C21.2418 17.6 21.6 17.9582 21.6 18.4Z" fill="white"/>
</g>
</g>
<defs>
<clipPath id="clip0">
<rect width="8" height="8" fill="white" transform="translate(14 14)"/>
</clipPath>
</defs>
</svg>
