<svg width="20" height="20" viewBox="0 0 20 20" version="1.1" xmlns="http://www.w3.org/2000/svg" xmlns:xlink="http://www.w3.org/1999/xlink">
<title>twitter</title>
<desc>Created using Figma</desc>
<g id="Canvas" transform="translate(436 388)">
<clipPath id="clip-0" clip-rule="evenodd">
<path d="M -436 -388L -416 -388L -416 -368L -436 -368L -436 -388Z" fill="#FFFFFF"/>
</clipPath>
<g id="twitter" clip-path="url(#clip-0)">
<g id="Vector">
<use xlink:href="#path0_fill" transform="translate(-431 -385)" fill="#191E23"/>
</g>
<clipPath id="clip-1" clip-rule="evenodd">
<path d="M -426 -378L -416 -378L -416 -368L -426 -368L -426 -378Z" fill="#FFFFFF"/>
</clipPath>
<g id="Logo" clip-path="url(#clip-1)">
<g id="Vector">
<use xlink:href="#path1_fill" transform="translate(-426 -378)" fill="#008DBE"/>
</g>
<g id="Ellipse">
<use xlink:href="#path2_fill" transform="translate(-421.75 -374)" fill="#FFFFFF"/>
</g>
<g id="Ellipse">
<use xlink:href="#path3_fill" transform="translate(-419.5 -374.5)" fill="#FFFFFF"/>
</g>
</g>
</g>
</g>
<defs>
<path id="path0_fill" d="M 8.97211 2.24296C 8.97845 2.34139 8.97845 2.43985 8.97845 2.53828C 8.97845 5.54061 6.91628 9 3.14722 9C 1.98604 9 0.907367 8.62733 0 7.98048C 0.164981 8.00156 0.323595 8.00859 0.494924 8.00859C 1.45303 8.00859 2.33503 7.65001 3.03935 7.03829C 2.13833 7.01719 1.38325 6.36329 1.12309 5.46328C 1.25 5.48436 1.3769 5.49843 1.51016 5.49843C 1.69417 5.49843 1.87819 5.47029 2.0495 5.4211C 1.11041 5.21014 0.406076 4.29609 0.406076 3.19218L 0.406076 3.16407C 0.678909 3.33282 0.996195 3.43829 1.33247 3.45233C 0.780433 3.04451 0.418771 2.34843 0.418771 1.56092C 0.418771 1.13905 0.520275 0.752336 0.697952 0.414833C 1.70684 1.79296 3.22335 2.69294 4.92385 2.7914C 4.89213 2.62265 4.87309 2.44688 4.87309 2.2711C 4.87309 1.01952 5.7868 1.58519e-08 6.92259 1.58519e-08C 7.51269 1.58519e-08 8.04568 0.274218 8.42005 0.717187C 8.88324 0.618754 9.3274 0.428901 9.72082 0.168751C 9.56851 0.696107 9.24492 1.13908 8.8198 1.42031C 9.23224 1.37111 9.63199 1.24452 10 1.06876C 9.72086 1.51874 9.37185 1.9195 8.97211 2.24296L 8.97211 2.24296Z"/>
<path id="path1_fill" d="M 0 10L 0 4.00003C 0 2.04655 2.54888 0.00759371 5 3.05176e-05C 7.48789 -0.00764612 10 2.09538 10 4.00003L 10 10L 8.33333 8.33957L 6.66667 10L 5 8.33957L 3.33333 10L 1.66667 8.33957L 0 10Z"/>
<path id="path2_fill" d="M 1.5 0.75C 1.5 1.16421 1.16421 1.5 0.75 1.5C 0.335786 1.5 0 1.16421 0 0.75C 0 0.335786 0.335786 0 0.75 0C 1.16421 0 1.5 0.335786 1.5 0.75Z"/>
<path id="path3_fill" d="M 2 1C 2 1.55228 1.55228 2 1 2C 0.447715 2 0 1.55228 0 1C 0 0.447715 0.447715 0 1 0C 1.55228 0 2 0.447715 2 1Z"/>
</defs>
</svg>
