<svg width="20" height="20" viewBox="0 0 20 20" fill="none" xmlns="http://www.w3.org/2000/svg">
<g id="video">
<path id="Vector" d="M1.32778 0.5H9.33889C9.60784 0.5 9.83206 0.582381 9.97778 0.691667C10.1233 0.800834 10.1667 0.913488 10.1667 0.995833V7.00417C10.1667 7.08651 10.1233 7.19917 9.97778 7.30833C9.83206 7.41762 9.60784 7.5 9.33889 7.5H1.32778C1.05883 7.5 0.834603 7.41762 0.688889 7.30833C0.543333 7.19917 0.5 7.08651 0.5 7.00417V0.995833C0.5 0.913488 0.543333 0.800834 0.688889 0.691667C0.834603 0.582381 1.05883 0.5 1.32778 0.5ZM12.0556 5.33512V2.6647L14.8286 1.2301C14.8288 1.23001 14.8289 1.22992 14.8291 1.22983C14.9848 1.14999 15.1848 1.14767 15.3423 1.20829C15.4183 1.23758 15.4638 1.27382 15.4852 1.29876C15.4952 1.31037 15.4985 1.31773 15.4994 1.31989C15.5 1.3214 15.5 1.32167 15.5 1.32292V6.675C15.5 6.67654 15.4999 6.67696 15.4993 6.67853C15.4984 6.68075 15.4951 6.68813 15.4851 6.69974C15.4636 6.7247 15.4181 6.76094 15.3418 6.79018C15.1836 6.85087 14.9836 6.84786 14.8295 6.76826L12.0556 5.33512Z" transform="translate(2 3)" stroke="#191E23"/>
<g id="Logo" clip-path="url(#clip0)">
<path id="Vector_2" d="M0 8.00002V3.20002C0 1.63724 2.0391 0.00607497 4 2.44141e-05C5.99031 -0.0061169 8 1.67631 8 3.20002V8.00002L6.66667 6.67165L5.33333 8.00002L4 6.67165L2.66667 8.00002L1.33333 6.67165L0 8.00002Z" transform="translate(12 11.9999)" fill="#016C91"/>
<path id="Ellipse" d="M1.2 0.6C1.2 0.931371 0.931371 1.2 0.6 1.2C0.268629 1.2 0 0.931371 0 0.6C0 0.268629 0.268629 0 0.6 0C0.931371 0 1.2 0.268629 1.2 0.6Z" transform="translate(15.4 15.2)" fill="white"/>
<path id="Ellipse_2" d="M1.6 0.8C1.6 1.24183 1.24183 1.6 0.8 1.6C0.358172 1.6 0 1.24183 0 0.8C0 0.358172 0.358172 0 0.8 0C1.24183 0 1.6 0.358172 1.6 0.8Z" transform="translate(17.2 14.8)" fill="white"/>
</g>
</g>
<defs>
<clipPath id="clip0">
<rect width="8" height="8" fill="white" transform="translate(12 12)"/>
</clipPath>
</defs>
</svg>
