<svg width="20" height="20" viewBox="0 0 20 20" version="1.1" xmlns="http://www.w3.org/2000/svg" xmlns:xlink="http://www.w3.org/1999/xlink">
<title>video</title>
<desc>Created using Figma</desc>
<g id="Canvas" transform="translate(436 410)">
<clipPath id="clip-0" clip-rule="evenodd">
<path d="M -436 -410L -416 -410L -416 -390L -436 -390L -436 -410Z" fill="#FFFFFF"/>
</clipPath>
<g id="video" clip-path="url(#clip-0)">
<g id="Vector">
<mask id="mask0_outline_ins">
<use xlink:href="#path0_fill" fill="white" transform="translate(-434 -407)"/>
</mask>
<g mask="url(#mask0_outline_ins)">
<use xlink:href="#path1_stroke_2x" transform="translate(-434 -407)" fill="#191E23"/>
</g>
</g>
<clipPath id="clip-1" clip-rule="evenodd">
<path d="M -426 -400L -416 -400L -416 -390L -426 -390L -426 -400Z" fill="#FFFFFF"/>
</clipPath>
<g id="Logo" clip-path="url(#clip-1)">
<g id="Vector">
<use xlink:href="#path2_fill" transform="translate(-426 -400)" fill="#008DBE"/>
</g>
<g id="Ellipse">
<use xlink:href="#path3_fill" transform="translate(-421.75 -396)" fill="#FFFFFF"/>
</g>
<g id="Ellipse">
<use xlink:href="#path4_fill" transform="translate(-419.5 -396.5)" fill="#FFFFFF"/>
</g>
</g>
</g>
</g>
<defs>
<path id="path0_fill" d="M 9.33889 0L 1.32778 0C 0.594444 0 0 0.445833 0 0.995833L 0 7.00417C 0 7.55417 0.594444 8 1.32778 8L 9.33889 8C 10.0722 8 10.6667 7.55417 10.6667 7.00417L 10.6667 0.995833C 10.6667 0.445833 10.0722 0 9.33889 0ZM 14.6 0.785417L 11.5556 2.36042L 11.5556 5.63958L 14.6 7.2125C 15.1889 7.51667 16 7.20625 16 6.675L 16 1.32292C 16 0.79375 15.1917 0.48125 14.6 0.785417Z"/>
<path id="path1_stroke_2x" d="M 14.6 0.785417L 14.1428 -0.103947L 14.1405 -0.102767L 14.6 0.785417ZM 11.5556 2.36042L 11.0961 1.47223L 10.5556 1.75186L 10.5556 2.36042L 11.5556 2.36042ZM 11.5556 5.63958L 10.5556 5.63958L 10.5556 6.24851L 11.0965 6.52801L 11.5556 5.63958ZM 14.6 7.2125L 14.141 8.10093L 14.1411 8.10098L 14.6 7.2125ZM 9.33889 -1L 1.32778 -1L 1.32778 1L 9.33889 1L 9.33889 -1ZM 1.32778 -1C 0.765676 -1 0.218294 -0.830388 -0.211111 -0.508333C -0.640832 -0.186043 -1 0.335524 -1 0.995833L 1 0.995833C 1 1.10614 0.938054 1.12979 0.988889 1.09167C 1.04004 1.0533 1.15655 1 1.32778 1L 1.32778 -1ZM -1 0.995833L -1 7.00417L 1 7.00417L 1 0.995833L -1 0.995833ZM -1 7.00417C -1 7.66448 -0.640832 8.18604 -0.211111 8.50833C 0.218295 8.83039 0.765677 9 1.32778 9L 1.32778 7C 1.15655 7 1.04004 6.9467 0.988889 6.90833C 0.938054 6.87021 1 6.89386 1 7.00417L -1 7.00417ZM 1.32778 9L 9.33889 9L 9.33889 7L 1.32778 7L 1.32778 9ZM 9.33889 9C 9.90099 9 10.4484 8.83039 10.8778 8.50833C 11.3075 8.18604 11.6667 7.66448 11.6667 7.00417L 9.66667 7.00417C 9.66667 6.89386 9.72861 6.87021 9.67778 6.90833C 9.62663 6.9467 9.51012 7 9.33889 7L 9.33889 9ZM 11.6667 7.00417L 11.6667 0.995833L 9.66667 0.995833L 9.66667 7.00417L 11.6667 7.00417ZM 11.6667 0.995833C 11.6667 0.335524 11.3075 -0.186043 10.8778 -0.508333C 10.4484 -0.830388 9.90099 -1 9.33889 -1L 9.33889 1C 9.51012 1 9.62663 1.0533 9.67778 1.09167C 9.72861 1.12979 9.66667 1.10614 9.66667 0.995833L 11.6667 0.995833ZM 14.1405 -0.102767L 11.0961 1.47223L 12.015 3.2486L 15.0595 1.6736L 14.1405 -0.102767ZM 10.5556 2.36042L 10.5556 5.63958L 12.5556 5.63958L 12.5556 2.36042L 10.5556 2.36042ZM 11.0965 6.52801L 14.141 8.10093L 15.059 6.32407L 12.0146 4.75115L 11.0965 6.52801ZM 14.1411 8.10098C 14.7162 8.39802 15.3662 8.38733 15.8789 8.19073C 16.3658 8.00401 17 7.51584 17 6.675L 15 6.675C 15 6.53703 15.057 6.43068 15.1061 6.3736C 15.1484 6.32447 15.1771 6.31784 15.1628 6.32333C 15.1514 6.32768 15.1282 6.33304 15.101 6.33211C 15.075 6.33124 15.0615 6.32535 15.0589 6.32402L 14.1411 8.10098ZM 17 6.675L 17 1.32292L 15 1.32292L 15 6.675L 17 6.675ZM 17 1.32292C 17 0.483862 16.3675 -0.00438122 15.8811 -0.191588C 15.3683 -0.38895 14.7187 -0.399999 14.1428 -0.103944L 15.0572 1.67478C 15.0609 1.67287 15.0752 1.66698 15.1011 1.66613C 15.1284 1.66524 15.1515 1.67062 15.1627 1.67492C 15.1768 1.68036 15.1481 1.67368 15.106 1.62461C 15.0571 1.56773 15 1.46138 15 1.32292L 17 1.32292Z"/>
<path id="path2_fill" d="M 0 10L 0 4.00003C 0 2.04655 2.54888 0.00759371 5 3.05176e-05C 7.48789 -0.00764612 10 2.09538 10 4.00003L 10 10L 8.33333 8.33957L 6.66667 10L 5 8.33957L 3.33333 10L 1.66667 8.33957L 0 10Z"/>
<path id="path3_fill" d="M 1.5 0.75C 1.5 1.16421 1.16421 1.5 0.75 1.5C 0.335786 1.5 0 1.16421 0 0.75C 0 0.335786 0.335786 0 0.75 0C 1.16421 0 1.5 0.335786 1.5 0.75Z"/>
<path id="path4_fill" d="M 2 1C 2 1.55228 1.55228 2 1 2C 0.447715 2 0 1.55228 0 1C 0 0.447715 0.447715 0 1 0C 1.55228 0 2 0.447715 2 1Z"/>
</defs>
</svg>
