<svg width="533" height="122" viewBox="0 0 533 122" fill="none" xmlns="http://www.w3.org/2000/svg">
<path d="M166.14 39.535H175.76V63H167.83V60.27C164.667 62.61 160.593 63.78 155.61 63.78C151.407 63.78 147.55 62.87 144.04 61.05C140.53 59.23 137.735 56.5867 135.655 53.12C133.575 49.61 132.535 45.45 132.535 40.64C132.535 36.0033 133.597 31.8867 135.72 28.29C137.887 24.65 140.877 21.8117 144.69 19.775C148.503 17.7383 152.793 16.72 157.56 16.72C161.547 16.72 165.165 17.3917 168.415 18.735C171.665 20.0783 174.395 22.0283 176.605 24.585L169.845 30.825C166.595 27.4017 162.673 25.69 158.08 25.69C155.177 25.69 152.598 26.3183 150.345 27.575C148.092 28.7883 146.337 30.5217 145.08 32.775C143.823 35.0283 143.195 37.6283 143.195 40.575C143.195 43.6517 143.802 46.2733 145.015 48.44C146.272 50.6067 147.94 52.2533 150.02 53.38C152.1 54.4633 154.375 55.005 156.845 55.005C160.528 55.005 163.627 53.965 166.14 51.885V39.535ZM206.081 27.51C210.415 27.51 213.903 28.81 216.546 31.41C219.233 34.01 220.576 37.8667 220.576 42.98V63H210.436V44.54C210.436 41.7667 209.83 39.7083 208.616 38.365C207.403 36.9783 205.648 36.285 203.351 36.285C200.795 36.285 198.758 37.0867 197.241 38.69C195.725 40.25 194.966 42.59 194.966 45.71V63H184.826V14.77H194.966V31.67C196.31 30.3267 197.935 29.3083 199.841 28.615C201.748 27.8783 203.828 27.51 206.081 27.51ZM246.789 63.52C243.105 63.52 239.79 62.7617 236.844 61.245C233.94 59.685 231.665 57.54 230.019 54.81C228.372 52.08 227.549 48.9817 227.549 45.515C227.549 42.0483 228.372 38.95 230.019 36.22C231.665 33.49 233.94 31.3667 236.844 29.85C239.79 28.29 243.105 27.51 246.789 27.51C250.472 27.51 253.765 28.29 256.669 29.85C259.572 31.3667 261.847 33.49 263.494 36.22C265.14 38.95 265.964 42.0483 265.964 45.515C265.964 48.9817 265.14 52.08 263.494 54.81C261.847 57.54 259.572 59.685 256.669 61.245C253.765 62.7617 250.472 63.52 246.789 63.52ZM246.789 55.2C249.389 55.2 251.512 54.3333 253.159 52.6C254.849 50.8233 255.694 48.4617 255.694 45.515C255.694 42.5683 254.849 40.2283 253.159 38.495C251.512 36.7183 249.389 35.83 246.789 35.83C244.189 35.83 242.044 36.7183 240.354 38.495C238.664 40.2283 237.819 42.5683 237.819 45.515C237.819 48.4617 238.664 50.8233 240.354 52.6C242.044 54.3333 244.189 55.2 246.789 55.2ZM284.507 63.52C281.603 63.52 278.765 63.1733 275.992 62.48C273.218 61.7433 271.008 60.8333 269.362 59.75L272.742 52.47C274.302 53.4667 276.187 54.29 278.397 54.94C280.607 55.5467 282.773 55.85 284.897 55.85C289.187 55.85 291.332 54.7883 291.332 52.665C291.332 51.6683 290.747 50.9533 289.577 50.52C288.407 50.0867 286.608 49.7183 284.182 49.415C281.322 48.9817 278.96 48.4833 277.097 47.92C275.233 47.3567 273.608 46.36 272.222 44.93C270.878 43.5 270.207 41.4633 270.207 38.82C270.207 36.61 270.835 34.66 272.092 32.97C273.392 31.2367 275.255 29.8933 277.682 28.94C280.152 27.9867 283.055 27.51 286.392 27.51C288.862 27.51 291.31 27.7917 293.737 28.355C296.207 28.875 298.243 29.6117 299.847 30.565L296.467 37.78C293.39 36.0467 290.032 35.18 286.392 35.18C284.225 35.18 282.6 35.4833 281.517 36.09C280.433 36.6967 279.892 37.4767 279.892 38.43C279.892 39.5133 280.477 40.2717 281.647 40.705C282.817 41.1383 284.68 41.55 287.237 41.94C290.097 42.4167 292.437 42.9367 294.257 43.5C296.077 44.02 297.658 44.995 299.002 46.425C300.345 47.855 301.017 49.8483 301.017 52.405C301.017 54.5717 300.367 56.5 299.067 58.19C297.767 59.88 295.86 61.2017 293.347 62.155C290.877 63.065 287.93 63.52 284.507 63.52ZM328.333 61.31C327.336 62.0467 326.101 62.61 324.628 63C323.198 63.3467 321.703 63.52 320.143 63.52C315.939 63.52 312.711 62.4583 310.458 60.335C308.204 58.2117 307.078 55.0917 307.078 50.975V20.295H317.218V28.81H325.863V36.61H317.218V50.845C317.218 52.3183 317.586 53.4667 318.323 54.29C319.059 55.07 320.121 55.46 321.508 55.46C323.068 55.46 324.454 55.0267 325.668 54.16L328.333 61.31ZM369.758 45.125L363.648 51.495V63H353.183V17.5H363.648V38.755L383.798 17.5H395.498L376.648 37.78L396.603 63H384.318L369.758 45.125ZM399.949 28.03H410.089V63H399.949V28.03ZM405.019 23.155C403.155 23.155 401.639 22.6133 400.469 21.53C399.299 20.4467 398.714 19.1033 398.714 17.5C398.714 15.8967 399.299 14.5533 400.469 13.47C401.639 12.3867 403.155 11.845 405.019 11.845C406.882 11.845 408.399 12.365 409.569 13.405C410.739 14.445 411.324 15.745 411.324 17.305C411.324 18.995 410.739 20.4033 409.569 21.53C408.399 22.6133 406.882 23.155 405.019 23.155ZM440.559 61.31C439.563 62.0467 438.328 62.61 436.854 63C435.424 63.3467 433.929 63.52 432.369 63.52C428.166 63.52 424.938 62.4583 422.684 60.335C420.431 58.2117 419.304 55.0917 419.304 50.975V20.295H429.444V28.81H438.089V36.61H429.444V50.845C429.444 52.3183 429.813 53.4667 430.549 54.29C431.286 55.07 432.348 55.46 433.734 55.46C435.294 55.46 436.681 55.0267 437.894 54.16L440.559 61.31Z" fill="white"/>
<path d="M140.582 104.198H147.004V113.298C145.999 113.627 144.985 113.87 143.962 114.026C142.939 114.182 141.778 114.26 140.478 114.26C138.554 114.26 136.933 113.879 135.616 113.116C134.299 112.336 133.293 111.235 132.6 109.814C131.924 108.375 131.586 106.677 131.586 104.718C131.586 102.777 131.967 101.095 132.73 99.674C133.493 98.2527 134.585 97.152 136.006 96.372C137.445 95.5747 139.178 95.176 141.206 95.176C142.246 95.176 143.225 95.2713 144.144 95.462C145.08 95.6527 145.947 95.9213 146.744 96.268L145.86 98.296C145.201 98.0013 144.456 97.75 143.624 97.542C142.809 97.334 141.96 97.23 141.076 97.23C138.857 97.23 137.124 97.8973 135.876 99.232C134.645 100.567 134.03 102.395 134.03 104.718C134.03 106.191 134.264 107.5 134.732 108.644C135.217 109.771 135.971 110.655 136.994 111.296C138.017 111.92 139.36 112.232 141.024 112.232C141.839 112.232 142.532 112.189 143.104 112.102C143.676 112.015 144.196 111.911 144.664 111.79V106.278H140.582V104.198ZM162.774 100.064V114H160.902L160.564 112.154H160.46C160.009 112.882 159.385 113.419 158.588 113.766C157.791 114.095 156.941 114.26 156.04 114.26C154.359 114.26 153.093 113.861 152.244 113.064C151.395 112.249 150.97 110.958 150.97 109.19V100.064H153.284V109.034C153.284 111.253 154.315 112.362 156.378 112.362C157.921 112.362 158.987 111.929 159.576 111.062C160.183 110.195 160.486 108.947 160.486 107.318V100.064H162.774ZM171.852 112.388C172.199 112.388 172.554 112.362 172.918 112.31C173.282 112.241 173.577 112.171 173.802 112.102V113.844C173.56 113.965 173.213 114.061 172.762 114.13C172.312 114.217 171.878 114.26 171.462 114.26C170.734 114.26 170.058 114.139 169.434 113.896C168.828 113.636 168.334 113.194 167.952 112.57C167.571 111.946 167.38 111.071 167.38 109.944V101.832H165.404V100.74L167.406 99.83L168.316 96.866H169.668V100.064H173.698V101.832H169.668V109.892C169.668 110.741 169.868 111.374 170.266 111.79C170.682 112.189 171.211 112.388 171.852 112.388ZM181.975 99.804C183.171 99.804 184.193 100.064 185.043 100.584C185.909 101.104 186.568 101.841 187.019 102.794C187.487 103.73 187.721 104.831 187.721 106.096V107.474H178.179C178.213 109.051 178.612 110.256 179.375 111.088C180.155 111.903 181.238 112.31 182.625 112.31C183.509 112.31 184.289 112.232 184.965 112.076C185.658 111.903 186.369 111.66 187.097 111.348V113.35C186.386 113.662 185.684 113.887 184.991 114.026C184.297 114.182 183.474 114.26 182.521 114.26C181.203 114.26 180.033 113.991 179.011 113.454C178.005 112.917 177.217 112.119 176.645 111.062C176.09 109.987 175.813 108.679 175.813 107.136C175.813 105.611 176.064 104.302 176.567 103.21C177.087 102.118 177.806 101.277 178.725 100.688C179.661 100.099 180.744 99.804 181.975 99.804ZM181.949 101.676C180.857 101.676 179.99 102.031 179.349 102.742C178.725 103.435 178.352 104.406 178.231 105.654H185.329C185.311 104.475 185.034 103.522 184.497 102.794C183.959 102.049 183.11 101.676 181.949 101.676ZM197.977 99.804C199.641 99.804 200.897 100.211 201.747 101.026C202.596 101.823 203.021 103.123 203.021 104.926V114H200.759V105.082C200.759 102.846 199.719 101.728 197.639 101.728C196.096 101.728 195.03 102.161 194.441 103.028C193.851 103.895 193.557 105.143 193.557 106.772V114H191.269V100.064H193.115L193.453 101.962H193.583C194.033 101.234 194.657 100.697 195.455 100.35C196.252 99.986 197.093 99.804 197.977 99.804ZM209.629 94.24V99.05C209.629 99.6393 209.612 100.194 209.577 100.714C209.56 101.217 209.534 101.615 209.499 101.91H209.629C210.028 101.321 210.574 100.827 211.267 100.428C211.96 100.029 212.853 99.83 213.945 99.83C215.678 99.83 217.065 100.437 218.105 101.65C219.162 102.846 219.691 104.64 219.691 107.032C219.691 109.424 219.162 111.227 218.105 112.44C217.048 113.653 215.661 114.26 213.945 114.26C212.853 114.26 211.96 114.061 211.267 113.662C210.574 113.263 210.028 112.787 209.629 112.232H209.447L208.979 114H207.341V94.24H209.629ZM213.555 101.728C212.082 101.728 211.059 102.153 210.487 103.002C209.915 103.851 209.629 105.169 209.629 106.954V107.058C209.629 108.774 209.906 110.091 210.461 111.01C211.033 111.911 212.082 112.362 213.607 112.362C214.855 112.362 215.782 111.903 216.389 110.984C217.013 110.065 217.325 108.739 217.325 107.006C217.325 103.487 216.068 101.728 213.555 101.728ZM228.719 99.804C229.915 99.804 230.938 100.064 231.787 100.584C232.654 101.104 233.312 101.841 233.763 102.794C234.231 103.73 234.465 104.831 234.465 106.096V107.474H224.923C224.958 109.051 225.356 110.256 226.119 111.088C226.899 111.903 227.982 112.31 229.369 112.31C230.253 112.31 231.033 112.232 231.709 112.076C232.402 111.903 233.113 111.66 233.841 111.348V113.35C233.13 113.662 232.428 113.887 231.735 114.026C231.042 114.182 230.218 114.26 229.265 114.26C227.948 114.26 226.778 113.991 225.755 113.454C224.75 112.917 223.961 112.119 223.389 111.062C222.834 109.987 222.557 108.679 222.557 107.136C222.557 105.611 222.808 104.302 223.311 103.21C223.831 102.118 224.55 101.277 225.469 100.688C226.405 100.099 227.488 99.804 228.719 99.804ZM228.693 101.676C227.601 101.676 226.734 102.031 226.093 102.742C225.469 103.435 225.096 104.406 224.975 105.654H232.073C232.056 104.475 231.778 103.522 231.241 102.794C230.704 102.049 229.854 101.676 228.693 101.676ZM244.513 99.804C244.773 99.804 245.05 99.8213 245.345 99.856C245.657 99.8733 245.925 99.908 246.151 99.96L245.865 102.066C245.639 102.014 245.388 101.971 245.111 101.936C244.851 101.901 244.599 101.884 244.357 101.884C243.646 101.884 242.979 102.083 242.355 102.482C241.731 102.863 241.228 103.409 240.847 104.12C240.483 104.813 240.301 105.628 240.301 106.564V114H238.013V100.064H239.885L240.145 102.612H240.249C240.699 101.849 241.28 101.191 241.991 100.636C242.701 100.081 243.542 99.804 244.513 99.804ZM253.439 99.804C254.358 99.804 255.181 99.9773 255.909 100.324C256.654 100.671 257.287 101.199 257.807 101.91H257.937L258.249 100.064H260.069V114.234C260.069 116.227 259.558 117.727 258.535 118.732C257.53 119.737 255.961 120.24 253.829 120.24C251.784 120.24 250.111 119.945 248.811 119.356V117.25C250.18 117.978 251.896 118.342 253.959 118.342C255.155 118.342 256.091 117.987 256.767 117.276C257.46 116.583 257.807 115.629 257.807 114.416V113.87C257.807 113.662 257.816 113.367 257.833 112.986C257.85 112.587 257.868 112.31 257.885 112.154H257.781C256.845 113.558 255.406 114.26 253.465 114.26C251.662 114.26 250.25 113.627 249.227 112.362C248.222 111.097 247.719 109.329 247.719 107.058C247.719 104.839 248.222 103.08 249.227 101.78C250.25 100.463 251.654 99.804 253.439 99.804ZM253.751 101.728C252.59 101.728 251.688 102.196 251.047 103.132C250.406 104.051 250.085 105.368 250.085 107.084C250.085 108.8 250.397 110.117 251.021 111.036C251.662 111.937 252.59 112.388 253.803 112.388C255.207 112.388 256.23 112.015 256.871 111.27C257.512 110.507 257.833 109.285 257.833 107.604V107.058C257.833 105.151 257.504 103.791 256.845 102.976C256.186 102.144 255.155 101.728 253.751 101.728ZM271.561 95.436H276.865C279.188 95.436 280.938 95.7827 282.117 96.476C283.313 97.152 283.911 98.3393 283.911 100.038C283.911 101.13 283.608 102.04 283.001 102.768C282.394 103.479 281.519 103.938 280.375 104.146V104.276C281.155 104.397 281.857 104.623 282.481 104.952C283.122 105.281 283.625 105.749 283.989 106.356C284.353 106.963 284.535 107.751 284.535 108.722C284.535 110.403 283.954 111.703 282.793 112.622C281.649 113.541 280.08 114 278.087 114H271.561V95.436ZM273.901 103.34H277.333C278.928 103.34 280.02 103.089 280.609 102.586C281.198 102.066 281.493 101.303 281.493 100.298C281.493 99.2753 281.129 98.5473 280.401 98.114C279.69 97.6633 278.546 97.438 276.969 97.438H273.901V103.34ZM273.901 105.29V112.024H277.645C279.292 112.024 280.436 111.703 281.077 111.062C281.718 110.421 282.039 109.58 282.039 108.54C282.039 107.569 281.701 106.789 281.025 106.2C280.366 105.593 279.179 105.29 277.463 105.29H273.901ZM290.447 114H288.159V94.24H290.447V114ZM306.978 107.006C306.978 109.311 306.389 111.097 305.21 112.362C304.049 113.627 302.472 114.26 300.478 114.26C299.248 114.26 298.147 113.983 297.176 113.428C296.223 112.856 295.469 112.033 294.914 110.958C294.36 109.866 294.082 108.549 294.082 107.006C294.082 104.701 294.663 102.924 295.824 101.676C296.986 100.428 298.563 99.804 300.556 99.804C301.822 99.804 302.931 100.09 303.884 100.662C304.855 101.217 305.609 102.031 306.146 103.106C306.701 104.163 306.978 105.463 306.978 107.006ZM296.448 107.006C296.448 108.653 296.769 109.961 297.41 110.932C298.069 111.885 299.109 112.362 300.53 112.362C301.934 112.362 302.966 111.885 303.624 110.932C304.283 109.961 304.612 108.653 304.612 107.006C304.612 105.359 304.283 104.068 303.624 103.132C302.966 102.196 301.926 101.728 300.504 101.728C299.083 101.728 298.052 102.196 297.41 103.132C296.769 104.068 296.448 105.359 296.448 107.006ZM316.195 114.26C314.964 114.26 313.863 114.009 312.893 113.506C311.939 113.003 311.185 112.223 310.631 111.166C310.093 110.109 309.825 108.757 309.825 107.11C309.825 105.394 310.111 103.999 310.683 102.924C311.255 101.849 312.026 101.061 312.997 100.558C313.985 100.055 315.103 99.804 316.351 99.804C317.061 99.804 317.746 99.882 318.405 100.038C319.063 100.177 319.601 100.35 320.017 100.558L319.315 102.456C318.899 102.3 318.413 102.153 317.859 102.014C317.304 101.875 316.784 101.806 316.299 101.806C313.56 101.806 312.191 103.565 312.191 107.084C312.191 108.765 312.52 110.057 313.179 110.958C313.855 111.842 314.851 112.284 316.169 112.284C316.931 112.284 317.599 112.206 318.171 112.05C318.76 111.894 319.297 111.703 319.783 111.478V113.506C319.315 113.749 318.795 113.931 318.223 114.052C317.668 114.191 316.992 114.26 316.195 114.26ZM325.359 94.24V104.562C325.359 104.839 325.341 105.203 325.307 105.654C325.289 106.105 325.272 106.495 325.255 106.824H325.359C325.463 106.685 325.619 106.486 325.827 106.226C326.035 105.966 326.243 105.706 326.451 105.446C326.676 105.169 326.867 104.943 327.023 104.77L331.469 100.064H334.147L328.505 106.018L334.537 114H331.781L326.945 107.5L325.359 108.878V114H323.097V94.24H325.359ZM346.059 110.152C346.059 111.504 345.557 112.527 344.551 113.22C343.546 113.913 342.194 114.26 340.495 114.26C339.525 114.26 338.684 114.182 337.973 114.026C337.28 113.87 336.665 113.653 336.127 113.376V111.296C336.682 111.573 337.349 111.833 338.129 112.076C338.927 112.301 339.733 112.414 340.547 112.414C341.709 112.414 342.549 112.232 343.069 111.868C343.589 111.487 343.849 110.984 343.849 110.36C343.849 110.013 343.754 109.701 343.563 109.424C343.373 109.147 343.026 108.869 342.523 108.592C342.038 108.315 341.336 108.003 340.417 107.656C339.516 107.309 338.745 106.963 338.103 106.616C337.462 106.269 336.968 105.853 336.621 105.368C336.275 104.883 336.101 104.259 336.101 103.496C336.101 102.317 336.578 101.407 337.531 100.766C338.502 100.125 339.767 99.804 341.327 99.804C342.177 99.804 342.965 99.8907 343.693 100.064C344.439 100.22 345.132 100.445 345.773 100.74L344.993 102.56C344.404 102.317 343.789 102.109 343.147 101.936C342.506 101.763 341.847 101.676 341.171 101.676C340.235 101.676 339.516 101.832 339.013 102.144C338.528 102.439 338.285 102.846 338.285 103.366C338.285 103.747 338.398 104.077 338.623 104.354C338.849 104.614 339.221 104.874 339.741 105.134C340.279 105.377 340.989 105.671 341.873 106.018C342.757 106.347 343.511 106.685 344.135 107.032C344.759 107.379 345.236 107.803 345.565 108.306C345.895 108.791 346.059 109.407 346.059 110.152ZM361.459 99.83C363.157 99.83 364.414 100.203 365.229 100.948C366.043 101.693 366.451 102.881 366.451 104.51V114H364.787L364.345 112.024H364.241C363.634 112.787 362.993 113.35 362.317 113.714C361.658 114.078 360.739 114.26 359.561 114.26C358.295 114.26 357.247 113.931 356.415 113.272C355.583 112.596 355.167 111.547 355.167 110.126C355.167 108.739 355.713 107.673 356.805 106.928C357.897 106.165 359.578 105.749 361.849 105.68L364.215 105.602V104.77C364.215 103.609 363.963 102.803 363.461 102.352C362.958 101.901 362.247 101.676 361.329 101.676C360.601 101.676 359.907 101.789 359.249 102.014C358.59 102.222 357.975 102.465 357.403 102.742L356.701 101.026C357.307 100.697 358.027 100.419 358.859 100.194C359.691 99.9513 360.557 99.83 361.459 99.83ZM364.189 107.188L362.135 107.266C360.401 107.335 359.197 107.613 358.521 108.098C357.862 108.583 357.533 109.268 357.533 110.152C357.533 110.932 357.767 111.504 358.235 111.868C358.72 112.232 359.335 112.414 360.081 112.414C361.259 112.414 362.239 112.093 363.019 111.452C363.799 110.793 364.189 109.788 364.189 108.436V107.188ZM377.463 99.804C379.127 99.804 380.384 100.211 381.233 101.026C382.082 101.823 382.507 103.123 382.507 104.926V114H380.245V105.082C380.245 102.846 379.205 101.728 377.125 101.728C375.582 101.728 374.516 102.161 373.927 103.028C373.338 103.895 373.043 105.143 373.043 106.772V114H370.755V100.064H372.601L372.939 101.962H373.069C373.52 101.234 374.144 100.697 374.941 100.35C375.738 99.986 376.579 99.804 377.463 99.804ZM391.767 114.26C390.034 114.26 388.647 113.662 387.607 112.466C386.567 111.253 386.047 109.45 386.047 107.058C386.047 104.666 386.567 102.863 387.607 101.65C388.665 100.419 390.06 99.804 391.793 99.804C392.868 99.804 393.743 100.003 394.419 100.402C395.113 100.801 395.676 101.286 396.109 101.858H396.265C396.248 101.633 396.213 101.303 396.161 100.87C396.127 100.419 396.109 100.064 396.109 99.804V94.24H398.397V114H396.551L396.213 112.128H396.109C395.693 112.717 395.139 113.22 394.445 113.636C393.752 114.052 392.859 114.26 391.767 114.26ZM392.131 112.362C393.605 112.362 394.636 111.963 395.225 111.166C395.832 110.351 396.135 109.129 396.135 107.5V107.084C396.135 105.351 395.849 104.025 395.277 103.106C394.705 102.17 393.648 101.702 392.105 101.702C390.875 101.702 389.947 102.196 389.323 103.184C388.717 104.155 388.413 105.463 388.413 107.11C388.413 108.774 388.717 110.065 389.323 110.984C389.947 111.903 390.883 112.362 392.131 112.362ZM415.765 114H413.425V97.49H407.627V95.436H421.537V97.49H415.765V114ZM427.578 99.804C428.774 99.804 429.797 100.064 430.646 100.584C431.513 101.104 432.172 101.841 432.622 102.794C433.09 103.73 433.324 104.831 433.324 106.096V107.474H423.782C423.817 109.051 424.216 110.256 424.978 111.088C425.758 111.903 426.842 112.31 428.228 112.31C429.112 112.31 429.892 112.232 430.568 112.076C431.262 111.903 431.972 111.66 432.7 111.348V113.35C431.99 113.662 431.288 113.887 430.594 114.026C429.901 114.182 429.078 114.26 428.124 114.26C426.807 114.26 425.637 113.991 424.614 113.454C423.609 112.917 422.82 112.119 422.248 111.062C421.694 109.987 421.416 108.679 421.416 107.136C421.416 105.611 421.668 104.302 422.17 103.21C422.69 102.118 423.41 101.277 424.328 100.688C425.264 100.099 426.348 99.804 427.578 99.804ZM427.552 101.676C426.46 101.676 425.594 102.031 424.952 102.742C424.328 103.435 423.956 104.406 423.834 105.654H430.932C430.915 104.475 430.638 103.522 430.1 102.794C429.563 102.049 428.714 101.676 427.552 101.676ZM452.16 99.804C453.737 99.804 454.916 100.211 455.696 101.026C456.476 101.823 456.866 103.123 456.866 104.926V114H454.604V105.03C454.604 102.829 453.659 101.728 451.77 101.728C450.418 101.728 449.447 102.118 448.858 102.898C448.286 103.678 448 104.813 448 106.304V114H445.738V105.03C445.738 102.829 444.785 101.728 442.878 101.728C441.474 101.728 440.503 102.161 439.966 103.028C439.429 103.895 439.16 105.143 439.16 106.772V114H436.872V100.064H438.718L439.056 101.962H439.186C439.619 101.234 440.2 100.697 440.928 100.35C441.673 99.986 442.462 99.804 443.294 99.804C445.478 99.804 446.899 100.584 447.558 102.144H447.688C448.156 101.347 448.789 100.757 449.586 100.376C450.401 99.9947 451.259 99.804 452.16 99.804ZM467.801 99.804C469.517 99.804 470.895 100.402 471.935 101.598C472.992 102.794 473.521 104.597 473.521 107.006C473.521 109.381 472.992 111.183 471.935 112.414C470.895 113.645 469.508 114.26 467.775 114.26C466.7 114.26 465.808 114.061 465.097 113.662C464.404 113.246 463.858 112.769 463.459 112.232H463.303C463.338 112.527 463.372 112.899 463.407 113.35C463.442 113.801 463.459 114.191 463.459 114.52V120.24H461.171V100.064H463.043L463.355 101.962H463.459C463.875 101.355 464.421 100.844 465.097 100.428C465.773 100.012 466.674 99.804 467.801 99.804ZM467.385 101.728C465.964 101.728 464.958 102.127 464.369 102.924C463.797 103.721 463.494 104.935 463.459 106.564V107.006C463.459 108.722 463.736 110.048 464.291 110.984C464.863 111.903 465.912 112.362 467.437 112.362C468.286 112.362 468.98 112.128 469.517 111.66C470.072 111.192 470.479 110.559 470.739 109.762C471.016 108.947 471.155 108.02 471.155 106.98C471.155 105.385 470.843 104.111 470.219 103.158C469.612 102.205 468.668 101.728 467.385 101.728ZM479.455 114H477.167V94.24H479.455V114ZM489.148 99.83C490.847 99.83 492.103 100.203 492.918 100.948C493.733 101.693 494.14 102.881 494.14 104.51V114H492.476L492.034 112.024H491.93C491.323 112.787 490.682 113.35 490.006 113.714C489.347 114.078 488.429 114.26 487.25 114.26C485.985 114.26 484.936 113.931 484.104 113.272C483.272 112.596 482.856 111.547 482.856 110.126C482.856 108.739 483.402 107.673 484.494 106.928C485.586 106.165 487.267 105.749 489.538 105.68L491.904 105.602V104.77C491.904 103.609 491.653 102.803 491.15 102.352C490.647 101.901 489.937 101.676 489.018 101.676C488.29 101.676 487.597 101.789 486.938 102.014C486.279 102.222 485.664 102.465 485.092 102.742L484.39 101.026C484.997 100.697 485.716 100.419 486.548 100.194C487.38 99.9513 488.247 99.83 489.148 99.83ZM491.878 107.188L489.824 107.266C488.091 107.335 486.886 107.613 486.21 108.098C485.551 108.583 485.222 109.268 485.222 110.152C485.222 110.932 485.456 111.504 485.924 111.868C486.409 112.232 487.025 112.414 487.77 112.414C488.949 112.414 489.928 112.093 490.708 111.452C491.488 110.793 491.878 109.788 491.878 108.436V107.188ZM503.098 112.388C503.445 112.388 503.8 112.362 504.164 112.31C504.528 112.241 504.823 112.171 505.048 112.102V113.844C504.806 113.965 504.459 114.061 504.008 114.13C503.558 114.217 503.124 114.26 502.708 114.26C501.98 114.26 501.304 114.139 500.68 113.896C500.074 113.636 499.58 113.194 499.198 112.57C498.817 111.946 498.626 111.071 498.626 109.944V101.832H496.65V100.74L498.652 99.83L499.562 96.866H500.914V100.064H504.944V101.832H500.914V109.892C500.914 110.741 501.114 111.374 501.512 111.79C501.928 112.189 502.457 112.388 503.098 112.388ZM513.221 99.804C514.417 99.804 515.44 100.064 516.289 100.584C517.156 101.104 517.814 101.841 518.265 102.794C518.733 103.73 518.967 104.831 518.967 106.096V107.474H509.425C509.46 109.051 509.858 110.256 510.621 111.088C511.401 111.903 512.484 112.31 513.871 112.31C514.755 112.31 515.535 112.232 516.211 112.076C516.904 111.903 517.615 111.66 518.343 111.348V113.35C517.632 113.662 516.93 113.887 516.237 114.026C515.544 114.182 514.72 114.26 513.767 114.26C512.45 114.26 511.28 113.991 510.257 113.454C509.252 112.917 508.463 112.119 507.891 111.062C507.336 109.987 507.059 108.679 507.059 107.136C507.059 105.611 507.31 104.302 507.813 103.21C508.333 102.118 509.052 101.277 509.971 100.688C510.907 100.099 511.99 99.804 513.221 99.804ZM513.195 101.676C512.103 101.676 511.236 102.031 510.595 102.742C509.971 103.435 509.598 104.406 509.477 105.654H516.575C516.558 104.475 516.28 103.522 515.743 102.794C515.206 102.049 514.356 101.676 513.195 101.676ZM531.589 110.152C531.589 111.504 531.086 112.527 530.081 113.22C529.075 113.913 527.723 114.26 526.025 114.26C525.054 114.26 524.213 114.182 523.503 114.026C522.809 113.87 522.194 113.653 521.657 113.376V111.296C522.211 111.573 522.879 111.833 523.659 112.076C524.456 112.301 525.262 112.414 526.077 112.414C527.238 112.414 528.079 112.232 528.599 111.868C529.119 111.487 529.379 110.984 529.379 110.36C529.379 110.013 529.283 109.701 529.093 109.424C528.902 109.147 528.555 108.869 528.053 108.592C527.567 108.315 526.865 108.003 525.947 107.656C525.045 107.309 524.274 106.963 523.633 106.616C522.991 106.269 522.497 105.853 522.151 105.368C521.804 104.883 521.631 104.259 521.631 103.496C521.631 102.317 522.107 101.407 523.061 100.766C524.031 100.125 525.297 99.804 526.857 99.804C527.706 99.804 528.495 99.8907 529.223 100.064C529.968 100.22 530.661 100.445 531.303 100.74L530.523 102.56C529.933 102.317 529.318 102.109 528.677 101.936C528.035 101.763 527.377 101.676 526.701 101.676C525.765 101.676 525.045 101.832 524.543 102.144C524.057 102.439 523.815 102.846 523.815 103.366C523.815 103.747 523.927 104.077 524.153 104.354C524.378 104.614 524.751 104.874 525.271 105.134C525.808 105.377 526.519 105.671 527.403 106.018C528.287 106.347 529.041 106.685 529.665 107.032C530.289 107.379 530.765 107.803 531.095 108.306C531.424 108.791 531.589 109.407 531.589 110.152Z" fill="white" fill-opacity="0.8"/>
<path fill-rule="evenodd" clip-rule="evenodd" d="M10.7636 47.6909C10.7636 63.667 23.7148 76.6182 39.6909 76.6182C55.667 76.6182 68.6182 63.667 68.6182 47.6909C68.6182 31.7148 55.667 18.7636 39.6909 18.7636C23.7148 18.7636 10.7636 31.7148 10.7636 47.6909ZM39.6909 87.3818C17.7702 87.3818 -7.76761e-07 69.6116 -1.73494e-06 47.6909C-2.69313e-06 25.7702 17.7702 8 39.6909 8C61.6116 8 79.3818 25.7702 79.3818 47.6909C79.3818 69.6116 61.6116 87.3818 39.6909 87.3818Z" fill="white"/>
<path fill-rule="evenodd" clip-rule="evenodd" d="M7.31679 104.442C8.66935 101.795 11.9114 100.746 14.5581 102.099C30.5721 110.282 48.8097 110.282 64.8237 102.099C67.4704 100.746 70.7125 101.795 72.065 104.442C73.4176 107.089 72.3685 110.331 69.7218 111.683C50.6316 121.439 28.7502 121.439 9.66006 111.683C7.01335 110.331 5.96422 107.089 7.31679 104.442Z" fill="white"/>
</svg>
