<svg width="256" height="256" viewBox="0 0 256 256" fill="none" xmlns="http://www.w3.org/2000/svg">
  <rect width="256" height="256" rx="128" fill="#2F1747" />
  <path fill-rule="evenodd" clip-rule="evenodd"
    d="M128 74C109.222 74 94 89.2223 94 108C94 126.778 109.222 142 128 142C146.778 142 162 126.778 162 108C162 89.2223 146.778 74 128 74ZM78 108C78 80.3858 100.386 58 128 58C155.614 58 178 80.3858 178 108C178 135.614 155.614 158 128 158C100.386 158 78 135.614 78 108ZM86.8246 177.463C88.7783 173.5 93.5746 171.871 97.5375 173.825C116.944 183.392 139.056 183.392 158.463 173.825C162.425 171.871 167.222 173.5 169.175 177.463C171.129 181.425 169.5 186.222 165.537 188.175C141.671 199.942 114.329 199.942 90.4625 188.175C86.4997 186.222 84.8709 181.425 86.8246 177.463Z"
    fill="white" />
</svg>
