<svg width="253" height="75" viewBox="0 0 253 75" fill="none" xmlns="http://www.w3.org/2000/svg">
<path d="M21.128 23.282H26.752V37H22.116V35.404C20.2667 36.772 17.8853 37.456 14.972 37.456C12.5147 37.456 10.26 36.924 8.208 35.86C6.156 34.796 4.522 33.2507 3.306 31.224C2.09 29.172 1.482 26.74 1.482 23.928C1.482 21.2173 2.10267 18.8107 3.344 16.708C4.61067 14.58 6.35867 12.9207 8.588 11.73C10.8173 10.5393 13.3253 9.944 16.112 9.944C18.4427 9.944 20.558 10.3367 22.458 11.122C24.358 11.9073 25.954 13.0473 27.246 14.542L23.294 18.19C21.394 16.1887 19.1013 15.188 16.416 15.188C14.7187 15.188 13.2113 15.5553 11.894 16.29C10.5767 16.9993 9.55067 18.0127 8.816 19.33C8.08133 20.6473 7.714 22.1673 7.714 23.89C7.714 25.6887 8.06867 27.2213 8.778 28.488C9.51267 29.7547 10.488 30.7173 11.704 31.376C12.92 32.0093 14.25 32.326 15.694 32.326C17.8473 32.326 19.6587 31.718 21.128 30.502V23.282ZM44.4784 16.252C47.0117 16.252 49.0511 17.012 50.5964 18.532C52.1671 20.052 52.9524 22.3067 52.9524 25.296V37H47.0244V26.208C47.0244 24.5867 46.6697 23.3833 45.9604 22.598C45.2511 21.7873 44.2251 21.382 42.8824 21.382C41.3877 21.382 40.1971 21.8507 39.3104 22.788C38.4237 23.7 37.9804 25.068 37.9804 26.892V37H32.0524V8.804H37.9804V18.684C38.7657 17.8987 39.7157 17.3033 40.8304 16.898C41.9451 16.4673 43.1611 16.252 44.4784 16.252ZM68.2765 37.304C66.1232 37.304 64.1852 36.8607 62.4625 35.974C60.7652 35.062 59.4352 33.808 58.4725 32.212C57.5098 30.616 57.0285 28.8047 57.0285 26.778C57.0285 24.7513 57.5098 22.94 58.4725 21.344C59.4352 19.748 60.7652 18.5067 62.4625 17.62C64.1852 16.708 66.1232 16.252 68.2765 16.252C70.4298 16.252 72.3552 16.708 74.0525 17.62C75.7498 18.5067 77.0798 19.748 78.0425 21.344C79.0052 22.94 79.4865 24.7513 79.4865 26.778C79.4865 28.8047 79.0052 30.616 78.0425 32.212C77.0798 33.808 75.7498 35.062 74.0525 35.974C72.3552 36.8607 70.4298 37.304 68.2765 37.304ZM68.2765 32.44C69.7965 32.44 71.0378 31.9333 72.0005 30.92C72.9885 29.8813 73.4825 28.5007 73.4825 26.778C73.4825 25.0553 72.9885 23.6873 72.0005 22.674C71.0378 21.6353 69.7965 21.116 68.2765 21.116C66.7565 21.116 65.5025 21.6353 64.5145 22.674C63.5265 23.6873 63.0325 25.0553 63.0325 26.778C63.0325 28.5007 63.5265 29.8813 64.5145 30.92C65.5025 31.9333 66.7565 32.44 68.2765 32.44ZM90.3269 37.304C88.6296 37.304 86.9702 37.1013 85.3489 36.696C83.7276 36.2653 82.4356 35.7333 81.4729 35.1L83.4489 30.844C84.3609 31.4267 85.4629 31.908 86.7549 32.288C88.0469 32.6427 89.3136 32.82 90.5549 32.82C93.0629 32.82 94.3169 32.1993 94.3169 30.958C94.3169 30.3753 93.9749 29.9573 93.2909 29.704C92.6069 29.4507 91.5556 29.2353 90.1369 29.058C88.4649 28.8047 87.0842 28.5133 85.9949 28.184C84.9056 27.8547 83.9556 27.272 83.1449 26.436C82.3596 25.6 81.9669 24.4093 81.9669 22.864C81.9669 21.572 82.3342 20.432 83.0689 19.444C83.8289 18.4307 84.9182 17.6453 86.3369 17.088C87.7809 16.5307 89.4782 16.252 91.4289 16.252C92.8729 16.252 94.3042 16.4167 95.7229 16.746C97.1669 17.05 98.3576 17.4807 99.2949 18.038L97.3189 22.256C95.5202 21.2427 93.5569 20.736 91.4289 20.736C90.1622 20.736 89.2122 20.9133 88.5789 21.268C87.9456 21.6227 87.6289 22.0787 87.6289 22.636C87.6289 23.2693 87.9709 23.7127 88.6549 23.966C89.3389 24.2193 90.4282 24.46 91.9229 24.688C93.5949 24.9667 94.9629 25.2707 96.0269 25.6C97.0909 25.904 98.0156 26.474 98.8009 27.31C99.5862 28.146 99.9789 29.3113 99.9789 30.806C99.9789 32.0727 99.5989 33.2 98.8389 34.188C98.0789 35.176 96.9642 35.9487 95.4949 36.506C94.0509 37.038 92.3282 37.304 90.3269 37.304ZM115.948 36.012C115.366 36.4427 114.644 36.772 113.782 37C112.946 37.2027 112.072 37.304 111.16 37.304C108.703 37.304 106.816 36.6833 105.498 35.442C104.181 34.2007 103.522 32.3767 103.522 29.97V12.034H109.45V17.012H114.504V21.572H109.45V29.894C109.45 30.7553 109.666 31.4267 110.096 31.908C110.527 32.364 111.148 32.592 111.958 32.592C112.87 32.592 113.681 32.3387 114.39 31.832L115.948 36.012ZM140.166 26.55L136.594 30.274V37H130.476V10.4H136.594V22.826L148.374 10.4H155.214L144.194 22.256L155.86 37H148.678L140.166 26.55ZM157.816 16.556H163.744V37H157.816V16.556ZM160.78 13.706C159.691 13.706 158.804 13.3893 158.12 12.756C157.436 12.1227 157.094 11.3373 157.094 10.4C157.094 9.46266 157.436 8.67733 158.12 8.044C158.804 7.41066 159.691 7.094 160.78 7.094C161.869 7.094 162.756 7.398 163.44 8.006C164.124 8.614 164.466 9.374 164.466 10.286C164.466 11.274 164.124 12.0973 163.44 12.756C162.756 13.3893 161.869 13.706 160.78 13.706ZM181.558 36.012C180.975 36.4427 180.253 36.772 179.392 37C178.556 37.2027 177.682 37.304 176.77 37.304C174.312 37.304 172.425 36.6833 171.108 35.442C169.79 34.2007 169.132 32.3767 169.132 29.97V12.034H175.06V17.012H180.114V21.572H175.06V29.894C175.06 30.7553 175.275 31.4267 175.706 31.908C176.136 32.364 176.757 32.592 177.568 32.592C178.48 32.592 179.29 32.3387 180 31.832L181.558 36.012Z" fill="white"/>
<path d="M1.65186 56.8643H5.11328C6.74023 56.8643 7.91341 57.1077 8.63281 57.5947C9.35775 58.0762 9.72021 58.8343 9.72021 59.8691C9.72021 60.5885 9.52376 61.1834 9.13086 61.6538C8.73796 62.1187 8.1652 62.4202 7.4126 62.5586V62.6416C8.34782 62.8021 9.03402 63.1258 9.47119 63.6128C9.9139 64.0998 10.1353 64.7445 10.1353 65.5469C10.1353 66.6315 9.76449 67.4782 9.02295 68.0869C8.28141 68.6956 7.24658 69 5.91846 69H1.65186V56.8643ZM3.1792 62.0273H5.42041C6.37223 62.0273 7.06396 61.8752 7.49561 61.5708C7.92725 61.2664 8.14307 60.7573 8.14307 60.0435C8.14307 59.3794 7.90511 58.9007 7.4292 58.6074C6.95882 58.3141 6.21175 58.1675 5.18799 58.1675H3.1792V62.0273ZM3.1792 63.3057V67.7051H5.62793C6.60189 67.7051 7.32406 67.5169 7.79443 67.1406C8.26481 66.7643 8.5 66.1943 8.5 65.4307C8.5 64.7057 8.25098 64.1717 7.75293 63.8286C7.25488 63.48 6.50781 63.3057 5.51172 63.3057H3.1792ZM13.9951 69H12.501V56.084H13.9951V69ZM24.8027 64.4263C24.8027 65.9149 24.4264 67.077 23.6738 67.9126C22.9212 68.7482 21.8809 69.166 20.5527 69.166C19.7282 69.166 18.9977 68.9751 18.3613 68.5933C17.7249 68.2059 17.2352 67.6525 16.8921 66.9331C16.549 66.2137 16.3774 65.3781 16.3774 64.4263C16.3774 62.9432 16.7482 61.7894 17.4897 60.9648C18.2313 60.1348 19.2716 59.7197 20.6108 59.7197C21.8947 59.7197 22.9129 60.1431 23.6655 60.9897C24.4237 61.8309 24.8027 62.9764 24.8027 64.4263ZM17.9214 64.4263C17.9214 65.5718 18.1455 66.4434 18.5938 67.041C19.0475 67.6331 19.7144 67.9292 20.5942 67.9292C21.4631 67.9292 22.1243 67.6331 22.5781 67.041C23.0319 66.4434 23.2588 65.5718 23.2588 64.4263C23.2588 63.2808 23.0291 62.4202 22.5698 61.8447C22.116 61.2637 21.4492 60.9731 20.5693 60.9731C18.804 60.9731 17.9214 62.1242 17.9214 64.4263ZM30.8291 69.166C29.5176 69.166 28.4966 68.7648 27.7661 67.9624C27.0356 67.1545 26.6704 65.9979 26.6704 64.4927C26.6704 62.9653 27.0384 61.7894 27.7744 60.9648C28.516 60.1348 29.5701 59.7197 30.937 59.7197C31.3797 59.7197 31.8169 59.7668 32.2485 59.8608C32.6857 59.9494 33.0454 60.0656 33.3276 60.2095L32.8711 61.4546C32.1019 61.1668 31.4461 61.0229 30.9038 61.0229C29.9852 61.0229 29.3073 61.3135 28.8701 61.8945C28.4329 62.4701 28.2144 63.3306 28.2144 64.4761C28.2144 65.5773 28.4329 66.4212 28.8701 67.0078C29.3073 67.5889 29.9548 67.8794 30.8125 67.8794C31.6149 67.8794 32.4035 67.7023 33.1782 67.3481V68.6763C32.5474 69.0028 31.7643 69.166 30.8291 69.166ZM36.8223 64.3101L37.3286 63.6626L37.9097 62.9653L40.8232 59.8857H42.5664L38.8809 63.7788L42.8237 69H41.0225L37.8599 64.75L36.8223 65.6548V69H35.3447V56.084H36.8223V62.8325L36.7559 64.3101H36.8223ZM50.3608 66.4849C50.3608 67.3371 50.0426 67.9984 49.4062 68.4688C48.7699 68.9336 47.8761 69.166 46.7251 69.166C45.5243 69.166 44.5697 68.9751 43.8613 68.5933V67.2319C44.863 67.7189 45.8286 67.9624 46.7583 67.9624C47.5109 67.9624 48.0588 67.8407 48.4019 67.5972C48.745 67.3537 48.9165 67.0272 48.9165 66.6177C48.9165 66.258 48.7505 65.9536 48.4185 65.7046C48.092 65.4556 47.5081 65.1706 46.667 64.8496C45.8092 64.5176 45.2061 64.2354 44.8574 64.0029C44.5088 63.765 44.2515 63.4993 44.0854 63.2061C43.925 62.9128 43.8447 62.5558 43.8447 62.1353C43.8447 61.3882 44.1491 60.7988 44.7578 60.3672C45.3665 59.9355 46.2021 59.7197 47.2646 59.7197C48.2995 59.7197 49.2679 59.9245 50.1699 60.334L49.6636 61.521C48.7394 61.1336 47.9066 60.9399 47.165 60.9399C46.5452 60.9399 46.0749 61.0396 45.7539 61.2388C45.4329 61.4325 45.2725 61.7008 45.2725 62.0439C45.2725 62.376 45.4108 62.6527 45.6875 62.874C45.9642 63.0898 46.6089 63.3914 47.6216 63.7788C48.3797 64.061 48.9386 64.3239 49.2983 64.5674C49.6636 64.8109 49.932 65.0848 50.1035 65.3892C50.2751 65.6935 50.3608 66.0588 50.3608 66.4849ZM62.397 58.0347C61.091 58.0347 60.0645 58.4718 59.3174 59.3462C58.5703 60.2205 58.1968 61.4159 58.1968 62.9321C58.1968 64.4982 58.5592 65.7074 59.2842 66.5596C60.0091 67.4062 61.0412 67.8296 62.3804 67.8296C63.2437 67.8296 64.2148 67.6691 65.2939 67.3481V68.6763C64.7793 68.8644 64.284 68.9917 63.8081 69.0581C63.3322 69.13 62.7843 69.166 62.1646 69.166C60.3771 69.166 58.9992 68.6237 58.0308 67.5391C57.0679 66.4489 56.5864 64.9077 56.5864 62.9155C56.5864 61.6649 56.8161 60.5692 57.2754 59.6284C57.7402 58.6877 58.4126 57.9627 59.2925 57.4536C60.1779 56.9445 61.2183 56.6899 62.4136 56.6899C63.6974 56.6899 64.8153 56.9279 65.7671 57.4038L65.1528 58.6987C64.1844 58.256 63.2658 58.0347 62.397 58.0347ZM75.6533 64.4263C75.6533 65.9149 75.277 67.077 74.5244 67.9126C73.7718 68.7482 72.7314 69.166 71.4033 69.166C70.5788 69.166 69.8483 68.9751 69.2119 68.5933C68.5755 68.2059 68.0858 67.6525 67.7427 66.9331C67.3996 66.2137 67.228 65.3781 67.228 64.4263C67.228 62.9432 67.5988 61.7894 68.3403 60.9648C69.0819 60.1348 70.1222 59.7197 71.4614 59.7197C72.7453 59.7197 73.7635 60.1431 74.5161 60.9897C75.2743 61.8309 75.6533 62.9764 75.6533 64.4263ZM68.772 64.4263C68.772 65.5718 68.9961 66.4434 69.4443 67.041C69.8981 67.6331 70.5649 67.9292 71.4448 67.9292C72.3136 67.9292 72.9749 67.6331 73.4287 67.041C73.8825 66.4434 74.1094 65.5718 74.1094 64.4263C74.1094 63.2808 73.8797 62.4202 73.4204 61.8447C72.9666 61.2637 72.2998 60.9731 71.4199 60.9731C69.6546 60.9731 68.772 62.1242 68.772 64.4263ZM79.5215 69H78.0273V56.084H79.5215V69ZM83.9043 69H82.4102V56.084H83.9043V69ZM90.6694 69.166C89.3026 69.166 88.229 68.7537 87.4487 67.9292C86.674 67.0991 86.2866 65.9591 86.2866 64.5093C86.2866 63.0483 86.6491 61.8862 87.374 61.0229C88.099 60.1541 89.0785 59.7197 90.3125 59.7197C91.458 59.7197 92.3711 60.0905 93.0518 60.832C93.7324 61.568 94.0728 62.5669 94.0728 63.8286V64.7334H87.8306C87.8582 65.7682 88.1211 66.554 88.6191 67.0908C89.1172 67.6276 89.8228 67.896 90.7358 67.896C91.2228 67.896 91.6849 67.8545 92.1221 67.7715C92.5592 67.6829 93.0711 67.5142 93.6577 67.2651V68.5767C93.1541 68.7925 92.681 68.9447 92.2383 69.0332C91.7956 69.1217 91.2726 69.166 90.6694 69.166ZM90.2959 60.9399C89.582 60.9399 89.0176 61.1696 88.6025 61.6289C88.1875 62.0882 87.9412 62.7274 87.8638 63.5464H92.5039C92.4928 62.6942 92.2964 62.0467 91.9146 61.604C91.5327 61.1613 90.9932 60.9399 90.2959 60.9399ZM100.041 69.166C98.7295 69.166 97.7085 68.7648 96.978 67.9624C96.2476 67.1545 95.8823 65.9979 95.8823 64.4927C95.8823 62.9653 96.2503 61.7894 96.9863 60.9648C97.7279 60.1348 98.7821 59.7197 100.149 59.7197C100.592 59.7197 101.029 59.7668 101.46 59.8608C101.898 59.9494 102.257 60.0656 102.54 60.2095L102.083 61.4546C101.314 61.1668 100.658 61.0229 100.116 61.0229C99.1971 61.0229 98.5192 61.3135 98.082 61.8945C97.6449 62.4701 97.4263 63.3306 97.4263 64.4761C97.4263 65.5773 97.6449 66.4212 98.082 67.0078C98.5192 67.5889 99.1667 67.8794 100.024 67.8794C100.827 67.8794 101.615 67.7023 102.39 67.3481V68.6763C101.759 69.0028 100.976 69.166 100.041 69.166ZM107.603 67.9458C107.797 67.9458 108.024 67.9264 108.284 67.8877C108.544 67.849 108.74 67.8047 108.873 67.7549V68.9004C108.735 68.9613 108.519 69.0194 108.226 69.0747C107.938 69.1356 107.645 69.166 107.346 69.166C105.564 69.166 104.673 68.228 104.673 66.3521V61.0479H103.386V60.334L104.689 59.7363L105.287 57.7939H106.175V59.8857H108.807V61.0479H106.175V66.3105C106.175 66.8363 106.3 67.2402 106.549 67.5225C106.803 67.8047 107.155 67.9458 107.603 67.9458ZM112.193 69H110.699V59.8857H112.193V69ZM110.583 57.4204C110.583 57.0884 110.666 56.8477 110.832 56.6982C111.004 56.5488 111.214 56.4741 111.463 56.4741C111.695 56.4741 111.897 56.5488 112.069 56.6982C112.246 56.8477 112.334 57.0884 112.334 57.4204C112.334 57.7469 112.246 57.9876 112.069 58.1426C111.897 58.2975 111.695 58.375 111.463 58.375C111.214 58.375 111.004 58.2975 110.832 58.1426C110.666 57.9876 110.583 57.7469 110.583 57.4204ZM123.001 64.4263C123.001 65.9149 122.625 67.077 121.872 67.9126C121.119 68.7482 120.079 69.166 118.751 69.166C117.926 69.166 117.196 68.9751 116.56 68.5933C115.923 68.2059 115.433 67.6525 115.09 66.9331C114.747 66.2137 114.576 65.3781 114.576 64.4263C114.576 62.9432 114.946 61.7894 115.688 60.9648C116.43 60.1348 117.47 59.7197 118.809 59.7197C120.093 59.7197 121.111 60.1431 121.864 60.9897C122.622 61.8309 123.001 62.9764 123.001 64.4263ZM116.12 64.4263C116.12 65.5718 116.344 66.4434 116.792 67.041C117.246 67.6331 117.913 67.9292 118.792 67.9292C119.661 67.9292 120.323 67.6331 120.776 67.041C121.23 66.4434 121.457 65.5718 121.457 64.4263C121.457 63.2808 121.227 62.4202 120.768 61.8447C120.314 61.2637 119.647 60.9731 118.768 60.9731C117.002 60.9731 116.12 62.1242 116.12 64.4263ZM131.584 69V63.1729C131.584 62.4313 131.418 61.8807 131.086 61.521C130.759 61.1558 130.245 60.9731 129.542 60.9731C128.607 60.9731 127.926 61.2332 127.5 61.7534C127.079 62.2681 126.869 63.1092 126.869 64.2769V69H125.375V59.8857H126.579L126.803 61.1309H126.886C127.168 60.6826 127.564 60.3368 128.073 60.0933C128.582 59.8442 129.144 59.7197 129.758 59.7197C130.876 59.7197 131.706 59.9909 132.248 60.5332C132.79 61.0755 133.062 61.9194 133.062 63.0649V69H131.584ZM144.5 61.0479H142.201V69H140.707V61.0479H139.113V60.3506L140.707 59.8359V59.313C140.707 58.2062 140.947 57.3761 141.429 56.8228C141.916 56.2694 142.663 55.9927 143.67 55.9927C144.251 55.9927 144.84 56.0951 145.438 56.2998L145.04 57.4702C144.525 57.3042 144.074 57.2212 143.687 57.2212C143.183 57.2212 142.809 57.3872 142.566 57.7192C142.322 58.0513 142.201 58.577 142.201 59.2964V59.8857H144.5V61.0479ZM154.079 64.4263C154.079 65.9149 153.703 67.077 152.95 67.9126C152.198 68.7482 151.157 69.166 149.829 69.166C149.005 69.166 148.274 68.9751 147.638 68.5933C147.001 68.2059 146.512 67.6525 146.168 66.9331C145.825 66.2137 145.654 65.3781 145.654 64.4263C145.654 62.9432 146.025 61.7894 146.766 60.9648C147.508 60.1348 148.548 59.7197 149.887 59.7197C151.171 59.7197 152.189 60.1431 152.942 60.9897C153.7 61.8309 154.079 62.9764 154.079 64.4263ZM147.198 64.4263C147.198 65.5718 147.422 66.4434 147.87 67.041C148.324 67.6331 148.991 67.9292 149.871 67.9292C150.739 67.9292 151.401 67.6331 151.854 67.041C152.308 66.4434 152.535 65.5718 152.535 64.4263C152.535 63.2808 152.306 62.4202 151.846 61.8447C151.392 61.2637 150.726 60.9731 149.846 60.9731C148.08 60.9731 147.198 62.1242 147.198 64.4263ZM160.703 59.7197C161.107 59.7197 161.464 59.7529 161.774 59.8193L161.591 61.1973C161.254 61.1198 160.924 61.0811 160.604 61.0811C160.122 61.0811 159.674 61.2139 159.259 61.4795C158.849 61.7451 158.528 62.1131 158.296 62.5835C158.063 63.0483 157.947 63.5658 157.947 64.1357V69H156.453V59.8857H157.682L157.848 61.5542H157.914C158.263 60.951 158.675 60.4945 159.151 60.1846C159.627 59.8747 160.144 59.7197 160.703 59.7197ZM178.807 69H177.263L174.897 61.0479C174.549 59.8636 174.344 59.064 174.283 58.6489C174.195 59.2853 174.001 60.1016 173.702 61.0977L171.411 69H169.867L166.655 56.8643H168.249L170.133 64.2769C170.387 65.2453 170.581 66.2082 170.714 67.1655C170.836 66.258 171.051 65.2646 171.361 64.1855L173.503 56.8643H175.08L177.313 64.2437C177.601 65.201 177.822 66.175 177.977 67.1655C178.066 66.4019 178.262 65.4334 178.566 64.2603L180.442 56.8643H182.036L178.807 69ZM191.466 64.4263C191.466 65.9149 191.09 67.077 190.337 67.9126C189.584 68.7482 188.544 69.166 187.216 69.166C186.391 69.166 185.661 68.9751 185.024 68.5933C184.388 68.2059 183.898 67.6525 183.555 66.9331C183.212 66.2137 183.041 65.3781 183.041 64.4263C183.041 62.9432 183.411 61.7894 184.153 60.9648C184.894 60.1348 185.935 59.7197 187.274 59.7197C188.558 59.7197 189.576 60.1431 190.329 60.9897C191.087 61.8309 191.466 62.9764 191.466 64.4263ZM184.584 64.4263C184.584 65.5718 184.809 66.4434 185.257 67.041C185.711 67.6331 186.377 67.9292 187.257 67.9292C188.126 67.9292 188.787 67.6331 189.241 67.041C189.695 66.4434 189.922 65.5718 189.922 64.4263C189.922 63.2808 189.692 62.4202 189.233 61.8447C188.779 61.2637 188.112 60.9731 187.232 60.9731C185.467 60.9731 184.584 62.1242 184.584 64.4263ZM198.09 59.7197C198.494 59.7197 198.851 59.7529 199.161 59.8193L198.978 61.1973C198.64 61.1198 198.311 61.0811 197.99 61.0811C197.509 61.0811 197.061 61.2139 196.646 61.4795C196.236 61.7451 195.915 62.1131 195.683 62.5835C195.45 63.0483 195.334 63.5658 195.334 64.1357V69H193.84V59.8857H195.068L195.234 61.5542H195.301C195.649 60.951 196.062 60.4945 196.538 60.1846C197.014 59.8747 197.531 59.7197 198.09 59.7197ZM203.925 69.166C202.741 69.166 201.822 68.7565 201.169 67.9375C200.516 67.1185 200.19 65.9591 200.19 64.4595C200.19 62.9709 200.516 61.8088 201.169 60.9731C201.828 60.1375 202.752 59.7197 203.942 59.7197C205.165 59.7197 206.106 60.168 206.764 61.0645H206.872C206.855 60.9538 206.833 60.7324 206.806 60.4004C206.778 60.0628 206.764 59.8359 206.764 59.7197V56.084H208.258V69H207.055L206.831 67.7798H206.764C206.128 68.7039 205.181 69.166 203.925 69.166ZM204.166 67.9292C205.074 67.9292 205.735 67.6829 206.15 67.1904C206.57 66.6924 206.781 65.8789 206.781 64.75V64.4761C206.781 63.2088 206.568 62.3068 206.142 61.77C205.721 61.2277 205.057 60.9565 204.149 60.9565C203.38 60.9565 202.785 61.2637 202.365 61.8779C201.944 62.4867 201.734 63.3582 201.734 64.4927C201.734 65.6216 201.941 66.4766 202.356 67.0576C202.777 67.6387 203.38 67.9292 204.166 67.9292ZM219.132 60.4336C219.132 61.6732 218.709 62.625 217.862 63.2891C217.016 63.9476 215.823 64.2769 214.285 64.2769H212.89V69H211.363V56.8643H214.575C217.613 56.8643 219.132 58.054 219.132 60.4336ZM212.89 62.9653H214.11C215.317 62.9653 216.191 62.7716 216.733 62.3843C217.276 61.9914 217.547 61.3633 217.547 60.5C217.547 59.7197 217.295 59.1359 216.792 58.7485C216.288 58.3612 215.502 58.1675 214.434 58.1675H212.89V62.9653ZM225.698 59.7197C226.102 59.7197 226.459 59.7529 226.769 59.8193L226.586 61.1973C226.249 61.1198 225.92 61.0811 225.599 61.0811C225.117 61.0811 224.669 61.2139 224.254 61.4795C223.844 61.7451 223.523 62.1131 223.291 62.5835C223.059 63.0483 222.942 63.5658 222.942 64.1357V69H221.448V59.8857H222.677L222.843 61.5542H222.909C223.258 60.951 223.67 60.4945 224.146 60.1846C224.622 59.8747 225.139 59.7197 225.698 59.7197ZM232.181 69.166C230.814 69.166 229.741 68.7537 228.96 67.9292C228.186 67.0991 227.798 65.9591 227.798 64.5093C227.798 63.0483 228.161 61.8862 228.886 61.0229C229.611 60.1541 230.59 59.7197 231.824 59.7197C232.97 59.7197 233.883 60.0905 234.563 60.832C235.244 61.568 235.584 62.5669 235.584 63.8286V64.7334H229.342C229.37 65.7682 229.633 66.554 230.131 67.0908C230.629 67.6276 231.334 67.896 232.248 67.896C232.735 67.896 233.197 67.8545 233.634 67.7715C234.071 67.6829 234.583 67.5142 235.169 67.2651V68.5767C234.666 68.7925 234.193 68.9447 233.75 69.0332C233.307 69.1217 232.784 69.166 232.181 69.166ZM231.808 60.9399C231.094 60.9399 230.529 61.1696 230.114 61.6289C229.699 62.0882 229.453 62.7274 229.375 63.5464H234.016C234.005 62.6942 233.808 62.0467 233.426 61.604C233.044 61.1613 232.505 60.9399 231.808 60.9399ZM243.835 66.4849C243.835 67.3371 243.517 67.9984 242.881 68.4688C242.244 68.9336 241.351 69.166 240.2 69.166C238.999 69.166 238.044 68.9751 237.336 68.5933V67.2319C238.338 67.7189 239.303 67.9624 240.233 67.9624C240.986 67.9624 241.533 67.8407 241.876 67.5972C242.22 67.3537 242.391 67.0272 242.391 66.6177C242.391 66.258 242.225 65.9536 241.893 65.7046C241.567 65.4556 240.983 65.1706 240.142 64.8496C239.284 64.5176 238.681 64.2354 238.332 64.0029C237.983 63.765 237.726 63.4993 237.56 63.2061C237.4 62.9128 237.319 62.5558 237.319 62.1353C237.319 61.3882 237.624 60.7988 238.232 60.3672C238.841 59.9355 239.677 59.7197 240.739 59.7197C241.774 59.7197 242.743 59.9245 243.645 60.334L243.138 61.521C242.214 61.1336 241.381 60.9399 240.64 60.9399C240.02 60.9399 239.549 61.0396 239.229 61.2388C238.908 61.4325 238.747 61.7008 238.747 62.0439C238.747 62.376 238.885 62.6527 239.162 62.874C239.439 63.0898 240.083 63.3914 241.096 63.7788C241.854 64.061 242.413 64.3239 242.773 64.5674C243.138 64.8109 243.407 65.0848 243.578 65.3892C243.75 65.6935 243.835 66.0588 243.835 66.4849ZM251.987 66.4849C251.987 67.3371 251.669 67.9984 251.032 68.4688C250.396 68.9336 249.502 69.166 248.351 69.166C247.15 69.166 246.196 68.9751 245.487 68.5933V67.2319C246.489 67.7189 247.455 67.9624 248.384 67.9624C249.137 67.9624 249.685 67.8407 250.028 67.5972C250.371 67.3537 250.542 67.0272 250.542 66.6177C250.542 66.258 250.376 65.9536 250.044 65.7046C249.718 65.4556 249.134 65.1706 248.293 64.8496C247.435 64.5176 246.832 64.2354 246.483 64.0029C246.135 63.765 245.877 63.4993 245.711 63.2061C245.551 62.9128 245.471 62.5558 245.471 62.1353C245.471 61.3882 245.775 60.7988 246.384 60.3672C246.993 59.9355 247.828 59.7197 248.891 59.7197C249.925 59.7197 250.894 59.9245 251.796 60.334L251.29 61.521C250.365 61.1336 249.533 60.9399 248.791 60.9399C248.171 60.9399 247.701 61.0396 247.38 61.2388C247.059 61.4325 246.898 61.7008 246.898 62.0439C246.898 62.376 247.037 62.6527 247.313 62.874C247.59 63.0898 248.235 63.3914 249.248 63.7788C250.006 64.061 250.565 64.3239 250.924 64.5674C251.29 64.8109 251.558 65.0848 251.729 65.3892C251.901 65.6935 251.987 66.0588 251.987 66.4849Z" fill="white" fill-opacity="0.8"/>
</svg>
