<svg width="24" height="24" viewBox="0 0 24 24" fill="none" xmlns="http://www.w3.org/2000/svg">
<path fill-rule="evenodd" clip-rule="evenodd" d="M9.75 2.00182H9V3.50182H9.75H11.25V5.03469C7.18341 5.41279 4 8.83463 4 13C4 17.4183 7.58172 21 12 21C16.4183 21 20 17.4183 20 13C20 11.253 19.44 9.6367 18.4897 8.32097L19.5303 7.28033L20.0607 6.75L19 5.68934L18.4697 6.21967L17.4994 7.18994C16.236 5.99369 14.5827 5.20509 12.75 5.03469V3.50182H14.25H15V2.00182H14.25H12.75H11.25H9.75ZM12 6.5C8.41015 6.5 5.5 9.41015 5.5 13C5.5 16.5899 8.41015 19.5 12 19.5C15.5899 19.5 18.5 16.5899 18.5 13C18.5 9.41015 15.5899 6.5 12 6.5ZM12.75 8V8.75V12.75V13.5H11.25V12.75V8.75V8H12.75Z" fill="currentColor"/>
</svg>
