<svg width="24" height="24" viewBox="0 0 24 24" fill="none" xmlns="http://www.w3.org/2000/svg">
<path fill-rule="evenodd" clip-rule="evenodd" d="M14.3403 1.125C13.6791 1.125 13.125 1.65471 13.125 2.33036V2.93722C13.1248 2.94538 13.1248 2.95354 13.125 2.96169V7.66964C13.125 8.34529 13.6791 8.875 14.3403 8.875H21.6597C22.3209 8.875 22.875 8.34529 22.875 7.66964V2.96168C22.8752 2.95354 22.8752 2.94538 22.875 2.93722V2.33036C22.875 1.65471 22.3209 1.125 21.6597 1.125H14.3403ZM14.375 7.625V3.99889L17.2266 5.5421C17.7091 5.80324 18.2909 5.80324 18.7734 5.5421L21.625 3.99889V7.625H14.375ZM18.1785 4.44276L21.625 2.57758V2.375H14.375V2.57758L17.8215 4.44276C17.9329 4.50302 18.0671 4.50302 18.1785 4.44276ZM10.5 6.43182C8.82432 6.43182 7.46591 7.79023 7.46591 9.46591C7.46591 11.1416 8.82432 12.5 10.5 12.5C11.6403 12.5 12.6347 11.8713 13.1538 10.9381L13.5184 10.2826L14.8292 11.0118L14.4647 11.6672C13.6916 13.057 12.2065 14 10.5 14C7.99589 14 5.96591 11.97 5.96591 9.46591C5.96591 6.9618 7.99589 4.93182 10.5 4.93182H11.25V6.43182H10.5ZM8.35519 16L8.5 16H12.5L12.6448 16C13.6678 15.9995 14.3669 15.9993 14.9554 16.199C16.0594 16.5738 16.9262 17.4406 17.301 18.5446C17.5007 19.1331 17.5005 19.8322 17.5 20.8552L17.5 21H16C16 19.7755 15.99 19.349 15.8806 19.0268C15.6557 18.3644 15.1356 17.8443 14.4732 17.6194C14.151 17.51 13.7245 17.5 12.5 17.5H8.5C7.27553 17.5 6.84897 17.51 6.52676 17.6194C5.86438 17.8443 5.34426 18.3644 5.11941 19.0268C5.01003 19.349 5 19.7755 5 21H3.5L3.49996 20.8552C3.49954 19.8322 3.49925 19.1331 3.69901 18.5446C4.07376 17.4406 4.94064 16.5738 6.0446 16.199C6.63307 15.9993 7.33215 15.9995 8.35519 16Z" fill="currentColor"/>
</svg>
