<svg width="24" height="24" viewBox="0 0 24 24" fill="none" xmlns="http://www.w3.org/2000/svg">
<path fill-rule="evenodd" clip-rule="evenodd" d="M5.75 5.5C4.50736 5.5 3.5 6.50736 3.5 7.75V16.25C3.5 17.4926 4.50736 18.5 5.75 18.5H18.25C19.4926 18.5 20.5 17.4926 20.5 16.25V7.75C20.5 6.50736 19.4926 5.5 18.25 5.5H5.75ZM5 7.75C5 7.33579 5.33579 7 5.75 7H8.5V17H5.75C5.33579 17 5 16.6642 5 16.25V7.75ZM15.5 17H18.25C18.6642 17 19 16.6642 19 16.25V7.75C19 7.33579 18.6642 7 18.25 7H15.5V17Z" fill="currentColor"/>
</svg>
