<svg width="24" height="24" viewBox="0 0 24 24" fill="none" xmlns="http://www.w3.org/2000/svg">
<path fill-rule="evenodd" clip-rule="evenodd" d="M12 3.75C12.2873 3.75 12.5494 3.91415 12.6748 4.17267L14.8967 8.75332L19.8603 9.4916C20.1411 9.53337 20.3743 9.73011 20.4627 9.9999C20.5511 10.2697 20.4796 10.5663 20.278 10.7661L16.6792 14.333L17.5291 19.3753C17.5766 19.6575 17.4595 19.942 17.2272 20.109C16.9949 20.276 16.6879 20.2963 16.4356 20.1613L12 17.7876L7.56437 20.1613C7.31213 20.2963 7.00507 20.276 6.77276 20.109C6.54046 19.942 6.42337 19.6575 6.47092 19.3753L7.32078 14.333L3.72202 10.7661C3.52038 10.5663 3.44887 10.2697 3.53728 9.9999C3.62568 9.73011 3.85884 9.53337 4.13965 9.4916L9.10325 8.75332L11.3252 4.17267C11.4506 3.91415 11.7127 3.75 12 3.75ZM12 6.21847L10.28 9.76424C10.1719 9.98716 9.96065 10.1423 9.71558 10.1787L5.84158 10.755L8.65296 13.5415C8.82617 13.7131 8.90509 13.9583 8.86456 14.1988L8.20405 18.1177L11.6461 16.2756C11.8672 16.1573 12.1328 16.1573 12.3539 16.2756L15.7959 18.1177L15.1354 14.1988C15.0949 13.9583 15.1738 13.7131 15.347 13.5415L18.1584 10.755L14.2844 10.1787C14.0393 10.1423 13.8281 9.98716 13.7199 9.76424L12 6.21847Z" fill="currentColor"/>
</svg>
