<svg width="24" height="24" viewBox="0 0 24 24" fill="none" xmlns="http://www.w3.org/2000/svg">
<path fill-rule="evenodd" clip-rule="evenodd" d="M5.25 4.5C4.00736 4.5 3 5.50736 3 6.75V7.5V8.25V9V17.75C3 18.9926 4.00736 20 5.25 20H18.75C19.9926 20 21 18.9926 21 17.75V9.75C21 8.50736 19.9926 7.5 18.75 7.5H10.5V6.75C10.5 5.50736 9.49264 4.5 8.25 4.5H5.25ZM9 7.5V6.75C9 6.33579 8.66421 6 8.25 6H5.25C4.83579 6 4.5 6.33579 4.5 6.75V7.5V8.25V9V17.75C4.5 18.1642 4.83579 18.5 5.25 18.5H18.75C19.1642 18.5 19.5 18.1642 19.5 17.75V9.75C19.5 9.33579 19.1642 9 18.75 9H10.5H9H7.75458H7.00458V7.5H7.75458H9Z" fill="currentColor"/>
</svg>
