<svg width="24" height="24" viewBox="0 0 24 24" fill="none" xmlns="http://www.w3.org/2000/svg">
<path fill-rule="evenodd" clip-rule="evenodd" d="M13.125 2.33036C13.125 1.65471 13.6791 1.125 14.3403 1.125H21.6597C22.3209 1.125 22.875 1.65471 22.875 2.33036V2.93722C22.8752 2.94538 22.8752 2.95354 22.875 2.96168V7.66964C22.875 8.34529 22.3209 8.875 21.6597 8.875H14.3403C13.6791 8.875 13.125 8.34529 13.125 7.66964V2.96169C13.1248 2.95354 13.1248 2.94538 13.125 2.93722V2.33036ZM14.375 3.99889V7.625H21.625V3.99889L18.7734 5.5421C18.2909 5.80324 17.7091 5.80324 17.2266 5.5421L14.375 3.99889ZM21.625 2.57758L18.1785 4.44276C18.0671 4.50302 17.9329 4.50302 17.8215 4.44276L14.375 2.57758V2.375H21.625V2.57758ZM7.5 13.5C7.5 15.1569 8.84315 16.5 10.5 16.5C12.1569 16.5 13.5 15.1569 13.5 13.5C13.5 11.8431 12.1569 10.5 10.5 10.5C8.84315 10.5 7.5 11.8431 7.5 13.5ZM3.5 13.5C3.5 9.63401 6.63401 6.5 10.5 6.5H11.25V5H10.5C5.80558 5 2 8.80558 2 13.5V14.25H2.03263C2.41233 18.5931 6.05831 22 10.5 22C15.1944 22 19 18.1944 19 13.5V11.5625V10.8125H17.5V11.5625V13.5C17.5 17.366 14.366 20.5 10.5 20.5C6.63401 20.5 3.5 17.366 3.5 13.5Z" fill="currentColor"/>
</svg>
