<svg width="24" height="24" viewBox="0 0 24 24" fill="none" xmlns="http://www.w3.org/2000/svg">
<path fill-rule="evenodd" clip-rule="evenodd" d="M4.5 5.25C4.5 4.83579 4.83579 4.5 5.25 4.5H18.75C19.1642 4.5 19.5 4.83579 19.5 5.25V18.75C19.5 19.1642 19.1642 19.5 18.75 19.5H5.25C4.83579 19.5 4.5 19.1642 4.5 18.75V5.25ZM5.25 3C4.00736 3 3 4.00736 3 5.25V18.75C3 19.9926 4.00736 21 5.25 21H18.75C19.9926 21 21 19.9926 21 18.75V5.25C21 4.00736 19.9926 3 18.75 3H5.25ZM12.75 6.75V6H11.25V6.75V7.5573C10.7012 7.64709 10.1915 7.83676 9.7709 8.14127C9.14191 8.59665 8.75 9.28684 8.75 10.1356C8.75 11.0613 9.33636 11.6423 9.92846 11.9941C10.4969 12.3318 11.2095 12.5457 11.7713 12.7144L11.7843 12.7183C12.3897 12.9001 12.9205 13.0668 13.3053 13.2955C13.671 13.5127 13.75 13.6884 13.75 13.8644C13.75 14.2054 13.611 14.4544 13.3495 14.6437C13.0649 14.8497 12.6058 14.9996 11.9939 15.0045C11.4814 15.0087 10.8918 14.9101 10.2738 14.6851L9.56909 14.4285L9.05591 15.838L9.76065 16.0946C10.2633 16.2776 10.765 16.3989 11.25 16.4594V17.25V18H12.75V17.25V16.4427C13.2988 16.3529 13.8085 16.1632 14.2291 15.8587C14.8581 15.4034 15.25 14.7132 15.25 13.8644C15.25 12.9387 14.6636 12.3577 14.0715 12.0059C13.5031 11.6682 12.7905 11.4543 12.2287 11.2856L12.2157 11.2817C11.6103 11.0999 11.0795 10.9332 10.6947 10.7045C10.329 10.4873 10.25 10.3116 10.25 10.1356C10.25 9.7946 10.3891 9.54559 10.6505 9.35627C10.9351 9.15026 11.3942 9.00044 12.0061 8.99545C12.5186 8.99128 13.1082 9.08992 13.7262 9.31491L14.4309 9.5715L14.9441 8.16202L14.2393 7.90543C13.7367 7.72242 13.235 7.60113 12.75 7.54062V6.75Z" fill="currentColor"/>
</svg>
