<svg width="24" height="24" viewBox="0 0 24 24" fill="none" xmlns="http://www.w3.org/2000/svg">
<path fill-rule="evenodd" clip-rule="evenodd" d="M9.62109 3.5H9.65H14.35H14.3789H14.3789C14.7743 3.49999 15.1153 3.49998 15.3963 3.52293C15.6928 3.54715 15.9877 3.60064 16.2715 3.74524C16.6948 3.96095 17.039 4.30516 17.2548 4.72852C17.3825 4.97919 17.4391 5.23854 17.4673 5.5H18.25C19.4926 5.5 20.5 6.50736 20.5 7.75V16.25C20.5 17.4926 19.4926 18.5 18.25 18.5H17.4673C17.4391 18.7615 17.3825 19.0208 17.2548 19.2715C17.039 19.6948 16.6948 20.0391 16.2715 20.2548C15.9877 20.3994 15.6928 20.4528 15.3963 20.4771C15.1154 20.5 14.7743 20.5 14.379 20.5H14.3789H14.35H9.65H9.62107H9.62098C9.22567 20.5 8.88463 20.5 8.60373 20.4771C8.30722 20.4528 8.01231 20.3994 7.72852 20.2548C7.30516 20.0391 6.96095 19.6948 6.74524 19.2715C6.61751 19.0208 6.56088 18.7615 6.5327 18.5H5.75C4.50736 18.5 3.5 17.4926 3.5 16.25V7.75C3.5 6.50736 4.50736 5.5 5.75 5.5H6.5327C6.56088 5.23854 6.61751 4.97919 6.74524 4.72852C6.96095 4.30516 7.30516 3.96095 7.72852 3.74524C8.01231 3.60064 8.30722 3.54715 8.60373 3.52293C8.88465 3.49998 9.22571 3.49999 9.62106 3.5H9.62109ZM8 6.65V7V17V17.35C8 17.7824 8.00058 18.0616 8.01795 18.2741C8.03459 18.4779 8.06285 18.5534 8.08175 18.5905C8.15365 18.7316 8.26839 18.8464 8.40951 18.9183C8.44659 18.9372 8.52213 18.9654 8.72588 18.9821C8.93838 18.9994 9.21759 19 9.65 19H14.35C14.7824 19 15.0616 18.9994 15.2741 18.9821C15.4779 18.9654 15.5534 18.9372 15.5905 18.9183C15.7316 18.8464 15.8463 18.7316 15.9183 18.5905C15.9372 18.5534 15.9654 18.4779 15.9821 18.2741C15.9994 18.0616 16 17.7824 16 17.35V17V7V6.65C16 6.21759 15.9994 5.93838 15.9821 5.72588C15.9654 5.52213 15.9372 5.44659 15.9183 5.40951C15.8463 5.26839 15.7316 5.15365 15.5905 5.08175C15.5534 5.06285 15.4779 5.03459 15.2741 5.01795C15.0616 5.00058 14.7824 5 14.35 5H9.65C9.21759 5 8.93838 5.00058 8.72588 5.01795C8.52213 5.03459 8.44659 5.06285 8.40951 5.08175C8.26839 5.15365 8.15365 5.26839 8.08175 5.40951C8.06285 5.44659 8.03459 5.52213 8.01795 5.72588C8.00058 5.93838 8 6.21759 8 6.65ZM6.5 17V7H5.75C5.33579 7 5 7.33579 5 7.75V16.25C5 16.6642 5.33579 17 5.75 17H6.5ZM17.5 7V17H18.25C18.6642 17 19 16.6642 19 16.25V7.75C19 7.33579 18.6642 7 18.25 7H17.5Z" fill="currentColor"/>
</svg>
