<svg width="24" height="24" viewBox="0 0 24 24" fill="none" xmlns="http://www.w3.org/2000/svg">
<path fill-rule="evenodd" clip-rule="evenodd" d="M14.3403 1.125C13.6791 1.125 13.125 1.65471 13.125 2.33036V2.93722C13.1248 2.94538 13.1248 2.95354 13.125 2.96169V7.66964C13.125 8.34529 13.6791 8.875 14.3403 8.875H21.6597C22.3209 8.875 22.875 8.34529 22.875 7.66964V2.96168C22.8752 2.95354 22.8752 2.94538 22.875 2.93722V2.33036C22.875 1.65471 22.3209 1.125 21.6597 1.125H14.3403ZM14.375 7.625V3.99889L17.2266 5.5421C17.7091 5.80324 18.2909 5.80324 18.7734 5.5421L21.625 3.99889V7.625H14.375ZM18.1785 4.44276L21.625 2.57758V2.375H14.375V2.57758L17.8215 4.44276C17.9329 4.50302 18.0671 4.50302 18.1785 4.44276ZM5.25 6.5C4.83579 6.5 4.5 6.83579 4.5 7.25V18.75C4.5 19.1642 4.83579 19.5 5.25 19.5H16.75C17.1642 19.5 17.5 19.1642 17.5 18.75V11.254V10.504H19V11.254V18.75C19 19.9926 17.9926 21 16.75 21H5.25C4.00736 21 3 19.9926 3 18.75V7.25C3 6.00736 4.00736 5 5.25 5H10.749H11.499V6.5H10.749H5.25ZM11 8.02083C11.2543 8.02083 11.4832 8.17485 11.579 8.41037L14.0742 14.5458L15.0401 16.9208L15.2756 17.4997L14.1177 17.9707L13.8822 17.3917L13.0747 15.4062H8.92526L8.11778 17.3917L7.88232 17.9707L6.72442 17.4997L6.95987 16.9208L7.92578 14.5458L10.421 8.41037C10.5168 8.17485 10.7457 8.02083 11 8.02083ZM12.5664 14.1562L11 10.3048L9.43363 14.1562H12.5664Z" fill="currentColor"/>
</svg>
