<svg width="24" height="24" viewBox="0 0 24 24" fill="none" xmlns="http://www.w3.org/2000/svg">
<path fill-rule="evenodd" clip-rule="evenodd" d="M14.3403 1.125C13.6791 1.125 13.125 1.65471 13.125 2.33036V2.93722C13.1248 2.94538 13.1248 2.95354 13.125 2.96169V7.66964C13.125 8.34529 13.6791 8.875 14.3403 8.875H21.6597C22.3209 8.875 22.875 8.34529 22.875 7.66964V2.96168C22.8752 2.95354 22.8752 2.94538 22.875 2.93722V2.33036C22.875 1.65471 22.3209 1.125 21.6597 1.125H14.3403ZM14.375 7.625V3.99889L17.2266 5.5421C17.7091 5.80324 18.2909 5.80324 18.7734 5.5421L21.625 3.99889V7.625H14.375ZM18.1785 4.44276L21.625 2.57758V2.375H14.375V2.57758L17.8215 4.44276C17.9329 4.50302 18.0671 4.50302 18.1785 4.44276ZM10.5 6.5C6.63401 6.5 3.5 9.63401 3.5 13.5C3.5 17.366 6.63401 20.5 10.5 20.5C14.366 20.5 17.5 17.366 17.5 13.5V11.5625V10.8125H19V11.5625V13.5C19 18.1944 15.1944 22 10.5 22C6.05831 22 2.41233 18.5931 2.03263 14.25H2V13.5C2 8.80558 5.80558 5 10.5 5H11.25V6.5H10.5ZM7.7 11.4393L8.23033 11.9697L10.5 14.2393L12.7697 11.9697L13.3 11.4393L14.3607 12.5L13.8303 13.0303L11.0303 15.8303C10.7374 16.1232 10.2626 16.1232 9.96967 15.8303L7.16967 13.0303L6.63934 12.5L7.7 11.4393Z" fill="currentColor"/>
</svg>
