<svg width="24" height="24" viewBox="0 0 24 24" fill="none" xmlns="http://www.w3.org/2000/svg">
<path fill-rule="evenodd" clip-rule="evenodd" d="M3.5 5C2.67157 5 2 5.67157 2 6.5V17.5C2 18.3284 2.67157 19 3.5 19H20.5C21.3284 19 22 18.3284 22 17.5V6.5C22 5.67157 21.3284 5 20.5 5H3.5ZM5 12C5 10.6193 6.11929 9.5 7.5 9.5C8.17204 9.5 8.7808 9.76418 9.2307 10.1959L10.2693 9.11365C9.5513 8.42463 8.57445 8 7.5 8C5.29086 8 3.5 9.79086 3.5 12C3.5 14.2091 5.29086 16 7.5 16C8.57445 16 9.5513 15.5754 10.2693 14.8863L10.5 14.665V11.25H6.49999V12.75H9V14.0003C8.58194 14.3145 8.06319 14.5 7.5 14.5C6.11929 14.5 5 13.3807 5 12ZM12 16H13.5V8H12V16ZM20 8H15V16H16.5V13H19.5V11.5L16.5 11.4909V9.39845H20V8Z" fill="currentColor"/>
</svg>
