<svg width="24" height="24" viewBox="0 0 24 24" fill="none" xmlns="http://www.w3.org/2000/svg">
<path fill-rule="evenodd" clip-rule="evenodd" d="M11.3113 5.61529C11.501 5.2685 11.999 5.2685 12.1887 5.61529L18.8304 17.7601C19.0126 18.0933 18.7715 18.5 18.3917 18.5H5.1083C4.72853 18.5 4.4874 18.0933 4.66962 17.7601L11.3113 5.61529ZM13.5047 4.89557C12.7461 3.5084 10.7539 3.5084 9.99525 4.89557L3.35356 17.0404C2.62468 18.3732 3.58922 20 5.1083 20H18.3917C19.9108 20 20.8753 18.3732 20.1464 17.0404L13.5047 4.89557ZM12.5 9.74619V8.99619H11V9.74619V13.2422V13.9922H12.5V13.2422V9.74619ZM12.5 16.2171V15.4671H11V16.2171V16.2636V17.0136H12.5V16.2636V16.2171Z" fill="currentColor"/>
</svg>
