<svg width="24" height="24" viewBox="0 0 24 24" fill="none" xmlns="http://www.w3.org/2000/svg">
<path fill-rule="evenodd" clip-rule="evenodd" d="M3.5 7.75C3.5 6.50736 4.50736 5.5 5.75 5.5H18.25C19.4926 5.5 20.5 6.50736 20.5 7.75V16.25C20.5 17.4926 19.4926 18.5 18.25 18.5H5.75C4.50736 18.5 3.5 17.4926 3.5 16.25V7.75ZM5.75 7C5.33579 7 5 7.33579 5 7.75V16.25C5 16.6642 5.33579 17 5.75 17H8V7H5.75ZM14.5 17H9.5V7H14.5V17ZM16 17H18.25C18.6642 17 19 16.6642 19 16.25V7.75C19 7.33579 18.6642 7 18.25 7H16V17Z" fill="currentColor"/>
</svg>
