<svg width="24" height="24" viewBox="0 0 24 24" fill="none" xmlns="http://www.w3.org/2000/svg">
<path fill-rule="evenodd" clip-rule="evenodd" d="M13.7371 8.50001C13.7302 8.49991 13.7232 8.49991 13.7162 8.50001H10.6241C10.6172 8.49991 10.6102 8.49991 10.6032 8.50001H7.51113C7.50416 8.49991 7.49719 8.49991 7.49023 8.50001H6.15L6.12109 8.50001C5.72573 8.5 5.38466 8.49999 5.10373 8.52294C4.80722 8.54716 4.51231 8.60065 4.22852 8.74525C3.80516 8.96096 3.46095 9.30517 3.24524 9.72853C3.10064 10.0123 3.04715 10.3072 3.02293 10.6037C2.99998 10.8846 2.99999 11.2257 3 11.621V11.6211V11.65V12.35V12.3789V12.379C2.99999 12.7743 2.99998 13.1154 3.02293 13.3963C3.04715 13.6928 3.10064 13.9877 3.24524 14.2715C3.46095 14.6949 3.80516 15.0391 4.22852 15.2548C4.51231 15.3994 4.80722 15.4529 5.10373 15.4771C5.38466 15.5 5.72573 15.5 6.1211 15.5L6.15 15.5H6.8519C6.85886 15.5001 6.86582 15.5001 6.87277 15.5H9.9649C9.97186 15.5001 9.97882 15.5001 9.98578 15.5H13.726H17.85L17.8789 15.5C18.2743 15.5 18.6153 15.5 18.8963 15.4771C19.1928 15.4529 19.4877 15.3994 19.7715 15.2548C20.1948 15.0391 20.539 14.6949 20.7548 14.2715C20.8994 13.9877 20.9528 13.6928 20.9771 13.3963C21 13.1154 21 12.7743 21 12.379V12.3789V12.35V11.65V11.6211V11.621C21 11.2257 21 10.8846 20.9771 10.6037C20.9528 10.3072 20.8994 10.0123 20.7548 9.72853C20.539 9.30517 20.1948 8.96096 19.7715 8.74525C19.4877 8.60065 19.1928 8.54716 18.8963 8.52294C18.6153 8.49999 18.2743 8.5 17.8789 8.50001L17.85 8.50001H13.7371ZM11.3951 14H12.976V11.6814L11.3951 14ZM9.57964 14L12.3069 10H11.0094L8.28211 14H9.57964ZM6.46663 14L9.19391 10H7.89638L5.18391 13.9783C5.19726 13.9796 5.21124 13.9809 5.22588 13.9821C5.43838 13.9994 5.71758 14 6.15 14H6.46663ZM4.5 12.3187L6.0809 10C5.68746 10.0001 5.42684 10.0015 5.22588 10.018C5.02213 10.0346 4.94659 10.0629 4.90951 10.0818C4.76839 10.1537 4.65365 10.2684 4.58175 10.4095C4.56285 10.4466 4.53459 10.5221 4.51795 10.7259C4.50058 10.9384 4.5 11.2176 4.5 11.65V12.3187ZM19.0905 10.0818C19.0534 10.0629 18.9779 10.0346 18.7741 10.018C18.5616 10.0006 18.2824 10 17.85 10H14.476V14H17.85C18.2824 14 18.5616 13.9994 18.7741 13.9821C18.9779 13.9654 19.0534 13.9372 19.0905 13.9183C19.2316 13.8464 19.3463 13.7316 19.4183 13.5905C19.4371 13.5534 19.4654 13.4779 19.4821 13.2741C19.4994 13.0616 19.5 12.7824 19.5 12.35V11.65C19.5 11.2176 19.4994 10.9384 19.4821 10.7259C19.4654 10.5221 19.4371 10.4466 19.4183 10.4095C19.3463 10.2684 19.2316 10.1537 19.0905 10.0818Z" fill="currentColor"/>
</svg>
