<svg width="24" height="24" viewBox="0 0 24 24" fill="none" xmlns="http://www.w3.org/2000/svg">
<path fill-rule="evenodd" clip-rule="evenodd" d="M14.3403 1.125C13.6791 1.125 13.125 1.65471 13.125 2.33036V2.93722C13.1248 2.94538 13.1248 2.95354 13.125 2.96169V7.66964C13.125 8.34529 13.6791 8.875 14.3403 8.875H21.6597C22.3209 8.875 22.875 8.34529 22.875 7.66964V2.96168C22.8752 2.95354 22.8752 2.94538 22.875 2.93722V2.33036C22.875 1.65471 22.3209 1.125 21.6597 1.125H14.3403ZM14.375 7.625V3.99889L17.2266 5.5421C17.7091 5.80324 18.2909 5.80324 18.7734 5.5421L21.625 3.99889V7.625H14.375ZM18.1785 4.44276L21.625 2.57758V2.375H14.375V2.57758L17.8215 4.44276C17.9329 4.50302 18.0671 4.50302 18.1785 4.44276ZM4.7832 6.5544C4.85457 6.51863 4.9333 6.5 5.01313 6.5H7.11556C7.47589 6.5 7.7475 6.74623 7.79107 7.05302L7.80389 7.14359C7.88678 7.7299 7.97129 8.32766 8.2065 8.99877C8.33698 9.37107 8.28814 9.71001 8.12711 9.92525L7.24769 11.1007C7.07786 11.3277 7.05054 11.6311 7.17707 11.8847C8.4713 14.4796 10.0536 15.5371 11.5227 16.5189L11.5297 16.5236C11.8489 16.7369 12.2777 16.6747 12.5232 16.3794L13.1459 15.6303C13.3627 15.3695 13.8013 15.2533 14.2789 15.4345C14.7698 15.6207 15.2633 15.741 15.8428 15.8487C16.2348 15.9216 16.5 16.2471 16.5 16.6067V18.7631C16.5 18.9867 16.3985 19.1981 16.2242 19.338C16.0865 19.4484 15.9376 19.4932 15.809 19.4854C10.7355 19.1769 4.90561 14.0105 4.52018 6.97204C4.51163 6.81596 4.60166 6.64539 4.7832 6.5544ZM5.01313 5C4.69993 5 4.39105 5.07308 4.11106 5.21342C3.43797 5.5508 2.9787 6.25558 3.02242 7.05406C3.44753 14.8172 9.84896 20.6258 15.718 20.9826C16.2647 21.0159 16.7726 20.821 17.1626 20.5082C17.692 20.0836 18 19.4417 18 18.7631V16.6067C18 15.4857 17.1807 14.5718 16.1171 14.374C15.5838 14.2749 15.1862 14.1744 14.8109 14.032C13.9027 13.6875 12.7231 13.7925 11.9924 14.6715L11.8034 14.8988C10.6852 14.1298 9.64762 13.2856 8.73183 11.6209L9.32817 10.8238C9.85995 10.113 9.87411 9.22177 9.62208 8.50265C9.43673 7.9738 9.37059 7.5076 9.28347 6.8936L9.27617 6.84212C9.12056 5.74639 8.17182 5 7.11556 5H5.01313Z" fill="currentColor"/>
</svg>
