<svg width="24" height="24" viewBox="0 0 24 24" fill="none" xmlns="http://www.w3.org/2000/svg">
<path fill-rule="evenodd" clip-rule="evenodd" d="M7.75 3.5H7.72222H7.72218C7.39594 3.49999 7.10722 3.49997 6.86793 3.51952C6.61311 3.54034 6.34907 3.58702 6.09202 3.71799C5.7157 3.90974 5.40974 4.2157 5.21799 4.59202C5.08702 4.84907 5.04034 5.11311 5.01952 5.36793C4.99997 5.60722 4.99999 5.89595 5 6.22218V6.22222V6.25V8.25V8.27778V8.27782C4.99999 8.60406 4.99997 8.89279 5.01952 9.13207C5.04034 9.3869 5.08702 9.65094 5.21799 9.90798C5.40974 10.2843 5.7157 10.5903 6.09202 10.782C6.34907 10.913 6.61311 10.9597 6.86793 10.9805C7.10723 11 7.39597 11 7.72223 11L7.75 11H16.25L16.2778 11C16.604 11 16.8928 11 17.1321 10.9805C17.3869 10.9597 17.6509 10.913 17.908 10.782C18.2843 10.5903 18.5903 10.2843 18.782 9.90798C18.913 9.65094 18.9597 9.3869 18.9805 9.13207C19 8.89278 19 8.60405 19 8.2778V8.25V6.25V6.22221C19 5.89596 19 5.60722 18.9805 5.36793C18.9597 5.11311 18.913 4.84907 18.782 4.59202C18.5903 4.2157 18.2843 3.90974 17.908 3.71799C17.6509 3.58702 17.3869 3.54034 17.1321 3.51952C16.8928 3.49997 16.6041 3.49999 16.2778 3.5H16.2778H16.25H7.75ZM6.77301 5.0545C6.78335 5.04923 6.82802 5.02778 6.99008 5.01454C7.16089 5.00059 7.38759 5 7.75 5H16.25C16.6124 5 16.8391 5.00059 17.0099 5.01454C17.172 5.02778 17.2167 5.04923 17.227 5.0545C17.3211 5.10244 17.3976 5.17893 17.4455 5.27301C17.4508 5.28335 17.4722 5.32802 17.4855 5.49008C17.4994 5.66089 17.5 5.88759 17.5 6.25V8.25C17.5 8.61241 17.4994 8.83911 17.4855 9.00993C17.4722 9.17199 17.4508 9.21665 17.4455 9.227C17.3976 9.32108 17.3211 9.39757 17.227 9.44551C17.2167 9.45078 17.172 9.47222 17.0099 9.48546C16.8391 9.49942 16.6124 9.5 16.25 9.5H7.75C7.38759 9.5 7.16089 9.49942 6.99008 9.48546C6.82802 9.47222 6.78335 9.45078 6.77301 9.44551C6.67893 9.39757 6.60244 9.32108 6.5545 9.227C6.54923 9.21665 6.52778 9.17199 6.51454 9.00993C6.50059 8.83911 6.5 8.61241 6.5 8.25V6.25C6.5 5.88759 6.50059 5.66089 6.51454 5.49008C6.52778 5.32802 6.54923 5.28335 6.5545 5.27301C6.60244 5.17893 6.67893 5.10244 6.77301 5.0545ZM10.25 6.5H9.5V8H10.25H13.75H14.5V6.5H13.75H10.25ZM7.72222 13L7.75 13H16.25L16.2778 13H16.2778C16.6041 13 16.8928 13 17.1321 13.0195C17.3869 13.0403 17.6509 13.087 17.908 13.218C18.2843 13.4097 18.5903 13.7157 18.782 14.092C18.913 14.3491 18.9597 14.6131 18.9805 14.8679C19 15.1072 19 15.396 19 15.7222V15.75V17.75V17.7778C19 18.104 19 18.3928 18.9805 18.6321C18.9597 18.8869 18.913 19.1509 18.782 19.408C18.5903 19.7843 18.2843 20.0903 17.908 20.282C17.6509 20.413 17.3869 20.4597 17.1321 20.4805C16.8928 20.5 16.604 20.5 16.2778 20.5L16.25 20.5H7.75L7.72223 20.5C7.39597 20.5 7.10723 20.5 6.86793 20.4805C6.61311 20.4597 6.34907 20.413 6.09202 20.282C5.7157 20.0903 5.40974 19.7843 5.21799 19.408C5.08702 19.1509 5.04034 18.8869 5.01952 18.6321C4.99997 18.3928 4.99999 18.1041 5 17.7778V17.7778V17.75V15.75V15.7222V15.7222C4.99999 15.3959 4.99997 15.1072 5.01952 14.8679C5.04034 14.6131 5.08702 14.3491 5.21799 14.092C5.40974 13.7157 5.7157 13.4097 6.09202 13.218C6.34907 13.087 6.61311 13.0403 6.86793 13.0195C7.10722 13 7.39595 13 7.72218 13H7.72222ZM6.99008 14.5145C6.82802 14.5278 6.78335 14.5492 6.77301 14.5545C6.67893 14.6024 6.60244 14.6789 6.5545 14.773C6.54923 14.7834 6.52778 14.828 6.51454 14.9901C6.50059 15.1609 6.5 15.3876 6.5 15.75V17.75C6.5 18.1124 6.50059 18.3391 6.51454 18.5099C6.52778 18.672 6.54923 18.7167 6.5545 18.727C6.60244 18.8211 6.67893 18.8976 6.77301 18.9455C6.78335 18.9508 6.82802 18.9722 6.99008 18.9855C7.16089 18.9994 7.38759 19 7.75 19H16.25C16.6124 19 16.8391 18.9994 17.0099 18.9855C17.172 18.9722 17.2167 18.9508 17.227 18.9455C17.3211 18.8976 17.3976 18.8211 17.4455 18.727C17.4508 18.7167 17.4722 18.672 17.4855 18.5099C17.4994 18.3391 17.5 18.1124 17.5 17.75V15.75C17.5 15.3876 17.4994 15.1609 17.4855 14.9901C17.4722 14.828 17.4508 14.7834 17.4455 14.773C17.3976 14.6789 17.3211 14.6024 17.227 14.5545C17.2167 14.5492 17.172 14.5278 17.0099 14.5145C16.8391 14.5006 16.6124 14.5 16.25 14.5H7.75C7.38759 14.5 7.16089 14.5006 6.99008 14.5145ZM10.25 16H9.5V17.5H10.25H13.75H14.5V16H13.75H10.25Z" fill="currentColor"/>
</svg>
