<svg width="24" height="24" viewBox="0 0 24 24" fill="none" xmlns="http://www.w3.org/2000/svg">
<path fill-rule="evenodd" clip-rule="evenodd" d="M5.25 5C4.00736 5 3 6.00736 3 7.25V16.75C3 17.9926 4.00736 19 5.25 19H18.75C19.9926 19 21 17.9926 21 16.75V7.25C21 6.00736 19.9926 5 18.75 5H5.25ZM4.95553 6.56002C5.04594 6.52138 5.14547 6.5 5.25 6.5H18.75C18.8545 6.5 18.9541 6.52138 19.0445 6.56002L12 12.2836L4.95553 6.56002ZM4.5 8.1226V16.75C4.5 17.1642 4.83579 17.5 5.25 17.5H18.75C19.1642 17.5 19.5 17.1642 19.5 16.75V8.1226L12.4729 13.8321C12.1974 14.056 11.8026 14.056 11.5271 13.8321L4.5 8.1226Z" fill="currentColor"/>
</svg>
