<svg width="24" height="24" viewBox="0 0 24 24" fill="none" xmlns="http://www.w3.org/2000/svg">
<path fill-rule="evenodd" clip-rule="evenodd" d="M4.5 5.25C4.5 4.83579 4.83579 4.5 5.25 4.5H8.5V19.5H5.25C4.83579 19.5 4.5 19.1642 4.5 18.75V5.25ZM10 19.5V4.5H18.75C19.1642 4.5 19.5 4.83579 19.5 5.25V18.75C19.5 19.1642 19.1642 19.5 18.75 19.5H10ZM9.25 21H5.25C4.00736 21 3 19.9926 3 18.75V5.25C3 4.00736 4.00736 3 5.25 3H9.25H18.75C19.9926 3 21 4.00736 21 5.25V18.75C21 19.9926 19.9926 21 18.75 21H9.25Z" fill="currentColor"/>
</svg>
