<svg width="24" height="24" viewBox="0 0 24 24" fill="none" xmlns="http://www.w3.org/2000/svg">
<path fill-rule="evenodd" clip-rule="evenodd" d="M6.12109 8L6.15 8H17.85L17.8789 8C18.2743 7.99999 18.6153 7.99998 18.8963 8.02293C19.1928 8.04715 19.4877 8.10064 19.7715 8.24524C20.1948 8.46095 20.5391 8.80516 20.7548 9.22852C20.8994 9.51231 20.9528 9.80722 20.9771 10.1037C21 10.3847 21 10.7258 21 11.1212V11.15V12.85V12.8788C21 13.2742 21 13.6153 20.9771 13.8963C20.9528 14.1928 20.8994 14.4877 20.7548 14.7715C20.5391 15.1948 20.1948 15.5391 19.7715 15.7548C19.4877 15.8994 19.1928 15.9528 18.8963 15.9771C18.6153 16 18.2743 16 17.8789 16L17.85 16H6.15L6.1211 16C5.72573 16 5.38466 16 5.10373 15.9771C4.80722 15.9528 4.51231 15.8994 4.22852 15.7548C3.80516 15.5391 3.46095 15.1948 3.24524 14.7715C3.10064 14.4877 3.04715 14.1928 3.02293 13.8963C2.99998 13.6153 2.99999 13.2743 3 12.8789L3 12.85V11.15L3 11.1211C2.99999 10.7257 2.99998 10.3847 3.02293 10.1037C3.04715 9.80722 3.10064 9.51231 3.24524 9.22852C3.46095 8.80516 3.80516 8.46095 4.22852 8.24524C4.51231 8.10064 4.80722 8.04715 5.10373 8.02293C5.38466 7.99998 5.72573 7.99999 6.12109 8ZM5.22588 9.51795C5.02213 9.53459 4.94659 9.56285 4.90951 9.58175C4.76839 9.65365 4.65365 9.76839 4.58175 9.90951C4.56285 9.94659 4.53459 10.0221 4.51795 10.2259C4.50058 10.4384 4.5 10.7176 4.5 11.15V12.85C4.5 13.2824 4.50058 13.5616 4.51795 13.7741C4.53459 13.9779 4.56285 14.0534 4.58175 14.0905C4.65365 14.2316 4.76839 14.3464 4.90951 14.4183C4.94659 14.4372 5.02213 14.4654 5.22588 14.4821C5.43838 14.4994 5.71759 14.5 6.15 14.5H17.85C18.2824 14.5 18.5616 14.4994 18.7741 14.4821C18.9779 14.4654 19.0534 14.4372 19.0905 14.4183C19.2316 14.3464 19.3464 14.2316 19.4183 14.0905C19.4372 14.0534 19.4654 13.9779 19.4821 13.7741C19.4994 13.5616 19.5 13.2824 19.5 12.85V11.15C19.5 10.7176 19.4994 10.4384 19.4821 10.2259C19.4654 10.0221 19.4372 9.94659 19.4183 9.90951C19.3464 9.76839 19.2316 9.65365 19.0905 9.58175C19.0534 9.56285 18.9779 9.53459 18.7741 9.51795C18.5616 9.50058 18.2824 9.5 17.85 9.5H6.15C5.71759 9.5 5.43838 9.50058 5.22588 9.51795Z" fill="currentColor"/>
</svg>
