<svg width="24" height="24" viewBox="0 0 24 24" fill="none" xmlns="http://www.w3.org/2000/svg">
<path fill-rule="evenodd" clip-rule="evenodd" d="M14.0732 4.26968C14.8692 3.96997 15.7389 3.91875 16.565 4.12265C17.2291 4.28657 17.8403 4.60928 18.346 5.06012C18.9238 4.87709 19.3084 4.71306 19.8216 4.35595C20.0779 4.17764 20.4178 4.17671 20.675 4.35361C20.9322 4.53052 21.053 4.84825 20.9781 5.15133C20.9562 5.24005 20.9343 5.33205 20.9116 5.42671C20.7094 6.27313 20.4563 7.33252 19.7535 8.15994C19.748 12.7451 17.5073 16.1041 14.2994 17.7884C11.1071 19.4645 7.02728 19.4465 3.38955 17.4529C3.08434 17.2857 2.9343 16.9304 3.02723 16.595C3.12016 16.2596 3.43163 16.0322 3.77941 16.0458C5.07019 16.0965 6.34746 15.8431 7.50829 15.3153C6.3639 14.6186 5.53952 13.7912 4.96598 12.8979C4.20046 11.7055 3.91113 10.4417 3.85881 9.30621C3.80665 8.1743 3.98892 7.15529 4.18045 6.42474C4.27668 6.0577 4.37652 5.75865 4.45348 5.54866C4.492 5.44354 4.52493 5.36038 4.54899 5.30179C4.56103 5.27248 4.57086 5.24928 4.57808 5.23252L4.58692 5.21224L4.58978 5.20579L4.5908 5.2035L4.59121 5.20259C4.59138 5.2022 4.59155 5.20184 5.27535 5.50992L4.59155 5.20184C4.7019 4.9569 4.93484 4.7897 5.2022 4.76349C5.46957 4.73729 5.73053 4.8561 5.88634 5.07495C6.58482 6.05609 7.51919 6.85264 8.60697 7.39274C9.47658 7.82453 10.4223 8.08152 11.3892 8.15133C11.3829 7.31345 11.635 6.49413 12.1111 5.80228C12.5918 5.1038 13.2771 4.56942 14.0732 4.26968ZM5.5759 7.02856C5.43367 7.6342 5.31892 8.40612 5.35722 9.23717C5.40023 10.1707 5.63523 11.1639 6.22823 12.0875C6.81843 13.0068 7.79268 13.9034 9.38987 14.6036C9.64068 14.7136 9.81161 14.9515 9.83579 15.2243C9.85998 15.4971 9.73356 15.7613 9.50602 15.9137C8.65834 16.4813 7.73027 16.9079 6.75849 17.1833C9.18317 17.7942 11.6142 17.5041 13.6021 16.4603C16.3011 15.0433 18.2535 12.2015 18.2535 8.14316V7.86538C18.2535 7.66289 18.3354 7.469 18.4805 7.32781C18.7438 7.07166 18.9238 6.76448 19.0674 6.40189C18.8415 6.47948 18.6055 6.55102 18.3476 6.62762C18.0675 6.71081 17.7647 6.6238 17.5715 6.40466C17.2139 5.99907 16.7374 5.71022 16.2055 5.57895C15.6736 5.44766 15.1136 5.48075 14.6018 5.67347C14.09 5.86615 13.6524 6.20856 13.3468 6.65263C13.0413 7.09655 12.8821 7.62115 12.8894 8.15554L12.8895 8.16573H12.8894V8.91808C12.8894 9.32483 12.5652 9.65744 12.1586 9.66784C10.6965 9.70524 9.24726 9.38539 7.93989 8.73625C7.05902 8.29888 6.26073 7.72104 5.5759 7.02856ZM5.95981 5.81654C5.95983 5.8165 5.95983 5.81649 5.95982 5.81652Z" fill="currentColor"/>
</svg>
