<svg width="24" height="24" viewBox="0 0 24 24" fill="none" xmlns="http://www.w3.org/2000/svg">
<path fill-rule="evenodd" clip-rule="evenodd" d="M14.5 5C12.0147 5 10 7.01472 10 9.5C10 11.9853 12.0147 14 14.5 14C16.9853 14 19 11.9853 19 9.5C19 7.01472 16.9853 5 14.5 5ZM8.5 9.5C8.5 9.38577 8.50319 9.27229 8.50949 9.15963C7.87839 9.93425 7.5 10.9229 7.5 12C7.5 14.4853 9.51472 16.5 12 16.5C13.0771 16.5 14.0657 16.1216 14.8403 15.4905C14.7277 15.4968 14.6142 15.5 14.5 15.5C11.1863 15.5 8.5 12.8137 8.5 9.5ZM6.69479 9.19478C7.25811 8.13164 8.13165 7.2581 9.1948 6.69478C10.2017 4.79451 12.1997 3.5 14.5 3.5C17.8137 3.5 20.5 6.18629 20.5 9.5C20.5 11.8003 19.2055 13.7983 17.3052 14.8052C16.7419 15.8683 15.8683 16.7419 14.8052 17.3052C13.7983 19.2055 11.8003 20.5 9.5 20.5C6.18629 20.5 3.5 17.8137 3.5 14.5C3.5 12.1997 4.79451 10.2017 6.69479 9.19478ZM12.3404 17.9905C12.2277 17.9968 12.1142 18 12 18C8.68629 18 6 15.3137 6 12C6 11.8858 6.00319 11.7723 6.00949 11.6596C5.37839 12.4343 5 13.4229 5 14.5C5 16.9853 7.01472 19 9.5 19C10.5771 19 11.5657 18.6216 12.3404 17.9905Z" fill="currentColor"/>
</svg>
