<svg width="24" height="24" viewBox="0 0 24 24" fill="none" xmlns="http://www.w3.org/2000/svg">
  <path fill-rule="evenodd" clip-rule="evenodd"
    d="M11.6874 5.07266C11.6871 5.07277 11.6869 5.07288 11.6867 5.073L6.44022 7.67782L12 10.4382L17.5599 7.67782L12.3134 5.073C12.3132 5.07289 12.313 5.07277 12.3127 5.07266C12.2158 5.02495 12.1088 5 12 5C11.8913 5 11.7843 5.02495 11.6874 5.07266ZM18.5 8.88575L12.75 11.7406V18.7084L18.1118 16.0464L18.1134 16.0456C18.2304 15.9878 18.3282 15.8992 18.3962 15.7903C18.4642 15.6814 18.5 15.5563 18.5 15.4291V8.88575ZM11.25 18.712V11.7406L5.50006 8.88575V15.4223C5.50006 15.5547 5.53642 15.6843 5.6015 15.79C5.66873 15.8993 5.76575 15.9885 5.88224 16.0469C5.88254 16.0471 5.88285 16.0473 5.88315 16.0474L11.25 18.712ZM5.22294 6.60749L11.0213 3.72866L11.0229 3.72784C11.3268 3.5779 11.6612 3.5 12 3.5C12.3389 3.5 12.6733 3.5779 12.9772 3.72784L12.9788 3.72866L18.7771 6.60749C18.7775 6.60764 18.7778 6.60779 18.7781 6.60794C19.1438 6.78862 19.4523 7.06732 19.6685 7.41341C19.8848 7.75985 19.9998 8.15982 20 8.56831V8.56872V15.4295V15.4299C19.9998 15.8384 19.8848 16.2384 19.6685 16.5848C19.4523 16.931 19.1436 17.2097 18.7778 17.3904C18.7776 17.3905 18.7774 17.3906 18.7771 17.3907L12.979 20.2694C12.979 20.2695 12.9789 20.2695 12.9788 20.2695C12.6736 20.4212 12.3372 20.5 11.9964 20.5C11.6556 20.5 11.3193 20.4212 11.014 20.2695C11.014 20.2695 11.0139 20.2695 11.0138 20.2694L5.21403 17.3899L5.21197 17.3889C4.8462 17.2059 4.53845 16.9246 4.32404 16.5762C4.10729 16.224 4.00006 15.8203 4.00006 15.4223V8.56872L4.00006 8.56831C4.00028 8.15982 4.11527 7.75985 4.33162 7.41341C4.54776 7.06731 4.8563 6.78861 5.22204 6.60794C5.22234 6.60779 5.22264 6.60764 5.22294 6.60749Z"
    fill="currentColor" />
</svg>