<svg width="15" height="14" viewBox="0 0 15 14" fill="none" xmlns="http://www.w3.org/2000/svg">
<path fill-rule="evenodd" clip-rule="evenodd" d="M2.58208 9.6717H6.40437L7.21084 12H9L5.26581 2H3.72741L0 12H1.78238L2.58208 9.6717ZM5.92319 8.2706H3.06325L4.49322 4.12225L5.92319 8.2706ZM9.64645 4.85355C9.45118 4.65829 9.45118 4.34171 9.64645 4.14645L11.6464 2.14645C11.8417 1.95118 12.1583 1.95118 12.3535 2.14645L14.3536 4.14645C14.5488 4.34171 14.5488 4.65829 14.3536 4.85355C14.1583 5.04882 13.8417 5.04882 13.6464 4.85355L12 3.20711L10.3536 4.85355C10.1583 5.04882 9.84171 5.04882 9.64645 4.85355Z" fill="currentColor"/>
</svg>
