<svg width="24" height="24" viewBox="0 0 24 24" fill="none" xmlns="http://www.w3.org/2000/svg">
<path fill-rule="evenodd" clip-rule="evenodd" d="M7 9.97924C7 7.23184 9.23602 5 12 5C14.764 5 17 7.23184 17 9.97924C17 10.4692 16.8099 11.1618 16.4385 12.0098C16.0747 12.8404 15.5689 13.75 15.0097 14.6511C13.9405 16.3741 12.7099 18.0129 12 18.9237C11.2901 18.0129 10.0595 16.3741 8.9903 14.6511C8.43111 13.75 7.92526 12.8404 7.56148 12.0098C7.19013 11.1618 7 10.4692 7 9.97924ZM12 3.5C8.41271 3.5 5.5 6.3983 5.5 9.97924C5.5 10.7851 5.792 11.7085 6.18747 12.6115C6.59052 13.5318 7.13619 14.508 7.71576 15.442C8.87556 17.311 10.208 19.0694 10.9129 19.9686C11.4684 20.6771 12.5316 20.6771 13.0871 19.9686C13.792 19.0694 15.1244 17.311 16.2842 15.442C16.8638 14.508 17.4095 13.5318 17.8125 12.6115C18.208 11.7085 18.5 10.7851 18.5 9.97924C18.5 6.3983 15.5873 3.5 12 3.5ZM10.6964 9.57001C10.6964 8.85671 11.2775 8.27385 12 8.27385C12.7225 8.27385 13.3036 8.85671 13.3036 9.57001C13.3036 10.2833 12.7225 10.8662 12 10.8662C11.2775 10.8662 10.6964 10.2833 10.6964 9.57001ZM12 6.77385C10.4542 6.77385 9.19641 8.02318 9.19641 9.57001C9.19641 11.1168 10.4542 12.3662 12 12.3662C13.5458 12.3662 14.8036 11.1168 14.8036 9.57001C14.8036 8.02318 13.5458 6.77385 12 6.77385Z" fill="currentColor"/>
</svg>
