<svg width="24" height="24" viewBox="0 0 24 24" fill="none" xmlns="http://www.w3.org/2000/svg">
  <path fill-rule="evenodd" clip-rule="evenodd"
    d="M10.6794 18.363L13.1576 19.6015L12.5 21C12.5 21 11.7744 22 11 22C9.5 22 10.5 22 9.50001 22C9.00003 22 9.64074 20.5564 9.80295 20.2045C10.1617 19.4267 10.6794 18.363 10.6794 18.363ZM15.4485 3.04928C15.794 2.91925 21.5101 5.82883 21.6091 6.19257C21.724 6.61638 18.1992 15.0647 17.6925 16.3658C17.5228 16.8037 16.8168 17.1765 16.0055 17.607C15.2664 17.9999 14.0044 19.3641 13.6625 19.1958C12.4817 18.6166 11.8697 18.37 10.8239 17.7153C10.3976 17.4495 10.6696 15.9792 10.5037 15.0466C10.3621 14.248 9.70581 13.3093 10.0401 12.6872C10.664 11.5261 15.0405 3.20283 15.4485 3.04928ZM15.8702 4.44825L20.3447 6.73349L16.5185 15.5773L11.4282 13.0105L15.8702 4.44825Z"
    fill="currentColor" />
  <path opacity="0.3" d="M1 21C1 20.4477 1.44772 20 2 20H11V22H2C1.44772 22 1 21.5523 1 21V21Z" fill="currentColor" />
</svg>
