<svg width="24" height="24" viewBox="0 0 24 24" fill="none" xmlns="http://www.w3.org/2000/svg">
<path fill-rule="evenodd" clip-rule="evenodd" d="M12.5 4.5V5.25V19.25V20H11V19.25V5.25V4.5H12.5ZM7 7C6.72386 7 6.5 7.22386 6.5 7.5V17C6.5 17.2761 6.72386 17.5 7 17.5H8.25H9V19H8.25H7C5.89543 19 5 18.1046 5 17V7.5C5 6.39543 5.89543 5.5 7 5.5H8.25H9V7H8.25H7ZM16 5.5H14.5V7H16V5.5ZM17.5 5.5C18.3284 5.5 19 6.17157 19 7H17.5V5.5ZM19 17.5H17.5V19C18.3284 19 19 18.3284 19 17.5ZM14.5 17.5H16V19H14.5V17.5ZM19 14.5H17.5V16H19V14.5ZM17.5 11.5H19V13H17.5V11.5ZM19 8.5H17.5V10H19V8.5Z" fill="currentColor"/>
</svg>
