<svg width="24" height="24" viewBox="0 0 24 24" fill="none" xmlns="http://www.w3.org/2000/svg">
<path fill-rule="evenodd" clip-rule="evenodd" d="M11.6873 4.57266C11.6871 4.57277 11.6869 4.57288 11.6866 4.573L6.44019 7.17782L12 9.93824L17.5598 7.17782L12.3134 4.573C12.3132 4.57289 12.3129 4.57277 12.3127 4.57266C12.2158 4.52495 12.1087 4.5 12 4.5C11.8913 4.5 11.7843 4.52495 11.6873 4.57266ZM18.5 8.38575L12.75 11.2406V18.2084L18.1117 15.5464L18.1134 15.5456C18.2304 15.4878 18.3281 15.3992 18.3962 15.2903C18.4641 15.1814 18.4999 15.0563 18.5 14.9291V8.38575ZM11.25 18.212V11.2406L5.50004 8.38575V14.9223C5.50004 15.0547 5.53639 15.1843 5.60147 15.29C5.66871 15.3993 5.76573 15.4885 5.88221 15.5469C5.88252 15.5471 5.88282 15.5473 5.88312 15.5474L11.25 18.212ZM5.22291 6.10749L11.0212 3.22866L11.0229 3.22784C11.3268 3.0779 11.6612 3 12 3C12.3388 3 12.6733 3.0779 12.9771 3.22784L12.9788 3.22866L18.7771 6.10749C18.7774 6.10764 18.7777 6.10779 18.778 6.10794C19.1438 6.28862 19.4523 6.56732 19.6684 6.91341C19.8848 7.25985 19.9998 7.65982 20 8.06831V8.06872V14.9295V14.9299C19.9998 15.3384 19.8848 15.7384 19.6684 16.0848C19.4523 16.431 19.1436 16.7097 18.7778 16.8904C18.7775 16.8905 18.7773 16.8906 18.7771 16.8907L12.979 19.7694C12.9789 19.7695 12.9789 19.7695 12.9788 19.7695C12.6735 19.9212 12.3372 20 11.9964 20C11.6556 20 11.3192 19.9212 11.014 19.7695C11.0139 19.7695 11.0139 19.7695 11.0138 19.7694L5.21401 16.8899L5.21194 16.8889C4.84617 16.7059 4.53843 16.4246 4.32401 16.0762C4.10726 15.724 4.00004 15.3203 4.00004 14.9223V8.06872L4.00004 8.06831C4.00025 7.65982 4.11525 7.25985 4.33159 6.91341C4.54773 6.56731 4.85627 6.28861 5.22201 6.10794C5.22231 6.10779 5.22261 6.10764 5.22291 6.10749Z" fill="currentColor"/>
</svg>
