<svg width="24" height="24" viewBox="0 0 24 24" fill="none" xmlns="http://www.w3.org/2000/svg">
<path fill-rule="evenodd" clip-rule="evenodd" d="M12 4C11.1714 4 10.5 4.67137 10.5 5.5C10.5 6.32863 11.1714 7 12 7C12.8286 7 13.5 6.32863 13.5 5.5C13.5 4.67137 12.8286 4 12 4ZM12 10.5C11.1714 10.5 10.5 11.1714 10.5 12C10.5 12.8286 11.1714 13.5 12 13.5C12.8286 13.5 13.5 12.8286 13.5 12C13.5 11.1714 12.8286 10.5 12 10.5ZM10.5 18.5C10.5 17.6714 11.1714 17 12 17C12.8286 17 13.5 17.6714 13.5 18.5C13.5 19.3286 12.8286 20 12 20C11.1714 20 10.5 19.3286 10.5 18.5Z" fill="currentColor"/>
</svg>
