<svg width="14" height="14" viewBox="0 0 14 14" fill="none" xmlns="http://www.w3.org/2000/svg">
<path fill-rule="evenodd" clip-rule="evenodd" d="M0.5 0C0.776142 0 1 0.223858 1 0.5V13.5C1 13.7761 0.776142 14 0.5 14C0.223858 14 0 13.7761 0 13.5V0.5C0 0.223858 0.223858 0 0.5 0ZM7.98117 9.13736H5.00828L4.3863 11H3L5.8991 3H7.09563L10 11H8.60843L7.98117 9.13736ZM5.38253 8.01648H7.60693L6.49473 4.6978L5.38253 8.01648ZM13 0.5C13 0.223858 12.7761 0 12.5 0C12.2239 0 12 0.223858 12 0.5V13.5C12 13.7761 12.2239 14 12.5 14C12.7761 14 13 13.7761 13 13.5V0.5Z" fill="currentColor"/>
</svg>
