<svg width="14" height="14" viewBox="0 0 14 14" fill="none" xmlns="http://www.w3.org/2000/svg">
<path fill-rule="evenodd" clip-rule="evenodd" d="M0 0.5C0 0.223858 0.223858 0 0.5 0H12.5C12.7761 0 13 0.223858 13 0.5C13 0.776142 12.7761 1 12.5 1H0.5C0.223858 1 0 0.776142 0 0.5ZM7.98117 9.13736H5.00828L4.3863 11H3L5.8991 3H7.09563L10 11H8.60843L7.98117 9.13736ZM5.38253 8.01648H7.60693L6.49473 4.6978L5.38253 8.01648ZM0.5 13C0.223858 13 0 13.2239 0 13.5C0 13.7761 0.223858 14 0.5 14H12.5C12.7761 14 13 13.7761 13 13.5C13 13.2239 12.7761 13 12.5 13H0.5Z" fill="currentColor"/>
</svg>
