<svg width="24" height="24" viewBox="0 0 24 24" fill="none" xmlns="http://www.w3.org/2000/svg">
  <path fill-rule="evenodd" clip-rule="evenodd"
    d="M4.46963 4.46969C4.67568 4.26364 4.98242 4.19559 5.25627 4.29518L18.2563 9.02245C18.5486 9.12874 18.7449 9.40441 18.7499 9.71539C18.7548 10.0264 18.5673 10.3081 18.2785 10.4237L13.4255 12.3649L18.5303 17.4697C18.8232 17.7626 18.8232 18.2375 18.5303 18.5304C18.2374 18.8232 17.7625 18.8232 17.4696 18.5304L12.3648 13.4255L10.4236 18.2786C10.3081 18.5673 10.0263 18.7549 9.71533 18.7499C9.40435 18.745 9.12868 18.5486 9.02239 18.2563L4.29512 5.25633C4.19553 4.98248 4.26358 4.67574 4.46963 4.46969ZM6.25404 6.2541L9.7606 15.8972L11.3945 11.8124C11.4707 11.6218 11.6217 11.4708 11.8123 11.3946L15.8971 9.76066L6.25404 6.2541Z"
    fill="currentColor" />
</svg>