<svg width="24" height="24" viewBox="0 0 24 24" fill="none" xmlns="http://www.w3.org/2000/svg">
<path fill-rule="evenodd" clip-rule="evenodd" d="M12.5 5.25C12.5 4.83579 12.1642 4.5 11.75 4.5C11.3358 4.5 11 4.83579 11 5.25V8H9.75C9.33579 8 9 8.33579 9 8.75C9 9.16421 9.33579 9.5 9.75 9.5H11.75H13.75C14.1642 9.5 14.5 9.16421 14.5 8.75C14.5 8.33579 14.1642 8 13.75 8H12.5V5.25ZM8.25 12H6.25L4.25 12C3.83579 12 3.5 12.3358 3.5 12.75C3.5 13.1642 3.83579 13.5 4.25 13.5H5.5L5.5 18.25C5.5 18.6642 5.83579 19 6.25 19C6.66421 19 7 18.6642 7 18.25L7 13.5H8.25C8.66421 13.5 9 13.1642 9 12.75C9 12.3358 8.66421 12 8.25 12ZM15 14.25C15 13.8358 15.3358 13.5 15.75 13.5H17.75H19.75C20.1642 13.5 20.5 13.8358 20.5 14.25C20.5 14.6642 20.1642 15 19.75 15H18.5V18.25C18.5 18.6642 18.1642 19 17.75 19C17.3358 19 17 18.6642 17 18.25V15H15.75C15.3358 15 15 14.6642 15 14.25ZM7 5.25C7 4.83579 6.66421 4.5 6.25 4.5C5.83579 4.5 5.5 4.83579 5.5 5.25V9.75C5.5 10.1642 5.83579 10.5 6.25 10.5C6.66421 10.5 7 10.1642 7 9.75V5.25ZM17.75 4.5C18.1642 4.5 18.5 4.83579 18.5 5.25V11.25C18.5 11.6642 18.1642 12 17.75 12C17.3358 12 17 11.6642 17 11.25V5.25C17 4.83579 17.3358 4.5 17.75 4.5ZM12.5 11.75C12.5 11.3358 12.1642 11 11.75 11C11.3358 11 11 11.3358 11 11.75V18.25C11 18.6642 11.3358 19 11.75 19C12.1642 19 12.5 18.6642 12.5 18.25V11.75Z" fill="currentColor"/>
</svg>
