<svg width="24" height="24" viewBox="0 0 24 24" fill="none" xmlns="http://www.w3.org/2000/svg">
  <path fill-rule="evenodd" clip-rule="evenodd"
    d="M10.2677 14.1652L11.626 17.9194C11.6824 18.0753 11.7984 18.2025 11.9485 18.2729C12.0986 18.3433 12.2705 18.3512 12.4264 18.2948C12.5824 18.2384 12.7095 18.1224 12.7799 17.9723C12.8503 17.8222 12.8582 17.6503 12.8018 17.4944L8.56851 5.80271C8.48302 5.56748 8.32719 5.36425 8.12219 5.22064C7.9172 5.07704 7.67297 5 7.42268 5C7.17239 5 6.92816 5.07704 6.72317 5.22064C6.51817 5.36425 6.36234 5.56748 6.27685 5.80271L2.04351 17.4944C2.01288 17.5721 1.99815 17.6552 2.00019 17.7388C2.00223 17.8223 2.021 17.9046 2.05539 17.9807C2.08979 18.0569 2.1391 18.1254 2.20043 18.1822C2.26175 18.2389 2.33383 18.2828 2.41242 18.3112C2.491 18.3397 2.57448 18.352 2.65793 18.3476C2.74138 18.3432 2.82309 18.3221 2.89825 18.2856C2.9734 18.2491 3.04047 18.1978 3.09548 18.1349C3.15049 18.072 3.19232 17.9987 3.21851 17.9194L4.57768 14.1652H10.2677ZM9.81435 12.9152L7.42268 6.30855L5.03101 12.9152H9.81435V12.9152ZM14.0443 9.91688C14.8052 8.51438 16.2968 8.07938 17.6143 8.07938C18.4868 8.07938 19.351 8.33938 20.0127 8.81688C20.6802 9.29771 21.1727 10.0294 21.1727 10.9402V17.7069C21.1727 17.8726 21.1068 18.0316 20.9896 18.1488C20.8724 18.266 20.7134 18.3319 20.5477 18.3319C20.3819 18.3319 20.2229 18.266 20.1057 18.1488C19.9885 18.0316 19.9227 17.8726 19.9227 17.7069V17.6569C19.9105 17.6639 19.8983 17.6709 19.886 17.6777C19.1418 18.111 18.1393 18.3319 17.0102 18.3319C16.1343 18.3319 15.3035 18.0694 14.681 17.5419C14.0477 17.006 13.6668 16.2269 13.6668 15.2902C13.6668 14.5244 13.9577 13.7394 14.6402 13.1544C15.3152 12.576 16.3068 12.2485 17.6143 12.2485H19.9227V10.9402C19.9227 10.521 19.7035 10.1344 19.2818 9.83021C18.8543 9.52188 18.2527 9.33021 17.6143 9.33021C16.5152 9.33021 15.5902 9.68855 15.1427 10.5135C15.0626 10.6575 14.929 10.764 14.7709 10.81C14.6127 10.8559 14.4428 10.8376 14.2981 10.759C14.1534 10.6804 14.0456 10.5478 13.998 10.3901C13.9505 10.2324 13.9672 10.0624 14.0443 9.91688V9.91688ZM19.9227 13.4985H17.6143C16.5052 13.4985 15.836 13.776 15.4535 14.1035C15.2815 14.2491 15.1442 14.4311 15.0513 14.6363C14.9585 14.8416 14.9126 15.065 14.9168 15.2902C14.9168 15.8644 15.1393 16.2927 15.4885 16.5877C15.8468 16.8919 16.376 17.0819 17.0102 17.0819C17.996 17.0819 18.7618 16.886 19.2577 16.5977C19.7427 16.3144 19.9227 15.981 19.9227 15.6527V13.4985Z"
    fill="currentColor" />
</svg>
