<svg width="24" height="24" viewBox="0 0 24 24" fill="none" xmlns="http://www.w3.org/2000/svg">
<path fill-rule="evenodd" clip-rule="evenodd" d="M6.25 4C5.00736 4 4 5.00736 4 6.25V17.25C4 18.4926 5.00736 19.5 6.25 19.5H17.25C18.4926 19.5 19.5 18.4926 19.5 17.25V6.25C19.5 5.00736 18.4926 4 17.25 4H6.25ZM5.5 6.25C5.5 5.83579 5.83579 5.5 6.25 5.5H17.25C17.6642 5.5 18 5.83579 18 6.25V17.25C18 17.6642 17.6642 18 17.25 18H6.25C5.83579 18 5.5 17.6642 5.5 17.25V6.25ZM11.0004 15.2501L11.0004 16.0001L12.5004 16L12.5004 15.25L12.5001 10.3108L13.7197 11.5303L14.25 12.0607L15.3107 11L14.7804 10.4697L12.2804 7.96969L11.7501 7.43936L11.2197 7.96969L8.7197 10.4697L8.18937 11L9.25003 12.0607L9.78036 11.5304L11.0001 10.3106L11.0004 15.2501Z" fill="currentColor"/>
</svg>
