<svg width="24" height="24" viewBox="0 0 24 24" fill="none" xmlns="http://www.w3.org/2000/svg">
<path fill-rule="evenodd" clip-rule="evenodd" d="M4 6.25C4 5.00736 5.00736 4 6.25 4H17.25C18.4926 4 19.5 5.00736 19.5 6.25V17.25C19.5 18.4926 18.4926 19.5 17.25 19.5H6.25C5.00736 19.5 4 18.4926 4 17.25V6.25ZM6.25 5.5C5.83579 5.5 5.5 5.83579 5.5 6.25V17.25C5.5 17.6642 5.83579 18 6.25 18H17.25C17.6642 18 18 17.6642 18 17.25V6.25C18 5.83579 17.6642 5.5 17.25 5.5H6.25ZM11.5 9C10.1193 9 9 10.1193 9 11.5C9 12.8807 10.1193 14 11.5 14C12.8807 14 14 12.8807 14 11.5C14 10.1193 12.8807 9 11.5 9ZM7.5 11.5C7.5 9.29086 9.29086 7.5 11.5 7.5C13.7091 7.5 15.5 9.29086 15.5 11.5C15.5 12.3335 15.245 13.1075 14.8089 13.7482L16.2803 15.2197L16.8107 15.75L15.75 16.8107L15.2197 16.2803L13.7482 14.8089C13.1075 15.245 12.3335 15.5 11.5 15.5C9.29086 15.5 7.5 13.7091 7.5 11.5Z" fill="currentColor"/>
</svg>
