<svg width="24" height="24" viewBox="0 0 24 24" fill="none" xmlns="http://www.w3.org/2000/svg">
<path fill-rule="evenodd" clip-rule="evenodd" d="M6.25 4C5.00736 4 4 5.00736 4 6.25V17.25C4 18.4926 5.00736 19.5 6.25 19.5H17.25C18.4926 19.5 19.5 18.4926 19.5 17.25V6.25C19.5 5.00736 18.4926 4 17.25 4H6.25ZM5.5 6.25C5.5 5.83579 5.83579 5.5 6.25 5.5H17.25C17.6642 5.5 18 5.83579 18 6.25V17.25C18 17.6642 17.6642 18 17.25 18H6.25C5.83579 18 5.5 17.6642 5.5 17.25V6.25ZM13.0303 8.71967L12.5 8.18934L11.4393 9.25L11.9697 9.78033L13.1893 11H8.25H7.5V12.5H8.25H13.1893L11.9697 13.7197L11.4394 14.25L12.5 15.3107L13.0304 14.7803L15.5303 12.2804L16.0607 11.75L15.5303 11.2197L13.0303 8.71967Z" fill="currentColor"/>
</svg>
