<svg width="24" height="24" viewBox="0 0 24 24" fill="none" xmlns="http://www.w3.org/2000/svg">
<path fill-rule="evenodd" clip-rule="evenodd" d="M4.75 5C3.50736 5 2.5 6.00736 2.5 7.25V15.75C2.5 16.9926 3.50736 18 4.75 18H19.25C20.4926 18 21.5 16.9926 21.5 15.75V7.25C21.5 6.00736 20.4926 5 19.25 5H4.75ZM4 7.25C4 6.83579 4.33579 6.5 4.75 6.5H19.25C19.6642 6.5 20 6.83579 20 7.25V15.75C20 16.1642 19.6642 16.5 19.25 16.5H4.75C4.33579 16.5 4 16.1642 4 15.75V7.25ZM8.25 19H7.5V20.5H8.25H15.75H16.5V19H15.75H8.25Z" fill="currentColor"/>
</svg>
