<svg width="24" height="24" viewBox="0 0 24 24" fill="none" xmlns="http://www.w3.org/2000/svg">
<path fill-rule="evenodd" clip-rule="evenodd" d="M3 7.25C3 6.00736 4.00736 5 5.25 5H18.75C19.9926 5 21 6.00736 21 7.25V14.75C21 15.9926 19.9926 17 18.75 17H12.75V19H15.25H16V20.5H15.25H12.75H11.25H8.75H8V19H8.75H11.25V17H5.25C4.00736 17 3 15.9926 3 14.75V7.25ZM11.25 15.5H12.75H18.75C19.1642 15.5 19.5 15.1642 19.5 14.75V7.25C19.5 6.83579 19.1642 6.5 18.75 6.5H5.25C4.83579 6.5 4.5 6.83579 4.5 7.25V14.75C4.5 15.1642 4.83579 15.5 5.25 15.5H11.25Z" fill="currentColor"/>
</svg>
