<svg width="24" height="24" viewBox="0 0 24 24" fill="none" xmlns="http://www.w3.org/2000/svg">
<path fill-rule="evenodd" clip-rule="evenodd" d="M5.25 5C4.00736 5 3 6.00736 3 7.25V14.75C3 15.9926 4.00736 17 5.25 17H18.75C19.9926 17 21 15.9926 21 14.75V7.25C21 6.00736 19.9926 5 18.75 5H5.25ZM4.5 7.25C4.5 6.83579 4.83579 6.5 5.25 6.5H18.75C19.1642 6.5 19.5 6.83579 19.5 7.25V14.75C19.5 15.1642 19.1642 15.5 18.75 15.5H5.25C4.83579 15.5 4.5 15.1642 4.5 14.75V7.25ZM3.75 18.5H3V20H3.75H20.25H21V18.5H20.25H3.75Z" fill="currentColor"/>
</svg>
