<svg width="24" height="24" viewBox="0 0 24 24" fill="none" xmlns="http://www.w3.org/2000/svg">
<path fill-rule="evenodd" clip-rule="evenodd" d="M5.25 5.5C4.00736 5.5 3 6.50736 3 7.75V16.25C3 17.4926 4.00736 18.5 5.25 18.5H18.75C19.9926 18.5 21 17.4926 21 16.25V7.75C21 6.50736 19.9926 5.5 18.75 5.5H5.25ZM4.5 7.75C4.5 7.33579 4.83579 7 5.25 7H18.75C19.1642 7 19.5 7.33579 19.5 7.75V16.25C19.5 16.6642 19.1642 17 18.75 17H5.25C4.83579 17 4.5 16.6642 4.5 16.25V7.75ZM16.5 14.25V15H18V14.25L18 9.75V9L16.5 9V9.75L16.5 14.25Z" fill="currentColor"/>
</svg>
