<svg width="24" height="24" viewBox="0 0 24 24" fill="none" xmlns="http://www.w3.org/2000/svg">
<path fill-rule="evenodd" clip-rule="evenodd" d="M8.25 4C7.00736 4 6 5.00736 6 6.25V17.75C6 18.9926 7.00736 20 8.25 20H15.75C16.9926 20 18 18.9926 18 17.75V6.25C18 5.00736 16.9926 4 15.75 4H8.25ZM7.5 6.25C7.5 5.83579 7.83579 5.5 8.25 5.5H15.75C16.1642 5.5 16.5 5.83579 16.5 6.25V17.75C16.5 18.1642 16.1642 18.5 15.75 18.5H8.25C7.83579 18.5 7.5 18.1642 7.5 17.75V6.25ZM10.25 15.5H9.5V17H10.25H13.75H14.5V15.5H13.75H10.25Z" fill="currentColor"/>
</svg>
